M48
METRIC
T1C0.300
T2C0.500
T3C0.800
T4C0.900
T5C0.950
T6C1.000
T7C1.100
T8C1.200
T9C1.700
T10C3.200
T11C2.750
%
G90
G05
T1
X102.0Y-64.0
X106.87Y-65.0
X126.0Y-52.0
X149.0Y-86.415
T2
X99.6Y-43.0
X99.6Y-113.0
X100.303Y-41.303
X100.303Y-44.697
X100.303Y-111.303
X100.303Y-114.697
X102.0Y-40.6
X102.0Y-45.4
X102.0Y-110.6
X102.0Y-115.4
X103.697Y-41.303
X103.697Y-44.697
X103.697Y-111.303
X103.697Y-114.697
X104.4Y-43.0
X104.4Y-113.0
X169.6Y-43.0
X169.6Y-113.0
X170.303Y-41.303
X170.303Y-44.697
X170.303Y-111.303
X170.303Y-114.697
X172.0Y-40.6
X172.0Y-45.4
X172.0Y-110.6
X172.0Y-115.4
X173.697Y-41.303
X173.697Y-44.697
X173.697Y-111.303
X173.697Y-114.697
X174.4Y-43.0
X174.4Y-113.0
T3
X122.0Y-40.38
X122.0Y-55.62
X129.0Y-40.38
X129.0Y-55.62
X159.0Y-90.38
X159.0Y-105.62
X164.0Y-90.38
X164.0Y-105.62
X167.0Y-61.5
X167.0Y-64.0
X167.0Y-75.5
X167.0Y-78.0
X169.0Y-90.38
X169.0Y-105.62
X170.5Y-62.0
X173.0Y-62.0
X174.0Y-65.38
X174.0Y-80.62
T4
X160.0Y-112.0
X162.54Y-112.0
X174.0Y-93.0
X174.0Y-95.54
X174.0Y-101.46
X174.0Y-104.0
T5
X164.0Y-42.5
X164.0Y-45.0
X164.0Y-47.5
X164.0Y-50.0
T6
X100.0Y-99.033
X106.87Y-59.23
X106.87Y-61.77
X109.41Y-59.23
X109.41Y-61.77
X110.5Y-113.0
X110.871Y-104.392
X111.95Y-59.23
X111.95Y-61.77
X112.725Y-99.0
X113.0Y-113.0
X114.49Y-59.23
X114.49Y-61.77
X116.68Y-94.0
X116.834Y-40.451
X116.859Y-42.991
X116.859Y-45.531
X116.859Y-48.071
X116.859Y-50.611
X116.859Y-53.151
X117.03Y-59.23
X117.03Y-61.77
X119.57Y-59.23
X119.57Y-61.77
X121.4Y-105.0
X121.416Y-112.0
X122.11Y-59.23
X122.11Y-61.77
X124.65Y-59.23
X124.65Y-61.77
X127.19Y-59.23
X127.19Y-61.77
X129.73Y-59.23
X129.73Y-61.77
X132.27Y-59.23
X132.27Y-61.77
X134.458Y-53.636
X134.81Y-59.23
X134.81Y-61.77
X136.998Y-53.636
X137.35Y-59.23
X137.35Y-61.77
X139.29Y-94.01
X139.538Y-53.636
X139.89Y-59.23
X139.89Y-61.77
X142.078Y-53.636
X142.43Y-59.23
X142.43Y-61.77
X144.618Y-53.636
X144.97Y-59.23
X144.97Y-61.77
X147.158Y-53.636
X147.51Y-59.23
X147.51Y-61.77
X149.698Y-53.636
X150.05Y-59.23
X150.05Y-61.77
X152.238Y-53.636
X152.59Y-59.23
X152.59Y-61.77
X154.36Y-105.009
X154.36Y-112.019
X154.778Y-53.636
X155.13Y-59.23
X155.13Y-61.77
X157.318Y-53.636
T7
X144.0Y-90.19
X144.0Y-97.81
X151.0Y-90.0
X151.0Y-97.62
T8
X171.46Y-54.46
T9
X168.92Y-51.92
X168.92Y-57.0
X174.0Y-51.92
X174.0Y-57.0
T10
X102.0Y-43.0
X102.0Y-113.0
X172.0Y-43.0
X172.0Y-113.0
T11
X102.0Y-60.5
X102.0Y-83.5
X160.0Y-60.5
X160.0Y-83.5
M30
