%TF.GenerationSoftware,KiCad,Pcbnew,9.0.4*%
%TF.CreationDate,2025-10-26T00:43:10+05:45*%
%TF.ProjectId,onboardcomputer,6f6e626f-6172-4646-936f-6d7075746572,rev?*%
%TF.SameCoordinates,Original*%
%TF.FileFunction,Copper,L2,Bot*%
%TF.FilePolarity,Positive*%
%FSLAX46Y46*%
G04 Gerber Fmt 4.6, Leading zero omitted, Abs format (unit mm)*
G04 Created by KiCad (PCBNEW 9.0.4) date 2025-10-26 00:43:10*
%MOMM*%
%LPD*%
G01*
G04 APERTURE LIST*
G04 Aperture macros list*
%AMRoundRect*
0 Rectangle with rounded corners*
0 $1 Rounding radius*
0 $2 $3 $4 $5 $6 $7 $8 $9 X,Y pos of 4 corners*
0 Add a 4 corners polygon primitive as box body*
4,1,4,$2,$3,$4,$5,$6,$7,$8,$9,$2,$3,0*
0 Add four circle primitives for the rounded corners*
1,1,$1+$1,$2,$3*
1,1,$1+$1,$4,$5*
1,1,$1+$1,$6,$7*
1,1,$1+$1,$8,$9*
0 Add four rect primitives between the rounded corners*
20,1,$1+$1,$2,$3,$4,$5,0*
20,1,$1+$1,$4,$5,$6,$7,0*
20,1,$1+$1,$6,$7,$8,$9,0*
20,1,$1+$1,$8,$9,$2,$3,0*%
G04 Aperture macros list end*
%TA.AperFunction,ComponentPad*%
%ADD10R,1.508000X1.508000*%
%TD*%
%TA.AperFunction,ComponentPad*%
%ADD11C,1.508000*%
%TD*%
%TA.AperFunction,ComponentPad*%
%ADD12C,2.240000*%
%TD*%
%TA.AperFunction,ComponentPad*%
%ADD13C,2.740000*%
%TD*%
%TA.AperFunction,ComponentPad*%
%ADD14O,1.600000X1.600000*%
%TD*%
%TA.AperFunction,ComponentPad*%
%ADD15C,0.800000*%
%TD*%
%TA.AperFunction,ComponentPad*%
%ADD16C,6.400000*%
%TD*%
%TA.AperFunction,ComponentPad*%
%ADD17RoundRect,0.250000X-0.725000X0.600000X-0.725000X-0.600000X0.725000X-0.600000X0.725000X0.600000X0*%
%TD*%
%TA.AperFunction,ComponentPad*%
%ADD18O,1.950000X1.700000*%
%TD*%
%TA.AperFunction,ComponentPad*%
%ADD19C,1.600000*%
%TD*%
%TA.AperFunction,ComponentPad*%
%ADD20R,1.800000X1.800000*%
%TD*%
%TA.AperFunction,ComponentPad*%
%ADD21C,1.800000*%
%TD*%
%TA.AperFunction,ComponentPad*%
%ADD22RoundRect,0.250000X-0.600000X-0.750000X0.600000X-0.750000X0.600000X0.750000X-0.600000X0.750000X0*%
%TD*%
%TA.AperFunction,ComponentPad*%
%ADD23O,1.700000X2.000000*%
%TD*%
%TA.AperFunction,ComponentPad*%
%ADD24RoundRect,0.249999X-0.850001X0.850001X-0.850001X-0.850001X0.850001X-0.850001X0.850001X0.850001X0*%
%TD*%
%TA.AperFunction,ComponentPad*%
%ADD25C,2.200000*%
%TD*%
%TA.AperFunction,ViaPad*%
%ADD26C,0.800000*%
%TD*%
%TA.AperFunction,Conductor*%
%ADD27C,0.200000*%
%TD*%
G04 APERTURE END LIST*
D10*
%TO.P,J3,1,3V3*%
%TO.N,+3.3V*%
X106870000Y-61770000D03*
D11*
%TO.P,J3,2,5V*%
%TO.N,Net-(J2-Pin_3)*%
X106870000Y-59230000D03*
%TO.P,J3,3,(SDA1)_GPIO2*%
%TO.N,Net-(J3-(SDA1)_GPIO2)*%
X109410000Y-61770000D03*
%TO.P,J3,4,5V*%
%TO.N,Net-(J2-Pin_3)*%
X109410000Y-59230000D03*
%TO.P,J3,5,(SCL1)_GPIO3*%
%TO.N,Net-(J3-(SCL1)_GPIO3)*%
X111950000Y-61770000D03*
%TO.P,J3,6,GND*%
%TO.N,GND*%
X111950000Y-59230000D03*
%TO.P,J3,7,(GCLK)_GPIO4*%
%TO.N,Net-(J3-(GCLK)_GPIO4)*%
X114490000Y-61770000D03*
%TO.P,J3,8,(TXD0)_GPIO14*%
%TO.N,unconnected-(J3-(TXD0)_GPIO14-Pad8)*%
X114490000Y-59230000D03*
%TO.P,J3,9,GND*%
%TO.N,GND*%
X117030000Y-61770000D03*
%TO.P,J3,10,(RXD0)_GPIO15*%
%TO.N,unconnected-(J3-(RXD0)_GPIO15-Pad10)*%
X117030000Y-59230000D03*
%TO.P,J3,11,GPIO17_(GEN0)*%
%TO.N,Net-(D3-A)*%
X119570000Y-61770000D03*
%TO.P,J3,12,GPIO18_(GEN1)*%
%TO.N,unconnected-(J3-GPIO18_(GEN1)-Pad12)*%
X119570000Y-59230000D03*
%TO.P,J3,13,GPIO27_(GEN2)*%
%TO.N,Net-(D5-A)*%
X122110000Y-61770000D03*
%TO.P,J3,14,GND*%
%TO.N,GND*%
X122110000Y-59230000D03*
%TO.P,J3,15,GPIO22_(GEN3)*%
%TO.N,Net-(D4-A)*%
X124650000Y-61770000D03*
%TO.P,J3,16,GPIO23_(GEN4)*%
%TO.N,unconnected-(J3-GPIO23_(GEN4)-Pad16)*%
X124650000Y-59230000D03*
%TO.P,J3,17,3V3*%
%TO.N,unconnected-(J3-3V3-Pad17)*%
X127190000Y-61770000D03*
%TO.P,J3,18,GPIO24_(GEN5)*%
%TO.N,unconnected-(J3-GPIO24_(GEN5)-Pad18)*%
X127190000Y-59230000D03*
%TO.P,J3,19,(SPI_MOSI)_GPIO10*%
%TO.N,unconnected-(J3-(SPI_MOSI)_GPIO10-Pad19)*%
X129730000Y-61770000D03*
%TO.P,J3,20,GND*%
%TO.N,GND*%
X129730000Y-59230000D03*
%TO.P,J3,21,(SPI_MISO)_GPIO9*%
%TO.N,unconnected-(J3-(SPI_MISO)_GPIO9-Pad21)*%
X132270000Y-61770000D03*
%TO.P,J3,22,GPIO25_(GEN6)*%
%TO.N,unconnected-(J3-GPIO25_(GEN6)-Pad22)*%
X132270000Y-59230000D03*
%TO.P,J3,23,(SPI_SCLK)_GPIO11*%
%TO.N,unconnected-(J3-(SPI_SCLK)_GPIO11-Pad23)*%
X134810000Y-61770000D03*
%TO.P,J3,24,(~{SPI_CE0})_GPIO8*%
%TO.N,unconnected-(J3-(~{SPI_CE0})_GPIO8-Pad24)*%
X134810000Y-59230000D03*
%TO.P,J3,25,GND*%
%TO.N,GND*%
X137350000Y-61770000D03*
%TO.P,J3,26,(~{SPI_CE1})_GPIO7*%
%TO.N,unconnected-(J3-(~{SPI_CE1})_GPIO7-Pad26)*%
X137350000Y-59230000D03*
%TO.P,J3,27,ID_SD*%
%TO.N,unconnected-(J3-ID_SD-Pad27)*%
X139890000Y-61770000D03*
%TO.P,J3,28,ID_SC*%
%TO.N,unconnected-(J3-ID_SC-Pad28)*%
X139890000Y-59230000D03*
%TO.P,J3,29,GPIO5*%
%TO.N,unconnected-(J3-GPIO5-Pad29)*%
X142430000Y-61770000D03*
%TO.P,J3,30,GND*%
%TO.N,GND*%
X142430000Y-59230000D03*
%TO.P,J3,31,GPIO6*%
%TO.N,unconnected-(J3-GPIO6-Pad31)*%
X144970000Y-61770000D03*
%TO.P,J3,32,GPIO12*%
%TO.N,unconnected-(J3-GPIO12-Pad32)*%
X144970000Y-59230000D03*
%TO.P,J3,33,GPIO13*%
%TO.N,unconnected-(J3-GPIO13-Pad33)*%
X147510000Y-61770000D03*
%TO.P,J3,34,GND*%
%TO.N,GND*%
X147510000Y-59230000D03*
%TO.P,J3,35,GPIO19*%
%TO.N,unconnected-(J3-GPIO19-Pad35)*%
X150050000Y-61770000D03*
%TO.P,J3,36,GPIO16*%
%TO.N,unconnected-(J3-GPIO16-Pad36)*%
X150050000Y-59230000D03*
%TO.P,J3,37,GPIO26*%
%TO.N,unconnected-(J3-GPIO26-Pad37)*%
X152590000Y-61770000D03*
%TO.P,J3,38,GPIO20*%
%TO.N,unconnected-(J3-GPIO20-Pad38)*%
X152590000Y-59230000D03*
%TO.P,J3,39,GND*%
%TO.N,GND*%
X155130000Y-61770000D03*
%TO.P,J3,40,GPIO21*%
%TO.N,unconnected-(J3-GPIO21-Pad40)*%
X155130000Y-59230000D03*
%TD*%
D12*
%TO.P,J_ANT1,1,In*%
%TO.N,Net-(J_ANT1-In)*%
X171460000Y-54460000D03*
D13*
%TO.P,J_ANT1,2,Ext*%
%TO.N,GND*%
X168920000Y-51920000D03*
X168920000Y-57000000D03*
X174000000Y-51920000D03*
X174000000Y-57000000D03*
%TD*%
D14*
%TO.P,b1,1,VCC*%
%TO.N,+3.3V*%
X116834000Y-40450800D03*
%TO.P,b1,2,GND*%
%TO.N,GND*%
X116859400Y-42990800D03*
%TO.P,b1,3,SCL*%
%TO.N,Net-(J3-(SCL1)_GPIO3)*%
X116859400Y-45530800D03*
%TO.P,b1,4,SDA*%
%TO.N,Net-(J3-(SDA1)_GPIO2)*%
X116859400Y-48070800D03*
%TO.P,b1,5,CSB*%
%TO.N,unconnected-(b1-CSB-Pad5)*%
X116859400Y-50610800D03*
%TO.P,b1,6,SDD*%
%TO.N,unconnected-(b1-SDD-Pad6)*%
X116859400Y-53150800D03*
%TD*%
D15*
%TO.P,REF\u002A\u002A,1*%
%TO.N,N/C*%
X169600000Y-113000000D03*
X170302944Y-111302944D03*
X170302944Y-114697056D03*
X172000000Y-110600000D03*
D16*
X172000000Y-113000000D03*
D15*
X172000000Y-115400000D03*
X173697056Y-111302944D03*
X173697056Y-114697056D03*
X174400000Y-113000000D03*
%TD*%
D17*
%TO.P,J_I2C_OUT1,1,Pin_1*%
%TO.N,+3.3V*%
X164000000Y-42500000D03*
D18*
%TO.P,J_I2C_OUT1,2,Pin_2*%
%TO.N,GND*%
X164000000Y-45000000D03*
%TO.P,J_I2C_OUT1,3,Pin_3*%
%TO.N,Net-(J3-(SDA1)_GPIO2)*%
X164000000Y-47500000D03*
%TO.P,J_I2C_OUT1,4,Pin_4*%
%TO.N,Net-(J3-(SCL1)_GPIO3)*%
X164000000Y-50000000D03*
%TD*%
D19*
%TO.P,R1,1*%
%TO.N,Net-(D3-K)*%
X159000000Y-105620000D03*
%TO.P,R1,2*%
%TO.N,GND*%
X159000000Y-90380000D03*
%TD*%
D20*
%TO.P,D5,1,K*%
%TO.N,Net-(D5-K)*%
X174000000Y-93000000D03*
D21*
%TO.P,D5,2,A*%
%TO.N,Net-(D5-A)*%
X174000000Y-95540000D03*
%TD*%
D19*
%TO.P,R4,1*%
%TO.N,Net-(J3-(GCLK)_GPIO4)*%
X174000000Y-80620000D03*
%TO.P,R4,2*%
%TO.N,Net-(C1-Pad1)*%
X174000000Y-65380000D03*
%TD*%
D14*
%TO.P,m1,1,VCC*%
%TO.N,+3.3V*%
X134458000Y-53636000D03*
%TO.P,m1,2,GND*%
%TO.N,GND*%
X136998000Y-53636000D03*
%TO.P,m1,3,SCL*%
%TO.N,Net-(J3-(SCL1)_GPIO3)*%
X139538000Y-53636000D03*
%TO.P,m1,4,SDA*%
%TO.N,Net-(J3-(SDA1)_GPIO2)*%
X142078000Y-53636000D03*
%TO.P,m1,5,EDA*%
%TO.N,unconnected-(m1-EDA-Pad5)*%
X144618000Y-53636000D03*
%TO.P,m1,6,ECL*%
%TO.N,unconnected-(m1-ECL-Pad6)*%
X147158000Y-53636000D03*
%TO.P,m1,7,ADO*%
%TO.N,unconnected-(m1-ADO-Pad7)*%
X149698000Y-53636000D03*
%TO.P,m1,8,INT*%
%TO.N,unconnected-(m1-INT-Pad8)*%
X152238000Y-53636000D03*
%TO.P,m1,9,NCA*%
%TO.N,unconnected-(m1-NCA-Pad9)*%
X154778000Y-53636000D03*
%TO.P,m1,10,FSYNC*%
%TO.N,unconnected-(m1-FSYNC-Pad10)*%
X157318000Y-53636000D03*
%TD*%
D15*
%TO.P,REF\u002A\u002A,1*%
%TO.N,N/C*%
X99600000Y-43000000D03*
X100302944Y-41302944D03*
X100302944Y-44697056D03*
X102000000Y-40600000D03*
D16*
X102000000Y-43000000D03*
D15*
X102000000Y-45400000D03*
X103697056Y-41302944D03*
X103697056Y-44697056D03*
X104400000Y-43000000D03*
%TD*%
D22*
%TO.P,J4,1,Pin_1*%
%TO.N,Net-(D1-A)*%
X110500000Y-113000000D03*
D23*
%TO.P,J4,2,Pin_2*%
%TO.N,GND*%
X113000000Y-113000000D03*
%TD*%
D14*
%TO.P,F1,1*%
%TO.N,Net-(D1-A)*%
X139290000Y-94010000D03*
%TO.P,F1,2*%
%TO.N,GND*%
X116680000Y-94000000D03*
%TD*%
D19*
%TO.P,R2,1*%
%TO.N,Net-(D4-K)*%
X164000000Y-105620000D03*
%TO.P,R2,2*%
%TO.N,GND*%
X164000000Y-90380000D03*
%TD*%
D15*
%TO.P,REF\u002A\u002A,1*%
%TO.N,N/C*%
X169600000Y-43000000D03*
X170302944Y-41302944D03*
X170302944Y-44697056D03*
X172000000Y-40600000D03*
D16*
X172000000Y-43000000D03*
D15*
X172000000Y-45400000D03*
X173697056Y-41302944D03*
X173697056Y-44697056D03*
X174400000Y-43000000D03*
%TD*%
D20*
%TO.P,D4,1,K*%
%TO.N,Net-(D4-K)*%
X174000000Y-101460000D03*
D21*
%TO.P,D4,2,A*%
%TO.N,Net-(D4-A)*%
X174000000Y-104000000D03*
%TD*%
D14*
%TO.P,J1,1,Pin_1*%
%TO.N,Net-(D1-A)*%
X100000000Y-99033000D03*
%TO.P,J1,2,Pin_2*%
%TO.N,unconnected-(J1-Pin_2-Pad2)*%
X110871200Y-104392400D03*
%TO.P,J1,3,Pin_3*%
%TO.N,GND*%
X112725400Y-99000000D03*
%TD*%
D15*
%TO.P,REF\u002A\u002A,1*%
%TO.N,N/C*%
X99600000Y-113000000D03*
X100302944Y-111302944D03*
X100302944Y-114697056D03*
X102000000Y-110600000D03*
D16*
X102000000Y-113000000D03*
D15*
X102000000Y-115400000D03*
X103697056Y-111302944D03*
X103697056Y-114697056D03*
X104400000Y-113000000D03*
%TD*%
D19*
%TO.P,R5,1*%
%TO.N,+3.3V*%
X122000000Y-40380000D03*
%TO.P,R5,2*%
%TO.N,Net-(J3-(SCL1)_GPIO3)*%
X122000000Y-55620000D03*
%TD*%
D20*
%TO.P,D3,1,K*%
%TO.N,Net-(D3-K)*%
X160000000Y-112000000D03*
D21*
%TO.P,D3,2,A*%
%TO.N,Net-(D3-A)*%
X162540000Y-112000000D03*
%TD*%
D19*
%TO.P,R6,1*%
%TO.N,+3.3V*%
X129000000Y-40380000D03*
%TO.P,R6,2*%
%TO.N,Net-(J3-(SDA1)_GPIO2)*%
X129000000Y-55620000D03*
%TD*%
%TO.P,C3,1*%
%TO.N,Net-(J_ANT1-In)*%
X173000000Y-62000000D03*
%TO.P,C3,2*%
%TO.N,GND*%
X170500000Y-62000000D03*
%TD*%
D24*
%TO.P,D1,1,K*%
%TO.N,Net-(D1-A)*%
X144000000Y-90190000D03*
D25*
%TO.P,D1,2,A*%
X144000000Y-97810000D03*
%TD*%
D19*
%TO.P,C2,1*%
%TO.N,Net-(J_ANT1-In)*%
X167000000Y-64000000D03*
%TO.P,C2,2*%
%TO.N,GND*%
X167000000Y-61500000D03*
%TD*%
%TO.P,R3,1*%
%TO.N,Net-(D5-K)*%
X169000000Y-105620000D03*
%TO.P,R3,2*%
%TO.N,GND*%
X169000000Y-90380000D03*
%TD*%
D24*
%TO.P,D2,1,K*%
%TO.N,GND*%
X151000000Y-90000000D03*
D25*
%TO.P,D2,2,A*%
%TO.N,Net-(D1-A)*%
X151000000Y-97620000D03*
%TD*%
D19*
%TO.P,C1,1*%
%TO.N,Net-(C1-Pad1)*%
X167000000Y-75500000D03*
%TO.P,C1,2*%
%TO.N,GND*%
X167000000Y-78000000D03*
%TD*%
D14*
%TO.P,J2,1,Pin_1*%
%TO.N,Net-(D1-A)*%
X154360000Y-105008600D03*
%TO.P,J2,2,Pin_2*%
%TO.N,GND*%
X154360000Y-112019000D03*
%TO.P,J2,3,Pin_3*%
%TO.N,Net-(J2-Pin_3)*%
X121400000Y-105000000D03*
%TO.P,J2,4,Pin_4*%
%TO.N,GND*%
X121416200Y-112000000D03*
%TD*%
D26*
%TO.N,Net-(J3-(SCL1)_GPIO3)*%
X126000000Y-52000000D03*
%TO.N,+3.3V*%
X106870000Y-65000000D03*
X102000000Y-64000000D03*
%TO.N,Net-(J3-(GCLK)_GPIO4)*%
X149000000Y-86415450D03*
%TD*%
D27*
%TO.N,Net-(J3-(SDA1)_GPIO2)*%
X106990000Y-64000000D02*
X107180000Y-64000000D01*
X138714000Y-57000000D02*
X142078000Y-53636000D01*
X129000000Y-57000000D02*
X138714000Y-57000000D01*
X125788600Y-57000000D02*
X129000000Y-57000000D01*
X107180000Y-64000000D02*
X109410000Y-61770000D01*
X105000000Y-62010000D02*
X106990000Y-64000000D01*
X125788600Y-57000000D02*
X105000000Y-57000000D01*
X126500000Y-47500000D02*
X121394300Y-52605700D01*
X121394300Y-52605700D02*
X125788600Y-57000000D01*
X129000000Y-55620000D02*
X129000000Y-57000000D01*
X164000000Y-47500000D02*
X126500000Y-47500000D01*
X105000000Y-57000000D02*
X105000000Y-62010000D01*
X116859400Y-48070800D02*
X121394300Y-52605700D01*
%TO.N,Net-(J3-(SCL1)_GPIO3)*%
X126000000Y-52000000D02*
X128000000Y-50000000D01*
X128000000Y-50000000D02*
X164000000Y-50000000D01*
%TO.N,+3.3V*%
X105000000Y-65000000D02*
X106870000Y-65000000D01*
X104000000Y-64000000D02*
X105000000Y-65000000D01*
X102000000Y-64000000D02*
X104000000Y-64000000D01*
%TO.N,Net-(D4-A)*%
X154000000Y-83000000D02*
X172799000Y-101799000D01*
X172799000Y-101799000D02*
X172799000Y-102799000D01*
X124650000Y-61770000D02*
X145880000Y-83000000D01*
X172799000Y-102799000D02*
X174000000Y-104000000D01*
X145880000Y-83000000D02*
X154000000Y-83000000D01*
%TO.N,Net-(J2-Pin_3)*%
X110895000Y-94495000D02*
X110895000Y-60715000D01*
X121400000Y-105000000D02*
X110895000Y-94495000D01*
X110895000Y-60715000D02*
X109410000Y-59230000D01*
%TO.N,Net-(J3-(GCLK)_GPIO4)*%
X140000000Y-86140000D02*
X148724550Y-86140000D01*
X114490000Y-61770000D02*
X114490000Y-80490000D01*
X114490000Y-80490000D02*
X120140000Y-86140000D01*
X148724550Y-86140000D02*
X149000000Y-86415450D01*
X120140000Y-86140000D02*
X140000000Y-86140000D01*
%TD*%
%TA.AperFunction,Conductor*%
%TO.N,GND*%
G36*
X116373194Y-39020185D02*
G01*
X116418949Y-39072989D01*
X116428893Y-39142147D01*
X116399868Y-39205703D01*
X116344477Y-39242429D01*
X116334781Y-39245580D01*
X116334775Y-39245582D01*
X116152386Y-39338515D01*
X115986786Y-39458828D01*
X115842028Y-39603586D01*
X115721715Y-39769186D01*
X115628781Y-39951576D01*
X115565522Y-40146265D01*
X115533500Y-40348448D01*
X115533500Y-40553151D01*
X115565522Y-40755334D01*
X115628781Y-40950023D01*
X115721715Y-41132413D01*
X115842028Y-41298013D01*
X115986786Y-41442771D01*
X116141749Y-41555356D01*
X116152390Y-41563087D01*
X116232930Y-41604124D01*
X116258329Y-41617066D01*
X116309125Y-41665041D01*
X116325920Y-41732862D01*
X116303382Y-41798997D01*
X116258329Y-41838036D01*
X116178050Y-41878940D01*
X116012505Y-41999217D01*
X116012504Y-41999217D01*
X115867817Y-42143904D01*
X115867817Y-42143905D01*
X115747540Y-42309450D01*
X115654644Y-42491770D01*
X115591409Y-42686386D01*
X115582791Y-42740800D01*
X116426388Y-42740800D01*
X116393475Y-42797807D01*
X116359400Y-42924974D01*
X116359400Y-43056626D01*
X116393475Y-43183793D01*
X116426388Y-43240800D01*
X115582791Y-43240800D01*
X115591409Y-43295213D01*
X115654644Y-43489829D01*
X115747540Y-43672149D01*
X115867817Y-43837694D01*
X115867817Y-43837695D01*
X116012504Y-43982382D01*
X116178052Y-44102661D01*
X116271028Y-44150034D01*
X116321825Y-44198008D01*
X116338620Y-44265829D01*
X116316083Y-44331964D01*
X116271030Y-44371003D01*
X116177788Y-44418513D01*
X116012186Y-44538828D01*
X115867428Y-44683586D01*
X115747115Y-44849186D01*
X115654181Y-45031576D01*
X115590922Y-45226265D01*
X115558900Y-45428448D01*
X115558900Y-45633151D01*
X115590922Y-45835334D01*
X115654181Y-46030023D01*
X115714993Y-46149371D01*
X115732002Y-46182754D01*
X115747115Y-46212413D01*
X115867428Y-46378013D01*
X116012186Y-46522771D01*
X116146306Y-46620213D01*
X116177790Y-46643087D01*
X116269240Y-46689683D01*
X116270480Y-46690315D01*
X116321276Y-46738290D01*
X116338071Y-46806111D01*
X116315534Y-46872246D01*
X116270480Y-46911285D01*
X116177788Y-46958514D01*
X116012186Y-47078828D01*
X115867428Y-47223586D01*
X115747115Y-47389186D01*
X115654181Y-47571576D01*
X115590922Y-47766265D01*
X115558900Y-47968448D01*
X115558900Y-48173151D01*
X115590922Y-48375334D01*
X115654181Y-48570023D01*
X115694770Y-48649681D01*
X115733338Y-48725376D01*
X115747115Y-48752413D01*
X115867428Y-48918013D01*
X116012186Y-49062771D01*
X116167149Y-49175356D01*
X116177790Y-49183087D01*
X116269240Y-49229683D01*
X116270480Y-49230315D01*
X116321276Y-49278290D01*
X116338071Y-49346111D01*
X116315534Y-49412246D01*
X116270480Y-49451285D01*
X116177786Y-49498515D01*
X116012186Y-49618828D01*
X115867428Y-49763586D01*
X115747115Y-49929186D01*
X115654181Y-50111576D01*
X115590922Y-50306265D01*
X115558900Y-50508448D01*
X115558900Y-50713151D01*
X115590922Y-50915334D01*
X115654181Y-51110023D01*
X115718091Y-51235453D01*
X115743204Y-51284739D01*
X115747115Y-51292413D01*
X115867428Y-51458013D01*
X116012186Y-51602771D01*
X116103046Y-51668783D01*
X116177790Y-51723087D01*
X116243298Y-51756465D01*
X116270480Y-51770315D01*
X116321276Y-51818290D01*
X116338071Y-51886111D01*
X116315534Y-51952246D01*
X116270480Y-51991285D01*
X116177786Y-52038515D01*
X116012186Y-52158828D01*
X115867428Y-52303586D01*
X115747115Y-52469186D01*
X115654181Y-52651576D01*
X115590922Y-52846265D01*
X115558900Y-53048448D01*
X115558900Y-53253151D01*
X115590922Y-53455334D01*
X115654181Y-53650023D01*
X115699187Y-53738351D01*
X115725503Y-53789999D01*
X115747115Y-53832413D01*
X115867428Y-53998013D01*
X116012186Y-54142771D01*
X116144408Y-54238834D01*
X116177790Y-54263087D01*
X116284281Y-54317347D01*
X116360176Y-54356018D01*
X116360178Y-54356018D01*
X116360181Y-54356020D01*
X116464537Y-54389927D01*
X116554865Y-54419277D01*
X116655957Y-54435288D01*
X116757048Y-54451300D01*
X116757049Y-54451300D01*
X116961751Y-54451300D01*
X116961752Y-54451300D01*
X117163934Y-54419277D01*
X117358619Y-54356020D01*
X117541010Y-54263087D01*
X117656312Y-54179316D01*
X117706613Y-54142771D01*
X117706615Y-54142768D01*
X117706619Y-54142766D01*
X117851366Y-53998019D01*
X117851368Y-53998015D01*
X117851371Y-53998013D01*
X117967666Y-53837944D01*
X117971687Y-53832410D01*
X118064620Y-53650019D01*
X118127877Y-53455334D01*
X118159900Y-53253152D01*
X118159900Y-53048448D01*
X118145044Y-52954650D01*
X118127877Y-52846265D01*
X118064618Y-52651576D01*
X117999685Y-52524140D01*
X117971687Y-52469190D01*
X117944118Y-52431244D01*
X117851371Y-52303586D01*
X117706613Y-52158828D01*
X117541014Y-52038515D01*
X117534406Y-52035148D01*
X117448317Y-51991283D01*
X117397523Y-51943311D01*
X117380728Y-51875490D01*
X117403265Y-51809355D01*
X117448317Y-51770316D01*
X117541010Y-51723087D01*
X117615754Y-51668783D01*
X117706613Y-51602771D01*
X117706620Y-51602765D01*
X117754984Y-51554401D01*
X117851366Y-51458019D01*
X117851368Y-51458015D01*
X117851371Y-51458013D01*
X117929482Y-51350500D01*
X117971687Y-51292410D01*
X118064620Y-51110019D01*
X118127877Y-50915334D01*
X118159900Y-50713152D01*
X118159900Y-50519897D01*
X118179585Y-50452858D01*
X118232389Y-50407103D01*
X118301547Y-50397159D01*
X118365103Y-50426184D01*
X118371581Y-50432216D01*
X122047184Y-54107819D01*
X122080669Y-54169142D01*
X122075685Y-54238834D01*
X122033813Y-54294767D01*
X121968349Y-54319184D01*
X121959503Y-54319500D01*
X121897648Y-54319500D01*
X121873329Y-54323351D01*
X121695465Y-54351522D01*
X121500776Y-54414781D01*
X121318386Y-54507715D01*
X121152786Y-54628028D01*
X121008028Y-54772786D01*
X120887715Y-54938386D01*
X120794781Y-55120776D01*
X120731522Y-55315465D01*
X120699500Y-55517648D01*
X120699500Y-55722351D01*
X120731522Y-55924534D01*
X120794783Y-56119228D01*
X120845725Y-56219205D01*
X120858622Y-56287874D01*
X120832346Y-56352614D01*
X120775240Y-56392872D01*
X120735241Y-56399500D01*
X104920943Y-56399500D01*
X104768216Y-56440423D01*
X104768209Y-56440426D01*
X104631290Y-56519475D01*
X104631282Y-56519481D01*
X104519481Y-56631282D01*
X104519475Y-56631290D01*
X104440426Y-56768209D01*
X104440423Y-56768216D01*
X104399500Y-56920943D01*
X104399500Y-61923330D01*
X104399499Y-61923348D01*
X104399499Y-62089054D01*
X104399498Y-62089054D01*
X104440423Y-62241786D01*
X104452477Y-62262662D01*
X104452478Y-62262667D01*
X104452479Y-62262667D01*
X104519475Y-62378709D01*
X104519481Y-62378717D01*
X104638349Y-62497585D01*
X104638355Y-62497590D01*
X106280951Y-64140186D01*
X106285287Y-64148128D01*
X106292536Y-64153554D01*
X106301773Y-64178319D01*
X106314436Y-64201509D01*
X106313790Y-64210536D01*
X106316954Y-64219018D01*
X106311337Y-64244839D01*
X106309452Y-64271201D01*
X106303633Y-64280254D01*
X106302103Y-64287292D01*
X106280953Y-64315546D01*
X106233322Y-64363179D01*
X106172000Y-64396666D01*
X106145639Y-64399500D01*
X105300098Y-64399500D01*
X105233059Y-64379815D01*
X105212417Y-64363181D01*
X104487590Y-63638355D01*
X104487588Y-63638352D01*
X104368717Y-63519481D01*
X104368716Y-63519480D01*
X104281904Y-63469360D01*
X104281904Y-63469359D01*
X104281900Y-63469358D01*
X104231785Y-63440423D01*
X104079057Y-63399499D01*
X103920943Y-63399499D01*
X103913347Y-63399499D01*
X103913331Y-63399500D01*
X102724361Y-63399500D01*
X102657322Y-63379815D01*
X102636684Y-63363185D01*
X102574035Y-63300536D01*
X102574034Y-63300535D01*
X102574033Y-63300534D01*
X102426553Y-63201990D01*
X102426540Y-63201983D01*
X102262667Y-63134106D01*
X102262658Y-63134103D01*
X102088694Y-63099500D01*
X102088691Y-63099500D01*
X101911309Y-63099500D01*
X101911306Y-63099500D01*
X101737341Y-63134103D01*
X101737332Y-63134106D01*
X101573459Y-63201983D01*
X101573446Y-63201990D01*
X101425965Y-63300535D01*
X101425961Y-63300538D01*
X101300538Y-63425961D01*
X101300535Y-63425965D01*
X101201990Y-63573446D01*
X101201983Y-63573459D01*
X101134106Y-63737332D01*
X101134103Y-63737341D01*
X101099500Y-63911304D01*
X101099500Y-64088695D01*
X101134103Y-64262658D01*
X101134106Y-64262667D01*
X101201983Y-64426540D01*
X101201990Y-64426553D01*
X101300535Y-64574034D01*
X101300538Y-64574038D01*
X101425961Y-64699461D01*
X101425965Y-64699464D01*
X101573446Y-64798009D01*
X101573459Y-64798016D01*
X101692234Y-64847213D01*
X101737334Y-64865894D01*
X101737336Y-64865894D01*
X101737341Y-64865896D01*
X101911304Y-64900499D01*
X101911307Y-64900500D01*
X101911309Y-64900500D01*
X102088693Y-64900500D01*
X102088694Y-64900499D01*
X102146682Y-64888964D01*
X102262658Y-64865896D01*
X102262661Y-64865894D01*
X102262666Y-64865894D01*
X102426547Y-64798013D01*
X102574035Y-64699464D01*
X102636681Y-64636817D01*
X102698002Y-64603334D01*
X102724361Y-64600500D01*
X103699903Y-64600500D01*
X103766942Y-64620185D01*
X103787583Y-64636818D01*
X104631284Y-65480520D01*
X104631286Y-65480521D01*
X104631290Y-65480524D01*
X104768209Y-65559573D01*
X104768216Y-65559577D01*
X104920943Y-65600501D01*
X104920945Y-65600501D01*
X105086654Y-65600501D01*
X105086670Y-65600500D01*
X106145639Y-65600500D01*
X106212678Y-65620185D01*
X106233315Y-65636814D01*
X106281035Y-65684534D01*
X106295966Y-65699465D01*
X106443446Y-65798009D01*
X106443459Y-65798016D01*
X106566363Y-65848923D01*
X106607334Y-65865894D01*
X106607336Y-65865894D01*
X106607341Y-65865896D01*
X106781304Y-65900499D01*
X106781307Y-65900500D01*
X106781309Y-65900500D01*
X106958693Y-65900500D01*
X106958694Y-65900499D01*
X107016682Y-65888964D01*
X107132658Y-65865896D01*
X107132661Y-65865894D01*
X107132666Y-65865894D01*
X107296547Y-65798013D01*
X107444035Y-65699464D01*
X107569464Y-65574035D01*
X107668013Y-65426547D01*
X107735894Y-65262666D01*
X107770500Y-65088691D01*
X107770500Y-64911309D01*
X107770500Y-64911306D01*
X107770499Y-64911304D01*
X107735896Y-64737341D01*
X107735893Y-64737332D01*
X107720208Y-64699464D01*
X107668013Y-64573453D01*
X107668011Y-64573451D01*
X107668011Y-64573449D01*
X107639543Y-64530844D01*
X107630057Y-64500551D01*
X107618962Y-64470811D01*
X107619692Y-64467449D01*
X107618665Y-64464167D01*
X107627062Y-64433556D01*
X107633807Y-64402536D01*
X107636592Y-64398814D01*
X107637149Y-64396787D01*
X107654951Y-64374284D01*
X107660520Y-64368716D01*
X107660521Y-64368713D01*
X109002128Y-63027105D01*
X109063449Y-62993622D01*
X109111221Y-62994133D01*
X109111425Y-62992848D01*
X109311264Y-63024500D01*
X109311269Y-63024500D01*
X109508736Y-63024500D01*
X109703763Y-62993610D01*
X109708823Y-62991966D01*
X109891561Y-62932591D01*
X110067501Y-62842944D01*
X110097614Y-62821065D01*
X110163420Y-62797585D01*
X110231474Y-62813410D01*
X110280169Y-62863515D01*
X110294500Y-62921383D01*
X110294500Y-94408330D01*
X110294499Y-94408348D01*
X110294499Y-94574054D01*
X110294498Y-94574054D01*
X110335423Y-94726785D01*
X110364358Y-94776900D01*
X110364359Y-94776904D01*
X110364360Y-94776904D01*
X110414479Y-94863714D01*
X110414481Y-94863717D01*
X110533349Y-94982585D01*
X110533355Y-94982590D01*
X113060524Y-97509759D01*
X113094009Y-97571082D01*
X113089025Y-97640774D01*
X113047153Y-97696707D01*
X112981689Y-97721124D01*
X112978227Y-97720975D01*
X112975400Y-97723390D01*
X112975400Y-98566988D01*
X112918393Y-98534075D01*
X112791226Y-98500000D01*
X112659574Y-98500000D01*
X112532407Y-98534075D01*
X112475400Y-98566988D01*
X112475400Y-97723390D01*
X112420986Y-97732009D01*
X112226370Y-97795244D01*
X112044050Y-97888140D01*
X111878505Y-98008417D01*
X111878504Y-98008417D01*
X111733817Y-98153104D01*
X111733817Y-98153105D01*
X111613540Y-98318650D01*
X111520644Y-98500970D01*
X111457409Y-98695586D01*
X111448791Y-98750000D01*
X112292388Y-98750000D01*
X112259475Y-98807007D01*
X112225400Y-98934174D01*
X112225400Y-99065826D01*
X112259475Y-99192993D01*
X112292388Y-99250000D01*
X111448791Y-99250000D01*
X111457409Y-99304413D01*
X111520644Y-99499029D01*
X111613540Y-99681349D01*
X111733817Y-99846894D01*
X111733817Y-99846895D01*
X111878504Y-99991582D01*
X112044050Y-100111859D01*
X112226368Y-100204754D01*
X112420978Y-100267988D01*
X112475400Y-100276607D01*
X112475400Y-99433012D01*
X112532407Y-99465925D01*
X112659574Y-99500000D01*
X112791226Y-99500000D01*
X112918393Y-99465925D01*
X112975400Y-99433012D01*
X112975400Y-100276606D01*
X113029821Y-100267988D01*
X113224431Y-100204754D01*
X113406749Y-100111859D01*
X113572294Y-99991582D01*
X113572295Y-99991582D01*
X113716982Y-99846895D01*
X113716982Y-99846894D01*
X113837259Y-99681349D01*
X113930155Y-99499029D01*
X113993390Y-99304413D01*
X114002009Y-99250000D01*
X113158412Y-99250000D01*
X113191325Y-99192993D01*
X113225400Y-99065826D01*
X113225400Y-98934174D01*
X113191325Y-98807007D01*
X113158412Y-98750000D01*
X114002010Y-98750000D01*
X114009448Y-98741290D01*
X114014440Y-98702662D01*
X114059435Y-98649210D01*
X114126186Y-98628569D01*
X114193500Y-98647293D01*
X114215640Y-98664875D01*
X120105922Y-104555157D01*
X120139407Y-104616480D01*
X120136173Y-104681155D01*
X120131522Y-104695468D01*
X120099500Y-104897648D01*
X120099500Y-105102351D01*
X120131522Y-105304534D01*
X120194781Y-105499223D01*
X120287715Y-105681613D01*
X120408028Y-105847213D01*
X120552786Y-105991971D01*
X120707749Y-106104556D01*
X120718390Y-106112287D01*
X120834607Y-106171503D01*
X120900776Y-106205218D01*
X120900778Y-106205218D01*
X120900781Y-106205220D01*
X121005137Y-106239127D01*
X121095465Y-106268477D01*
X121149763Y-106277077D01*
X121297648Y-106300500D01*
X121297649Y-106300500D01*
X121502351Y-106300500D01*
X121502352Y-106300500D01*
X121704534Y-106268477D01*
X121899219Y-106205220D01*
X122081610Y-106112287D01*
X122174590Y-106044732D01*
X122247213Y-105991971D01*
X122247215Y-105991968D01*
X122247219Y-105991966D01*
X122391966Y-105847219D01*
X122391968Y-105847215D01*
X122391971Y-105847213D01*
X122504084Y-105692900D01*
X122512287Y-105681610D01*
X122605220Y-105499219D01*
X122668477Y-105304534D01*
X122700500Y-105102352D01*
X122700500Y-104906248D01*
X153059500Y-104906248D01*
X153059500Y-105110951D01*
X153091522Y-105313134D01*
X153154781Y-105507823D01*
X153247715Y-105690213D01*
X153368028Y-105855813D01*
X153512786Y-106000571D01*
X153666549Y-106112284D01*
X153678390Y-106120887D01*
X153794607Y-106180103D01*
X153860776Y-106213818D01*
X153860778Y-106213818D01*
X153860781Y-106213820D01*
X153965137Y-106247727D01*
X154055465Y-106277077D01*
X154156557Y-106293088D01*
X154257648Y-106309100D01*
X154257649Y-106309100D01*
X154462351Y-106309100D01*
X154462352Y-106309100D01*
X154664534Y-106277077D01*
X154859219Y-106213820D01*
X155041610Y-106120887D01*
X155134590Y-106053332D01*
X155207213Y-106000571D01*
X155207215Y-106000568D01*
X155207219Y-106000566D01*
X155351966Y-105855819D01*
X155351968Y-105855815D01*
X155351971Y-105855813D01*
X155404732Y-105783190D01*
X155472287Y-105690210D01*
X155560212Y-105517648D01*
X157699500Y-105517648D01*
X157699500Y-105722351D01*
X157731522Y-105924534D01*
X157794781Y-106119223D01*
X157858691Y-106244653D01*
X157887147Y-106300500D01*
X157887715Y-106301613D01*
X158008028Y-106467213D01*
X158152786Y-106611971D01*
X158307749Y-106724556D01*
X158318390Y-106732287D01*
X158434607Y-106791503D01*
X158500776Y-106825218D01*
X158500778Y-106825218D01*
X158500781Y-106825220D01*
X158605137Y-106859127D01*
X158695465Y-106888477D01*
X158796557Y-106904488D01*
X158897648Y-106920500D01*
X158897649Y-106920500D01*
X159102351Y-106920500D01*
X159102352Y-106920500D01*
X159304534Y-106888477D01*
X159499219Y-106825220D01*
X159681610Y-106732287D01*
X159774590Y-106664732D01*
X159847213Y-106611971D01*
X159847215Y-106611968D01*
X159847219Y-106611966D01*
X159991966Y-106467219D01*
X159991968Y-106467215D01*
X159991971Y-106467213D01*
X160044732Y-106394590D01*
X160112287Y-106301610D01*
X160205220Y-106119219D01*
X160268477Y-105924534D01*
X160300500Y-105722352D01*
X160300500Y-105517648D01*
X162699500Y-105517648D01*
X162699500Y-105722351D01*
X162731522Y-105924534D01*
X162794781Y-106119223D01*
X162858691Y-106244653D01*
X162887147Y-106300500D01*
X162887715Y-106301613D01*
X163008028Y-106467213D01*
X163152786Y-106611971D01*
X163307749Y-106724556D01*
X163318390Y-106732287D01*
X163434607Y-106791503D01*
X163500776Y-106825218D01*
X163500778Y-106825218D01*
X163500781Y-106825220D01*
X163605137Y-106859127D01*
X163695465Y-106888477D01*
X163796557Y-106904488D01*
X163897648Y-106920500D01*
X163897649Y-106920500D01*
X164102351Y-106920500D01*
X164102352Y-106920500D01*
X164304534Y-106888477D01*
X164499219Y-106825220D01*
X164681610Y-106732287D01*
X164774590Y-106664732D01*
X164847213Y-106611971D01*
X164847215Y-106611968D01*
X164847219Y-106611966D01*
X164991966Y-106467219D01*
X164991968Y-106467215D01*
X164991971Y-106467213D01*
X165044732Y-106394590D01*
X165112287Y-106301610D01*
X165205220Y-106119219D01*
X165268477Y-105924534D01*
X165300500Y-105722352D01*
X165300500Y-105517648D01*
X167699500Y-105517648D01*
X167699500Y-105722351D01*
X167731522Y-105924534D01*
X167794781Y-106119223D01*
X167858691Y-106244653D01*
X167887147Y-106300500D01*
X167887715Y-106301613D01*
X168008028Y-106467213D01*
X168152786Y-106611971D01*
X168307749Y-106724556D01*
X168318390Y-106732287D01*
X168434607Y-106791503D01*
X168500776Y-106825218D01*
X168500778Y-106825218D01*
X168500781Y-106825220D01*
X168605137Y-106859127D01*
X168695465Y-106888477D01*
X168796557Y-106904488D01*
X168897648Y-106920500D01*
X168897649Y-106920500D01*
X169102351Y-106920500D01*
X169102352Y-106920500D01*
X169304534Y-106888477D01*
X169499219Y-106825220D01*
X169681610Y-106732287D01*
X169774590Y-106664732D01*
X169847213Y-106611971D01*
X169847215Y-106611968D01*
X169847219Y-106611966D01*
X169991966Y-106467219D01*
X169991968Y-106467215D01*
X169991971Y-106467213D01*
X170044732Y-106394590D01*
X170112287Y-106301610D01*
X170205220Y-106119219D01*
X170268477Y-105924534D01*
X170300500Y-105722352D01*
X170300500Y-105517648D01*
X170268477Y-105315466D01*
X170267719Y-105313134D01*
X170205218Y-105120776D01*
X170171503Y-105054607D01*
X170112287Y-104938390D01*
X170093379Y-104912365D01*
X169991971Y-104772786D01*
X169847213Y-104628028D01*
X169681613Y-104507715D01*
X169681612Y-104507714D01*
X169681610Y-104507713D01*
X169624653Y-104478691D01*
X169499223Y-104414781D01*
X169304534Y-104351522D01*
X169129995Y-104323878D01*
X169102352Y-104319500D01*
X168897648Y-104319500D01*
X168873329Y-104323351D01*
X168695465Y-104351522D01*
X168500776Y-104414781D01*
X168318386Y-104507715D01*
X168152786Y-104628028D01*
X168008028Y-104772786D01*
X167887715Y-104938386D01*
X167794781Y-105120776D01*
X167731522Y-105315465D01*
X167699500Y-105517648D01*
X165300500Y-105517648D01*
X165268477Y-105315466D01*
X165267719Y-105313134D01*
X165205218Y-105120776D01*
X165171503Y-105054607D01*
X165112287Y-104938390D01*
X165093379Y-104912365D01*
X164991971Y-104772786D01*
X164847213Y-104628028D01*
X164681613Y-104507715D01*
X164681612Y-104507714D01*
X164681610Y-104507713D01*
X164624653Y-104478691D01*
X164499223Y-104414781D01*
X164304534Y-104351522D01*
X164129995Y-104323878D01*
X164102352Y-104319500D01*
X163897648Y-104319500D01*
X163873329Y-104323351D01*
X163695465Y-104351522D01*
X163500776Y-104414781D01*
X163318386Y-104507715D01*
X163152786Y-104628028D01*
X163008028Y-104772786D01*
X162887715Y-104938386D01*
X162794781Y-105120776D01*
X162731522Y-105315465D01*
X162699500Y-105517648D01*
X160300500Y-105517648D01*
X160268477Y-105315466D01*
X160267719Y-105313134D01*
X160205218Y-105120776D01*
X160171503Y-105054607D01*
X160112287Y-104938390D01*
X160093379Y-104912365D01*
X159991971Y-104772786D01*
X159847213Y-104628028D01*
X159681613Y-104507715D01*
X159681612Y-104507714D01*
X159681610Y-104507713D01*
X159624653Y-104478691D01*
X159499223Y-104414781D01*
X159304534Y-104351522D01*
X159129995Y-104323878D01*
X159102352Y-104319500D01*
X158897648Y-104319500D01*
X158873329Y-104323351D01*
X158695465Y-104351522D01*
X158500776Y-104414781D01*
X158318386Y-104507715D01*
X158152786Y-104628028D01*
X158008028Y-104772786D01*
X157887715Y-104938386D01*
X157794781Y-105120776D01*
X157731522Y-105315465D01*
X157699500Y-105517648D01*
X155560212Y-105517648D01*
X155565220Y-105507819D01*
X155568014Y-105499219D01*
X155576061Y-105474456D01*
X155628476Y-105313138D01*
X155628476Y-105313137D01*
X155628477Y-105313134D01*
X155660500Y-105110952D01*
X155660500Y-104906248D01*
X155628477Y-104704066D01*
X155625683Y-104695468D01*
X155597552Y-104608888D01*
X155565220Y-104509381D01*
X155565218Y-104509378D01*
X155565218Y-104509376D01*
X155517018Y-104414780D01*
X155472287Y-104326990D01*
X155464556Y-104316349D01*
X155351971Y-104161386D01*
X155207213Y-104016628D01*
X155041613Y-103896315D01*
X155041612Y-103896314D01*
X155041610Y-103896313D01*
X154984653Y-103867291D01*
X154859223Y-103803381D01*
X154664534Y-103740122D01*
X154489995Y-103712478D01*
X154462352Y-103708100D01*
X154257648Y-103708100D01*
X154233329Y-103711951D01*
X154055465Y-103740122D01*
X153860776Y-103803381D01*
X153678386Y-103896315D01*
X153512786Y-104016628D01*
X153368028Y-104161386D01*
X153247715Y-104326986D01*
X153154781Y-104509376D01*
X153091522Y-104704065D01*
X153059500Y-104906248D01*
X122700500Y-104906248D01*
X122700500Y-104897648D01*
X122699545Y-104891619D01*
X122668477Y-104695465D01*
X122608014Y-104509381D01*
X122605220Y-104500781D01*
X122605218Y-104500778D01*
X122605218Y-104500776D01*
X122561400Y-104414780D01*
X122512287Y-104318390D01*
X122504556Y-104307749D01*
X122391971Y-104152786D01*
X122247213Y-104008028D01*
X122081613Y-103887715D01*
X122081612Y-103887714D01*
X122081610Y-103887713D01*
X122024653Y-103858691D01*
X121899223Y-103794781D01*
X121704534Y-103731522D01*
X121529995Y-103703878D01*
X121502352Y-103699500D01*
X121297648Y-103699500D01*
X121259599Y-103705526D01*
X121095468Y-103731522D01*
X121086717Y-103734365D01*
X121081154Y-103736173D01*
X121011313Y-103738167D01*
X120955157Y-103705922D01*
X114933273Y-97684038D01*
X142399500Y-97684038D01*
X142399500Y-97935961D01*
X142438910Y-98184785D01*
X142516760Y-98424383D01*
X142572499Y-98533776D01*
X142630339Y-98647293D01*
X142631132Y-98648848D01*
X142779201Y-98852649D01*
X142779205Y-98852654D01*
X142957345Y-99030794D01*
X142957350Y-99030798D01*
X143057060Y-99103241D01*
X143161155Y-99178870D01*
X143242859Y-99220500D01*
X143385616Y-99293239D01*
X143385618Y-99293239D01*
X143385621Y-99293241D01*
X143625215Y-99371090D01*
X143874038Y-99410500D01*
X143874039Y-99410500D01*
X144125961Y-99410500D01*
X144125962Y-99410500D01*
X144374785Y-99371090D01*
X144614379Y-99293241D01*
X144838845Y-99178870D01*
X145042656Y-99030793D01*
X145220793Y-98852656D01*
X145368870Y-98648845D01*
X145483241Y-98424379D01*
X145561090Y-98184785D01*
X145600500Y-97935962D01*
X145600500Y-97684038D01*
X145570407Y-97494038D01*
X149399500Y-97494038D01*
X149399500Y-97745961D01*
X149438910Y-97994785D01*
X149516760Y-98234383D01*
X149631132Y-98458848D01*
X149779201Y-98662649D01*
X149779205Y-98662654D01*
X149957345Y-98840794D01*
X149957350Y-98840798D01*
X150081019Y-98930648D01*
X150161155Y-98988870D01*
X150304184Y-99061747D01*
X150385616Y-99103239D01*
X150385618Y-99103239D01*
X150385621Y-99103241D01*
X150625215Y-99181090D01*
X150874038Y-99220500D01*
X150874039Y-99220500D01*
X151125961Y-99220500D01*
X151125962Y-99220500D01*
X151374785Y-99181090D01*
X151614379Y-99103241D01*
X151838845Y-98988870D01*
X152042656Y-98840793D01*
X152220793Y-98662656D01*
X152368870Y-98458845D01*
X152483241Y-98234379D01*
X152561090Y-97994785D01*
X152600500Y-97745962D01*
X152600500Y-97494038D01*
X152561090Y-97245215D01*
X152483241Y-97005621D01*
X152483239Y-97005618D01*
X152483239Y-97005616D01*
X152432489Y-96906014D01*
X152368870Y-96781155D01*
X152337380Y-96737812D01*
X152220798Y-96577350D01*
X152220794Y-96577345D01*
X152042654Y-96399205D01*
X152042649Y-96399201D01*
X151838848Y-96251132D01*
X151838847Y-96251131D01*
X151838845Y-96251130D01*
X151768747Y-96215413D01*
X151614383Y-96136760D01*
X151374785Y-96058910D01*
X151125962Y-96019500D01*
X150874038Y-96019500D01*
X150749626Y-96039205D01*
X150625214Y-96058910D01*
X150385616Y-96136760D01*
X150161151Y-96251132D01*
X149957350Y-96399201D01*
X149957345Y-96399205D01*
X149779205Y-96577345D01*
X149779201Y-96577350D01*
X149631132Y-96781151D01*
X149516760Y-97005616D01*
X149438910Y-97245214D01*
X149399500Y-97494038D01*
X145570407Y-97494038D01*
X145561090Y-97435215D01*
X145483241Y-97195621D01*
X145483239Y-97195618D01*
X145483239Y-97195616D01*
X145386431Y-97005621D01*
X145368870Y-96971155D01*
X145321543Y-96906015D01*
X145220798Y-96767350D01*
X145220794Y-96767345D01*
X145042654Y-96589205D01*
X145042649Y-96589201D01*
X144838848Y-96441132D01*
X144838847Y-96441131D01*
X144838845Y-96441130D01*
X144768747Y-96405413D01*
X144614383Y-96326760D01*
X144374785Y-96248910D01*
X144125962Y-96209500D01*
X143874038Y-96209500D01*
X143749626Y-96229205D01*
X143625214Y-96248910D01*
X143385616Y-96326760D01*
X143161151Y-96441132D01*
X142957350Y-96589201D01*
X142957345Y-96589205D01*
X142779205Y-96767345D01*
X142779201Y-96767350D01*
X142631132Y-96971151D01*
X142516760Y-97195616D01*
X142438910Y-97435214D01*
X142399500Y-97684038D01*
X114933273Y-97684038D01*
X111531819Y-94282584D01*
X111498334Y-94221261D01*
X111495500Y-94194903D01*
X111495500Y-93750000D01*
X115403391Y-93750000D01*
X116246988Y-93750000D01*
X116214075Y-93807007D01*
X116180000Y-93934174D01*
X116180000Y-94065826D01*
X116214075Y-94192993D01*
X116246988Y-94250000D01*
X115403391Y-94250000D01*
X115412009Y-94304413D01*
X115475244Y-94499029D01*
X115568140Y-94681349D01*
X115688417Y-94846894D01*
X115688417Y-94846895D01*
X115833104Y-94991582D01*
X115998650Y-95111859D01*
X116180968Y-95204754D01*
X116375578Y-95267988D01*
X116430000Y-95276607D01*
X116430000Y-94433012D01*
X116487007Y-94465925D01*
X116614174Y-94500000D01*
X116745826Y-94500000D01*
X116872993Y-94465925D01*
X116930000Y-94433012D01*
X116930000Y-95276606D01*
X116984421Y-95267988D01*
X117179031Y-95204754D01*
X117361349Y-95111859D01*
X117526894Y-94991582D01*
X117526895Y-94991582D01*
X117671582Y-94846895D01*
X117671582Y-94846894D01*
X117791859Y-94681349D01*
X117884755Y-94499029D01*
X117947990Y-94304413D01*
X117956609Y-94250000D01*
X117113012Y-94250000D01*
X117145925Y-94192993D01*
X117180000Y-94065826D01*
X117180000Y-93934174D01*
X117172892Y-93907648D01*
X137989500Y-93907648D01*
X137989500Y-94112351D01*
X138021522Y-94314534D01*
X138084781Y-94509223D01*
X138177715Y-94691613D01*
X138298028Y-94857213D01*
X138442786Y-95001971D01*
X138594037Y-95111859D01*
X138608390Y-95122287D01*
X138724607Y-95181503D01*
X138790776Y-95215218D01*
X138790778Y-95215218D01*
X138790781Y-95215220D01*
X138895137Y-95249127D01*
X138985465Y-95278477D01*
X139086557Y-95294488D01*
X139187648Y-95310500D01*
X139187649Y-95310500D01*
X139392351Y-95310500D01*
X139392352Y-95310500D01*
X139594534Y-95278477D01*
X139789219Y-95215220D01*
X139971610Y-95122287D01*
X140064590Y-95054732D01*
X140137213Y-95001971D01*
X140137215Y-95001968D01*
X140137219Y-95001966D01*
X140281966Y-94857219D01*
X140281968Y-94857215D01*
X140281971Y-94857213D01*
X140376731Y-94726785D01*
X140402287Y-94691610D01*
X140495220Y-94509219D01*
X140558477Y-94314534D01*
X140590500Y-94112352D01*
X140590500Y-93907648D01*
X140558477Y-93705466D01*
X140554424Y-93692993D01*
X140524177Y-93599901D01*
X140495220Y-93510781D01*
X140495218Y-93510778D01*
X140495218Y-93510776D01*
X140461503Y-93444607D01*
X140402287Y-93328390D01*
X140394556Y-93317749D01*
X140281971Y-93162786D01*
X140137213Y-93018028D01*
X139971613Y-92897715D01*
X139971612Y-92897714D01*
X139971610Y-92897713D01*
X139914653Y-92868691D01*
X139789223Y-92804781D01*
X139594534Y-92741522D01*
X139419995Y-92713878D01*
X139392352Y-92709500D01*
X139187648Y-92709500D01*
X139163329Y-92713351D01*
X138985465Y-92741522D01*
X138790776Y-92804781D01*
X138608386Y-92897715D01*
X138442786Y-93018028D01*
X138298028Y-93162786D01*
X138177715Y-93328386D01*
X138084781Y-93510776D01*
X138021522Y-93705465D01*
X137989500Y-93907648D01*
X117172892Y-93907648D01*
X117145925Y-93807007D01*
X117113012Y-93750000D01*
X117956609Y-93750000D01*
X117947990Y-93695586D01*
X117884755Y-93500970D01*
X117791859Y-93318650D01*
X117671582Y-93153105D01*
X117671582Y-93153104D01*
X117526895Y-93008417D01*
X117361349Y-92888140D01*
X117179029Y-92795244D01*
X116984413Y-92732009D01*
X116930000Y-92723390D01*
X116930000Y-93566988D01*
X116872993Y-93534075D01*
X116745826Y-93500000D01*
X116614174Y-93500000D01*
X116487007Y-93534075D01*
X116430000Y-93566988D01*
X116430000Y-92723390D01*
X116375586Y-92732009D01*
X116180970Y-92795244D01*
X115998650Y-92888140D01*
X115833105Y-93008417D01*
X115833104Y-93008417D01*
X115688417Y-93153104D01*
X115688417Y-93153105D01*
X115568140Y-93318650D01*
X115475244Y-93500970D01*
X115412009Y-93695586D01*
X115403391Y-93750000D01*
X111495500Y-93750000D01*
X111495500Y-89289982D01*
X142399500Y-89289982D01*
X142399500Y-91090017D01*
X142410000Y-91192796D01*
X142451603Y-91318344D01*
X142465186Y-91359335D01*
X142557288Y-91508656D01*
X142681344Y-91632712D01*
X142830665Y-91724814D01*
X142997202Y-91779999D01*
X143099990Y-91790500D01*
X143099995Y-91790500D01*
X144900005Y-91790500D01*
X144900010Y-91790500D01*
X145002798Y-91779999D01*
X145169335Y-91724814D01*
X145318656Y-91632712D01*
X145442712Y-91508656D01*
X145534814Y-91359335D01*
X145589999Y-91192798D01*
X145600500Y-91090010D01*
X145600500Y-89289990D01*
X145589999Y-89187202D01*
X145561107Y-89100013D01*
X149400000Y-89100013D01*
X149400000Y-89750000D01*
X150509252Y-89750000D01*
X150487482Y-89787708D01*
X150450000Y-89927591D01*
X150450000Y-90072409D01*
X150487482Y-90212292D01*
X150509252Y-90250000D01*
X149400001Y-90250000D01*
X149400001Y-90899986D01*
X149410494Y-91002696D01*
X149410494Y-91002698D01*
X149465640Y-91169119D01*
X149465645Y-91169130D01*
X149557680Y-91318340D01*
X149557683Y-91318344D01*
X149681655Y-91442316D01*
X149681659Y-91442319D01*
X149830869Y-91534354D01*
X149830880Y-91534359D01*
X149997302Y-91589505D01*
X150100019Y-91599999D01*
X150749999Y-91599999D01*
X150750000Y-91599998D01*
X150750000Y-90490747D01*
X150787708Y-90512518D01*
X150927591Y-90550000D01*
X151072409Y-90550000D01*
X151212292Y-90512518D01*
X151250000Y-90490747D01*
X151250000Y-91599999D01*
X151899972Y-91599999D01*
X151899986Y-91599998D01*
X152002696Y-91589505D01*
X152002698Y-91589505D01*
X152169119Y-91534359D01*
X152169130Y-91534354D01*
X152318340Y-91442319D01*
X152318344Y-91442316D01*
X152436127Y-91324534D01*
X152442316Y-91318344D01*
X152442319Y-91318340D01*
X152534354Y-91169130D01*
X152534359Y-91169119D01*
X152589505Y-91002697D01*
X152599999Y-90899986D01*
X152600000Y-90899973D01*
X152600000Y-90250000D01*
X151490748Y-90250000D01*
X151512518Y-90212292D01*
X151550000Y-90072409D01*
X151550000Y-89927591D01*
X151512518Y-89787708D01*
X151490748Y-89750000D01*
X152599999Y-89750000D01*
X152599999Y-89100028D01*
X152599998Y-89100013D01*
X152589505Y-88997303D01*
X152589505Y-88997301D01*
X152534359Y-88830880D01*
X152534354Y-88830869D01*
X152442319Y-88681659D01*
X152442316Y-88681655D01*
X152318344Y-88557683D01*
X152318340Y-88557680D01*
X152169130Y-88465645D01*
X152169119Y-88465640D01*
X152002697Y-88410494D01*
X151899986Y-88400000D01*
X151250000Y-88400000D01*
X151250000Y-89509252D01*
X151212292Y-89487482D01*
X151072409Y-89450000D01*
X150927591Y-89450000D01*
X150787708Y-89487482D01*
X150750000Y-89509252D01*
X150750000Y-88400000D01*
X150100028Y-88400000D01*
X150100012Y-88400001D01*
X149997303Y-88410494D01*
X149997301Y-88410494D01*
X149830880Y-88465640D01*
X149830869Y-88465645D01*
X149681659Y-88557680D01*
X149681655Y-88557683D01*
X149557683Y-88681655D01*
X149557680Y-88681659D01*
X149465645Y-88830869D01*
X149465640Y-88830880D01*
X149410494Y-88997302D01*
X149400000Y-89100013D01*
X145561107Y-89100013D01*
X145534814Y-89020665D01*
X145442712Y-88871344D01*
X145318656Y-88747288D01*
X145169335Y-88655186D01*
X145002798Y-88600001D01*
X145002796Y-88600000D01*
X144900017Y-88589500D01*
X144900010Y-88589500D01*
X143099990Y-88589500D01*
X143099982Y-88589500D01*
X142997203Y-88600000D01*
X142997202Y-88600001D01*
X142914669Y-88627349D01*
X142830667Y-88655185D01*
X142830662Y-88655187D01*
X142681342Y-88747289D01*
X142557289Y-88871342D01*
X142465187Y-89020662D01*
X142465186Y-89020665D01*
X142410001Y-89187202D01*
X142410001Y-89187203D01*
X142410000Y-89187203D01*
X142399500Y-89289982D01*
X111495500Y-89289982D01*
X111495500Y-63112054D01*
X111515185Y-63045015D01*
X111567989Y-62999260D01*
X111637147Y-62989316D01*
X111651460Y-62992645D01*
X111651502Y-62992473D01*
X111656228Y-62993607D01*
X111656237Y-62993610D01*
X111729374Y-63005193D01*
X111851264Y-63024500D01*
X111851269Y-63024500D01*
X112048736Y-63024500D01*
X112243763Y-62993610D01*
X112248823Y-62991966D01*
X112431561Y-62932591D01*
X112607501Y-62842944D01*
X112743127Y-62744407D01*
X112767246Y-62726884D01*
X112767248Y-62726881D01*
X112767252Y-62726879D01*
X112906879Y-62587252D01*
X112906881Y-62587248D01*
X112906884Y-62587246D01*
X113022941Y-62427505D01*
X113022943Y-62427502D01*
X113022944Y-62427501D01*
X113109517Y-62257593D01*
X113157490Y-62206800D01*
X113225311Y-62190005D01*
X113291446Y-62212542D01*
X113330482Y-62257593D01*
X113392199Y-62378717D01*
X113417058Y-62427505D01*
X113533115Y-62587246D01*
X113533121Y-62587252D01*
X113672748Y-62726879D01*
X113832499Y-62842944D01*
X113832503Y-62842946D01*
X113836441Y-62845807D01*
X113835399Y-62847241D01*
X113877159Y-62893390D01*
X113889500Y-62947317D01*
X113889500Y-80403330D01*
X113889499Y-80403348D01*
X113889499Y-80569054D01*
X113889498Y-80569054D01*
X113930423Y-80721785D01*
X113959358Y-80771900D01*
X113959359Y-80771904D01*
X113959360Y-80771904D01*
X114009479Y-80858714D01*
X114009481Y-80858717D01*
X114128349Y-80977585D01*
X114128354Y-80977589D01*
X119771284Y-86620520D01*
X119771286Y-86620521D01*
X119771290Y-86620524D01*
X119871030Y-86678108D01*
X119908216Y-86699577D01*
X120060943Y-86740501D01*
X120060945Y-86740501D01*
X120226654Y-86740501D01*
X120226670Y-86740500D01*
X139920943Y-86740500D01*
X148077091Y-86740500D01*
X148144130Y-86760185D01*
X148189885Y-86812989D01*
X148191652Y-86817047D01*
X148201985Y-86841993D01*
X148201990Y-86842003D01*
X148300535Y-86989484D01*
X148300538Y-86989488D01*
X148425961Y-87114911D01*
X148425965Y-87114914D01*
X148573446Y-87213459D01*
X148573459Y-87213466D01*
X148696363Y-87264373D01*
X148737334Y-87281344D01*
X148737336Y-87281344D01*
X148737341Y-87281346D01*
X148911304Y-87315949D01*
X148911307Y-87315950D01*
X148911309Y-87315950D01*
X149088693Y-87315950D01*
X149088694Y-87315949D01*
X149146682Y-87304414D01*
X149262658Y-87281346D01*
X149262661Y-87281344D01*
X149262666Y-87281344D01*
X149426547Y-87213463D01*
X149574035Y-87114914D01*
X149699464Y-86989485D01*
X149798013Y-86841997D01*
X149865894Y-86678116D01*
X149900500Y-86504141D01*
X149900500Y-86326759D01*
X149900500Y-86326756D01*
X149900499Y-86326754D01*
X149865896Y-86152791D01*
X149865893Y-86152782D01*
X149798016Y-85988909D01*
X149798009Y-85988896D01*
X149699464Y-85841415D01*
X149699461Y-85841411D01*
X149574038Y-85715988D01*
X149574034Y-85715985D01*
X149426553Y-85617440D01*
X149426540Y-85617433D01*
X149262667Y-85549556D01*
X149262658Y-85549553D01*
X149088694Y-85514950D01*
X149088691Y-85514950D01*
X148911309Y-85514950D01*
X148911307Y-85514950D01*
X148836074Y-85529915D01*
X148799873Y-85537116D01*
X148775684Y-85539499D01*
X148645493Y-85539499D01*
X148645489Y-85539499D01*
X148637882Y-85539500D01*
X148637881Y-85539499D01*
X148637881Y-85539500D01*
X120440098Y-85539500D01*
X120373059Y-85519815D01*
X120352417Y-85503181D01*
X115126819Y-80277583D01*
X115093334Y-80216260D01*
X115090500Y-80189902D01*
X115090500Y-62947317D01*
X115110185Y-62880278D01*
X115144326Y-62846863D01*
X115143559Y-62845807D01*
X115147496Y-62842946D01*
X115147501Y-62842944D01*
X115307252Y-62726879D01*
X115446879Y-62587252D01*
X115446881Y-62587248D01*
X115446884Y-62587246D01*
X115562943Y-62427502D01*
X115563079Y-62427236D01*
X115649797Y-62257043D01*
X115697768Y-62206250D01*
X115765589Y-62189455D01*
X115831724Y-62211992D01*
X115870763Y-62257045D01*
X115957481Y-62427236D01*
X115983457Y-62462988D01*
X115983457Y-62462989D01*
X116547037Y-61899409D01*
X116564075Y-61962993D01*
X116629901Y-62077007D01*
X116722993Y-62170099D01*
X116837007Y-62235925D01*
X116900590Y-62252962D01*
X116337009Y-62816541D01*
X116337010Y-62816542D01*
X116372755Y-62842512D01*
X116372768Y-62842520D01*
X116548626Y-62932126D01*
X116736353Y-62993123D01*
X116931303Y-63024000D01*
X117128697Y-63024000D01*
X117323646Y-62993123D01*
X117511373Y-62932126D01*
X117687241Y-62842516D01*
X117722988Y-62816543D01*
X117722988Y-62816541D01*
X117159410Y-62252962D01*
X117222993Y-62235925D01*
X117337007Y-62170099D01*
X117430099Y-62077007D01*
X117495925Y-61962993D01*
X117512962Y-61899409D01*
X118076541Y-62462988D01*
X118076543Y-62462988D01*
X118102516Y-62427241D01*
X118189235Y-62257046D01*
X118237210Y-62206250D01*
X118305031Y-62189455D01*
X118371165Y-62211992D01*
X118410202Y-62257042D01*
X118494423Y-62422334D01*
X118497058Y-62427505D01*
X118613115Y-62587246D01*
X118752753Y-62726884D01*
X118876158Y-62816541D01*
X118912499Y-62842944D01*
X119088439Y-62932591D01*
X119213637Y-62973270D01*
X119276236Y-62993610D01*
X119471264Y-63024500D01*
X119471269Y-63024500D01*
X119668736Y-63024500D01*
X119863763Y-62993610D01*
X119868823Y-62991966D01*
X120051561Y-62932591D01*
X120227501Y-62842944D01*
X120363127Y-62744407D01*
X120387246Y-62726884D01*
X120387248Y-62726881D01*
X120387252Y-62726879D01*
X120526879Y-62587252D01*
X120526881Y-62587248D01*
X120526884Y-62587246D01*
X120642941Y-62427505D01*
X120642943Y-62427502D01*
X120642944Y-62427501D01*
X120729517Y-62257593D01*
X120777490Y-62206800D01*
X120845311Y-62190005D01*
X120911446Y-62212542D01*
X120950482Y-62257593D01*
X121012199Y-62378717D01*
X121037058Y-62427505D01*
X121153115Y-62587246D01*
X121292753Y-62726884D01*
X121416158Y-62816541D01*
X121452499Y-62842944D01*
X121628439Y-62932591D01*
X121753637Y-62973270D01*
X121816236Y-62993610D01*
X122011264Y-63024500D01*
X122011269Y-63024500D01*
X122208736Y-63024500D01*
X122403763Y-62993610D01*
X122408823Y-62991966D01*
X122591561Y-62932591D01*
X122767501Y-62842944D01*
X122903127Y-62744407D01*
X122927246Y-62726884D01*
X122927248Y-62726881D01*
X122927252Y-62726879D01*
X123066879Y-62587252D01*
X123066881Y-62587248D01*
X123066884Y-62587246D01*
X123182941Y-62427505D01*
X123182943Y-62427502D01*
X123182944Y-62427501D01*
X123269517Y-62257593D01*
X123317490Y-62206800D01*
X123385311Y-62190005D01*
X123451446Y-62212542D01*
X123490482Y-62257593D01*
X123552199Y-62378717D01*
X123577058Y-62427505D01*
X123693115Y-62587246D01*
X123832753Y-62726884D01*
X123956158Y-62816541D01*
X123992499Y-62842944D01*
X124168439Y-62932591D01*
X124293637Y-62973270D01*
X124356236Y-62993610D01*
X124551264Y-63024500D01*
X124551269Y-63024500D01*
X124748736Y-63024500D01*
X124948575Y-62992848D01*
X124948852Y-62994600D01*
X125011001Y-62997696D01*
X125057872Y-63027107D01*
X145395139Y-83364374D01*
X145395149Y-83364385D01*
X145399479Y-83368715D01*
X145399480Y-83368716D01*
X145511284Y-83480520D01*
X145598095Y-83530639D01*
X145598097Y-83530641D01*
X145636151Y-83552611D01*
X145648215Y-83559577D01*
X145800943Y-83600501D01*
X145800946Y-83600501D01*
X145966653Y-83600501D01*
X145966669Y-83600500D01*
X153699903Y-83600500D01*
X153766942Y-83620185D01*
X153787584Y-83636819D01*
X159019084Y-88868319D01*
X159052569Y-88929642D01*
X159047585Y-88999334D01*
X159005713Y-89055267D01*
X158940249Y-89079684D01*
X158931403Y-89080000D01*
X158897683Y-89080000D01*
X158695582Y-89112009D01*
X158500968Y-89175244D01*
X158318644Y-89268143D01*
X158274077Y-89300523D01*
X158274077Y-89300524D01*
X158953554Y-89980000D01*
X158947339Y-89980000D01*
X158845606Y-90007259D01*
X158754394Y-90059920D01*
X158679920Y-90134394D01*
X158627259Y-90225606D01*
X158600000Y-90327339D01*
X158600000Y-90333553D01*
X157920524Y-89654077D01*
X157920523Y-89654077D01*
X157888143Y-89698644D01*
X157795244Y-89880968D01*
X157732009Y-90075582D01*
X157700000Y-90277682D01*
X157700000Y-90482317D01*
X157732009Y-90684417D01*
X157795244Y-90879031D01*
X157888141Y-91061350D01*
X157888147Y-91061359D01*
X157920523Y-91105921D01*
X157920524Y-91105922D01*
X158600000Y-90426446D01*
X158600000Y-90432661D01*
X158627259Y-90534394D01*
X158679920Y-90625606D01*
X158754394Y-90700080D01*
X158845606Y-90752741D01*
X158947339Y-90780000D01*
X158953553Y-90780000D01*
X158274076Y-91459474D01*
X158318650Y-91491859D01*
X158500968Y-91584755D01*
X158695582Y-91647990D01*
X158897683Y-91680000D01*
X159102317Y-91680000D01*
X159304417Y-91647990D01*
X159499031Y-91584755D01*
X159681349Y-91491859D01*
X159725921Y-91459474D01*
X159046447Y-90780000D01*
X159052661Y-90780000D01*
X159154394Y-90752741D01*
X159245606Y-90700080D01*
X159320080Y-90625606D01*
X159372741Y-90534394D01*
X159400000Y-90432661D01*
X159400000Y-90426446D01*
X160079474Y-91105921D01*
X160111859Y-91061349D01*
X160204755Y-90879031D01*
X160267990Y-90684417D01*
X160300000Y-90482317D01*
X160300000Y-90448597D01*
X160319685Y-90381558D01*
X160372489Y-90335803D01*
X160441647Y-90325859D01*
X160505203Y-90354884D01*
X160511681Y-90360916D01*
X172162181Y-102011416D01*
X172195666Y-102072739D01*
X172198500Y-102099097D01*
X172198500Y-102712330D01*
X172198499Y-102712348D01*
X172198499Y-102878054D01*
X172198498Y-102878054D01*
X172239423Y-103030785D01*
X172268358Y-103080900D01*
X172268359Y-103080904D01*
X172268360Y-103080904D01*
X172318479Y-103167714D01*
X172318481Y-103167717D01*
X172437349Y-103286585D01*
X172437355Y-103286590D01*
X172626561Y-103475796D01*
X172660046Y-103537119D01*
X172656811Y-103601794D01*
X172633985Y-103672045D01*
X172614546Y-103794780D01*
X172599500Y-103889778D01*
X172599500Y-104110222D01*
X172607603Y-104161381D01*
X172633985Y-104327952D01*
X172702103Y-104537603D01*
X172702104Y-104537606D01*
X172748181Y-104628034D01*
X172786921Y-104704066D01*
X172802187Y-104734025D01*
X172931752Y-104912358D01*
X172931756Y-104912363D01*
X173087636Y-105068243D01*
X173087641Y-105068247D01*
X173159942Y-105120776D01*
X173265978Y-105197815D01*
X173394375Y-105263237D01*
X173462393Y-105297895D01*
X173462396Y-105297896D01*
X173567221Y-105331955D01*
X173672049Y-105366015D01*
X173889778Y-105400500D01*
X173889779Y-105400500D01*
X174110221Y-105400500D01*
X174110222Y-105400500D01*
X174327951Y-105366015D01*
X174537606Y-105297895D01*
X174734022Y-105197815D01*
X174912365Y-105068242D01*
X175068242Y-104912365D01*
X175197815Y-104734022D01*
X175297895Y-104537606D01*
X175366015Y-104327951D01*
X175400500Y-104110222D01*
X175400500Y-103889778D01*
X175366015Y-103672049D01*
X175297895Y-103462394D01*
X175297895Y-103462393D01*
X175208317Y-103286590D01*
X175197815Y-103265978D01*
X175126424Y-103167716D01*
X175068247Y-103087641D01*
X175068243Y-103087636D01*
X175018071Y-103037464D01*
X174984586Y-102976141D01*
X174989570Y-102906449D01*
X175031442Y-102850516D01*
X175062420Y-102833601D01*
X175142326Y-102803798D01*
X175142326Y-102803797D01*
X175142331Y-102803796D01*
X175257546Y-102717546D01*
X175343796Y-102602331D01*
X175394091Y-102467483D01*
X175400500Y-102407873D01*
X175400499Y-100512128D01*
X175394091Y-100452517D01*
X175343796Y-100317669D01*
X175343795Y-100317668D01*
X175343793Y-100317664D01*
X175257547Y-100202455D01*
X175257544Y-100202452D01*
X175142335Y-100116206D01*
X175142328Y-100116202D01*
X175007482Y-100065908D01*
X175007483Y-100065908D01*
X174947883Y-100059501D01*
X174947881Y-100059500D01*
X174947873Y-100059500D01*
X174947864Y-100059500D01*
X173052129Y-100059500D01*
X173052123Y-100059501D01*
X172992516Y-100065908D01*
X172857671Y-100116202D01*
X172857664Y-100116206D01*
X172742455Y-100202452D01*
X172742452Y-100202455D01*
X172656206Y-100317664D01*
X172656202Y-100317671D01*
X172605909Y-100452516D01*
X172604087Y-100469459D01*
X172577347Y-100534009D01*
X172519954Y-100573856D01*
X172450128Y-100576347D01*
X172393117Y-100543881D01*
X167279014Y-95429778D01*
X172599500Y-95429778D01*
X172599500Y-95650221D01*
X172633985Y-95867952D01*
X172702103Y-96077603D01*
X172702104Y-96077606D01*
X172802187Y-96274025D01*
X172931752Y-96452358D01*
X172931756Y-96452363D01*
X173087636Y-96608243D01*
X173087641Y-96608247D01*
X173243192Y-96721260D01*
X173265978Y-96737815D01*
X173351029Y-96781151D01*
X173462393Y-96837895D01*
X173462396Y-96837896D01*
X173567221Y-96871955D01*
X173672049Y-96906015D01*
X173889778Y-96940500D01*
X173889779Y-96940500D01*
X174110221Y-96940500D01*
X174110222Y-96940500D01*
X174327951Y-96906015D01*
X174537606Y-96837895D01*
X174734022Y-96737815D01*
X174912365Y-96608242D01*
X175068242Y-96452365D01*
X175197815Y-96274022D01*
X175297895Y-96077606D01*
X175366015Y-95867951D01*
X175400500Y-95650222D01*
X175400500Y-95429778D01*
X175366015Y-95212049D01*
X175297895Y-95002394D01*
X175297895Y-95002393D01*
X175263237Y-94934375D01*
X175197815Y-94805978D01*
X175140278Y-94726785D01*
X175068247Y-94627641D01*
X175068243Y-94627636D01*
X174918071Y-94477464D01*
X174884586Y-94416141D01*
X174889570Y-94346449D01*
X174931442Y-94290516D01*
X174962420Y-94273601D01*
X175042326Y-94243798D01*
X175042326Y-94243797D01*
X175042331Y-94243796D01*
X175157546Y-94157546D01*
X175243796Y-94042331D01*
X175294091Y-93907483D01*
X175300500Y-93847873D01*
X175300499Y-92152128D01*
X175294091Y-92092517D01*
X175243796Y-91957669D01*
X175243795Y-91957668D01*
X175243793Y-91957664D01*
X175157547Y-91842455D01*
X175157544Y-91842452D01*
X175042335Y-91756206D01*
X175042328Y-91756202D01*
X174907482Y-91705908D01*
X174907483Y-91705908D01*
X174847883Y-91699501D01*
X174847881Y-91699500D01*
X174847873Y-91699500D01*
X174847864Y-91699500D01*
X173152129Y-91699500D01*
X173152123Y-91699501D01*
X173092516Y-91705908D01*
X172957671Y-91756202D01*
X172957664Y-91756206D01*
X172842455Y-91842452D01*
X172842452Y-91842455D01*
X172756206Y-91957664D01*
X172756202Y-91957671D01*
X172705908Y-92092517D01*
X172699501Y-92152116D01*
X172699501Y-92152123D01*
X172699500Y-92152135D01*
X172699500Y-93847870D01*
X172699501Y-93847876D01*
X172705908Y-93907483D01*
X172756202Y-94042328D01*
X172756206Y-94042335D01*
X172842452Y-94157544D01*
X172842455Y-94157547D01*
X172957664Y-94243793D01*
X172957671Y-94243797D01*
X173037580Y-94273601D01*
X173093514Y-94315472D01*
X173117931Y-94380936D01*
X173103080Y-94449209D01*
X173081929Y-94477464D01*
X172931751Y-94627642D01*
X172802187Y-94805974D01*
X172702104Y-95002393D01*
X172702103Y-95002396D01*
X172633985Y-95212047D01*
X172599500Y-95429778D01*
X167279014Y-95429778D01*
X163729751Y-91880515D01*
X163696266Y-91819192D01*
X163701250Y-91749500D01*
X163743122Y-91693567D01*
X163808586Y-91669150D01*
X163836831Y-91670361D01*
X163897684Y-91680000D01*
X164102317Y-91680000D01*
X164304417Y-91647990D01*
X164499031Y-91584755D01*
X164681349Y-91491859D01*
X164725921Y-91459474D01*
X164046446Y-90780000D01*
X164052661Y-90780000D01*
X164154394Y-90752741D01*
X164245606Y-90700080D01*
X164320080Y-90625606D01*
X164372741Y-90534394D01*
X164400000Y-90432661D01*
X164400000Y-90426448D01*
X165079474Y-91105922D01*
X165079474Y-91105921D01*
X165111859Y-91061349D01*
X165204755Y-90879031D01*
X165267990Y-90684417D01*
X165300000Y-90482317D01*
X165300000Y-90277682D01*
X167700000Y-90277682D01*
X167700000Y-90482317D01*
X167732009Y-90684417D01*
X167795244Y-90879031D01*
X167888141Y-91061350D01*
X167888147Y-91061359D01*
X167920523Y-91105921D01*
X167920524Y-91105922D01*
X168600000Y-90426446D01*
X168600000Y-90432661D01*
X168627259Y-90534394D01*
X168679920Y-90625606D01*
X168754394Y-90700080D01*
X168845606Y-90752741D01*
X168947339Y-90780000D01*
X168953553Y-90780000D01*
X168274076Y-91459474D01*
X168318650Y-91491859D01*
X168500968Y-91584755D01*
X168695582Y-91647990D01*
X168897683Y-91680000D01*
X169102317Y-91680000D01*
X169304417Y-91647990D01*
X169499031Y-91584755D01*
X169681349Y-91491859D01*
X169725921Y-91459474D01*
X169046447Y-90780000D01*
X169052661Y-90780000D01*
X169154394Y-90752741D01*
X169245606Y-90700080D01*
X169320080Y-90625606D01*
X169372741Y-90534394D01*
X169400000Y-90432661D01*
X169400000Y-90426447D01*
X170079474Y-91105921D01*
X170111859Y-91061349D01*
X170204755Y-90879031D01*
X170267990Y-90684417D01*
X170300000Y-90482317D01*
X170300000Y-90277682D01*
X170267990Y-90075582D01*
X170204755Y-89880968D01*
X170111859Y-89698650D01*
X170079474Y-89654077D01*
X170079474Y-89654076D01*
X169400000Y-90333551D01*
X169400000Y-90327339D01*
X169372741Y-90225606D01*
X169320080Y-90134394D01*
X169245606Y-90059920D01*
X169154394Y-90007259D01*
X169052661Y-89980000D01*
X169046446Y-89980000D01*
X169725922Y-89300524D01*
X169725921Y-89300523D01*
X169681359Y-89268147D01*
X169681350Y-89268141D01*
X169499031Y-89175244D01*
X169304417Y-89112009D01*
X169102317Y-89080000D01*
X168897683Y-89080000D01*
X168695582Y-89112009D01*
X168500968Y-89175244D01*
X168318644Y-89268143D01*
X168274077Y-89300523D01*
X168274077Y-89300524D01*
X168953554Y-89980000D01*
X168947339Y-89980000D01*
X168845606Y-90007259D01*
X168754394Y-90059920D01*
X168679920Y-90134394D01*
X168627259Y-90225606D01*
X168600000Y-90327339D01*
X168600000Y-90333553D01*
X167920524Y-89654077D01*
X167920523Y-89654077D01*
X167888143Y-89698644D01*
X167795244Y-89880968D01*
X167732009Y-90075582D01*
X167700000Y-90277682D01*
X165300000Y-90277682D01*
X165267990Y-90075582D01*
X165204755Y-89880968D01*
X165111859Y-89698650D01*
X165079474Y-89654077D01*
X165079474Y-89654076D01*
X164400000Y-90333551D01*
X164400000Y-90327339D01*
X164372741Y-90225606D01*
X164320080Y-90134394D01*
X164245606Y-90059920D01*
X164154394Y-90007259D01*
X164052661Y-89980000D01*
X164046446Y-89980000D01*
X164725922Y-89300524D01*
X164725921Y-89300523D01*
X164681359Y-89268147D01*
X164681350Y-89268141D01*
X164499031Y-89175244D01*
X164304417Y-89112009D01*
X164102317Y-89080000D01*
X163897683Y-89080000D01*
X163695582Y-89112009D01*
X163500968Y-89175244D01*
X163318644Y-89268143D01*
X163274077Y-89300523D01*
X163274077Y-89300524D01*
X163953554Y-89980000D01*
X163947339Y-89980000D01*
X163845606Y-90007259D01*
X163754394Y-90059920D01*
X163679920Y-90134394D01*
X163627259Y-90225606D01*
X163600000Y-90327339D01*
X163600000Y-90333553D01*
X162920524Y-89654077D01*
X162920523Y-89654077D01*
X162888143Y-89698644D01*
X162795244Y-89880968D01*
X162732009Y-90075582D01*
X162700000Y-90277682D01*
X162700000Y-90482317D01*
X162709638Y-90543169D01*
X162700683Y-90612462D01*
X162655687Y-90665914D01*
X162588936Y-90686554D01*
X162521622Y-90667829D01*
X162499484Y-90650248D01*
X161284700Y-89435464D01*
X155304114Y-83454879D01*
X155221305Y-83372070D01*
X158374500Y-83372070D01*
X158374500Y-83627929D01*
X158414526Y-83880640D01*
X158493588Y-84123972D01*
X158493589Y-84123975D01*
X158609750Y-84351950D01*
X158760132Y-84558935D01*
X158760136Y-84558940D01*
X158941059Y-84739863D01*
X158941064Y-84739867D01*
X159121607Y-84871038D01*
X159148053Y-84890252D01*
X159297080Y-84966185D01*
X159376024Y-85006410D01*
X159376027Y-85006411D01*
X159497693Y-85045942D01*
X159619361Y-85085474D01*
X159872070Y-85125500D01*
X159872071Y-85125500D01*
X160127929Y-85125500D01*
X160127930Y-85125500D01*
X160380639Y-85085474D01*
X160623975Y-85006410D01*
X160851947Y-84890252D01*
X161058942Y-84739862D01*
X161239862Y-84558942D01*
X161390252Y-84351947D01*
X161506410Y-84123975D01*
X161585474Y-83880639D01*
X161625500Y-83627930D01*
X161625500Y-83372070D01*
X161585474Y-83119361D01*
X161506410Y-82876025D01*
X161506410Y-82876024D01*
X161466185Y-82797080D01*
X161390252Y-82648053D01*
X161371038Y-82621607D01*
X161239867Y-82441064D01*
X161239863Y-82441059D01*
X161058940Y-82260136D01*
X161058935Y-82260132D01*
X160851950Y-82109750D01*
X160851949Y-82109749D01*
X160851947Y-82109748D01*
X160778910Y-82072533D01*
X160623975Y-81993589D01*
X160623972Y-81993588D01*
X160380640Y-81914526D01*
X160216175Y-81888477D01*
X160127930Y-81874500D01*
X159872070Y-81874500D01*
X159787833Y-81887842D01*
X159619359Y-81914526D01*
X159376027Y-81993588D01*
X159376024Y-81993589D01*
X159148049Y-82109750D01*
X158941064Y-82260132D01*
X158941059Y-82260136D01*
X158760136Y-82441059D01*
X158760132Y-82441064D01*
X158609750Y-82648049D01*
X158493589Y-82876024D01*
X158493588Y-82876027D01*
X158414526Y-83119359D01*
X158374500Y-83372070D01*
X155221305Y-83372070D01*
X154487590Y-82638355D01*
X154487588Y-82638352D01*
X154368717Y-82519481D01*
X154368716Y-82519480D01*
X154281904Y-82469360D01*
X154281904Y-82469359D01*
X154281900Y-82469358D01*
X154231785Y-82440423D01*
X154079057Y-82399499D01*
X153920943Y-82399499D01*
X153913347Y-82399499D01*
X153913331Y-82399500D01*
X146180097Y-82399500D01*
X146113058Y-82379815D01*
X146092416Y-82363181D01*
X144246883Y-80517648D01*
X172699500Y-80517648D01*
X172699500Y-80722351D01*
X172731522Y-80924534D01*
X172794781Y-81119223D01*
X172887715Y-81301613D01*
X173008028Y-81467213D01*
X173152786Y-81611971D01*
X173307749Y-81724556D01*
X173318390Y-81732287D01*
X173434607Y-81791503D01*
X173500776Y-81825218D01*
X173500778Y-81825218D01*
X173500781Y-81825220D01*
X173605137Y-81859127D01*
X173695465Y-81888477D01*
X173796557Y-81904488D01*
X173897648Y-81920500D01*
X173897649Y-81920500D01*
X174102351Y-81920500D01*
X174102352Y-81920500D01*
X174304534Y-81888477D01*
X174499219Y-81825220D01*
X174681610Y-81732287D01*
X174774590Y-81664732D01*
X174847213Y-81611971D01*
X174847215Y-81611968D01*
X174847219Y-81611966D01*
X174991966Y-81467219D01*
X174991968Y-81467215D01*
X174991971Y-81467213D01*
X175044732Y-81394590D01*
X175112287Y-81301610D01*
X175205220Y-81119219D01*
X175268477Y-80924534D01*
X175300500Y-80722352D01*
X175300500Y-80517648D01*
X175268477Y-80315466D01*
X175205220Y-80120781D01*
X175205218Y-80120778D01*
X175205218Y-80120776D01*
X175171503Y-80054607D01*
X175112287Y-79938390D01*
X175104556Y-79927749D01*
X174991971Y-79772786D01*
X174847213Y-79628028D01*
X174681613Y-79507715D01*
X174681612Y-79507714D01*
X174681610Y-79507713D01*
X174624653Y-79478691D01*
X174499223Y-79414781D01*
X174304534Y-79351522D01*
X174129995Y-79323878D01*
X174102352Y-79319500D01*
X173897648Y-79319500D01*
X173873329Y-79323351D01*
X173695465Y-79351522D01*
X173500776Y-79414781D01*
X173318386Y-79507715D01*
X173152786Y-79628028D01*
X173008028Y-79772786D01*
X172887715Y-79938386D01*
X172794781Y-80120776D01*
X172731522Y-80315465D01*
X172699500Y-80517648D01*
X144246883Y-80517648D01*
X139126883Y-75397648D01*
X165699500Y-75397648D01*
X165699500Y-75602351D01*
X165731522Y-75804534D01*
X165794781Y-75999223D01*
X165887715Y-76181613D01*
X166008028Y-76347213D01*
X166152786Y-76491971D01*
X166318385Y-76612284D01*
X166318387Y-76612285D01*
X166318390Y-76612287D01*
X166372378Y-76639795D01*
X166423174Y-76687769D01*
X166439969Y-76755590D01*
X166417432Y-76821725D01*
X166372378Y-76860765D01*
X166318644Y-76888143D01*
X166274077Y-76920523D01*
X166274077Y-76920524D01*
X166953554Y-77600000D01*
X166947339Y-77600000D01*
X166845606Y-77627259D01*
X166754394Y-77679920D01*
X166679920Y-77754394D01*
X166627259Y-77845606D01*
X166600000Y-77947339D01*
X166600000Y-77953553D01*
X165920524Y-77274077D01*
X165920523Y-77274077D01*
X165888143Y-77318644D01*
X165795244Y-77500968D01*
X165732009Y-77695582D01*
X165700000Y-77897682D01*
X165700000Y-78102317D01*
X165732009Y-78304417D01*
X165795244Y-78499031D01*
X165888141Y-78681350D01*
X165888147Y-78681359D01*
X165920523Y-78725921D01*
X165920524Y-78725922D01*
X166600000Y-78046446D01*
X166600000Y-78052661D01*
X166627259Y-78154394D01*
X166679920Y-78245606D01*
X166754394Y-78320080D01*
X166845606Y-78372741D01*
X166947339Y-78400000D01*
X166953553Y-78400000D01*
X166274076Y-79079474D01*
X166318650Y-79111859D01*
X166500968Y-79204755D01*
X166695582Y-79267990D01*
X166897683Y-79300000D01*
X167102317Y-79300000D01*
X167304417Y-79267990D01*
X167499031Y-79204755D01*
X167681349Y-79111859D01*
X167725921Y-79079474D01*
X167046447Y-78400000D01*
X167052661Y-78400000D01*
X167154394Y-78372741D01*
X167245606Y-78320080D01*
X167320080Y-78245606D01*
X167372741Y-78154394D01*
X167400000Y-78052661D01*
X167400000Y-78046448D01*
X168079474Y-78725922D01*
X168079474Y-78725921D01*
X168111859Y-78681349D01*
X168204755Y-78499031D01*
X168267990Y-78304417D01*
X168300000Y-78102317D01*
X168300000Y-77897682D01*
X168267990Y-77695582D01*
X168204755Y-77500968D01*
X168111859Y-77318650D01*
X168079474Y-77274077D01*
X168079474Y-77274076D01*
X167400000Y-77953551D01*
X167400000Y-77947339D01*
X167372741Y-77845606D01*
X167320080Y-77754394D01*
X167245606Y-77679920D01*
X167154394Y-77627259D01*
X167052661Y-77600000D01*
X167046446Y-77600000D01*
X167725922Y-76920524D01*
X167725921Y-76920523D01*
X167681359Y-76888147D01*
X167681350Y-76888141D01*
X167627621Y-76860765D01*
X167576825Y-76812791D01*
X167560030Y-76744970D01*
X167582567Y-76678835D01*
X167627621Y-76639795D01*
X167681610Y-76612287D01*
X167731144Y-76576298D01*
X167847213Y-76491971D01*
X167847215Y-76491968D01*
X167847219Y-76491966D01*
X167991966Y-76347219D01*
X167991968Y-76347215D01*
X167991971Y-76347213D01*
X168044732Y-76274590D01*
X168112287Y-76181610D01*
X168205220Y-75999219D01*
X168268477Y-75804534D01*
X168300500Y-75602352D01*
X168300500Y-75397648D01*
X168268477Y-75195466D01*
X168205220Y-75000781D01*
X168205218Y-75000778D01*
X168205218Y-75000776D01*
X168171503Y-74934607D01*
X168112287Y-74818390D01*
X168104556Y-74807749D01*
X167991971Y-74652786D01*
X167847213Y-74508028D01*
X167681613Y-74387715D01*
X167681612Y-74387714D01*
X167681610Y-74387713D01*
X167624653Y-74358691D01*
X167499223Y-74294781D01*
X167304534Y-74231522D01*
X167129995Y-74203878D01*
X167102352Y-74199500D01*
X166897648Y-74199500D01*
X166873329Y-74203351D01*
X166695465Y-74231522D01*
X166500776Y-74294781D01*
X166318386Y-74387715D01*
X166152786Y-74508028D01*
X166008028Y-74652786D01*
X165887715Y-74818386D01*
X165794781Y-75000776D01*
X165731522Y-75195465D01*
X165699500Y-75397648D01*
X139126883Y-75397648D01*
X127626883Y-63897648D01*
X165699500Y-63897648D01*
X165699500Y-64102352D01*
X165700953Y-64111523D01*
X165731522Y-64304534D01*
X165794781Y-64499223D01*
X165887715Y-64681613D01*
X166008028Y-64847213D01*
X166152786Y-64991971D01*
X166285915Y-65088693D01*
X166318390Y-65112287D01*
X166434607Y-65171503D01*
X166500776Y-65205218D01*
X166500778Y-65205218D01*
X166500781Y-65205220D01*
X166605137Y-65239127D01*
X166695465Y-65268477D01*
X166753368Y-65277648D01*
X166897648Y-65300500D01*
X166897649Y-65300500D01*
X167102351Y-65300500D01*
X167102352Y-65300500D01*
X167246632Y-65277648D01*
X172699500Y-65277648D01*
X172699500Y-65482351D01*
X172731522Y-65684534D01*
X172794781Y-65879223D01*
X172887715Y-66061613D01*
X173008028Y-66227213D01*
X173152786Y-66371971D01*
X173307749Y-66484556D01*
X173318390Y-66492287D01*
X173434607Y-66551503D01*
X173500776Y-66585218D01*
X173500778Y-66585218D01*
X173500781Y-66585220D01*
X173605137Y-66619127D01*
X173695465Y-66648477D01*
X173796557Y-66664488D01*
X173897648Y-66680500D01*
X173897649Y-66680500D01*
X174102351Y-66680500D01*
X174102352Y-66680500D01*
X174304534Y-66648477D01*
X174499219Y-66585220D01*
X174681610Y-66492287D01*
X174774590Y-66424732D01*
X174847213Y-66371971D01*
X174847215Y-66371968D01*
X174847219Y-66371966D01*
X174991966Y-66227219D01*
X174991968Y-66227215D01*
X174991971Y-66227213D01*
X175044732Y-66154590D01*
X175112287Y-66061610D01*
X175205220Y-65879219D01*
X175268477Y-65684534D01*
X175300500Y-65482352D01*
X175300500Y-65277648D01*
X175274309Y-65112287D01*
X175268477Y-65075465D01*
X175215138Y-64911306D01*
X175205220Y-64880781D01*
X175205218Y-64880778D01*
X175205218Y-64880776D01*
X175163049Y-64798016D01*
X175112287Y-64698390D01*
X175100096Y-64681610D01*
X174991971Y-64532786D01*
X174847213Y-64388028D01*
X174681613Y-64267715D01*
X174681612Y-64267714D01*
X174681610Y-64267713D01*
X174586041Y-64219018D01*
X174499223Y-64174781D01*
X174304534Y-64111522D01*
X174129995Y-64083878D01*
X174102352Y-64079500D01*
X173897648Y-64079500D01*
X173873329Y-64083351D01*
X173695465Y-64111522D01*
X173500776Y-64174781D01*
X173318386Y-64267715D01*
X173152786Y-64388028D01*
X173008028Y-64532786D01*
X172887715Y-64698386D01*
X172794781Y-64880776D01*
X172731522Y-65075465D01*
X172699500Y-65277648D01*
X167246632Y-65277648D01*
X167304534Y-65268477D01*
X167499219Y-65205220D01*
X167681610Y-65112287D01*
X167774590Y-65044732D01*
X167847213Y-64991971D01*
X167847215Y-64991968D01*
X167847219Y-64991966D01*
X167991966Y-64847219D01*
X167991968Y-64847215D01*
X167991971Y-64847213D01*
X168071803Y-64737332D01*
X168112287Y-64681610D01*
X168205220Y-64499219D01*
X168268477Y-64304534D01*
X168300500Y-64102352D01*
X168300500Y-63897648D01*
X168268477Y-63695465D01*
X168239127Y-63605137D01*
X168205220Y-63500781D01*
X168205218Y-63500778D01*
X168205218Y-63500776D01*
X168167097Y-63425961D01*
X168112287Y-63318390D01*
X168098926Y-63300000D01*
X167991971Y-63152786D01*
X167847213Y-63008028D01*
X167681611Y-62887713D01*
X167627621Y-62860203D01*
X167576825Y-62812228D01*
X167560031Y-62744407D01*
X167582569Y-62678272D01*
X167627624Y-62639233D01*
X167681349Y-62611859D01*
X167725921Y-62579474D01*
X167046447Y-61900000D01*
X167052661Y-61900000D01*
X167154394Y-61872741D01*
X167245606Y-61820080D01*
X167320080Y-61745606D01*
X167372741Y-61654394D01*
X167400000Y-61552661D01*
X167400000Y-61546448D01*
X168079474Y-62225922D01*
X168079474Y-62225921D01*
X168111859Y-62181349D01*
X168204755Y-61999031D01*
X168237686Y-61897682D01*
X169200000Y-61897682D01*
X169200000Y-62102317D01*
X169232009Y-62304417D01*
X169295244Y-62499031D01*
X169388141Y-62681350D01*
X169388147Y-62681359D01*
X169420523Y-62725921D01*
X169420524Y-62725922D01*
X170100000Y-62046446D01*
X170100000Y-62052661D01*
X170127259Y-62154394D01*
X170179920Y-62245606D01*
X170254394Y-62320080D01*
X170345606Y-62372741D01*
X170447339Y-62400000D01*
X170453553Y-62400000D01*
X169774076Y-63079474D01*
X169818650Y-63111859D01*
X170000968Y-63204755D01*
X170195582Y-63267990D01*
X170397683Y-63300000D01*
X170602317Y-63300000D01*
X170804417Y-63267990D01*
X170999031Y-63204755D01*
X171181349Y-63111859D01*
X171225921Y-63079474D01*
X170546447Y-62400000D01*
X170552661Y-62400000D01*
X170654394Y-62372741D01*
X170745606Y-62320080D01*
X170820080Y-62245606D01*
X170872741Y-62154394D01*
X170900000Y-62052661D01*
X170900000Y-62046448D01*
X171579474Y-62725922D01*
X171579474Y-62725921D01*
X171611859Y-62681349D01*
X171639233Y-62627624D01*
X171687207Y-62576827D01*
X171755028Y-62560031D01*
X171821163Y-62582567D01*
X171860203Y-62627621D01*
X171887713Y-62681611D01*
X172008028Y-62847213D01*
X172152786Y-62991971D01*
X172273226Y-63079474D01*
X172318390Y-63112287D01*
X172397864Y-63152781D01*
X172500776Y-63205218D01*
X172500778Y-63205218D01*
X172500781Y-63205220D01*
X172579613Y-63230834D01*
X172695465Y-63268477D01*
X172796557Y-63284488D01*
X172897648Y-63300500D01*
X172897649Y-63300500D01*
X173102351Y-63300500D01*
X173102352Y-63300500D01*
X173304534Y-63268477D01*
X173499219Y-63205220D01*
X173681610Y-63112287D01*
X173798851Y-63027107D01*
X173847213Y-62991971D01*
X173847215Y-62991968D01*
X173847219Y-62991966D01*
X173991966Y-62847219D01*
X173991968Y-62847215D01*
X173991971Y-62847213D01*
X174058946Y-62755028D01*
X174112287Y-62681610D01*
X174205220Y-62499219D01*
X174268477Y-62304534D01*
X174300500Y-62102352D01*
X174300500Y-61897648D01*
X174278899Y-61761265D01*
X174268477Y-61695465D01*
X174229987Y-61577007D01*
X174205220Y-61500781D01*
X174205218Y-61500778D01*
X174205218Y-61500776D01*
X174152688Y-61397682D01*
X174112287Y-61318390D01*
X174101887Y-61304075D01*
X173991971Y-61152786D01*
X173847213Y-61008028D01*
X173681613Y-60887715D01*
X173681612Y-60887714D01*
X173681610Y-60887713D01*
X173624653Y-60858691D01*
X173499223Y-60794781D01*
X173304534Y-60731522D01*
X173129995Y-60703878D01*
X173102352Y-60699500D01*
X172897648Y-60699500D01*
X172873329Y-60703351D01*
X172695465Y-60731522D01*
X172500776Y-60794781D01*
X172318386Y-60887715D01*
X172152786Y-61008028D01*
X172008028Y-61152786D01*
X171887714Y-61318386D01*
X171860203Y-61372379D01*
X171812227Y-61423174D01*
X171744406Y-61439968D01*
X171678272Y-61417429D01*
X171639234Y-61372376D01*
X171611861Y-61318652D01*
X171579474Y-61274077D01*
X171579474Y-61274076D01*
X170900000Y-61953551D01*
X170900000Y-61947339D01*
X170872741Y-61845606D01*
X170820080Y-61754394D01*
X170745606Y-61679920D01*
X170654394Y-61627259D01*
X170552661Y-61600000D01*
X170546446Y-61600000D01*
X171225922Y-60920524D01*
X171225921Y-60920523D01*
X171181359Y-60888147D01*
X171181350Y-60888141D01*
X170999031Y-60795244D01*
X170804417Y-60732009D01*
X170602317Y-60700000D01*
X170397683Y-60700000D01*
X170195582Y-60732009D01*
X170000968Y-60795244D01*
X169818644Y-60888143D01*
X169774077Y-60920523D01*
X169774077Y-60920524D01*
X170453554Y-61600000D01*
X170447339Y-61600000D01*
X170345606Y-61627259D01*
X170254394Y-61679920D01*
X170179920Y-61754394D01*
X170127259Y-61845606D01*
X170100000Y-61947339D01*
X170100000Y-61953553D01*
X169420524Y-61274077D01*
X169420523Y-61274077D01*
X169388143Y-61318644D01*
X169295244Y-61500968D01*
X169232009Y-61695582D01*
X169200000Y-61897682D01*
X168237686Y-61897682D01*
X168251718Y-61854497D01*
X168267990Y-61804417D01*
X168300000Y-61602317D01*
X168300000Y-61397682D01*
X168267990Y-61195582D01*
X168206423Y-61006102D01*
X168204754Y-61000967D01*
X168111859Y-60818650D01*
X168079474Y-60774077D01*
X168079474Y-60774076D01*
X167400000Y-61453551D01*
X167400000Y-61447339D01*
X167372741Y-61345606D01*
X167320080Y-61254394D01*
X167245606Y-61179920D01*
X167154394Y-61127259D01*
X167052661Y-61100000D01*
X167046446Y-61100000D01*
X167725922Y-60420524D01*
X167725921Y-60420523D01*
X167681359Y-60388147D01*
X167681350Y-60388141D01*
X167499031Y-60295244D01*
X167304417Y-60232009D01*
X167102317Y-60200000D01*
X166897683Y-60200000D01*
X166695582Y-60232009D01*
X166500968Y-60295244D01*
X166318644Y-60388143D01*
X166274077Y-60420523D01*
X166274077Y-60420524D01*
X166953554Y-61100000D01*
X166947339Y-61100000D01*
X166845606Y-61127259D01*
X166754394Y-61179920D01*
X166679920Y-61254394D01*
X166627259Y-61345606D01*
X166600000Y-61447339D01*
X166600000Y-61453553D01*
X165920524Y-60774077D01*
X165920523Y-60774077D01*
X165888143Y-60818644D01*
X165795244Y-61000968D01*
X165732009Y-61195582D01*
X165700000Y-61397682D01*
X165700000Y-61602317D01*
X165732009Y-61804417D01*
X165795244Y-61999031D01*
X165888141Y-62181350D01*
X165888147Y-62181359D01*
X165920523Y-62225921D01*
X165920524Y-62225922D01*
X166600000Y-61546446D01*
X166600000Y-61552661D01*
X166627259Y-61654394D01*
X166679920Y-61745606D01*
X166754394Y-61820080D01*
X166845606Y-61872741D01*
X166947339Y-61900000D01*
X166953553Y-61900000D01*
X166274076Y-62579474D01*
X166318652Y-62611861D01*
X166372376Y-62639234D01*
X166423172Y-62687208D01*
X166439968Y-62755028D01*
X166417431Y-62821164D01*
X166372379Y-62860203D01*
X166318386Y-62887714D01*
X166152786Y-63008028D01*
X166008028Y-63152786D01*
X165887715Y-63318386D01*
X165794781Y-63500776D01*
X165731522Y-63695465D01*
X165699500Y-63897648D01*
X127626883Y-63897648D01*
X126960069Y-63230834D01*
X126926584Y-63169511D01*
X126931568Y-63099819D01*
X126973440Y-63043886D01*
X127038904Y-63019469D01*
X127067150Y-63020680D01*
X127091266Y-63024500D01*
X127091269Y-63024500D01*
X127288736Y-63024500D01*
X127483763Y-62993610D01*
X127488823Y-62991966D01*
X127671561Y-62932591D01*
X127847501Y-62842944D01*
X127983127Y-62744407D01*
X128007246Y-62726884D01*
X128007248Y-62726881D01*
X128007252Y-62726879D01*
X128146879Y-62587252D01*
X128146881Y-62587248D01*
X128146884Y-62587246D01*
X128262941Y-62427505D01*
X128262943Y-62427502D01*
X128262944Y-62427501D01*
X128349517Y-62257593D01*
X128397490Y-62206800D01*
X128465311Y-62190005D01*
X128531446Y-62212542D01*
X128570482Y-62257593D01*
X128632199Y-62378717D01*
X128657058Y-62427505D01*
X128773115Y-62587246D01*
X128912753Y-62726884D01*
X129036158Y-62816541D01*
X129072499Y-62842944D01*
X129248439Y-62932591D01*
X129373637Y-62973270D01*
X129436236Y-62993610D01*
X129631264Y-63024500D01*
X129631269Y-63024500D01*
X129828736Y-63024500D01*
X130023763Y-62993610D01*
X130028823Y-62991966D01*
X130211561Y-62932591D01*
X130387501Y-62842944D01*
X130523127Y-62744407D01*
X130547246Y-62726884D01*
X130547248Y-62726881D01*
X130547252Y-62726879D01*
X130686879Y-62587252D01*
X130686881Y-62587248D01*
X130686884Y-62587246D01*
X130802941Y-62427505D01*
X130802943Y-62427502D01*
X130802944Y-62427501D01*
X130889517Y-62257593D01*
X130937490Y-62206800D01*
X131005311Y-62190005D01*
X131071446Y-62212542D01*
X131110482Y-62257593D01*
X131172199Y-62378717D01*
X131197058Y-62427505D01*
X131313115Y-62587246D01*
X131452753Y-62726884D01*
X131576158Y-62816541D01*
X131612499Y-62842944D01*
X131788439Y-62932591D01*
X131913637Y-62973270D01*
X131976236Y-62993610D01*
X132171264Y-63024500D01*
X132171269Y-63024500D01*
X132368736Y-63024500D01*
X132563763Y-62993610D01*
X132568823Y-62991966D01*
X132751561Y-62932591D01*
X132927501Y-62842944D01*
X133063127Y-62744407D01*
X133087246Y-62726884D01*
X133087248Y-62726881D01*
X133087252Y-62726879D01*
X133226879Y-62587252D01*
X133226881Y-62587248D01*
X133226884Y-62587246D01*
X133342941Y-62427505D01*
X133342943Y-62427502D01*
X133342944Y-62427501D01*
X133429517Y-62257593D01*
X133477490Y-62206800D01*
X133545311Y-62190005D01*
X133611446Y-62212542D01*
X133650482Y-62257593D01*
X133712199Y-62378717D01*
X133737058Y-62427505D01*
X133853115Y-62587246D01*
X133992753Y-62726884D01*
X134116158Y-62816541D01*
X134152499Y-62842944D01*
X134328439Y-62932591D01*
X134453637Y-62973270D01*
X134516236Y-62993610D01*
X134711264Y-63024500D01*
X134711269Y-63024500D01*
X134908736Y-63024500D01*
X135103763Y-62993610D01*
X135108823Y-62991966D01*
X135291561Y-62932591D01*
X135467501Y-62842944D01*
X135603127Y-62744407D01*
X135627246Y-62726884D01*
X135627248Y-62726881D01*
X135627252Y-62726879D01*
X135766879Y-62587252D01*
X135766881Y-62587248D01*
X135766884Y-62587246D01*
X135882943Y-62427502D01*
X135883079Y-62427236D01*
X135969797Y-62257043D01*
X136017768Y-62206250D01*
X136085589Y-62189455D01*
X136151724Y-62211992D01*
X136190763Y-62257045D01*
X136277481Y-62427236D01*
X136303457Y-62462988D01*
X136303457Y-62462989D01*
X136867037Y-61899409D01*
X136884075Y-61962993D01*
X136949901Y-62077007D01*
X137042993Y-62170099D01*
X137157007Y-62235925D01*
X137220590Y-62252962D01*
X136657009Y-62816541D01*
X136657010Y-62816542D01*
X136692755Y-62842512D01*
X136692768Y-62842520D01*
X136868626Y-62932126D01*
X137056353Y-62993123D01*
X137251303Y-63024000D01*
X137448697Y-63024000D01*
X137643646Y-62993123D01*
X137831373Y-62932126D01*
X138007241Y-62842516D01*
X138042988Y-62816543D01*
X138042988Y-62816541D01*
X137479410Y-62252962D01*
X137542993Y-62235925D01*
X137657007Y-62170099D01*
X137750099Y-62077007D01*
X137815925Y-61962993D01*
X137832962Y-61899409D01*
X138396541Y-62462988D01*
X138396543Y-62462988D01*
X138422516Y-62427241D01*
X138509235Y-62257046D01*
X138557210Y-62206250D01*
X138625031Y-62189455D01*
X138691165Y-62211992D01*
X138730202Y-62257042D01*
X138814423Y-62422334D01*
X138817058Y-62427505D01*
X138933115Y-62587246D01*
X139072753Y-62726884D01*
X139196158Y-62816541D01*
X139232499Y-62842944D01*
X139408439Y-62932591D01*
X139533637Y-62973270D01*
X139596236Y-62993610D01*
X139791264Y-63024500D01*
X139791269Y-63024500D01*
X139988736Y-63024500D01*
X140183763Y-62993610D01*
X140188823Y-62991966D01*
X140371561Y-62932591D01*
X140547501Y-62842944D01*
X140683127Y-62744407D01*
X140707246Y-62726884D01*
X140707248Y-62726881D01*
X140707252Y-62726879D01*
X140846879Y-62587252D01*
X140846881Y-62587248D01*
X140846884Y-62587246D01*
X140962941Y-62427505D01*
X140962943Y-62427502D01*
X140962944Y-62427501D01*
X141049517Y-62257593D01*
X141097490Y-62206800D01*
X141165311Y-62190005D01*
X141231446Y-62212542D01*
X141270482Y-62257593D01*
X141332199Y-62378717D01*
X141357058Y-62427505D01*
X141473115Y-62587246D01*
X141612753Y-62726884D01*
X141736158Y-62816541D01*
X141772499Y-62842944D01*
X141948439Y-62932591D01*
X142073637Y-62973270D01*
X142136236Y-62993610D01*
X142331264Y-63024500D01*
X142331269Y-63024500D01*
X142528736Y-63024500D01*
X142723763Y-62993610D01*
X142728823Y-62991966D01*
X142911561Y-62932591D01*
X143087501Y-62842944D01*
X143223127Y-62744407D01*
X143247246Y-62726884D01*
X143247248Y-62726881D01*
X143247252Y-62726879D01*
X143386879Y-62587252D01*
X143386881Y-62587248D01*
X143386884Y-62587246D01*
X143502941Y-62427505D01*
X143502943Y-62427502D01*
X143502944Y-62427501D01*
X143589517Y-62257593D01*
X143637490Y-62206800D01*
X143705311Y-62190005D01*
X143771446Y-62212542D01*
X143810482Y-62257593D01*
X143872199Y-62378717D01*
X143897058Y-62427505D01*
X144013115Y-62587246D01*
X144152753Y-62726884D01*
X144276158Y-62816541D01*
X144312499Y-62842944D01*
X144488439Y-62932591D01*
X144613637Y-62973270D01*
X144676236Y-62993610D01*
X144871264Y-63024500D01*
X144871269Y-63024500D01*
X145068736Y-63024500D01*
X145263763Y-62993610D01*
X145268823Y-62991966D01*
X145451561Y-62932591D01*
X145627501Y-62842944D01*
X145763127Y-62744407D01*
X145787246Y-62726884D01*
X145787248Y-62726881D01*
X145787252Y-62726879D01*
X145926879Y-62587252D01*
X145926881Y-62587248D01*
X145926884Y-62587246D01*
X146042941Y-62427505D01*
X146042943Y-62427502D01*
X146042944Y-62427501D01*
X146129517Y-62257593D01*
X146177490Y-62206800D01*
X146245311Y-62190005D01*
X146311446Y-62212542D01*
X146350482Y-62257593D01*
X146412199Y-62378717D01*
X146437058Y-62427505D01*
X146553115Y-62587246D01*
X146692753Y-62726884D01*
X146816158Y-62816541D01*
X146852499Y-62842944D01*
X147028439Y-62932591D01*
X147153637Y-62973270D01*
X147216236Y-62993610D01*
X147411264Y-63024500D01*
X147411269Y-63024500D01*
X147608736Y-63024500D01*
X147803763Y-62993610D01*
X147808823Y-62991966D01*
X147991561Y-62932591D01*
X148167501Y-62842944D01*
X148303127Y-62744407D01*
X148327246Y-62726884D01*
X148327248Y-62726881D01*
X148327252Y-62726879D01*
X148466879Y-62587252D01*
X148466881Y-62587248D01*
X148466884Y-62587246D01*
X148582941Y-62427505D01*
X148582943Y-62427502D01*
X148582944Y-62427501D01*
X148669517Y-62257593D01*
X148717490Y-62206800D01*
X148785311Y-62190005D01*
X148851446Y-62212542D01*
X148890482Y-62257593D01*
X148952199Y-62378717D01*
X148977058Y-62427505D01*
X149093115Y-62587246D01*
X149232753Y-62726884D01*
X149356158Y-62816541D01*
X149392499Y-62842944D01*
X149568439Y-62932591D01*
X149693637Y-62973270D01*
X149756236Y-62993610D01*
X149951264Y-63024500D01*
X149951269Y-63024500D01*
X150148736Y-63024500D01*
X150343763Y-62993610D01*
X150348823Y-62991966D01*
X150531561Y-62932591D01*
X150707501Y-62842944D01*
X150843127Y-62744407D01*
X150867246Y-62726884D01*
X150867248Y-62726881D01*
X150867252Y-62726879D01*
X151006879Y-62587252D01*
X151006881Y-62587248D01*
X151006884Y-62587246D01*
X151122941Y-62427505D01*
X151122943Y-62427502D01*
X151122944Y-62427501D01*
X151209517Y-62257593D01*
X151257490Y-62206800D01*
X151325311Y-62190005D01*
X151391446Y-62212542D01*
X151430482Y-62257593D01*
X151492199Y-62378717D01*
X151517058Y-62427505D01*
X151633115Y-62587246D01*
X151772753Y-62726884D01*
X151896158Y-62816541D01*
X151932499Y-62842944D01*
X152108439Y-62932591D01*
X152233637Y-62973270D01*
X152296236Y-62993610D01*
X152491264Y-63024500D01*
X152491269Y-63024500D01*
X152688736Y-63024500D01*
X152883763Y-62993610D01*
X152888823Y-62991966D01*
X153071561Y-62932591D01*
X153247501Y-62842944D01*
X153383127Y-62744407D01*
X153407246Y-62726884D01*
X153407248Y-62726881D01*
X153407252Y-62726879D01*
X153546879Y-62587252D01*
X153546881Y-62587248D01*
X153546884Y-62587246D01*
X153662943Y-62427502D01*
X153663079Y-62427236D01*
X153749797Y-62257043D01*
X153797768Y-62206250D01*
X153865589Y-62189455D01*
X153931724Y-62211992D01*
X153970763Y-62257045D01*
X154057481Y-62427236D01*
X154083457Y-62462988D01*
X154083457Y-62462989D01*
X154647037Y-61899409D01*
X154664075Y-61962993D01*
X154729901Y-62077007D01*
X154822993Y-62170099D01*
X154937007Y-62235925D01*
X155000590Y-62252962D01*
X154437009Y-62816541D01*
X154437010Y-62816542D01*
X154472755Y-62842512D01*
X154472768Y-62842520D01*
X154648626Y-62932126D01*
X154836353Y-62993123D01*
X155031303Y-63024000D01*
X155228697Y-63024000D01*
X155423646Y-62993123D01*
X155611373Y-62932126D01*
X155787241Y-62842516D01*
X155822988Y-62816543D01*
X155822988Y-62816541D01*
X155259410Y-62252962D01*
X155322993Y-62235925D01*
X155437007Y-62170099D01*
X155530099Y-62077007D01*
X155595925Y-61962993D01*
X155612962Y-61899409D01*
X156176541Y-62462988D01*
X156176543Y-62462988D01*
X156202516Y-62427241D01*
X156292126Y-62251373D01*
X156353123Y-62063646D01*
X156384000Y-61868697D01*
X156384000Y-61671302D01*
X156353123Y-61476353D01*
X156292126Y-61288626D01*
X156202520Y-61112768D01*
X156202512Y-61112755D01*
X156176542Y-61077010D01*
X156176541Y-61077009D01*
X155612962Y-61640589D01*
X155595925Y-61577007D01*
X155530099Y-61462993D01*
X155437007Y-61369901D01*
X155322993Y-61304075D01*
X155259409Y-61287037D01*
X155822989Y-60723457D01*
X155787236Y-60697481D01*
X155617045Y-60610763D01*
X155566250Y-60562789D01*
X155549455Y-60494968D01*
X155571993Y-60428833D01*
X155617042Y-60389798D01*
X155651835Y-60372070D01*
X158374500Y-60372070D01*
X158374500Y-60627930D01*
X158379334Y-60658452D01*
X158414526Y-60880640D01*
X158493588Y-61123972D01*
X158493589Y-61123975D01*
X158560042Y-61254394D01*
X158609033Y-61350544D01*
X158609750Y-61351950D01*
X158760132Y-61558935D01*
X158760136Y-61558940D01*
X158941059Y-61739863D01*
X158941064Y-61739867D01*
X159086603Y-61845606D01*
X159148053Y-61890252D01*
X159290815Y-61962993D01*
X159376024Y-62006410D01*
X159376027Y-62006411D01*
X159497693Y-62045942D01*
X159619361Y-62085474D01*
X159872070Y-62125500D01*
X159872071Y-62125500D01*
X160127929Y-62125500D01*
X160127930Y-62125500D01*
X160380639Y-62085474D01*
X160623975Y-62006410D01*
X160851947Y-61890252D01*
X161058942Y-61739862D01*
X161239862Y-61558942D01*
X161390252Y-61351947D01*
X161394069Y-61344455D01*
X161398113Y-61336520D01*
X161506410Y-61123975D01*
X161506411Y-61123972D01*
X161557047Y-60968128D01*
X161585474Y-60880639D01*
X161625500Y-60627930D01*
X161625500Y-60372070D01*
X161585474Y-60119361D01*
X161524454Y-59931559D01*
X161506411Y-59876027D01*
X161506410Y-59876024D01*
X161425406Y-59717047D01*
X161390252Y-59648053D01*
X161309573Y-59537007D01*
X161239867Y-59441064D01*
X161239863Y-59441059D01*
X161058940Y-59260136D01*
X161058935Y-59260132D01*
X160851950Y-59109750D01*
X160851949Y-59109749D01*
X160851947Y-59109748D01*
X160778910Y-59072533D01*
X160623975Y-58993589D01*
X160623972Y-58993588D01*
X160380640Y-58914526D01*
X160254284Y-58894513D01*
X160127930Y-58874500D01*
X159872070Y-58874500D01*
X159787833Y-58887842D01*
X159619359Y-58914526D01*
X159376027Y-58993588D01*
X159376024Y-58993589D01*
X159148049Y-59109750D01*
X158941064Y-59260132D01*
X158941059Y-59260136D01*
X158760136Y-59441059D01*
X158760132Y-59441064D01*
X158609750Y-59648049D01*
X158493589Y-59876024D01*
X158493588Y-59876027D01*
X158414526Y-60119359D01*
X158389630Y-60276542D01*
X158374500Y-60372070D01*
X155651835Y-60372070D01*
X155787501Y-60302944D01*
X155947252Y-60186879D01*
X156086879Y-60047252D01*
X156086881Y-60047248D01*
X156086884Y-60047246D01*
X156170934Y-59931559D01*
X156202944Y-59887501D01*
X156292591Y-59711561D01*
X156353610Y-59523763D01*
X156384500Y-59328736D01*
X156384500Y-59131263D01*
X156353610Y-58936236D01*
X156305268Y-58787456D01*
X156292591Y-58748439D01*
X156202944Y-58572499D01*
X156192541Y-58558180D01*
X156159086Y-58512133D01*
X156159085Y-58512130D01*
X156086884Y-58412754D01*
X156086880Y-58412749D01*
X155947246Y-58273115D01*
X155787504Y-58157058D01*
X155787503Y-58157057D01*
X155787501Y-58157056D01*
X155611561Y-58067409D01*
X155611558Y-58067408D01*
X155423763Y-58006389D01*
X155228736Y-57975500D01*
X155228731Y-57975500D01*
X155031269Y-57975500D01*
X155031264Y-57975500D01*
X154836236Y-58006389D01*
X154648441Y-58067408D01*
X154472495Y-58157058D01*
X154312753Y-58273115D01*
X154173115Y-58412753D01*
X154057058Y-58572495D01*
X154057056Y-58572499D01*
X153976805Y-58730000D01*
X153970485Y-58742403D01*
X153922510Y-58793199D01*
X153854689Y-58809994D01*
X153788554Y-58787456D01*
X153749515Y-58742403D01*
X153662944Y-58572499D01*
X153652541Y-58558180D01*
X153546884Y-58412753D01*
X153407246Y-58273115D01*
X153247504Y-58157058D01*
X153247503Y-58157057D01*
X153247501Y-58157056D01*
X153071561Y-58067409D01*
X153071558Y-58067408D01*
X152883763Y-58006389D01*
X152688736Y-57975500D01*
X152688731Y-57975500D01*
X152491269Y-57975500D01*
X152491264Y-57975500D01*
X152296236Y-58006389D01*
X152108441Y-58067408D01*
X151932495Y-58157058D01*
X151772753Y-58273115D01*
X151633115Y-58412753D01*
X151517058Y-58572495D01*
X151517056Y-58572499D01*
X151436805Y-58730000D01*
X151430485Y-58742403D01*
X151382510Y-58793199D01*
X151314689Y-58809994D01*
X151248554Y-58787456D01*
X151209515Y-58742403D01*
X151122944Y-58572499D01*
X151112541Y-58558180D01*
X151006884Y-58412753D01*
X150867246Y-58273115D01*
X150707504Y-58157058D01*
X150707503Y-58157057D01*
X150707501Y-58157056D01*
X150531561Y-58067409D01*
X150531558Y-58067408D01*
X150343763Y-58006389D01*
X150148736Y-57975500D01*
X150148731Y-57975500D01*
X149951269Y-57975500D01*
X149951264Y-57975500D01*
X149756236Y-58006389D01*
X149568441Y-58067408D01*
X149392495Y-58157058D01*
X149232753Y-58273115D01*
X149093115Y-58412753D01*
X148977058Y-58572495D01*
X148977056Y-58572499D01*
X148890203Y-58742954D01*
X148842230Y-58793749D01*
X148774409Y-58810544D01*
X148708274Y-58788006D01*
X148669235Y-58742953D01*
X148582520Y-58572768D01*
X148582512Y-58572755D01*
X148556542Y-58537010D01*
X148556541Y-58537009D01*
X147992962Y-59100589D01*
X147975925Y-59037007D01*
X147910099Y-58922993D01*
X147817007Y-58829901D01*
X147702993Y-58764075D01*
X147639409Y-58747037D01*
X148202989Y-58183457D01*
X148167239Y-58157483D01*
X147991373Y-58067873D01*
X147803646Y-58006876D01*
X147608697Y-57976000D01*
X147411303Y-57976000D01*
X147216353Y-58006876D01*
X147028626Y-58067873D01*
X146852762Y-58157482D01*
X146852760Y-58157483D01*
X146817010Y-58183456D01*
X146817010Y-58183457D01*
X147380591Y-58747037D01*
X147317007Y-58764075D01*
X147202993Y-58829901D01*
X147109901Y-58922993D01*
X147044075Y-59037007D01*
X147027037Y-59100590D01*
X146463457Y-58537010D01*
X146463456Y-58537010D01*
X146437483Y-58572760D01*
X146437479Y-58572767D01*
X146350763Y-58742954D01*
X146302788Y-58793749D01*
X146234967Y-58810544D01*
X146168833Y-58788006D01*
X146129798Y-58742957D01*
X146042944Y-58572499D01*
X146042942Y-58572496D01*
X146042941Y-58572494D01*
X145926884Y-58412753D01*
X145787246Y-58273115D01*
X145627504Y-58157058D01*
X145627503Y-58157057D01*
X145627501Y-58157056D01*
X145451561Y-58067409D01*
X145451558Y-58067408D01*
X145263763Y-58006389D01*
X145068736Y-57975500D01*
X145068731Y-57975500D01*
X144871269Y-57975500D01*
X144871264Y-57975500D01*
X144676236Y-58006389D01*
X144488441Y-58067408D01*
X144312495Y-58157058D01*
X144152753Y-58273115D01*
X144013115Y-58412753D01*
X143897058Y-58572495D01*
X143897056Y-58572499D01*
X143810203Y-58742954D01*
X143762230Y-58793749D01*
X143694409Y-58810544D01*
X143628274Y-58788006D01*
X143589235Y-58742953D01*
X143502520Y-58572768D01*
X143502512Y-58572755D01*
X143476542Y-58537010D01*
X143476541Y-58537009D01*
X142912962Y-59100589D01*
X142895925Y-59037007D01*
X142830099Y-58922993D01*
X142737007Y-58829901D01*
X142622993Y-58764075D01*
X142559409Y-58747037D01*
X143122989Y-58183457D01*
X143087239Y-58157483D01*
X142911373Y-58067873D01*
X142723646Y-58006876D01*
X142528697Y-57976000D01*
X142331303Y-57976000D01*
X142136353Y-58006876D01*
X141948626Y-58067873D01*
X141772762Y-58157482D01*
X141772760Y-58157483D01*
X141737010Y-58183456D01*
X141737010Y-58183457D01*
X142300591Y-58747037D01*
X142237007Y-58764075D01*
X142122993Y-58829901D01*
X142029901Y-58922993D01*
X141964075Y-59037007D01*
X141947037Y-59100590D01*
X141383456Y-58537010D01*
X141357483Y-58572760D01*
X141357479Y-58572767D01*
X141270763Y-58742954D01*
X141222788Y-58793749D01*
X141154967Y-58810544D01*
X141088833Y-58788006D01*
X141049798Y-58742957D01*
X140962944Y-58572499D01*
X140962942Y-58572496D01*
X140962941Y-58572494D01*
X140846884Y-58412753D01*
X140707246Y-58273115D01*
X140547504Y-58157058D01*
X140547503Y-58157057D01*
X140547501Y-58157056D01*
X140371561Y-58067409D01*
X140371558Y-58067408D01*
X140183763Y-58006389D01*
X139988736Y-57975500D01*
X139988731Y-57975500D01*
X139791269Y-57975500D01*
X139791264Y-57975500D01*
X139596236Y-58006389D01*
X139408441Y-58067408D01*
X139232495Y-58157058D01*
X139072753Y-58273115D01*
X138933115Y-58412753D01*
X138817058Y-58572495D01*
X138817056Y-58572499D01*
X138736805Y-58730000D01*
X138730485Y-58742403D01*
X138682510Y-58793199D01*
X138614689Y-58809994D01*
X138548554Y-58787456D01*
X138509515Y-58742403D01*
X138422944Y-58572499D01*
X138412541Y-58558180D01*
X138306884Y-58412753D01*
X138167246Y-58273115D01*
X138007504Y-58157058D01*
X138007503Y-58157057D01*
X138007501Y-58157056D01*
X137831561Y-58067409D01*
X137831558Y-58067408D01*
X137643763Y-58006389D01*
X137448736Y-57975500D01*
X137448731Y-57975500D01*
X137251269Y-57975500D01*
X137251264Y-57975500D01*
X137056236Y-58006389D01*
X136868441Y-58067408D01*
X136692495Y-58157058D01*
X136532753Y-58273115D01*
X136393115Y-58412753D01*
X136277058Y-58572495D01*
X136277056Y-58572499D01*
X136196805Y-58730000D01*
X136190485Y-58742403D01*
X136142510Y-58793199D01*
X136074689Y-58809994D01*
X136008554Y-58787456D01*
X135969515Y-58742403D01*
X135882944Y-58572499D01*
X135872541Y-58558180D01*
X135766884Y-58412753D01*
X135627246Y-58273115D01*
X135467504Y-58157058D01*
X135467503Y-58157057D01*
X135467501Y-58157056D01*
X135291561Y-58067409D01*
X135291558Y-58067408D01*
X135103763Y-58006389D01*
X134908736Y-57975500D01*
X134908731Y-57975500D01*
X134711269Y-57975500D01*
X134711264Y-57975500D01*
X134516236Y-58006389D01*
X134328441Y-58067408D01*
X134152495Y-58157058D01*
X133992753Y-58273115D01*
X133853115Y-58412753D01*
X133737058Y-58572495D01*
X133737056Y-58572499D01*
X133656805Y-58730000D01*
X133650485Y-58742403D01*
X133602510Y-58793199D01*
X133534689Y-58809994D01*
X133468554Y-58787456D01*
X133429515Y-58742403D01*
X133342944Y-58572499D01*
X133332541Y-58558180D01*
X133226884Y-58412753D01*
X133087246Y-58273115D01*
X132927504Y-58157058D01*
X132927503Y-58157057D01*
X132927501Y-58157056D01*
X132751561Y-58067409D01*
X132751558Y-58067408D01*
X132563763Y-58006389D01*
X132368736Y-57975500D01*
X132368731Y-57975500D01*
X132171269Y-57975500D01*
X132171264Y-57975500D01*
X131976236Y-58006389D01*
X131788441Y-58067408D01*
X131612495Y-58157058D01*
X131452753Y-58273115D01*
X131313115Y-58412753D01*
X131197058Y-58572495D01*
X131197056Y-58572499D01*
X131110203Y-58742954D01*
X131062230Y-58793749D01*
X130994409Y-58810544D01*
X130928274Y-58788006D01*
X130889235Y-58742953D01*
X130802520Y-58572768D01*
X130802512Y-58572755D01*
X130776542Y-58537010D01*
X130776541Y-58537009D01*
X130212962Y-59100589D01*
X130195925Y-59037007D01*
X130130099Y-58922993D01*
X130037007Y-58829901D01*
X129922993Y-58764075D01*
X129859409Y-58747037D01*
X130422989Y-58183457D01*
X130387239Y-58157483D01*
X130211373Y-58067873D01*
X130023646Y-58006876D01*
X129828697Y-57976000D01*
X129631303Y-57976000D01*
X129436353Y-58006876D01*
X129248626Y-58067873D01*
X129072762Y-58157482D01*
X129072760Y-58157483D01*
X129037010Y-58183456D01*
X129037010Y-58183457D01*
X129600591Y-58747037D01*
X129537007Y-58764075D01*
X129422993Y-58829901D01*
X129329901Y-58922993D01*
X129264075Y-59037007D01*
X129247037Y-59100590D01*
X128683456Y-58537010D01*
X128657483Y-58572760D01*
X128657479Y-58572767D01*
X128570763Y-58742954D01*
X128522788Y-58793749D01*
X128454967Y-58810544D01*
X128388833Y-58788006D01*
X128349798Y-58742957D01*
X128262944Y-58572499D01*
X128262942Y-58572496D01*
X128262941Y-58572494D01*
X128146884Y-58412753D01*
X128007246Y-58273115D01*
X127847504Y-58157058D01*
X127847503Y-58157057D01*
X127847501Y-58157056D01*
X127671561Y-58067409D01*
X127671558Y-58067408D01*
X127483763Y-58006389D01*
X127288736Y-57975500D01*
X127288731Y-57975500D01*
X127091269Y-57975500D01*
X127091264Y-57975500D01*
X126896236Y-58006389D01*
X126708441Y-58067408D01*
X126532495Y-58157058D01*
X126372753Y-58273115D01*
X126233115Y-58412753D01*
X126117058Y-58572495D01*
X126117056Y-58572499D01*
X126036805Y-58730000D01*
X126030485Y-58742403D01*
X125982510Y-58793199D01*
X125914689Y-58809994D01*
X125848554Y-58787456D01*
X125809515Y-58742403D01*
X125722944Y-58572499D01*
X125712541Y-58558180D01*
X125606884Y-58412753D01*
X125467246Y-58273115D01*
X125307504Y-58157058D01*
X125307503Y-58157057D01*
X125307501Y-58157056D01*
X125131561Y-58067409D01*
X125131558Y-58067408D01*
X124943763Y-58006389D01*
X124748736Y-57975500D01*
X124748731Y-57975500D01*
X124551269Y-57975500D01*
X124551264Y-57975500D01*
X124356236Y-58006389D01*
X124168441Y-58067408D01*
X123992495Y-58157058D01*
X123832753Y-58273115D01*
X123693115Y-58412753D01*
X123577058Y-58572495D01*
X123577056Y-58572499D01*
X123490203Y-58742954D01*
X123442230Y-58793749D01*
X123374409Y-58810544D01*
X123308274Y-58788006D01*
X123269235Y-58742953D01*
X123182520Y-58572768D01*
X123182512Y-58572755D01*
X123156542Y-58537010D01*
X123156541Y-58537009D01*
X122592962Y-59100589D01*
X122575925Y-59037007D01*
X122510099Y-58922993D01*
X122417007Y-58829901D01*
X122302993Y-58764075D01*
X122239409Y-58747037D01*
X122802989Y-58183457D01*
X122767239Y-58157483D01*
X122591373Y-58067873D01*
X122403646Y-58006876D01*
X122208697Y-57976000D01*
X122011303Y-57976000D01*
X121816353Y-58006876D01*
X121628626Y-58067873D01*
X121452762Y-58157482D01*
X121452760Y-58157483D01*
X121417010Y-58183456D01*
X121417010Y-58183457D01*
X121980591Y-58747037D01*
X121917007Y-58764075D01*
X121802993Y-58829901D01*
X121709901Y-58922993D01*
X121644075Y-59037007D01*
X121627037Y-59100590D01*
X121063457Y-58537010D01*
X121063456Y-58537010D01*
X121037483Y-58572760D01*
X121037479Y-58572767D01*
X120950763Y-58742954D01*
X120902788Y-58793749D01*
X120834967Y-58810544D01*
X120768833Y-58788006D01*
X120729798Y-58742957D01*
X120642944Y-58572499D01*
X120642942Y-58572496D01*
X120642941Y-58572494D01*
X120526884Y-58412753D01*
X120387246Y-58273115D01*
X120227504Y-58157058D01*
X120227503Y-58157057D01*
X120227501Y-58157056D01*
X120051561Y-58067409D01*
X120051558Y-58067408D01*
X119863763Y-58006389D01*
X119668736Y-57975500D01*
X119668731Y-57975500D01*
X119471269Y-57975500D01*
X119471264Y-57975500D01*
X119276236Y-58006389D01*
X119088441Y-58067408D01*
X118912495Y-58157058D01*
X118752753Y-58273115D01*
X118613115Y-58412753D01*
X118497058Y-58572495D01*
X118497056Y-58572499D01*
X118416805Y-58730000D01*
X118410485Y-58742403D01*
X118362510Y-58793199D01*
X118294689Y-58809994D01*
X118228554Y-58787456D01*
X118189515Y-58742403D01*
X118102944Y-58572499D01*
X118092541Y-58558180D01*
X117986884Y-58412753D01*
X117847246Y-58273115D01*
X117687504Y-58157058D01*
X117687503Y-58157057D01*
X117687501Y-58157056D01*
X117511561Y-58067409D01*
X117511558Y-58067408D01*
X117323763Y-58006389D01*
X117128736Y-57975500D01*
X117128731Y-57975500D01*
X116931269Y-57975500D01*
X116931264Y-57975500D01*
X116736236Y-58006389D01*
X116548441Y-58067408D01*
X116372495Y-58157058D01*
X116212753Y-58273115D01*
X116073115Y-58412753D01*
X115957058Y-58572495D01*
X115957056Y-58572499D01*
X115876805Y-58730000D01*
X115870485Y-58742403D01*
X115822510Y-58793199D01*
X115754689Y-58809994D01*
X115688554Y-58787456D01*
X115649515Y-58742403D01*
X115562944Y-58572499D01*
X115552541Y-58558180D01*
X115446884Y-58412753D01*
X115307246Y-58273115D01*
X115147504Y-58157058D01*
X115147503Y-58157057D01*
X115147501Y-58157056D01*
X114971561Y-58067409D01*
X114971558Y-58067408D01*
X114783763Y-58006389D01*
X114588736Y-57975500D01*
X114588731Y-57975500D01*
X114391269Y-57975500D01*
X114391264Y-57975500D01*
X114196236Y-58006389D01*
X114008441Y-58067408D01*
X113832495Y-58157058D01*
X113672753Y-58273115D01*
X113533115Y-58412753D01*
X113417058Y-58572495D01*
X113417056Y-58572499D01*
X113330203Y-58742954D01*
X113282230Y-58793749D01*
X113214409Y-58810544D01*
X113148274Y-58788006D01*
X113109235Y-58742953D01*
X113022520Y-58572768D01*
X113022512Y-58572755D01*
X112996542Y-58537010D01*
X112996541Y-58537009D01*
X112432962Y-59100589D01*
X112415925Y-59037007D01*
X112350099Y-58922993D01*
X112257007Y-58829901D01*
X112142993Y-58764075D01*
X112079409Y-58747037D01*
X112642989Y-58183457D01*
X112607239Y-58157483D01*
X112431373Y-58067873D01*
X112243646Y-58006876D01*
X112048697Y-57976000D01*
X111851303Y-57976000D01*
X111656353Y-58006876D01*
X111468626Y-58067873D01*
X111292762Y-58157482D01*
X111292760Y-58157483D01*
X111257010Y-58183456D01*
X111257010Y-58183457D01*
X111820591Y-58747037D01*
X111757007Y-58764075D01*
X111642993Y-58829901D01*
X111549901Y-58922993D01*
X111484075Y-59037007D01*
X111467037Y-59100591D01*
X110903456Y-58537010D01*
X110877483Y-58572760D01*
X110877479Y-58572767D01*
X110790763Y-58742954D01*
X110742788Y-58793749D01*
X110674967Y-58810544D01*
X110608833Y-58788006D01*
X110569798Y-58742957D01*
X110482944Y-58572499D01*
X110482942Y-58572496D01*
X110482941Y-58572494D01*
X110366884Y-58412753D01*
X110227246Y-58273115D01*
X110067504Y-58157058D01*
X110067503Y-58157057D01*
X110067501Y-58157056D01*
X109891561Y-58067409D01*
X109891558Y-58067408D01*
X109703763Y-58006389D01*
X109508736Y-57975500D01*
X109508731Y-57975500D01*
X109311269Y-57975500D01*
X109311264Y-57975500D01*
X109116236Y-58006389D01*
X108928441Y-58067408D01*
X108752495Y-58157058D01*
X108592753Y-58273115D01*
X108453115Y-58412753D01*
X108337058Y-58572495D01*
X108337056Y-58572499D01*
X108256805Y-58730000D01*
X108250485Y-58742403D01*
X108202510Y-58793199D01*
X108134689Y-58809994D01*
X108068554Y-58787456D01*
X108029515Y-58742403D01*
X107942944Y-58572499D01*
X107932541Y-58558180D01*
X107826884Y-58412753D01*
X107687246Y-58273115D01*
X107527504Y-58157058D01*
X107527503Y-58157057D01*
X107527501Y-58157056D01*
X107351561Y-58067409D01*
X107351558Y-58067408D01*
X107163763Y-58006389D01*
X106968736Y-57975500D01*
X106968731Y-57975500D01*
X106771269Y-57975500D01*
X106771264Y-57975500D01*
X106576236Y-58006389D01*
X106388441Y-58067408D01*
X106212495Y-58157058D01*
X106052753Y-58273115D01*
X105913119Y-58412749D01*
X105913115Y-58412754D01*
X105824818Y-58534286D01*
X105769488Y-58576952D01*
X105699875Y-58582931D01*
X105638080Y-58550326D01*
X105603723Y-58489487D01*
X105600500Y-58461401D01*
X105600500Y-57724500D01*
X105620185Y-57657461D01*
X105672989Y-57611706D01*
X105724500Y-57600500D01*
X125709539Y-57600500D01*
X125709543Y-57600501D01*
X125867658Y-57600501D01*
X125867662Y-57600500D01*
X128920943Y-57600500D01*
X129079057Y-57600500D01*
X138627331Y-57600500D01*
X138627347Y-57600501D01*
X138634943Y-57600501D01*
X138793054Y-57600501D01*
X138793057Y-57600501D01*
X138945785Y-57559577D01*
X138995904Y-57530639D01*
X139082716Y-57480520D01*
X139194520Y-57368716D01*
X139194520Y-57368714D01*
X139204728Y-57358507D01*
X139204730Y-57358504D01*
X141633158Y-54930075D01*
X141694479Y-54896592D01*
X141759151Y-54899825D01*
X141773466Y-54904477D01*
X141975648Y-54936500D01*
X141975649Y-54936500D01*
X142180351Y-54936500D01*
X142180352Y-54936500D01*
X142382534Y-54904477D01*
X142577219Y-54841220D01*
X142580658Y-54839468D01*
X142581827Y-54838872D01*
X142759610Y-54748287D01*
X142852590Y-54680732D01*
X142925213Y-54627971D01*
X142925215Y-54627968D01*
X142925219Y-54627966D01*
X143069966Y-54483219D01*
X143069968Y-54483215D01*
X143069971Y-54483213D01*
X143190284Y-54317614D01*
X143190286Y-54317611D01*
X143190287Y-54317610D01*
X143237516Y-54224917D01*
X143285489Y-54174123D01*
X143353310Y-54157328D01*
X143419445Y-54179865D01*
X143458485Y-54224919D01*
X143505715Y-54317614D01*
X143626028Y-54483213D01*
X143770786Y-54627971D01*
X143925749Y-54740556D01*
X143936390Y-54748287D01*
X144052607Y-54807503D01*
X144118776Y-54841218D01*
X144118778Y-54841218D01*
X144118781Y-54841220D01*
X144223137Y-54875127D01*
X144313465Y-54904477D01*
X144414557Y-54920488D01*
X144515648Y-54936500D01*
X144515649Y-54936500D01*
X144720351Y-54936500D01*
X144720352Y-54936500D01*
X144922534Y-54904477D01*
X145117219Y-54841220D01*
X145120658Y-54839468D01*
X145121827Y-54838872D01*
X145299610Y-54748287D01*
X145392590Y-54680732D01*
X145465213Y-54627971D01*
X145465215Y-54627968D01*
X145465219Y-54627966D01*
X145609966Y-54483219D01*
X145609968Y-54483215D01*
X145609971Y-54483213D01*
X145730284Y-54317614D01*
X145730286Y-54317611D01*
X145730287Y-54317610D01*
X145777516Y-54224917D01*
X145825489Y-54174123D01*
X145893310Y-54157328D01*
X145959445Y-54179865D01*
X145998485Y-54224919D01*
X146045715Y-54317614D01*
X146166028Y-54483213D01*
X146310786Y-54627971D01*
X146465749Y-54740556D01*
X146476390Y-54748287D01*
X146592607Y-54807503D01*
X146658776Y-54841218D01*
X146658778Y-54841218D01*
X146658781Y-54841220D01*
X146763137Y-54875127D01*
X146853465Y-54904477D01*
X146954557Y-54920488D01*
X147055648Y-54936500D01*
X147055649Y-54936500D01*
X147260351Y-54936500D01*
X147260352Y-54936500D01*
X147462534Y-54904477D01*
X147657219Y-54841220D01*
X147660658Y-54839468D01*
X147661827Y-54838872D01*
X147839610Y-54748287D01*
X147932590Y-54680732D01*
X148005213Y-54627971D01*
X148005215Y-54627968D01*
X148005219Y-54627966D01*
X148149966Y-54483219D01*
X148149968Y-54483215D01*
X148149971Y-54483213D01*
X148270284Y-54317614D01*
X148270286Y-54317611D01*
X148270287Y-54317610D01*
X148317516Y-54224917D01*
X148365489Y-54174123D01*
X148433310Y-54157328D01*
X148499445Y-54179865D01*
X148538485Y-54224919D01*
X148585715Y-54317614D01*
X148706028Y-54483213D01*
X148850786Y-54627971D01*
X149005749Y-54740556D01*
X149016390Y-54748287D01*
X149132607Y-54807503D01*
X149198776Y-54841218D01*
X149198778Y-54841218D01*
X149198781Y-54841220D01*
X149303137Y-54875127D01*
X149393465Y-54904477D01*
X149494557Y-54920488D01*
X149595648Y-54936500D01*
X149595649Y-54936500D01*
X149800351Y-54936500D01*
X149800352Y-54936500D01*
X150002534Y-54904477D01*
X150197219Y-54841220D01*
X150200658Y-54839468D01*
X150201827Y-54838872D01*
X150379610Y-54748287D01*
X150472590Y-54680732D01*
X150545213Y-54627971D01*
X150545215Y-54627968D01*
X150545219Y-54627966D01*
X150689966Y-54483219D01*
X150689968Y-54483215D01*
X150689971Y-54483213D01*
X150810284Y-54317614D01*
X150810286Y-54317611D01*
X150810287Y-54317610D01*
X150857516Y-54224917D01*
X150905489Y-54174123D01*
X150973310Y-54157328D01*
X151039445Y-54179865D01*
X151078485Y-54224919D01*
X151125715Y-54317614D01*
X151246028Y-54483213D01*
X151390786Y-54627971D01*
X151545749Y-54740556D01*
X151556390Y-54748287D01*
X151672607Y-54807503D01*
X151738776Y-54841218D01*
X151738778Y-54841218D01*
X151738781Y-54841220D01*
X151843137Y-54875127D01*
X151933465Y-54904477D01*
X152034557Y-54920488D01*
X152135648Y-54936500D01*
X152135649Y-54936500D01*
X152340351Y-54936500D01*
X152340352Y-54936500D01*
X152542534Y-54904477D01*
X152737219Y-54841220D01*
X152740658Y-54839468D01*
X152741827Y-54838872D01*
X152919610Y-54748287D01*
X153012590Y-54680732D01*
X153085213Y-54627971D01*
X153085215Y-54627968D01*
X153085219Y-54627966D01*
X153229966Y-54483219D01*
X153229968Y-54483215D01*
X153229971Y-54483213D01*
X153350284Y-54317614D01*
X153350286Y-54317611D01*
X153350287Y-54317610D01*
X153397516Y-54224917D01*
X153445489Y-54174123D01*
X153513310Y-54157328D01*
X153579445Y-54179865D01*
X153618485Y-54224919D01*
X153665715Y-54317614D01*
X153786028Y-54483213D01*
X153930786Y-54627971D01*
X154085749Y-54740556D01*
X154096390Y-54748287D01*
X154212607Y-54807503D01*
X154278776Y-54841218D01*
X154278778Y-54841218D01*
X154278781Y-54841220D01*
X154383137Y-54875127D01*
X154473465Y-54904477D01*
X154574557Y-54920488D01*
X154675648Y-54936500D01*
X154675649Y-54936500D01*
X154880351Y-54936500D01*
X154880352Y-54936500D01*
X155082534Y-54904477D01*
X155277219Y-54841220D01*
X155280658Y-54839468D01*
X155281827Y-54838872D01*
X155459610Y-54748287D01*
X155552590Y-54680732D01*
X155625213Y-54627971D01*
X155625215Y-54627968D01*
X155625219Y-54627966D01*
X155769966Y-54483219D01*
X155769968Y-54483215D01*
X155769971Y-54483213D01*
X155890284Y-54317614D01*
X155890286Y-54317611D01*
X155890287Y-54317610D01*
X155937516Y-54224917D01*
X155985489Y-54174123D01*
X156053310Y-54157328D01*
X156119445Y-54179865D01*
X156158485Y-54224919D01*
X156205715Y-54317614D01*
X156326028Y-54483213D01*
X156470786Y-54627971D01*
X156625749Y-54740556D01*
X156636390Y-54748287D01*
X156752607Y-54807503D01*
X156818776Y-54841218D01*
X156818778Y-54841218D01*
X156818781Y-54841220D01*
X156923137Y-54875127D01*
X157013465Y-54904477D01*
X157114557Y-54920488D01*
X157215648Y-54936500D01*
X157215649Y-54936500D01*
X157420351Y-54936500D01*
X157420352Y-54936500D01*
X157622534Y-54904477D01*
X157817219Y-54841220D01*
X157820658Y-54839468D01*
X157821827Y-54838872D01*
X157999610Y-54748287D01*
X158092590Y-54680732D01*
X158165213Y-54627971D01*
X158165215Y-54627968D01*
X158165219Y-54627966D01*
X158309966Y-54483219D01*
X158309968Y-54483215D01*
X158309971Y-54483213D01*
X158362732Y-54410590D01*
X158430287Y-54317610D01*
X158523220Y-54135219D01*
X158586477Y-53940534D01*
X158618500Y-53738352D01*
X158618500Y-53533648D01*
X158598473Y-53407203D01*
X158593950Y-53378646D01*
X158591661Y-53364201D01*
X158586477Y-53331466D01*
X158523220Y-53136781D01*
X158523218Y-53136778D01*
X158523218Y-53136776D01*
X158489503Y-53070607D01*
X158430287Y-52954390D01*
X158391134Y-52900500D01*
X158309971Y-52788786D01*
X158165213Y-52644028D01*
X157999613Y-52523715D01*
X157999612Y-52523714D01*
X157999610Y-52523713D01*
X157911448Y-52478792D01*
X157817223Y-52430781D01*
X157622534Y-52367522D01*
X157447995Y-52339878D01*
X157420352Y-52335500D01*
X157215648Y-52335500D01*
X157191329Y-52339351D01*
X157013465Y-52367522D01*
X156818776Y-52430781D01*
X156636386Y-52523715D01*
X156470786Y-52644028D01*
X156326028Y-52788786D01*
X156205715Y-52954386D01*
X156158485Y-53047080D01*
X156110510Y-53097876D01*
X156042689Y-53114671D01*
X155976554Y-53092134D01*
X155937515Y-53047080D01*
X155932856Y-53037937D01*
X155890287Y-52954390D01*
X155851134Y-52900500D01*
X155769971Y-52788786D01*
X155625213Y-52644028D01*
X155459613Y-52523715D01*
X155459612Y-52523714D01*
X155459610Y-52523713D01*
X155371448Y-52478792D01*
X155277223Y-52430781D01*
X155082534Y-52367522D01*
X154907995Y-52339878D01*
X154880352Y-52335500D01*
X154675648Y-52335500D01*
X154651329Y-52339351D01*
X154473465Y-52367522D01*
X154278776Y-52430781D01*
X154096386Y-52523715D01*
X153930786Y-52644028D01*
X153786028Y-52788786D01*
X153665715Y-52954386D01*
X153618485Y-53047080D01*
X153570510Y-53097876D01*
X153502689Y-53114671D01*
X153436554Y-53092134D01*
X153397515Y-53047080D01*
X153392856Y-53037937D01*
X153350287Y-52954390D01*
X153311134Y-52900500D01*
X153229971Y-52788786D01*
X153085213Y-52644028D01*
X152919613Y-52523715D01*
X152919612Y-52523714D01*
X152919610Y-52523713D01*
X152831448Y-52478792D01*
X152737223Y-52430781D01*
X152542534Y-52367522D01*
X152367995Y-52339878D01*
X152340352Y-52335500D01*
X152135648Y-52335500D01*
X152111329Y-52339351D01*
X151933465Y-52367522D01*
X151738776Y-52430781D01*
X151556386Y-52523715D01*
X151390786Y-52644028D01*
X151246028Y-52788786D01*
X151125715Y-52954386D01*
X151078485Y-53047080D01*
X151030510Y-53097876D01*
X150962689Y-53114671D01*
X150896554Y-53092134D01*
X150857515Y-53047080D01*
X150852856Y-53037937D01*
X150810287Y-52954390D01*
X150771134Y-52900500D01*
X150689971Y-52788786D01*
X150545213Y-52644028D01*
X150379613Y-52523715D01*
X150379612Y-52523714D01*
X150379610Y-52523713D01*
X150291448Y-52478792D01*
X150197223Y-52430781D01*
X150002534Y-52367522D01*
X149827995Y-52339878D01*
X149800352Y-52335500D01*
X149595648Y-52335500D01*
X149571329Y-52339351D01*
X149393465Y-52367522D01*
X149198776Y-52430781D01*
X149016386Y-52523715D01*
X148850786Y-52644028D01*
X148706028Y-52788786D01*
X148585715Y-52954386D01*
X148538485Y-53047080D01*
X148490510Y-53097876D01*
X148422689Y-53114671D01*
X148356554Y-53092134D01*
X148317515Y-53047080D01*
X148312856Y-53037937D01*
X148270287Y-52954390D01*
X148231134Y-52900500D01*
X148149971Y-52788786D01*
X148005213Y-52644028D01*
X147839613Y-52523715D01*
X147839612Y-52523714D01*
X147839610Y-52523713D01*
X147751448Y-52478792D01*
X147657223Y-52430781D01*
X147462534Y-52367522D01*
X147287995Y-52339878D01*
X147260352Y-52335500D01*
X147055648Y-52335500D01*
X147031329Y-52339351D01*
X146853465Y-52367522D01*
X146658776Y-52430781D01*
X146476386Y-52523715D01*
X146310786Y-52644028D01*
X146166028Y-52788786D01*
X146045715Y-52954386D01*
X145998485Y-53047080D01*
X145950510Y-53097876D01*
X145882689Y-53114671D01*
X145816554Y-53092134D01*
X145777515Y-53047080D01*
X145772856Y-53037937D01*
X145730287Y-52954390D01*
X145691134Y-52900500D01*
X145609971Y-52788786D01*
X145465213Y-52644028D01*
X145299613Y-52523715D01*
X145299612Y-52523714D01*
X145299610Y-52523713D01*
X145211448Y-52478792D01*
X145117223Y-52430781D01*
X144922534Y-52367522D01*
X144747995Y-52339878D01*
X144720352Y-52335500D01*
X144515648Y-52335500D01*
X144491329Y-52339351D01*
X144313465Y-52367522D01*
X144118776Y-52430781D01*
X143936386Y-52523715D01*
X143770786Y-52644028D01*
X143626028Y-52788786D01*
X143505715Y-52954386D01*
X143458485Y-53047080D01*
X143410510Y-53097876D01*
X143342689Y-53114671D01*
X143276554Y-53092134D01*
X143237515Y-53047080D01*
X143232856Y-53037937D01*
X143190287Y-52954390D01*
X143151134Y-52900500D01*
X143069971Y-52788786D01*
X142925213Y-52644028D01*
X142759613Y-52523715D01*
X142759612Y-52523714D01*
X142759610Y-52523713D01*
X142671448Y-52478792D01*
X142577223Y-52430781D01*
X142382534Y-52367522D01*
X142207995Y-52339878D01*
X142180352Y-52335500D01*
X141975648Y-52335500D01*
X141951329Y-52339351D01*
X141773465Y-52367522D01*
X141578776Y-52430781D01*
X141396386Y-52523715D01*
X141230786Y-52644028D01*
X141086028Y-52788786D01*
X140965715Y-52954386D01*
X140918485Y-53047080D01*
X140870510Y-53097876D01*
X140802689Y-53114671D01*
X140736554Y-53092134D01*
X140697515Y-53047080D01*
X140692856Y-53037937D01*
X140650287Y-52954390D01*
X140611134Y-52900500D01*
X140529971Y-52788786D01*
X140385213Y-52644028D01*
X140219613Y-52523715D01*
X140219612Y-52523714D01*
X140219610Y-52523713D01*
X140131448Y-52478792D01*
X140037223Y-52430781D01*
X139842534Y-52367522D01*
X139667995Y-52339878D01*
X139640352Y-52335500D01*
X139435648Y-52335500D01*
X139411329Y-52339351D01*
X139233465Y-52367522D01*
X139038776Y-52430781D01*
X138856386Y-52523715D01*
X138690786Y-52644028D01*
X138546028Y-52788786D01*
X138425713Y-52954388D01*
X138378203Y-53047630D01*
X138330228Y-53098426D01*
X138262407Y-53115220D01*
X138196272Y-53092682D01*
X138157234Y-53047628D01*
X138109861Y-52954652D01*
X137989582Y-52789105D01*
X137989582Y-52789104D01*
X137844895Y-52644417D01*
X137679349Y-52524140D01*
X137497029Y-52431244D01*
X137302413Y-52368009D01*
X137248000Y-52359390D01*
X137248000Y-53202988D01*
X137190993Y-53170075D01*
X137063826Y-53136000D01*
X136932174Y-53136000D01*
X136805007Y-53170075D01*
X136748000Y-53202988D01*
X136748000Y-52359390D01*
X136693586Y-52368009D01*
X136498970Y-52431244D01*
X136316650Y-52524140D01*
X136151105Y-52644417D01*
X136151104Y-52644417D01*
X136006417Y-52789104D01*
X136006417Y-52789105D01*
X135886140Y-52954650D01*
X135838765Y-53047629D01*
X135790790Y-53098425D01*
X135722969Y-53115220D01*
X135656834Y-53092682D01*
X135617795Y-53047629D01*
X135587466Y-52988106D01*
X135570287Y-52954390D01*
X135531134Y-52900500D01*
X135449971Y-52788786D01*
X135305213Y-52644028D01*
X135139613Y-52523715D01*
X135139612Y-52523714D01*
X135139610Y-52523713D01*
X135051448Y-52478792D01*
X134957223Y-52430781D01*
X134762534Y-52367522D01*
X134587995Y-52339878D01*
X134560352Y-52335500D01*
X134355648Y-52335500D01*
X134331329Y-52339351D01*
X134153465Y-52367522D01*
X133958776Y-52430781D01*
X133776386Y-52523715D01*
X133610786Y-52644028D01*
X133466028Y-52788786D01*
X133345715Y-52954386D01*
X133252781Y-53136776D01*
X133189522Y-53331465D01*
X133166285Y-53478180D01*
X133157500Y-53533648D01*
X133157500Y-53738352D01*
X133161878Y-53765995D01*
X133189522Y-53940534D01*
X133252781Y-54135223D01*
X133345715Y-54317613D01*
X133466028Y-54483213D01*
X133610786Y-54627971D01*
X133765749Y-54740556D01*
X133776390Y-54748287D01*
X133892607Y-54807503D01*
X133958776Y-54841218D01*
X133958778Y-54841218D01*
X133958781Y-54841220D01*
X134063137Y-54875127D01*
X134153465Y-54904477D01*
X134254557Y-54920488D01*
X134355648Y-54936500D01*
X134355649Y-54936500D01*
X134560351Y-54936500D01*
X134560352Y-54936500D01*
X134762534Y-54904477D01*
X134957219Y-54841220D01*
X134960658Y-54839468D01*
X134961827Y-54838872D01*
X135139610Y-54748287D01*
X135232590Y-54680732D01*
X135305213Y-54627971D01*
X135305215Y-54627968D01*
X135305219Y-54627966D01*
X135449966Y-54483219D01*
X135449968Y-54483215D01*
X135449971Y-54483213D01*
X135570284Y-54317614D01*
X135570286Y-54317611D01*
X135570287Y-54317610D01*
X135617795Y-54224369D01*
X135665770Y-54173574D01*
X135733591Y-54156779D01*
X135799725Y-54179316D01*
X135838765Y-54224370D01*
X135886140Y-54317349D01*
X136006417Y-54482894D01*
X136006417Y-54482895D01*
X136151104Y-54627582D01*
X136316650Y-54747859D01*
X136498968Y-54840754D01*
X136693578Y-54903988D01*
X136748000Y-54912607D01*
X136748000Y-54069012D01*
X136805007Y-54101925D01*
X136932174Y-54136000D01*
X137063826Y-54136000D01*
X137190993Y-54101925D01*
X137248000Y-54069012D01*
X137248000Y-54912606D01*
X137302421Y-54903988D01*
X137497031Y-54840754D01*
X137679349Y-54747859D01*
X137844894Y-54627582D01*
X137844895Y-54627582D01*
X137989582Y-54482895D01*
X137989582Y-54482894D01*
X138109861Y-54317347D01*
X138157234Y-54224371D01*
X138205208Y-54173575D01*
X138273028Y-54156779D01*
X138339164Y-54179316D01*
X138378203Y-54224369D01*
X138425713Y-54317611D01*
X138546028Y-54483213D01*
X138690786Y-54627971D01*
X138845749Y-54740556D01*
X138856390Y-54748287D01*
X138972607Y-54807503D01*
X139038776Y-54841218D01*
X139038778Y-54841218D01*
X139038781Y-54841220D01*
X139143137Y-54875127D01*
X139233465Y-54904477D01*
X139334557Y-54920488D01*
X139435648Y-54936500D01*
X139435649Y-54936500D01*
X139628902Y-54936500D01*
X139695941Y-54956185D01*
X139741696Y-55008989D01*
X139751640Y-55078147D01*
X139722615Y-55141703D01*
X139716583Y-55148181D01*
X138501584Y-56363181D01*
X138440261Y-56396666D01*
X138413903Y-56399500D01*
X130264759Y-56399500D01*
X130197720Y-56379815D01*
X130151965Y-56327011D01*
X130142021Y-56257853D01*
X130154275Y-56219205D01*
X130205216Y-56119228D01*
X130205217Y-56119224D01*
X130205220Y-56119219D01*
X130268477Y-55924534D01*
X130300500Y-55722352D01*
X130300500Y-55517648D01*
X130288489Y-55441812D01*
X130268477Y-55315465D01*
X130236281Y-55216376D01*
X130205220Y-55120781D01*
X130205218Y-55120778D01*
X130205218Y-55120776D01*
X130148259Y-55008989D01*
X130112287Y-54938390D01*
X130046471Y-54847801D01*
X129991971Y-54772786D01*
X129847213Y-54628028D01*
X129681613Y-54507715D01*
X129681612Y-54507714D01*
X129681610Y-54507713D01*
X129624653Y-54478691D01*
X129499223Y-54414781D01*
X129304534Y-54351522D01*
X129129995Y-54323878D01*
X129102352Y-54319500D01*
X128897648Y-54319500D01*
X128873329Y-54323351D01*
X128695465Y-54351522D01*
X128500776Y-54414781D01*
X128318386Y-54507715D01*
X128152786Y-54628028D01*
X128008028Y-54772786D01*
X127887715Y-54938386D01*
X127794781Y-55120776D01*
X127731522Y-55315465D01*
X127699500Y-55517648D01*
X127699500Y-55722351D01*
X127731522Y-55924534D01*
X127794783Y-56119228D01*
X127845725Y-56219205D01*
X127858622Y-56287874D01*
X127832346Y-56352614D01*
X127775240Y-56392872D01*
X127735241Y-56399500D01*
X126088698Y-56399500D01*
X126021659Y-56379815D01*
X126001017Y-56363181D01*
X122331216Y-52693380D01*
X122297731Y-52632057D01*
X122302715Y-52562365D01*
X122331216Y-52518018D01*
X126712416Y-48136819D01*
X126773739Y-48103334D01*
X126800097Y-48100500D01*
X162589281Y-48100500D01*
X162656320Y-48120185D01*
X162699765Y-48168205D01*
X162719947Y-48207814D01*
X162719948Y-48207815D01*
X162844890Y-48379786D01*
X162995209Y-48530105D01*
X162995214Y-48530109D01*
X163159793Y-48649682D01*
X163202459Y-48705011D01*
X163208438Y-48774625D01*
X163175833Y-48836420D01*
X163159793Y-48850318D01*
X162995214Y-48969890D01*
X162995209Y-48969894D01*
X162844890Y-49120213D01*
X162719948Y-49292184D01*
X162719947Y-49292185D01*
X162699765Y-49331795D01*
X162651791Y-49382591D01*
X162589281Y-49399500D01*
X128079057Y-49399500D01*
X127920943Y-49399500D01*
X127768215Y-49440423D01*
X127768214Y-49440423D01*
X127768212Y-49440424D01*
X127768209Y-49440425D01*
X127718096Y-49469359D01*
X127718095Y-49469360D01*
X127674689Y-49494420D01*
X127631285Y-49519479D01*
X127631282Y-49519481D01*
X127531936Y-49618828D01*
X127519480Y-49631284D01*
X127519478Y-49631286D01*
X126788950Y-50361815D01*
X126087584Y-51063181D01*
X126026261Y-51096666D01*
X125999903Y-51099500D01*
X125911306Y-51099500D01*
X125737341Y-51134103D01*
X125737332Y-51134106D01*
X125573459Y-51201983D01*
X125573446Y-51201990D01*
X125425965Y-51300535D01*
X125425961Y-51300538D01*
X125300538Y-51425961D01*
X125300535Y-51425965D01*
X125201990Y-51573446D01*
X125201983Y-51573459D01*
X125134106Y-51737332D01*
X125134103Y-51737341D01*
X125099500Y-51911304D01*
X125099500Y-52088695D01*
X125134103Y-52262658D01*
X125134106Y-52262667D01*
X125201983Y-52426540D01*
X125201990Y-52426553D01*
X125300535Y-52574034D01*
X125300538Y-52574038D01*
X125425961Y-52699461D01*
X125425965Y-52699464D01*
X125573446Y-52798009D01*
X125573459Y-52798016D01*
X125689945Y-52846265D01*
X125737334Y-52865894D01*
X125737336Y-52865894D01*
X125737341Y-52865896D01*
X125911304Y-52900499D01*
X125911307Y-52900500D01*
X125911309Y-52900500D01*
X126088693Y-52900500D01*
X126088694Y-52900499D01*
X126159727Y-52886370D01*
X126262658Y-52865896D01*
X126262661Y-52865894D01*
X126262666Y-52865894D01*
X126426547Y-52798013D01*
X126574035Y-52699464D01*
X126699464Y-52574035D01*
X126798013Y-52426547D01*
X126865894Y-52262666D01*
X126900500Y-52088691D01*
X126900500Y-52000097D01*
X126920185Y-51933058D01*
X126936819Y-51912416D01*
X128212416Y-50636819D01*
X128273739Y-50603334D01*
X128300097Y-50600500D01*
X162589281Y-50600500D01*
X162656320Y-50620185D01*
X162699765Y-50668205D01*
X162719947Y-50707814D01*
X162719948Y-50707815D01*
X162844890Y-50879786D01*
X162995213Y-51030109D01*
X163167179Y-51155048D01*
X163167181Y-51155049D01*
X163167184Y-51155051D01*
X163356588Y-51251557D01*
X163558757Y-51317246D01*
X163768713Y-51350500D01*
X163768714Y-51350500D01*
X164231286Y-51350500D01*
X164231287Y-51350500D01*
X164441243Y-51317246D01*
X164643412Y-51251557D01*
X164832816Y-51155051D01*
X164920766Y-51091152D01*
X165004786Y-51030109D01*
X165004788Y-51030106D01*
X165004792Y-51030104D01*
X165155104Y-50879792D01*
X165155106Y-50879788D01*
X165155109Y-50879786D01*
X165280048Y-50707820D01*
X165280047Y-50707820D01*
X165280051Y-50707816D01*
X165376557Y-50518412D01*
X165442246Y-50316243D01*
X165475500Y-50106287D01*
X165475500Y-49893713D01*
X165442246Y-49683757D01*
X165376557Y-49481588D01*
X165280051Y-49292184D01*
X165280049Y-49292181D01*
X165280048Y-49292179D01*
X165155109Y-49120213D01*
X165004792Y-48969896D01*
X165004784Y-48969890D01*
X164840204Y-48850316D01*
X164797540Y-48794989D01*
X164791561Y-48725376D01*
X164824166Y-48663580D01*
X164840199Y-48649686D01*
X165004792Y-48530104D01*
X165155104Y-48379792D01*
X165155106Y-48379788D01*
X165155109Y-48379786D01*
X165280048Y-48207820D01*
X165280047Y-48207820D01*
X165280051Y-48207816D01*
X165376557Y-48018412D01*
X165442246Y-47816243D01*
X165475500Y-47606287D01*
X165475500Y-47393713D01*
X165442246Y-47183757D01*
X165376557Y-46981588D01*
X165280051Y-46792184D01*
X165280049Y-46792181D01*
X165280048Y-46792179D01*
X165155109Y-46620213D01*
X165004790Y-46469894D01*
X165004785Y-46469890D01*
X164839781Y-46350008D01*
X164797115Y-46294678D01*
X164791136Y-46225065D01*
X164823741Y-46163270D01*
X164839781Y-46149371D01*
X165004466Y-46029721D01*
X165154723Y-45879464D01*
X165154727Y-45879459D01*
X165279620Y-45707557D01*
X165376095Y-45518217D01*
X165441757Y-45316129D01*
X165441757Y-45316126D01*
X165452231Y-45250000D01*
X164404146Y-45250000D01*
X164442630Y-45183343D01*
X164475000Y-45062535D01*
X164475000Y-44937465D01*
X164442630Y-44816657D01*
X164404146Y-44750000D01*
X165452231Y-44750000D01*
X165441757Y-44683873D01*
X165441757Y-44683870D01*
X165376095Y-44481782D01*
X165279620Y-44292442D01*
X165154727Y-44120540D01*
X165154723Y-44120535D01*
X165015856Y-43981668D01*
X164982371Y-43920345D01*
X164987355Y-43850653D01*
X165029227Y-43794720D01*
X165038441Y-43788448D01*
X165044331Y-43784814D01*
X165044334Y-43784814D01*
X165193656Y-43692712D01*
X165317712Y-43568656D01*
X165409814Y-43419334D01*
X165464999Y-43252797D01*
X165475500Y-43150009D01*
X165475499Y-42818206D01*
X168299500Y-42818206D01*
X168299500Y-43181794D01*
X168310337Y-43291829D01*
X168335137Y-43543630D01*
X168406064Y-43900212D01*
X168406067Y-43900223D01*
X168511614Y-44248165D01*
X168650754Y-44584078D01*
X168650756Y-44584083D01*
X168822140Y-44904720D01*
X168822151Y-44904738D01*
X169024140Y-45207035D01*
X169024150Y-45207049D01*
X169254807Y-45488106D01*
X169511893Y-45745192D01*
X169511898Y-45745196D01*
X169511899Y-45745197D01*
X169792956Y-45975854D01*
X170095268Y-46177853D01*
X170095277Y-46177858D01*
X170095279Y-46177859D01*
X170415916Y-46349243D01*
X170415918Y-46349243D01*
X170415924Y-46349247D01*
X170751836Y-46488386D01*
X171099767Y-46593930D01*
X171099773Y-46593931D01*
X171099776Y-46593932D01*
X171099787Y-46593935D01*
X171456369Y-46664862D01*
X171818206Y-46700500D01*
X171818209Y-46700500D01*
X172181791Y-46700500D01*
X172181794Y-46700500D01*
X172543631Y-46664862D01*
X172613045Y-46651054D01*
X172900212Y-46593935D01*
X172900223Y-46593932D01*
X172900223Y-46593931D01*
X172900233Y-46593930D01*
X173248164Y-46488386D01*
X173584076Y-46349247D01*
X173904732Y-46177853D01*
X174207044Y-45975854D01*
X174488101Y-45745197D01*
X174745197Y-45488101D01*
X174975854Y-45207044D01*
X175177853Y-44904732D01*
X175349247Y-44584076D01*
X175488386Y-44248164D01*
X175593930Y-43900233D01*
X175593932Y-43900223D01*
X175593935Y-43900212D01*
X175664862Y-43543630D01*
X175670161Y-43489829D01*
X175700500Y-43181794D01*
X175700500Y-42818206D01*
X175664862Y-42456369D01*
X175593935Y-42099787D01*
X175593932Y-42099776D01*
X175593931Y-42099773D01*
X175593930Y-42099767D01*
X175488386Y-41751836D01*
X175349247Y-41415924D01*
X175291180Y-41307289D01*
X175177859Y-41095279D01*
X175177858Y-41095277D01*
X175177853Y-41095268D01*
X174975854Y-40792956D01*
X174745197Y-40511899D01*
X174745196Y-40511898D01*
X174745192Y-40511893D01*
X174488106Y-40254807D01*
X174207049Y-40024150D01*
X174207048Y-40024149D01*
X174207044Y-40024146D01*
X173904732Y-39822147D01*
X173904727Y-39822144D01*
X173904720Y-39822140D01*
X173584083Y-39650756D01*
X173584078Y-39650754D01*
X173248165Y-39511614D01*
X172900223Y-39406067D01*
X172900212Y-39406064D01*
X172543630Y-39335137D01*
X172271111Y-39308296D01*
X172181794Y-39299500D01*
X171818206Y-39299500D01*
X171735679Y-39307628D01*
X171456369Y-39335137D01*
X171099787Y-39406064D01*
X171099776Y-39406067D01*
X170751834Y-39511614D01*
X170415921Y-39650754D01*
X170415916Y-39650756D01*
X170095279Y-39822140D01*
X170095261Y-39822151D01*
X169792964Y-40024140D01*
X169792950Y-40024150D01*
X169511893Y-40254807D01*
X169254807Y-40511893D01*
X169024150Y-40792950D01*
X169024140Y-40792964D01*
X168822151Y-41095261D01*
X168822140Y-41095279D01*
X168650756Y-41415916D01*
X168650754Y-41415921D01*
X168511614Y-41751834D01*
X168406067Y-42099776D01*
X168406064Y-42099787D01*
X168335137Y-42456369D01*
X168312483Y-42686386D01*
X168299500Y-42818206D01*
X165475499Y-42818206D01*
X165475499Y-42491770D01*
X165475499Y-41849998D01*
X165475498Y-41849981D01*
X165464999Y-41747203D01*
X165464998Y-41747200D01*
X165432284Y-41648477D01*
X165409814Y-41580666D01*
X165317712Y-41431344D01*
X165193656Y-41307288D01*
X165044334Y-41215186D01*
X164877797Y-41160001D01*
X164877795Y-41160000D01*
X164775010Y-41149500D01*
X163224998Y-41149500D01*
X163224981Y-41149501D01*
X163122203Y-41160000D01*
X163122200Y-41160001D01*
X162955668Y-41215185D01*
X162955663Y-41215187D01*
X162806342Y-41307289D01*
X162682289Y-41431342D01*
X162590187Y-41580663D01*
X162590185Y-41580668D01*
X162588677Y-41585220D01*
X162535001Y-41747203D01*
X162535001Y-41747204D01*
X162535000Y-41747204D01*
X162524500Y-41849983D01*
X162524500Y-43150001D01*
X162524501Y-43150018D01*
X162535000Y-43252796D01*
X162535001Y-43252799D01*
X162590185Y-43419331D01*
X162590187Y-43419336D01*
X162682289Y-43568657D01*
X162806344Y-43692712D01*
X162961558Y-43788448D01*
X163008283Y-43840396D01*
X163019506Y-43909358D01*
X162991663Y-43973441D01*
X162984144Y-43981668D01*
X162845271Y-44120541D01*
X162720379Y-44292442D01*
X162623904Y-44481782D01*
X162558242Y-44683870D01*
X162558242Y-44683873D01*
X162547769Y-44750000D01*
X163595854Y-44750000D01*
X163557370Y-44816657D01*
X163525000Y-44937465D01*
X163525000Y-45062535D01*
X163557370Y-45183343D01*
X163595854Y-45250000D01*
X162547769Y-45250000D01*
X162558242Y-45316126D01*
X162558242Y-45316129D01*
X162623904Y-45518217D01*
X162720379Y-45707557D01*
X162845272Y-45879459D01*
X162845276Y-45879464D01*
X162995535Y-46029723D01*
X162995540Y-46029727D01*
X163160218Y-46149372D01*
X163202884Y-46204701D01*
X163208863Y-46274315D01*
X163176258Y-46336110D01*
X163160218Y-46350008D01*
X162995214Y-46469890D01*
X162995209Y-46469894D01*
X162844890Y-46620213D01*
X162719948Y-46792184D01*
X162719947Y-46792185D01*
X162699765Y-46831795D01*
X162651791Y-46882591D01*
X162589281Y-46899500D01*
X126579057Y-46899500D01*
X126420943Y-46899500D01*
X126268215Y-46940423D01*
X126236883Y-46958513D01*
X126196921Y-46981585D01*
X126131285Y-47019479D01*
X126131282Y-47019481D01*
X126019478Y-47131286D01*
X121481980Y-51668783D01*
X121420657Y-51702268D01*
X121350965Y-51697284D01*
X121306618Y-51668783D01*
X118153477Y-48515642D01*
X118119992Y-48454319D01*
X118123228Y-48389641D01*
X118126430Y-48379786D01*
X118127877Y-48375334D01*
X118159900Y-48173152D01*
X118159900Y-47968448D01*
X118127877Y-47766266D01*
X118064620Y-47571581D01*
X118064618Y-47571578D01*
X118064618Y-47571576D01*
X118030903Y-47505407D01*
X117971687Y-47389190D01*
X117963956Y-47378549D01*
X117851371Y-47223586D01*
X117706613Y-47078828D01*
X117541012Y-46958514D01*
X117505506Y-46940423D01*
X117448317Y-46911283D01*
X117397523Y-46863311D01*
X117380728Y-46795490D01*
X117403265Y-46729355D01*
X117448317Y-46690316D01*
X117541010Y-46643087D01*
X117572494Y-46620213D01*
X117706613Y-46522771D01*
X117706615Y-46522768D01*
X117706619Y-46522766D01*
X117851366Y-46378019D01*
X117851368Y-46378015D01*
X117851371Y-46378013D01*
X117911916Y-46294678D01*
X117971687Y-46212410D01*
X118064620Y-46030019D01*
X118127877Y-45835334D01*
X118159900Y-45633152D01*
X118159900Y-45428448D01*
X118127877Y-45226266D01*
X118121631Y-45207044D01*
X118098527Y-45135937D01*
X118064620Y-45031581D01*
X118064618Y-45031578D01*
X118064618Y-45031576D01*
X117999987Y-44904732D01*
X117971687Y-44849190D01*
X117948051Y-44816657D01*
X117851371Y-44683586D01*
X117706613Y-44538828D01*
X117541011Y-44418513D01*
X117447769Y-44371003D01*
X117396974Y-44323029D01*
X117380179Y-44255207D01*
X117402717Y-44189073D01*
X117447771Y-44150034D01*
X117540747Y-44102661D01*
X117706294Y-43982382D01*
X117706295Y-43982382D01*
X117850982Y-43837695D01*
X117850982Y-43837694D01*
X117971259Y-43672149D01*
X118064155Y-43489829D01*
X118127390Y-43295213D01*
X118136009Y-43240800D01*
X117292412Y-43240800D01*
X117325325Y-43183793D01*
X117359400Y-43056626D01*
X117359400Y-42924974D01*
X117325325Y-42797807D01*
X117292412Y-42740800D01*
X118136009Y-42740800D01*
X118127390Y-42686386D01*
X118064155Y-42491770D01*
X117971259Y-42309450D01*
X117850982Y-42143905D01*
X117850982Y-42143904D01*
X117706295Y-41999217D01*
X117634634Y-41947152D01*
X117540747Y-41878938D01*
X117435070Y-41825094D01*
X117384273Y-41777120D01*
X117367478Y-41709299D01*
X117390015Y-41643164D01*
X117435070Y-41604124D01*
X117515610Y-41563087D01*
X117613063Y-41492284D01*
X117681213Y-41442771D01*
X117681215Y-41442768D01*
X117681219Y-41442766D01*
X117825966Y-41298019D01*
X117825968Y-41298015D01*
X117825971Y-41298013D01*
X117926241Y-41160001D01*
X117946287Y-41132410D01*
X118039220Y-40950019D01*
X118102477Y-40755334D01*
X118134500Y-40553152D01*
X118134500Y-40348448D01*
X118123286Y-40277648D01*
X118102477Y-40146265D01*
X118039218Y-39951576D01*
X118003143Y-39880776D01*
X117946287Y-39769190D01*
X117938556Y-39758549D01*
X117825971Y-39603586D01*
X117681213Y-39458828D01*
X117515613Y-39338515D01*
X117515612Y-39338514D01*
X117515610Y-39338513D01*
X117431238Y-39295523D01*
X117333224Y-39245582D01*
X117333221Y-39245581D01*
X117333219Y-39245580D01*
X117323522Y-39242429D01*
X117265850Y-39202992D01*
X117238653Y-39138633D01*
X117250568Y-39069787D01*
X117297813Y-39018312D01*
X117361845Y-39000500D01*
X121326327Y-39000500D01*
X121393366Y-39020185D01*
X121439121Y-39072989D01*
X121449065Y-39142147D01*
X121420040Y-39205703D01*
X121382622Y-39234985D01*
X121318386Y-39267715D01*
X121152786Y-39388028D01*
X121008028Y-39532786D01*
X120887715Y-39698386D01*
X120794781Y-39880776D01*
X120731522Y-40075465D01*
X120699500Y-40277648D01*
X120699500Y-40482351D01*
X120731522Y-40684534D01*
X120794781Y-40879223D01*
X120887715Y-41061613D01*
X121008028Y-41227213D01*
X121152786Y-41371971D01*
X121307749Y-41484556D01*
X121318390Y-41492287D01*
X121434607Y-41551503D01*
X121500776Y-41585218D01*
X121500778Y-41585218D01*
X121500781Y-41585220D01*
X121558962Y-41604124D01*
X121695465Y-41648477D01*
X121796557Y-41664488D01*
X121897648Y-41680500D01*
X121897649Y-41680500D01*
X122102351Y-41680500D01*
X122102352Y-41680500D01*
X122304534Y-41648477D01*
X122499219Y-41585220D01*
X122681610Y-41492287D01*
X122786727Y-41415916D01*
X122847213Y-41371971D01*
X122847215Y-41371968D01*
X122847219Y-41371966D01*
X122991966Y-41227219D01*
X122991968Y-41227215D01*
X122991971Y-41227213D01*
X123087838Y-41095261D01*
X123112287Y-41061610D01*
X123205220Y-40879219D01*
X123268477Y-40684534D01*
X123300500Y-40482352D01*
X123300500Y-40277648D01*
X123268477Y-40075466D01*
X123251803Y-40024150D01*
X123205218Y-39880776D01*
X123148359Y-39769186D01*
X123112287Y-39698390D01*
X123077677Y-39650753D01*
X122991971Y-39532786D01*
X122847213Y-39388028D01*
X122681613Y-39267715D01*
X122681612Y-39267714D01*
X122681610Y-39267713D01*
X122617378Y-39234985D01*
X122566582Y-39187010D01*
X122549787Y-39119189D01*
X122572325Y-39053054D01*
X122627040Y-39009603D01*
X122673673Y-39000500D01*
X128326327Y-39000500D01*
X128393366Y-39020185D01*
X128439121Y-39072989D01*
X128449065Y-39142147D01*
X128420040Y-39205703D01*
X128382622Y-39234985D01*
X128318386Y-39267715D01*
X128152786Y-39388028D01*
X128008028Y-39532786D01*
X127887715Y-39698386D01*
X127794781Y-39880776D01*
X127731522Y-40075465D01*
X127699500Y-40277648D01*
X127699500Y-40482351D01*
X127731522Y-40684534D01*
X127794781Y-40879223D01*
X127887715Y-41061613D01*
X128008028Y-41227213D01*
X128152786Y-41371971D01*
X128307749Y-41484556D01*
X128318390Y-41492287D01*
X128434607Y-41551503D01*
X128500776Y-41585218D01*
X128500778Y-41585218D01*
X128500781Y-41585220D01*
X128558962Y-41604124D01*
X128695465Y-41648477D01*
X128796557Y-41664488D01*
X128897648Y-41680500D01*
X128897649Y-41680500D01*
X129102351Y-41680500D01*
X129102352Y-41680500D01*
X129304534Y-41648477D01*
X129499219Y-41585220D01*
X129681610Y-41492287D01*
X129786727Y-41415916D01*
X129847213Y-41371971D01*
X129847215Y-41371968D01*
X129847219Y-41371966D01*
X129991966Y-41227219D01*
X129991968Y-41227215D01*
X129991971Y-41227213D01*
X130087838Y-41095261D01*
X130112287Y-41061610D01*
X130205220Y-40879219D01*
X130268477Y-40684534D01*
X130300500Y-40482352D01*
X130300500Y-40277648D01*
X130268477Y-40075466D01*
X130251803Y-40024150D01*
X130205218Y-39880776D01*
X130148359Y-39769186D01*
X130112287Y-39698390D01*
X130077677Y-39650753D01*
X129991971Y-39532786D01*
X129847213Y-39388028D01*
X129681613Y-39267715D01*
X129681612Y-39267714D01*
X129681610Y-39267713D01*
X129617378Y-39234985D01*
X129566582Y-39187010D01*
X129549787Y-39119189D01*
X129572325Y-39053054D01*
X129627040Y-39009603D01*
X129673673Y-39000500D01*
X175875500Y-39000500D01*
X175942539Y-39020185D01*
X175988294Y-39072989D01*
X175999500Y-39124500D01*
X175999500Y-51237286D01*
X175979815Y-51304325D01*
X175927011Y-51350080D01*
X175857853Y-51360024D01*
X175794297Y-51330999D01*
X175760939Y-51284739D01*
X175680752Y-51091152D01*
X175680748Y-51091143D01*
X175558183Y-50878854D01*
X175487201Y-50786350D01*
X175487200Y-50786350D01*
X174754114Y-51519436D01*
X174753260Y-51517374D01*
X174660238Y-51378156D01*
X174541844Y-51259762D01*
X174402626Y-51166740D01*
X174400560Y-51165884D01*
X175133648Y-50432797D01*
X175041140Y-50361812D01*
X174828857Y-50239251D01*
X174828847Y-50239247D01*
X174602385Y-50145443D01*
X174365598Y-50081996D01*
X174122573Y-50050000D01*
X173877426Y-50050000D01*
X173634401Y-50081996D01*
X173397614Y-50145443D01*
X173171152Y-50239247D01*
X173171142Y-50239251D01*
X172958855Y-50361815D01*
X172866350Y-50432796D01*
X172866350Y-50432797D01*
X173599438Y-51165885D01*
X173597374Y-51166740D01*
X173458156Y-51259762D01*
X173339762Y-51378156D01*
X173246740Y-51517374D01*
X173245884Y-51519438D01*
X172512797Y-50786350D01*
X172512796Y-50786350D01*
X172441815Y-50878855D01*
X172319251Y-51091142D01*
X172319247Y-51091152D01*
X172225443Y-51317614D01*
X172161996Y-51554401D01*
X172130000Y-51797426D01*
X172130000Y-52042573D01*
X172161996Y-52285598D01*
X172225443Y-52522385D01*
X172319247Y-52748847D01*
X172319255Y-52748864D01*
X172380058Y-52854179D01*
X172396531Y-52922079D01*
X172373678Y-52988106D01*
X172318757Y-53031296D01*
X172249203Y-53037937D01*
X172216376Y-53026663D01*
X172082060Y-52958225D01*
X171839468Y-52879401D01*
X171587541Y-52839500D01*
X171587536Y-52839500D01*
X171332464Y-52839500D01*
X171332459Y-52839500D01*
X171080531Y-52879401D01*
X170837936Y-52958226D01*
X170703622Y-53026663D01*
X170634953Y-53039559D01*
X170570213Y-53013282D01*
X170529956Y-52956176D01*
X170526964Y-52886370D01*
X170539941Y-52854178D01*
X170600748Y-52748856D01*
X170600752Y-52748847D01*
X170694556Y-52522385D01*
X170758003Y-52285598D01*
X170789999Y-52042573D01*
X170790000Y-52042559D01*
X170790000Y-51797440D01*
X170789999Y-51797426D01*
X170758003Y-51554401D01*
X170694556Y-51317614D01*
X170600752Y-51091152D01*
X170600748Y-51091143D01*
X170478183Y-50878854D01*
X170407201Y-50786350D01*
X170407200Y-50786350D01*
X169674114Y-51519437D01*
X169673260Y-51517374D01*
X169580238Y-51378156D01*
X169461844Y-51259762D01*
X169322626Y-51166740D01*
X169320560Y-51165884D01*
X170053648Y-50432797D01*
X169961140Y-50361812D01*
X169748857Y-50239251D01*
X169748847Y-50239247D01*
X169522385Y-50145443D01*
X169285598Y-50081996D01*
X169042573Y-50050000D01*
X168797426Y-50050000D01*
X168554401Y-50081996D01*
X168317614Y-50145443D01*
X168091152Y-50239247D01*
X168091142Y-50239251D01*
X167878855Y-50361815D01*
X167786350Y-50432796D01*
X167786350Y-50432797D01*
X168519438Y-51165885D01*
X168517374Y-51166740D01*
X168378156Y-51259762D01*
X168259762Y-51378156D01*
X168166740Y-51517374D01*
X168165885Y-51519438D01*
X167432797Y-50786350D01*
X167432796Y-50786350D01*
X167361815Y-50878855D01*
X167239251Y-51091142D01*
X167239247Y-51091152D01*
X167145443Y-51317614D01*
X167081996Y-51554401D01*
X167050000Y-51797426D01*
X167050000Y-52042573D01*
X167081996Y-52285598D01*
X167145443Y-52522385D01*
X167239247Y-52748847D01*
X167239251Y-52748857D01*
X167361812Y-52961140D01*
X167432797Y-53053648D01*
X168165884Y-52320561D01*
X168166740Y-52322626D01*
X168259762Y-52461844D01*
X168378156Y-52580238D01*
X168517374Y-52673260D01*
X168519437Y-52674114D01*
X167786350Y-53407200D01*
X167786350Y-53407201D01*
X167878854Y-53478183D01*
X168091143Y-53600748D01*
X168091152Y-53600752D01*
X168317614Y-53694556D01*
X168554401Y-53758003D01*
X168797426Y-53789999D01*
X168797441Y-53790000D01*
X169042559Y-53790000D01*
X169042573Y-53789999D01*
X169285598Y-53758003D01*
X169522385Y-53694556D01*
X169748847Y-53600752D01*
X169748856Y-53600748D01*
X169854178Y-53539941D01*
X169922078Y-53523468D01*
X169988105Y-53546320D01*
X170031296Y-53601242D01*
X170037937Y-53670795D01*
X170026663Y-53703622D01*
X169958226Y-53837936D01*
X169879401Y-54080531D01*
X169839500Y-54332458D01*
X169839500Y-54587541D01*
X169879401Y-54839468D01*
X169958225Y-55082060D01*
X170026663Y-55216376D01*
X170039559Y-55285046D01*
X170013282Y-55349786D01*
X169956176Y-55390043D01*
X169886370Y-55393035D01*
X169854179Y-55380058D01*
X169748864Y-55319255D01*
X169748847Y-55319247D01*
X169522385Y-55225443D01*
X169285598Y-55161996D01*
X169042573Y-55130000D01*
X168797426Y-55130000D01*
X168554401Y-55161996D01*
X168317614Y-55225443D01*
X168091152Y-55319247D01*
X168091142Y-55319251D01*
X167878855Y-55441815D01*
X167786350Y-55512796D01*
X167786350Y-55512797D01*
X168519438Y-56245884D01*
X168517374Y-56246740D01*
X168378156Y-56339762D01*
X168259762Y-56458156D01*
X168166740Y-56597374D01*
X168165885Y-56599438D01*
X167432797Y-55866350D01*
X167432796Y-55866350D01*
X167361815Y-55958855D01*
X167239251Y-56171142D01*
X167239247Y-56171152D01*
X167145443Y-56397614D01*
X167081996Y-56634401D01*
X167050000Y-56877426D01*
X167050000Y-57122573D01*
X167081996Y-57365598D01*
X167145443Y-57602385D01*
X167239247Y-57828847D01*
X167239251Y-57828857D01*
X167361812Y-58041140D01*
X167432797Y-58133648D01*
X168165884Y-57400561D01*
X168166740Y-57402626D01*
X168259762Y-57541844D01*
X168378156Y-57660238D01*
X168517374Y-57753260D01*
X168519437Y-57754114D01*
X167786350Y-58487200D01*
X167786350Y-58487201D01*
X167878854Y-58558183D01*
X168091143Y-58680748D01*
X168091152Y-58680752D01*
X168317614Y-58774556D01*
X168554401Y-58838003D01*
X168797426Y-58869999D01*
X168797441Y-58870000D01*
X169042559Y-58870000D01*
X169042573Y-58869999D01*
X169285598Y-58838003D01*
X169522385Y-58774556D01*
X169748847Y-58680752D01*
X169748856Y-58680748D01*
X169961151Y-58558180D01*
X170053648Y-58487203D01*
X170053648Y-58487200D01*
X169320562Y-57754114D01*
X169322626Y-57753260D01*
X169461844Y-57660238D01*
X169580238Y-57541844D01*
X169673260Y-57402626D01*
X169674114Y-57400561D01*
X170407200Y-58133648D01*
X170407203Y-58133648D01*
X170478180Y-58041151D01*
X170600748Y-57828856D01*
X170600752Y-57828847D01*
X170694556Y-57602385D01*
X170758003Y-57365598D01*
X170789999Y-57122573D01*
X170790000Y-57122559D01*
X170790000Y-56877440D01*
X170789999Y-56877426D01*
X170758003Y-56634401D01*
X170694556Y-56397614D01*
X170600752Y-56171152D01*
X170600748Y-56171142D01*
X170539941Y-56065821D01*
X170523468Y-55997921D01*
X170546321Y-55931894D01*
X170601242Y-55888703D01*
X170670795Y-55882062D01*
X170703621Y-55893335D01*
X170745015Y-55914426D01*
X170837939Y-55961774D01*
X170837941Y-55961774D01*
X170837944Y-55961776D01*
X170967976Y-56004026D01*
X171080531Y-56040598D01*
X171332459Y-56080500D01*
X171332464Y-56080500D01*
X171587541Y-56080500D01*
X171839468Y-56040598D01*
X171860919Y-56033628D01*
X172082056Y-55961776D01*
X172216378Y-55893335D01*
X172285045Y-55880440D01*
X172349785Y-55906716D01*
X172390043Y-55963822D01*
X172393035Y-56033628D01*
X172380059Y-56065820D01*
X172319249Y-56171147D01*
X172319247Y-56171152D01*
X172225443Y-56397614D01*
X172161996Y-56634401D01*
X172130000Y-56877426D01*
X172130000Y-57122573D01*
X172161996Y-57365598D01*
X172225443Y-57602385D01*
X172319247Y-57828847D01*
X172319251Y-57828857D01*
X172441812Y-58041140D01*
X172512797Y-58133648D01*
X173245884Y-57400560D01*
X173246740Y-57402626D01*
X173339762Y-57541844D01*
X173458156Y-57660238D01*
X173597374Y-57753260D01*
X173599437Y-57754114D01*
X172866350Y-58487200D01*
X172866350Y-58487201D01*
X172958854Y-58558183D01*
X173171143Y-58680748D01*
X173171152Y-58680752D01*
X173397614Y-58774556D01*
X173634401Y-58838003D01*
X173877426Y-58869999D01*
X173877441Y-58870000D01*
X174122559Y-58870000D01*
X174122573Y-58869999D01*
X174365598Y-58838003D01*
X174602385Y-58774556D01*
X174828847Y-58680752D01*
X174828856Y-58680748D01*
X175041151Y-58558180D01*
X175133648Y-58487203D01*
X175133648Y-58487200D01*
X174400562Y-57754114D01*
X174402626Y-57753260D01*
X174541844Y-57660238D01*
X174660238Y-57541844D01*
X174753260Y-57402626D01*
X174754114Y-57400562D01*
X175487200Y-58133648D01*
X175487203Y-58133648D01*
X175558180Y-58041151D01*
X175680748Y-57828856D01*
X175680755Y-57828842D01*
X175760939Y-57635261D01*
X175804780Y-57580857D01*
X175871074Y-57558792D01*
X175938773Y-57576071D01*
X175986384Y-57627208D01*
X175999500Y-57682713D01*
X175999500Y-116875500D01*
X175979815Y-116942539D01*
X175927011Y-116988294D01*
X175875500Y-116999500D01*
X98124500Y-116999500D01*
X98057461Y-116979815D01*
X98011706Y-116927011D01*
X98000500Y-116875500D01*
X98000500Y-112818206D01*
X98299500Y-112818206D01*
X98299500Y-113181794D01*
X98303633Y-113223754D01*
X98335137Y-113543630D01*
X98406064Y-113900212D01*
X98406067Y-113900223D01*
X98406069Y-113900232D01*
X98406070Y-113900233D01*
X98406848Y-113902797D01*
X98511614Y-114248165D01*
X98650754Y-114584078D01*
X98650756Y-114584083D01*
X98822140Y-114904720D01*
X98822151Y-114904738D01*
X99024140Y-115207035D01*
X99024150Y-115207049D01*
X99254807Y-115488106D01*
X99511893Y-115745192D01*
X99511898Y-115745196D01*
X99511899Y-115745197D01*
X99792956Y-115975854D01*
X100095268Y-116177853D01*
X100095277Y-116177858D01*
X100095279Y-116177859D01*
X100415916Y-116349243D01*
X100415918Y-116349243D01*
X100415924Y-116349247D01*
X100751836Y-116488386D01*
X101099767Y-116593930D01*
X101099773Y-116593931D01*
X101099776Y-116593932D01*
X101099787Y-116593935D01*
X101456369Y-116664862D01*
X101818206Y-116700500D01*
X101818209Y-116700500D01*
X102181791Y-116700500D01*
X102181794Y-116700500D01*
X102543631Y-116664862D01*
X102613045Y-116651054D01*
X102900212Y-116593935D01*
X102900223Y-116593932D01*
X102900223Y-116593931D01*
X102900233Y-116593930D01*
X103248164Y-116488386D01*
X103584076Y-116349247D01*
X103904732Y-116177853D01*
X104207044Y-115975854D01*
X104488101Y-115745197D01*
X104745197Y-115488101D01*
X104975854Y-115207044D01*
X105177853Y-114904732D01*
X105349247Y-114584076D01*
X105488386Y-114248164D01*
X105593930Y-113900233D01*
X105593932Y-113900223D01*
X105593935Y-113900212D01*
X105664862Y-113543630D01*
X105672495Y-113466130D01*
X105700500Y-113181794D01*
X105700500Y-112818206D01*
X105664862Y-112456369D01*
X105653669Y-112400099D01*
X105618050Y-112221025D01*
X105613865Y-112199983D01*
X109149500Y-112199983D01*
X109149500Y-113800001D01*
X109149501Y-113800018D01*
X109160000Y-113902796D01*
X109160001Y-113902799D01*
X109194031Y-114005493D01*
X109215186Y-114069334D01*
X109307288Y-114218656D01*
X109431344Y-114342712D01*
X109580666Y-114434814D01*
X109747203Y-114489999D01*
X109849991Y-114500500D01*
X111150008Y-114500499D01*
X111252797Y-114489999D01*
X111419334Y-114434814D01*
X111568656Y-114342712D01*
X111692712Y-114218656D01*
X111784814Y-114069334D01*
X111784814Y-114069331D01*
X111788448Y-114063441D01*
X111840395Y-114016716D01*
X111909358Y-114005493D01*
X111973440Y-114033336D01*
X111981668Y-114040856D01*
X112120535Y-114179723D01*
X112120540Y-114179727D01*
X112292442Y-114304620D01*
X112481782Y-114401095D01*
X112683871Y-114466757D01*
X112750000Y-114477231D01*
X112750000Y-113433012D01*
X112807007Y-113465925D01*
X112934174Y-113500000D01*
X113065826Y-113500000D01*
X113192993Y-113465925D01*
X113250000Y-113433012D01*
X113250000Y-114477230D01*
X113316126Y-114466757D01*
X113316129Y-114466757D01*
X113518217Y-114401095D01*
X113707557Y-114304620D01*
X113879459Y-114179727D01*
X113879464Y-114179723D01*
X114029723Y-114029464D01*
X114029727Y-114029459D01*
X114154620Y-113857557D01*
X114251095Y-113668217D01*
X114316757Y-113466130D01*
X114316757Y-113466127D01*
X114350000Y-113256246D01*
X114350000Y-113250000D01*
X113433012Y-113250000D01*
X113465925Y-113192993D01*
X113500000Y-113065826D01*
X113500000Y-112934174D01*
X113465925Y-112807007D01*
X113433012Y-112750000D01*
X114350000Y-112750000D01*
X114350000Y-112743753D01*
X114316757Y-112533872D01*
X114316757Y-112533869D01*
X114251095Y-112331782D01*
X114219224Y-112269232D01*
X114154620Y-112142442D01*
X114029727Y-111970540D01*
X114029723Y-111970535D01*
X113879464Y-111820276D01*
X113879459Y-111820272D01*
X113782737Y-111750000D01*
X120139591Y-111750000D01*
X120983188Y-111750000D01*
X120950275Y-111807007D01*
X120916200Y-111934174D01*
X120916200Y-112065826D01*
X120950275Y-112192993D01*
X120983188Y-112250000D01*
X120139591Y-112250000D01*
X120148209Y-112304413D01*
X120211444Y-112499029D01*
X120304340Y-112681349D01*
X120424617Y-112846894D01*
X120424617Y-112846895D01*
X120569304Y-112991582D01*
X120734850Y-113111859D01*
X120917168Y-113204754D01*
X121111778Y-113267988D01*
X121166200Y-113276607D01*
X121166200Y-112433012D01*
X121223207Y-112465925D01*
X121350374Y-112500000D01*
X121482026Y-112500000D01*
X121609193Y-112465925D01*
X121666200Y-112433012D01*
X121666200Y-113276606D01*
X121720621Y-113267988D01*
X121915231Y-113204754D01*
X122097549Y-113111859D01*
X122263094Y-112991582D01*
X122263095Y-112991582D01*
X122407782Y-112846895D01*
X122407782Y-112846894D01*
X122528059Y-112681349D01*
X122620955Y-112499029D01*
X122684190Y-112304414D01*
X122692809Y-112250000D01*
X121849212Y-112250000D01*
X121882125Y-112192993D01*
X121916200Y-112065826D01*
X121916200Y-111934174D01*
X121882125Y-111807007D01*
X121860182Y-111769000D01*
X153083391Y-111769000D01*
X153926988Y-111769000D01*
X153894075Y-111826007D01*
X153860000Y-111953174D01*
X153860000Y-112084826D01*
X153894075Y-112211993D01*
X153926988Y-112269000D01*
X153083391Y-112269000D01*
X153092009Y-112323413D01*
X153155244Y-112518029D01*
X153248140Y-112700349D01*
X153368417Y-112865894D01*
X153368417Y-112865895D01*
X153513104Y-113010582D01*
X153678650Y-113130859D01*
X153860968Y-113223754D01*
X154055578Y-113286988D01*
X154110000Y-113295607D01*
X154110000Y-112452012D01*
X154167007Y-112484925D01*
X154294174Y-112519000D01*
X154425826Y-112519000D01*
X154552993Y-112484925D01*
X154610000Y-112452012D01*
X154610000Y-113295606D01*
X154664421Y-113286988D01*
X154859031Y-113223754D01*
X155041349Y-113130859D01*
X155206894Y-113010582D01*
X155206895Y-113010582D01*
X155351582Y-112865895D01*
X155351582Y-112865894D01*
X155471859Y-112700349D01*
X155564755Y-112518029D01*
X155627990Y-112323413D01*
X155636609Y-112269000D01*
X154793012Y-112269000D01*
X154825925Y-112211993D01*
X154860000Y-112084826D01*
X154860000Y-111953174D01*
X154825925Y-111826007D01*
X154793012Y-111769000D01*
X155636609Y-111769000D01*
X155627990Y-111714586D01*
X155564755Y-111519970D01*
X155471859Y-111337650D01*
X155351582Y-111172105D01*
X155351582Y-111172104D01*
X155231613Y-111052135D01*
X158599500Y-111052135D01*
X158599500Y-112947870D01*
X158599501Y-112947876D01*
X158605908Y-113007483D01*
X158656202Y-113142328D01*
X158656206Y-113142335D01*
X158742452Y-113257544D01*
X158742455Y-113257547D01*
X158857664Y-113343793D01*
X158857671Y-113343797D01*
X158992517Y-113394091D01*
X158992516Y-113394091D01*
X158999444Y-113394835D01*
X159052127Y-113400500D01*
X160947872Y-113400499D01*
X161007483Y-113394091D01*
X161142331Y-113343796D01*
X161257546Y-113257546D01*
X161343796Y-113142331D01*
X161371429Y-113068243D01*
X161373601Y-113062420D01*
X161415471Y-113006486D01*
X161480936Y-112982068D01*
X161549209Y-112996919D01*
X161577464Y-113018071D01*
X161627636Y-113068243D01*
X161627641Y-113068247D01*
X161713820Y-113130859D01*
X161805978Y-113197815D01*
X161934375Y-113263237D01*
X162002393Y-113297895D01*
X162002396Y-113297896D01*
X162107221Y-113331955D01*
X162212049Y-113366015D01*
X162429778Y-113400500D01*
X162429779Y-113400500D01*
X162650221Y-113400500D01*
X162650222Y-113400500D01*
X162867951Y-113366015D01*
X163077606Y-113297895D01*
X163274022Y-113197815D01*
X163452365Y-113068242D01*
X163608242Y-112912365D01*
X163608244Y-112912361D01*
X163608247Y-112912359D01*
X163676653Y-112818206D01*
X168299500Y-112818206D01*
X168299500Y-113181794D01*
X168303633Y-113223754D01*
X168335137Y-113543630D01*
X168406064Y-113900212D01*
X168406067Y-113900223D01*
X168406069Y-113900232D01*
X168406070Y-113900233D01*
X168406848Y-113902797D01*
X168511614Y-114248165D01*
X168650754Y-114584078D01*
X168650756Y-114584083D01*
X168822140Y-114904720D01*
X168822151Y-114904738D01*
X169024140Y-115207035D01*
X169024150Y-115207049D01*
X169254807Y-115488106D01*
X169511893Y-115745192D01*
X169511898Y-115745196D01*
X169511899Y-115745197D01*
X169792956Y-115975854D01*
X170095268Y-116177853D01*
X170095277Y-116177858D01*
X170095279Y-116177859D01*
X170415916Y-116349243D01*
X170415918Y-116349243D01*
X170415924Y-116349247D01*
X170751836Y-116488386D01*
X171099767Y-116593930D01*
X171099773Y-116593931D01*
X171099776Y-116593932D01*
X171099787Y-116593935D01*
X171456369Y-116664862D01*
X171818206Y-116700500D01*
X171818209Y-116700500D01*
X172181791Y-116700500D01*
X172181794Y-116700500D01*
X172543631Y-116664862D01*
X172613045Y-116651054D01*
X172900212Y-116593935D01*
X172900223Y-116593932D01*
X172900223Y-116593931D01*
X172900233Y-116593930D01*
X173248164Y-116488386D01*
X173584076Y-116349247D01*
X173904732Y-116177853D01*
X174207044Y-115975854D01*
X174488101Y-115745197D01*
X174745197Y-115488101D01*
X174975854Y-115207044D01*
X175177853Y-114904732D01*
X175349247Y-114584076D01*
X175488386Y-114248164D01*
X175593930Y-113900233D01*
X175593932Y-113900223D01*
X175593935Y-113900212D01*
X175664862Y-113543630D01*
X175672495Y-113466130D01*
X175700500Y-113181794D01*
X175700500Y-112818206D01*
X175664862Y-112456369D01*
X175653669Y-112400099D01*
X175593935Y-112099787D01*
X175593932Y-112099776D01*
X175593931Y-112099773D01*
X175593930Y-112099767D01*
X175488386Y-111751836D01*
X175349247Y-111415924D01*
X175208767Y-111153105D01*
X175177859Y-111095279D01*
X175177858Y-111095277D01*
X175177853Y-111095268D01*
X174975854Y-110792956D01*
X174745197Y-110511899D01*
X174745196Y-110511898D01*
X174745192Y-110511893D01*
X174488106Y-110254807D01*
X174207049Y-110024150D01*
X174207048Y-110024149D01*
X174207044Y-110024146D01*
X173904732Y-109822147D01*
X173904727Y-109822144D01*
X173904720Y-109822140D01*
X173584083Y-109650756D01*
X173584078Y-109650754D01*
X173248165Y-109511614D01*
X172900223Y-109406067D01*
X172900212Y-109406064D01*
X172543630Y-109335137D01*
X172271111Y-109308296D01*
X172181794Y-109299500D01*
X171818206Y-109299500D01*
X171735679Y-109307628D01*
X171456369Y-109335137D01*
X171099787Y-109406064D01*
X171099776Y-109406067D01*
X170751834Y-109511614D01*
X170415921Y-109650754D01*
X170415916Y-109650756D01*
X170095279Y-109822140D01*
X170095261Y-109822151D01*
X169792964Y-110024140D01*
X169792950Y-110024150D01*
X169511893Y-110254807D01*
X169254807Y-110511893D01*
X169024150Y-110792950D01*
X169024140Y-110792964D01*
X168822151Y-111095261D01*
X168822140Y-111095279D01*
X168650756Y-111415916D01*
X168650754Y-111415921D01*
X168511614Y-111751834D01*
X168406067Y-112099776D01*
X168406064Y-112099787D01*
X168335137Y-112456369D01*
X168321001Y-112599901D01*
X168299500Y-112818206D01*
X163676653Y-112818206D01*
X163731818Y-112742277D01*
X163731818Y-112742276D01*
X163737815Y-112734022D01*
X163837895Y-112537606D01*
X163906015Y-112327951D01*
X163940500Y-112110222D01*
X163940500Y-111889778D01*
X163906015Y-111672049D01*
X163860914Y-111533241D01*
X163837896Y-111462396D01*
X163837895Y-111462393D01*
X163774334Y-111337650D01*
X163737815Y-111265978D01*
X163669612Y-111172104D01*
X163608247Y-111087641D01*
X163608243Y-111087636D01*
X163452363Y-110931756D01*
X163452358Y-110931752D01*
X163274025Y-110802187D01*
X163274024Y-110802186D01*
X163274022Y-110802185D01*
X163211096Y-110770122D01*
X163077606Y-110702104D01*
X163077603Y-110702103D01*
X162867952Y-110633985D01*
X162759086Y-110616742D01*
X162650222Y-110599500D01*
X162429778Y-110599500D01*
X162357201Y-110610995D01*
X162212047Y-110633985D01*
X162002396Y-110702103D01*
X162002393Y-110702104D01*
X161805974Y-110802187D01*
X161627641Y-110931752D01*
X161627636Y-110931756D01*
X161577463Y-110981929D01*
X161516140Y-111015413D01*
X161446448Y-111010428D01*
X161390515Y-110968557D01*
X161373601Y-110937580D01*
X161343797Y-110857671D01*
X161343793Y-110857664D01*
X161257547Y-110742455D01*
X161257544Y-110742452D01*
X161142335Y-110656206D01*
X161142328Y-110656202D01*
X161007482Y-110605908D01*
X161007483Y-110605908D01*
X160947883Y-110599501D01*
X160947881Y-110599500D01*
X160947873Y-110599500D01*
X160947864Y-110599500D01*
X159052129Y-110599500D01*
X159052123Y-110599501D01*
X158992516Y-110605908D01*
X158857671Y-110656202D01*
X158857664Y-110656206D01*
X158742455Y-110742452D01*
X158742452Y-110742455D01*
X158656206Y-110857664D01*
X158656202Y-110857671D01*
X158605908Y-110992517D01*
X158599501Y-111052116D01*
X158599500Y-111052135D01*
X155231613Y-111052135D01*
X155206895Y-111027417D01*
X155041349Y-110907140D01*
X154859029Y-110814244D01*
X154664413Y-110751009D01*
X154610000Y-110742390D01*
X154610000Y-111585988D01*
X154552993Y-111553075D01*
X154425826Y-111519000D01*
X154294174Y-111519000D01*
X154167007Y-111553075D01*
X154110000Y-111585988D01*
X154110000Y-110742390D01*
X154055586Y-110751009D01*
X153860970Y-110814244D01*
X153678650Y-110907140D01*
X153513105Y-111027417D01*
X153513104Y-111027417D01*
X153368417Y-111172104D01*
X153368417Y-111172105D01*
X153248140Y-111337650D01*
X153155244Y-111519970D01*
X153092009Y-111714586D01*
X153083391Y-111769000D01*
X121860182Y-111769000D01*
X121849212Y-111750000D01*
X122692809Y-111750000D01*
X122684190Y-111695586D01*
X122620955Y-111500970D01*
X122528059Y-111318650D01*
X122407782Y-111153105D01*
X122407782Y-111153104D01*
X122263095Y-111008417D01*
X122097549Y-110888140D01*
X121915229Y-110795244D01*
X121720613Y-110732009D01*
X121666200Y-110723390D01*
X121666200Y-111566988D01*
X121609193Y-111534075D01*
X121482026Y-111500000D01*
X121350374Y-111500000D01*
X121223207Y-111534075D01*
X121166200Y-111566988D01*
X121166200Y-110723390D01*
X121111786Y-110732009D01*
X120917170Y-110795244D01*
X120734850Y-110888140D01*
X120569305Y-111008417D01*
X120569304Y-111008417D01*
X120424617Y-111153104D01*
X120424617Y-111153105D01*
X120304340Y-111318650D01*
X120211444Y-111500970D01*
X120148209Y-111695586D01*
X120139591Y-111750000D01*
X113782737Y-111750000D01*
X113707557Y-111695379D01*
X113518215Y-111598903D01*
X113316124Y-111533241D01*
X113250000Y-111522768D01*
X113250000Y-112566988D01*
X113192993Y-112534075D01*
X113065826Y-112500000D01*
X112934174Y-112500000D01*
X112807007Y-112534075D01*
X112750000Y-112566988D01*
X112750000Y-111522768D01*
X112749999Y-111522768D01*
X112683875Y-111533241D01*
X112481784Y-111598903D01*
X112292442Y-111695379D01*
X112120541Y-111820271D01*
X111981668Y-111959144D01*
X111920345Y-111992628D01*
X111850653Y-111987644D01*
X111794720Y-111945772D01*
X111788448Y-111936558D01*
X111692712Y-111781344D01*
X111568657Y-111657289D01*
X111568656Y-111657288D01*
X111419334Y-111565186D01*
X111252797Y-111510001D01*
X111252795Y-111510000D01*
X111150010Y-111499500D01*
X109849998Y-111499500D01*
X109849981Y-111499501D01*
X109747203Y-111510000D01*
X109747200Y-111510001D01*
X109580668Y-111565185D01*
X109580663Y-111565187D01*
X109431342Y-111657289D01*
X109307289Y-111781342D01*
X109215187Y-111930663D01*
X109215185Y-111930668D01*
X109205749Y-111959144D01*
X109160001Y-112097203D01*
X109160001Y-112097204D01*
X109160000Y-112097204D01*
X109149500Y-112199983D01*
X105613865Y-112199983D01*
X105593935Y-112099787D01*
X105593932Y-112099776D01*
X105593931Y-112099773D01*
X105593930Y-112099767D01*
X105488386Y-111751836D01*
X105349247Y-111415924D01*
X105208767Y-111153105D01*
X105177859Y-111095279D01*
X105177858Y-111095277D01*
X105177853Y-111095268D01*
X104975854Y-110792956D01*
X104745197Y-110511899D01*
X104745196Y-110511898D01*
X104745192Y-110511893D01*
X104488106Y-110254807D01*
X104207049Y-110024150D01*
X104207048Y-110024149D01*
X104207044Y-110024146D01*
X103904732Y-109822147D01*
X103904727Y-109822144D01*
X103904720Y-109822140D01*
X103584083Y-109650756D01*
X103584078Y-109650754D01*
X103248165Y-109511614D01*
X102900223Y-109406067D01*
X102900212Y-109406064D01*
X102543630Y-109335137D01*
X102271111Y-109308296D01*
X102181794Y-109299500D01*
X101818206Y-109299500D01*
X101735679Y-109307628D01*
X101456369Y-109335137D01*
X101099787Y-109406064D01*
X101099776Y-109406067D01*
X100751834Y-109511614D01*
X100415921Y-109650754D01*
X100415916Y-109650756D01*
X100095279Y-109822140D01*
X100095261Y-109822151D01*
X99792964Y-110024140D01*
X99792950Y-110024150D01*
X99511893Y-110254807D01*
X99254807Y-110511893D01*
X99024150Y-110792950D01*
X99024140Y-110792964D01*
X98822151Y-111095261D01*
X98822140Y-111095279D01*
X98650756Y-111415916D01*
X98650754Y-111415921D01*
X98511614Y-111751834D01*
X98406067Y-112099776D01*
X98406064Y-112099787D01*
X98335137Y-112456369D01*
X98321001Y-112599901D01*
X98299500Y-112818206D01*
X98000500Y-112818206D01*
X98000500Y-104290048D01*
X109570700Y-104290048D01*
X109570700Y-104494751D01*
X109602722Y-104696934D01*
X109665981Y-104891623D01*
X109758915Y-105074013D01*
X109879228Y-105239613D01*
X110023986Y-105384371D01*
X110147980Y-105474456D01*
X110189590Y-105504687D01*
X110305807Y-105563903D01*
X110371976Y-105597618D01*
X110371978Y-105597618D01*
X110371981Y-105597620D01*
X110476337Y-105631527D01*
X110566665Y-105660877D01*
X110667757Y-105676888D01*
X110768848Y-105692900D01*
X110768849Y-105692900D01*
X110973551Y-105692900D01*
X110973552Y-105692900D01*
X111175734Y-105660877D01*
X111370419Y-105597620D01*
X111552810Y-105504687D01*
X111645790Y-105437132D01*
X111718413Y-105384371D01*
X111718415Y-105384368D01*
X111718419Y-105384366D01*
X111863166Y-105239619D01*
X111863168Y-105239615D01*
X111863171Y-105239613D01*
X111949506Y-105120781D01*
X111983487Y-105074010D01*
X112076420Y-104891619D01*
X112139677Y-104696934D01*
X112171700Y-104494752D01*
X112171700Y-104290048D01*
X112151321Y-104161381D01*
X112139677Y-104087865D01*
X112077438Y-103896315D01*
X112076420Y-103893181D01*
X112076418Y-103893178D01*
X112076418Y-103893176D01*
X112042703Y-103827007D01*
X111983487Y-103710790D01*
X111955339Y-103672047D01*
X111863171Y-103545186D01*
X111718413Y-103400428D01*
X111552813Y-103280115D01*
X111552812Y-103280114D01*
X111552810Y-103280113D01*
X111495853Y-103251091D01*
X111370423Y-103187181D01*
X111175734Y-103123922D01*
X111001195Y-103096278D01*
X110973552Y-103091900D01*
X110768848Y-103091900D01*
X110744529Y-103095751D01*
X110566665Y-103123922D01*
X110371976Y-103187181D01*
X110189586Y-103280115D01*
X110023986Y-103400428D01*
X109879228Y-103545186D01*
X109758915Y-103710786D01*
X109665981Y-103893176D01*
X109602722Y-104087865D01*
X109570700Y-104290048D01*
X98000500Y-104290048D01*
X98000500Y-98930648D01*
X98699500Y-98930648D01*
X98699500Y-99135351D01*
X98731522Y-99337534D01*
X98794781Y-99532223D01*
X98887715Y-99714613D01*
X99008028Y-99880213D01*
X99152786Y-100024971D01*
X99278360Y-100116204D01*
X99318390Y-100145287D01*
X99430586Y-100202454D01*
X99500776Y-100238218D01*
X99500778Y-100238218D01*
X99500781Y-100238220D01*
X99605137Y-100272127D01*
X99695465Y-100301477D01*
X99796557Y-100317488D01*
X99897648Y-100333500D01*
X99897649Y-100333500D01*
X100102351Y-100333500D01*
X100102352Y-100333500D01*
X100304534Y-100301477D01*
X100499219Y-100238220D01*
X100681610Y-100145287D01*
X100774590Y-100077732D01*
X100847213Y-100024971D01*
X100847215Y-100024968D01*
X100847219Y-100024966D01*
X100991966Y-99880219D01*
X100991968Y-99880215D01*
X100991971Y-99880213D01*
X101044732Y-99807590D01*
X101112287Y-99714610D01*
X101205220Y-99532219D01*
X101268477Y-99337534D01*
X101300500Y-99135352D01*
X101300500Y-98930648D01*
X101268477Y-98728466D01*
X101205220Y-98533781D01*
X101205218Y-98533778D01*
X101205218Y-98533776D01*
X101167038Y-98458845D01*
X101112287Y-98351390D01*
X101088500Y-98318650D01*
X100991971Y-98185786D01*
X100847213Y-98041028D01*
X100681613Y-97920715D01*
X100681612Y-97920714D01*
X100681610Y-97920713D01*
X100617682Y-97888140D01*
X100499223Y-97827781D01*
X100304534Y-97764522D01*
X100129995Y-97736878D01*
X100102352Y-97732500D01*
X99897648Y-97732500D01*
X99873329Y-97736351D01*
X99695465Y-97764522D01*
X99500776Y-97827781D01*
X99318386Y-97920715D01*
X99152786Y-98041028D01*
X99008028Y-98185786D01*
X98887715Y-98351386D01*
X98794781Y-98533776D01*
X98731522Y-98728465D01*
X98699500Y-98930648D01*
X98000500Y-98930648D01*
X98000500Y-83372070D01*
X100374500Y-83372070D01*
X100374500Y-83627929D01*
X100414526Y-83880640D01*
X100493588Y-84123972D01*
X100493589Y-84123975D01*
X100609750Y-84351950D01*
X100760132Y-84558935D01*
X100760136Y-84558940D01*
X100941059Y-84739863D01*
X100941064Y-84739867D01*
X101121607Y-84871038D01*
X101148053Y-84890252D01*
X101297080Y-84966185D01*
X101376024Y-85006410D01*
X101376027Y-85006411D01*
X101497693Y-85045942D01*
X101619361Y-85085474D01*
X101872070Y-85125500D01*
X101872071Y-85125500D01*
X102127929Y-85125500D01*
X102127930Y-85125500D01*
X102380639Y-85085474D01*
X102623975Y-85006410D01*
X102851947Y-84890252D01*
X103058942Y-84739862D01*
X103239862Y-84558942D01*
X103390252Y-84351947D01*
X103506410Y-84123975D01*
X103585474Y-83880639D01*
X103625500Y-83627930D01*
X103625500Y-83372070D01*
X103585474Y-83119361D01*
X103506410Y-82876025D01*
X103506410Y-82876024D01*
X103466185Y-82797080D01*
X103390252Y-82648053D01*
X103371038Y-82621607D01*
X103239867Y-82441064D01*
X103239863Y-82441059D01*
X103058940Y-82260136D01*
X103058935Y-82260132D01*
X102851950Y-82109750D01*
X102851949Y-82109749D01*
X102851947Y-82109748D01*
X102778910Y-82072533D01*
X102623975Y-81993589D01*
X102623972Y-81993588D01*
X102380640Y-81914526D01*
X102216175Y-81888477D01*
X102127930Y-81874500D01*
X101872070Y-81874500D01*
X101787833Y-81887842D01*
X101619359Y-81914526D01*
X101376027Y-81993588D01*
X101376024Y-81993589D01*
X101148049Y-82109750D01*
X100941064Y-82260132D01*
X100941059Y-82260136D01*
X100760136Y-82441059D01*
X100760132Y-82441064D01*
X100609750Y-82648049D01*
X100493589Y-82876024D01*
X100493588Y-82876027D01*
X100414526Y-83119359D01*
X100374500Y-83372070D01*
X98000500Y-83372070D01*
X98000500Y-60372070D01*
X100374500Y-60372070D01*
X100374500Y-60627930D01*
X100379334Y-60658452D01*
X100414526Y-60880640D01*
X100493588Y-61123972D01*
X100493589Y-61123975D01*
X100560042Y-61254394D01*
X100609033Y-61350544D01*
X100609750Y-61351950D01*
X100760132Y-61558935D01*
X100760136Y-61558940D01*
X100941059Y-61739863D01*
X100941064Y-61739867D01*
X101086603Y-61845606D01*
X101148053Y-61890252D01*
X101290815Y-61962993D01*
X101376024Y-62006410D01*
X101376027Y-62006411D01*
X101497693Y-62045942D01*
X101619361Y-62085474D01*
X101872070Y-62125500D01*
X101872071Y-62125500D01*
X102127929Y-62125500D01*
X102127930Y-62125500D01*
X102380639Y-62085474D01*
X102623975Y-62006410D01*
X102851947Y-61890252D01*
X103058942Y-61739862D01*
X103239862Y-61558942D01*
X103390252Y-61351947D01*
X103506410Y-61123975D01*
X103585474Y-60880639D01*
X103625500Y-60627930D01*
X103625500Y-60372070D01*
X103585474Y-60119361D01*
X103524454Y-59931559D01*
X103506411Y-59876027D01*
X103506410Y-59876024D01*
X103425406Y-59717047D01*
X103390252Y-59648053D01*
X103309573Y-59537007D01*
X103239867Y-59441064D01*
X103239863Y-59441059D01*
X103058940Y-59260136D01*
X103058935Y-59260132D01*
X102851950Y-59109750D01*
X102851949Y-59109749D01*
X102851947Y-59109748D01*
X102778910Y-59072533D01*
X102623975Y-58993589D01*
X102623972Y-58993588D01*
X102380640Y-58914526D01*
X102254284Y-58894513D01*
X102127930Y-58874500D01*
X101872070Y-58874500D01*
X101787833Y-58887842D01*
X101619359Y-58914526D01*
X101376027Y-58993588D01*
X101376024Y-58993589D01*
X101148049Y-59109750D01*
X100941064Y-59260132D01*
X100941059Y-59260136D01*
X100760136Y-59441059D01*
X100760132Y-59441064D01*
X100609750Y-59648049D01*
X100493589Y-59876024D01*
X100493588Y-59876027D01*
X100414526Y-60119359D01*
X100389630Y-60276542D01*
X100374500Y-60372070D01*
X98000500Y-60372070D01*
X98000500Y-42818206D01*
X98299500Y-42818206D01*
X98299500Y-43181794D01*
X98310337Y-43291829D01*
X98335137Y-43543630D01*
X98406064Y-43900212D01*
X98406067Y-43900223D01*
X98511614Y-44248165D01*
X98650754Y-44584078D01*
X98650756Y-44584083D01*
X98822140Y-44904720D01*
X98822151Y-44904738D01*
X99024140Y-45207035D01*
X99024150Y-45207049D01*
X99254807Y-45488106D01*
X99511893Y-45745192D01*
X99511898Y-45745196D01*
X99511899Y-45745197D01*
X99792956Y-45975854D01*
X100095268Y-46177853D01*
X100095277Y-46177858D01*
X100095279Y-46177859D01*
X100415916Y-46349243D01*
X100415918Y-46349243D01*
X100415924Y-46349247D01*
X100751836Y-46488386D01*
X101099767Y-46593930D01*
X101099773Y-46593931D01*
X101099776Y-46593932D01*
X101099787Y-46593935D01*
X101456369Y-46664862D01*
X101818206Y-46700500D01*
X101818209Y-46700500D01*
X102181791Y-46700500D01*
X102181794Y-46700500D01*
X102543631Y-46664862D01*
X102613045Y-46651054D01*
X102900212Y-46593935D01*
X102900223Y-46593932D01*
X102900223Y-46593931D01*
X102900233Y-46593930D01*
X103248164Y-46488386D01*
X103584076Y-46349247D01*
X103904732Y-46177853D01*
X104207044Y-45975854D01*
X104488101Y-45745197D01*
X104745197Y-45488101D01*
X104975854Y-45207044D01*
X105177853Y-44904732D01*
X105349247Y-44584076D01*
X105488386Y-44248164D01*
X105593930Y-43900233D01*
X105593932Y-43900223D01*
X105593935Y-43900212D01*
X105664862Y-43543630D01*
X105670161Y-43489829D01*
X105700500Y-43181794D01*
X105700500Y-42818206D01*
X105664862Y-42456369D01*
X105593935Y-42099787D01*
X105593932Y-42099776D01*
X105593931Y-42099773D01*
X105593930Y-42099767D01*
X105488386Y-41751836D01*
X105349247Y-41415924D01*
X105291180Y-41307289D01*
X105177859Y-41095279D01*
X105177858Y-41095277D01*
X105177853Y-41095268D01*
X104975854Y-40792956D01*
X104745197Y-40511899D01*
X104745196Y-40511898D01*
X104745192Y-40511893D01*
X104488106Y-40254807D01*
X104207049Y-40024150D01*
X104207048Y-40024149D01*
X104207044Y-40024146D01*
X103904732Y-39822147D01*
X103904727Y-39822144D01*
X103904720Y-39822140D01*
X103584083Y-39650756D01*
X103584078Y-39650754D01*
X103248165Y-39511614D01*
X102900223Y-39406067D01*
X102900212Y-39406064D01*
X102543630Y-39335137D01*
X102271111Y-39308296D01*
X102181794Y-39299500D01*
X101818206Y-39299500D01*
X101735679Y-39307628D01*
X101456369Y-39335137D01*
X101099787Y-39406064D01*
X101099776Y-39406067D01*
X100751834Y-39511614D01*
X100415921Y-39650754D01*
X100415916Y-39650756D01*
X100095279Y-39822140D01*
X100095261Y-39822151D01*
X99792964Y-40024140D01*
X99792950Y-40024150D01*
X99511893Y-40254807D01*
X99254807Y-40511893D01*
X99024150Y-40792950D01*
X99024140Y-40792964D01*
X98822151Y-41095261D01*
X98822140Y-41095279D01*
X98650756Y-41415916D01*
X98650754Y-41415921D01*
X98511614Y-41751834D01*
X98406067Y-42099776D01*
X98406064Y-42099787D01*
X98335137Y-42456369D01*
X98312483Y-42686386D01*
X98299500Y-42818206D01*
X98000500Y-42818206D01*
X98000500Y-39124500D01*
X98020185Y-39057461D01*
X98072989Y-39011706D01*
X98124500Y-39000500D01*
X116306155Y-39000500D01*
X116373194Y-39020185D01*
G37*
%TD.AperFunction*%
%TA.AperFunction,Conductor*%
G36*
X115831446Y-59672542D02*
G01*
X115870482Y-59717593D01*
X115951125Y-59875860D01*
X115957058Y-59887505D01*
X116073115Y-60047246D01*
X116212753Y-60186884D01*
X116372494Y-60302941D01*
X116372496Y-60302942D01*
X116372499Y-60302944D01*
X116542956Y-60389797D01*
X116593749Y-60437768D01*
X116610544Y-60505589D01*
X116588007Y-60571724D01*
X116542954Y-60610763D01*
X116372767Y-60697479D01*
X116372760Y-60697483D01*
X116337010Y-60723456D01*
X116337010Y-60723457D01*
X116900591Y-61287037D01*
X116837007Y-61304075D01*
X116722993Y-61369901D01*
X116629901Y-61462993D01*
X116564075Y-61577007D01*
X116547037Y-61640590D01*
X115983456Y-61077010D01*
X115957483Y-61112760D01*
X115957479Y-61112767D01*
X115870763Y-61282954D01*
X115822788Y-61333749D01*
X115754967Y-61350544D01*
X115688833Y-61328006D01*
X115649798Y-61282957D01*
X115562944Y-61112499D01*
X115562942Y-61112496D01*
X115562941Y-61112494D01*
X115446884Y-60952753D01*
X115307246Y-60813115D01*
X115147505Y-60697058D01*
X115141119Y-60693804D01*
X114977593Y-60610482D01*
X114926800Y-60562510D01*
X114910005Y-60494689D01*
X114932542Y-60428554D01*
X114977593Y-60389517D01*
X115147501Y-60302944D01*
X115197141Y-60266879D01*
X115307246Y-60186884D01*
X115307248Y-60186881D01*
X115307252Y-60186879D01*
X115446879Y-60047252D01*
X115446881Y-60047248D01*
X115446884Y-60047246D01*
X115562941Y-59887505D01*
X115562943Y-59887502D01*
X115562944Y-59887501D01*
X115649517Y-59717593D01*
X115697490Y-59666800D01*
X115765311Y-59650005D01*
X115831446Y-59672542D01*
G37*
%TD.AperFunction*%
%TA.AperFunction,Conductor*%
G36*
X136151446Y-59672542D02*
G01*
X136190482Y-59717593D01*
X136271125Y-59875860D01*
X136277058Y-59887505D01*
X136393115Y-60047246D01*
X136532753Y-60186884D01*
X136692494Y-60302941D01*
X136692496Y-60302942D01*
X136692499Y-60302944D01*
X136862956Y-60389797D01*
X136913749Y-60437768D01*
X136930544Y-60505589D01*
X136908007Y-60571724D01*
X136862954Y-60610763D01*
X136692767Y-60697479D01*
X136692760Y-60697483D01*
X136657010Y-60723456D01*
X136657010Y-60723457D01*
X137220591Y-61287037D01*
X137157007Y-61304075D01*
X137042993Y-61369901D01*
X136949901Y-61462993D01*
X136884075Y-61577007D01*
X136867037Y-61640590D01*
X136303457Y-61077010D01*
X136303456Y-61077010D01*
X136277483Y-61112760D01*
X136277479Y-61112767D01*
X136190763Y-61282954D01*
X136142788Y-61333749D01*
X136074967Y-61350544D01*
X136008833Y-61328006D01*
X135969798Y-61282957D01*
X135882944Y-61112499D01*
X135882942Y-61112496D01*
X135882941Y-61112494D01*
X135766884Y-60952753D01*
X135627246Y-60813115D01*
X135467505Y-60697058D01*
X135461119Y-60693804D01*
X135297593Y-60610482D01*
X135246800Y-60562510D01*
X135230005Y-60494689D01*
X135252542Y-60428554D01*
X135297593Y-60389517D01*
X135467501Y-60302944D01*
X135517141Y-60266879D01*
X135627246Y-60186884D01*
X135627248Y-60186881D01*
X135627252Y-60186879D01*
X135766879Y-60047252D01*
X135766881Y-60047248D01*
X135766884Y-60047246D01*
X135882941Y-59887505D01*
X135882943Y-59887502D01*
X135882944Y-59887501D01*
X135969517Y-59717593D01*
X136017490Y-59666800D01*
X136085311Y-59650005D01*
X136151446Y-59672542D01*
G37*
%TD.AperFunction*%
%TA.AperFunction,Conductor*%
G36*
X153931446Y-59672542D02*
G01*
X153970482Y-59717593D01*
X154051125Y-59875860D01*
X154057058Y-59887505D01*
X154173115Y-60047246D01*
X154312753Y-60186884D01*
X154472494Y-60302941D01*
X154472496Y-60302942D01*
X154472499Y-60302944D01*
X154642956Y-60389797D01*
X154693749Y-60437768D01*
X154710544Y-60505589D01*
X154688007Y-60571724D01*
X154642954Y-60610763D01*
X154472767Y-60697479D01*
X154472760Y-60697483D01*
X154437010Y-60723456D01*
X154437010Y-60723457D01*
X155000591Y-61287037D01*
X154937007Y-61304075D01*
X154822993Y-61369901D01*
X154729901Y-61462993D01*
X154664075Y-61577007D01*
X154647037Y-61640590D01*
X154083457Y-61077010D01*
X154083456Y-61077010D01*
X154057483Y-61112760D01*
X154057479Y-61112767D01*
X153970763Y-61282954D01*
X153922788Y-61333749D01*
X153854967Y-61350544D01*
X153788833Y-61328006D01*
X153749798Y-61282957D01*
X153662944Y-61112499D01*
X153662942Y-61112496D01*
X153662941Y-61112494D01*
X153546884Y-60952753D01*
X153407246Y-60813115D01*
X153247505Y-60697058D01*
X153241119Y-60693804D01*
X153077593Y-60610482D01*
X153026800Y-60562510D01*
X153010005Y-60494689D01*
X153032542Y-60428554D01*
X153077593Y-60389517D01*
X153247501Y-60302944D01*
X153297141Y-60266879D01*
X153407246Y-60186884D01*
X153407248Y-60186881D01*
X153407252Y-60186879D01*
X153546879Y-60047252D01*
X153546881Y-60047248D01*
X153546884Y-60047246D01*
X153662941Y-59887505D01*
X153662943Y-59887502D01*
X153662944Y-59887501D01*
X153749517Y-59717593D01*
X153797490Y-59666800D01*
X153865311Y-59650005D01*
X153931446Y-59672542D01*
G37*
%TD.AperFunction*%
%TA.AperFunction,Conductor*%
G36*
X118371446Y-59672542D02*
G01*
X118410482Y-59717593D01*
X118491125Y-59875860D01*
X118497058Y-59887505D01*
X118613115Y-60047246D01*
X118752753Y-60186884D01*
X118876158Y-60276541D01*
X118912499Y-60302944D01*
X119082404Y-60389516D01*
X119133199Y-60437490D01*
X119149994Y-60505311D01*
X119127456Y-60571446D01*
X119082404Y-60610483D01*
X118999630Y-60652660D01*
X118912495Y-60697058D01*
X118752753Y-60813115D01*
X118613115Y-60952753D01*
X118497058Y-61112495D01*
X118497056Y-61112499D01*
X118410203Y-61282954D01*
X118362230Y-61333749D01*
X118294409Y-61350544D01*
X118228274Y-61328006D01*
X118189235Y-61282953D01*
X118102520Y-61112768D01*
X118102512Y-61112755D01*
X118076542Y-61077010D01*
X118076541Y-61077009D01*
X117512962Y-61640589D01*
X117495925Y-61577007D01*
X117430099Y-61462993D01*
X117337007Y-61369901D01*
X117222993Y-61304075D01*
X117159409Y-61287037D01*
X117722989Y-60723457D01*
X117687236Y-60697481D01*
X117517045Y-60610763D01*
X117466250Y-60562789D01*
X117449455Y-60494968D01*
X117471993Y-60428833D01*
X117517042Y-60389798D01*
X117687501Y-60302944D01*
X117737141Y-60266879D01*
X117847246Y-60186884D01*
X117847248Y-60186881D01*
X117847252Y-60186879D01*
X117986879Y-60047252D01*
X117986881Y-60047248D01*
X117986884Y-60047246D01*
X118102941Y-59887505D01*
X118102943Y-59887502D01*
X118102944Y-59887501D01*
X118189517Y-59717593D01*
X118237490Y-59666800D01*
X118305311Y-59650005D01*
X118371446Y-59672542D01*
G37*
%TD.AperFunction*%
%TA.AperFunction,Conductor*%
G36*
X138691446Y-59672542D02*
G01*
X138730482Y-59717593D01*
X138811125Y-59875860D01*
X138817058Y-59887505D01*
X138933115Y-60047246D01*
X139072753Y-60186884D01*
X139196158Y-60276541D01*
X139232499Y-60302944D01*
X139402404Y-60389516D01*
X139453199Y-60437490D01*
X139469994Y-60505311D01*
X139447456Y-60571446D01*
X139402404Y-60610483D01*
X139319630Y-60652660D01*
X139232495Y-60697058D01*
X139072753Y-60813115D01*
X138933115Y-60952753D01*
X138817058Y-61112495D01*
X138817056Y-61112499D01*
X138730203Y-61282954D01*
X138682230Y-61333749D01*
X138614409Y-61350544D01*
X138548274Y-61328006D01*
X138509235Y-61282953D01*
X138422520Y-61112768D01*
X138422512Y-61112755D01*
X138396542Y-61077010D01*
X138396541Y-61077009D01*
X137832962Y-61640589D01*
X137815925Y-61577007D01*
X137750099Y-61462993D01*
X137657007Y-61369901D01*
X137542993Y-61304075D01*
X137479409Y-61287037D01*
X138042989Y-60723457D01*
X138007236Y-60697481D01*
X137837045Y-60610763D01*
X137786250Y-60562789D01*
X137769455Y-60494968D01*
X137791993Y-60428833D01*
X137837042Y-60389798D01*
X138007501Y-60302944D01*
X138057141Y-60266879D01*
X138167246Y-60186884D01*
X138167248Y-60186881D01*
X138167252Y-60186879D01*
X138306879Y-60047252D01*
X138306881Y-60047248D01*
X138306884Y-60047246D01*
X138422941Y-59887505D01*
X138422943Y-59887502D01*
X138422944Y-59887501D01*
X138509517Y-59717593D01*
X138557490Y-59666800D01*
X138625311Y-59650005D01*
X138691446Y-59672542D01*
G37*
%TD.AperFunction*%
%TA.AperFunction,Conductor*%
G36*
X112996541Y-59922988D02*
G01*
X112996543Y-59922988D01*
X113022516Y-59887241D01*
X113109235Y-59717046D01*
X113157210Y-59666250D01*
X113225031Y-59649455D01*
X113291165Y-59671992D01*
X113330202Y-59717042D01*
X113411125Y-59875860D01*
X113417058Y-59887505D01*
X113533115Y-60047246D01*
X113672753Y-60186884D01*
X113796158Y-60276541D01*
X113832499Y-60302944D01*
X114002404Y-60389516D01*
X114053199Y-60437490D01*
X114069994Y-60505311D01*
X114047456Y-60571446D01*
X114002404Y-60610483D01*
X113919630Y-60652660D01*
X113832495Y-60697058D01*
X113672753Y-60813115D01*
X113533115Y-60952753D01*
X113417058Y-61112495D01*
X113417056Y-61112499D01*
X113334728Y-61274076D01*
X113330485Y-61282403D01*
X113282510Y-61333199D01*
X113214689Y-61349994D01*
X113148554Y-61327456D01*
X113109515Y-61282403D01*
X113105273Y-61274077D01*
X113022944Y-61112499D01*
X112978634Y-61051511D01*
X112906884Y-60952753D01*
X112767246Y-60813115D01*
X112607505Y-60697058D01*
X112602334Y-60694423D01*
X112437043Y-60610202D01*
X112386250Y-60562230D01*
X112369455Y-60494409D01*
X112391992Y-60428275D01*
X112437046Y-60389235D01*
X112607241Y-60302516D01*
X112642988Y-60276543D01*
X112642988Y-60276541D01*
X112079408Y-59712962D01*
X112142993Y-59695925D01*
X112257007Y-59630099D01*
X112350099Y-59537007D01*
X112415925Y-59422993D01*
X112432962Y-59359409D01*
X112996541Y-59922988D01*
G37*
%TD.AperFunction*%
%TA.AperFunction,Conductor*%
G36*
X121644075Y-59422993D02*
G01*
X121709901Y-59537007D01*
X121802993Y-59630099D01*
X121917007Y-59695925D01*
X121980590Y-59712962D01*
X121417009Y-60276541D01*
X121417010Y-60276542D01*
X121452755Y-60302512D01*
X121452768Y-60302520D01*
X121622953Y-60389235D01*
X121673749Y-60437210D01*
X121690544Y-60505031D01*
X121668006Y-60571166D01*
X121622954Y-60610203D01*
X121533403Y-60655833D01*
X121452495Y-60697058D01*
X121292753Y-60813115D01*
X121153115Y-60952753D01*
X121037058Y-61112495D01*
X121037056Y-61112499D01*
X120954728Y-61274076D01*
X120950485Y-61282403D01*
X120902510Y-61333199D01*
X120834689Y-61349994D01*
X120768554Y-61327456D01*
X120729515Y-61282403D01*
X120725273Y-61274077D01*
X120642944Y-61112499D01*
X120598634Y-61051511D01*
X120526884Y-60952753D01*
X120387246Y-60813115D01*
X120227505Y-60697058D01*
X120221119Y-60693804D01*
X120057593Y-60610482D01*
X120006800Y-60562510D01*
X119990005Y-60494689D01*
X120012542Y-60428554D01*
X120057593Y-60389517D01*
X120227501Y-60302944D01*
X120277141Y-60266879D01*
X120387246Y-60186884D01*
X120387248Y-60186881D01*
X120387252Y-60186879D01*
X120526879Y-60047252D01*
X120526881Y-60047248D01*
X120526884Y-60047246D01*
X120642943Y-59887502D01*
X120643079Y-59887236D01*
X120729797Y-59717043D01*
X120777768Y-59666250D01*
X120845589Y-59649455D01*
X120911724Y-59671992D01*
X120950763Y-59717045D01*
X121037481Y-59887236D01*
X121063457Y-59922988D01*
X121063457Y-59922989D01*
X121627037Y-59359409D01*
X121644075Y-59422993D01*
G37*
%TD.AperFunction*%
%TA.AperFunction,Conductor*%
G36*
X123156541Y-59922988D02*
G01*
X123156543Y-59922988D01*
X123182516Y-59887241D01*
X123269235Y-59717046D01*
X123317210Y-59666250D01*
X123385031Y-59649455D01*
X123451165Y-59671992D01*
X123490202Y-59717042D01*
X123571125Y-59875860D01*
X123577058Y-59887505D01*
X123693115Y-60047246D01*
X123832753Y-60186884D01*
X123956158Y-60276541D01*
X123992499Y-60302944D01*
X124162404Y-60389516D01*
X124213199Y-60437490D01*
X124229994Y-60505311D01*
X124207456Y-60571446D01*
X124162404Y-60610483D01*
X124079630Y-60652660D01*
X123992495Y-60697058D01*
X123832753Y-60813115D01*
X123693115Y-60952753D01*
X123577058Y-61112495D01*
X123577056Y-61112499D01*
X123494728Y-61274076D01*
X123490485Y-61282403D01*
X123442510Y-61333199D01*
X123374689Y-61349994D01*
X123308554Y-61327456D01*
X123269515Y-61282403D01*
X123265273Y-61274077D01*
X123182944Y-61112499D01*
X123138634Y-61051511D01*
X123066884Y-60952753D01*
X122927246Y-60813115D01*
X122767505Y-60697058D01*
X122762334Y-60694423D01*
X122597043Y-60610202D01*
X122546250Y-60562230D01*
X122529455Y-60494409D01*
X122551992Y-60428275D01*
X122597046Y-60389235D01*
X122767241Y-60302516D01*
X122802988Y-60276543D01*
X122802988Y-60276541D01*
X122239410Y-59712962D01*
X122302993Y-59695925D01*
X122417007Y-59630099D01*
X122510099Y-59537007D01*
X122575925Y-59422993D01*
X122592962Y-59359409D01*
X123156541Y-59922988D01*
G37*
%TD.AperFunction*%
%TA.AperFunction,Conductor*%
G36*
X129264075Y-59422993D02*
G01*
X129329901Y-59537007D01*
X129422993Y-59630099D01*
X129537007Y-59695925D01*
X129600590Y-59712962D01*
X129037009Y-60276541D01*
X129037010Y-60276542D01*
X129072755Y-60302512D01*
X129072768Y-60302520D01*
X129242953Y-60389235D01*
X129293749Y-60437210D01*
X129310544Y-60505031D01*
X129288006Y-60571166D01*
X129242954Y-60610203D01*
X129153403Y-60655833D01*
X129072495Y-60697058D01*
X128912753Y-60813115D01*
X128773115Y-60952753D01*
X128657058Y-61112495D01*
X128657056Y-61112499D01*
X128574728Y-61274076D01*
X128570485Y-61282403D01*
X128522510Y-61333199D01*
X128454689Y-61349994D01*
X128388554Y-61327456D01*
X128349515Y-61282403D01*
X128345273Y-61274077D01*
X128262944Y-61112499D01*
X128218634Y-61051511D01*
X128146884Y-60952753D01*
X128007246Y-60813115D01*
X127847505Y-60697058D01*
X127841119Y-60693804D01*
X127677593Y-60610482D01*
X127626800Y-60562510D01*
X127610005Y-60494689D01*
X127632542Y-60428554D01*
X127677593Y-60389517D01*
X127847501Y-60302944D01*
X127897141Y-60266879D01*
X128007246Y-60186884D01*
X128007248Y-60186881D01*
X128007252Y-60186879D01*
X128146879Y-60047252D01*
X128146881Y-60047248D01*
X128146884Y-60047246D01*
X128262943Y-59887502D01*
X128263079Y-59887236D01*
X128349797Y-59717043D01*
X128397768Y-59666250D01*
X128465589Y-59649455D01*
X128531724Y-59671992D01*
X128570763Y-59717045D01*
X128657481Y-59887236D01*
X128683457Y-59922988D01*
X128683457Y-59922989D01*
X129247037Y-59359409D01*
X129264075Y-59422993D01*
G37*
%TD.AperFunction*%
%TA.AperFunction,Conductor*%
G36*
X130776541Y-59922988D02*
G01*
X130776543Y-59922988D01*
X130802516Y-59887241D01*
X130889235Y-59717046D01*
X130937210Y-59666250D01*
X131005031Y-59649455D01*
X131071165Y-59671992D01*
X131110202Y-59717042D01*
X131191125Y-59875860D01*
X131197058Y-59887505D01*
X131313115Y-60047246D01*
X131452753Y-60186884D01*
X131576158Y-60276541D01*
X131612499Y-60302944D01*
X131782404Y-60389516D01*
X131833199Y-60437490D01*
X131849994Y-60505311D01*
X131827456Y-60571446D01*
X131782404Y-60610483D01*
X131699630Y-60652660D01*
X131612495Y-60697058D01*
X131452753Y-60813115D01*
X131313115Y-60952753D01*
X131197058Y-61112495D01*
X131197056Y-61112499D01*
X131114728Y-61274076D01*
X131110485Y-61282403D01*
X131062510Y-61333199D01*
X130994689Y-61349994D01*
X130928554Y-61327456D01*
X130889515Y-61282403D01*
X130885273Y-61274077D01*
X130802944Y-61112499D01*
X130758634Y-61051511D01*
X130686884Y-60952753D01*
X130547246Y-60813115D01*
X130387505Y-60697058D01*
X130382334Y-60694423D01*
X130217043Y-60610202D01*
X130166250Y-60562230D01*
X130149455Y-60494409D01*
X130171992Y-60428275D01*
X130217046Y-60389235D01*
X130387241Y-60302516D01*
X130422988Y-60276543D01*
X130422988Y-60276541D01*
X129859410Y-59712962D01*
X129922993Y-59695925D01*
X130037007Y-59630099D01*
X130130099Y-59537007D01*
X130195925Y-59422993D01*
X130212962Y-59359409D01*
X130776541Y-59922988D01*
G37*
%TD.AperFunction*%
%TA.AperFunction,Conductor*%
G36*
X141964075Y-59422993D02*
G01*
X142029901Y-59537007D01*
X142122993Y-59630099D01*
X142237007Y-59695925D01*
X142300590Y-59712962D01*
X141737009Y-60276541D01*
X141737010Y-60276542D01*
X141772755Y-60302512D01*
X141772768Y-60302520D01*
X141942953Y-60389235D01*
X141993749Y-60437210D01*
X142010544Y-60505031D01*
X141988006Y-60571166D01*
X141942954Y-60610203D01*
X141853403Y-60655833D01*
X141772495Y-60697058D01*
X141612753Y-60813115D01*
X141473115Y-60952753D01*
X141357058Y-61112495D01*
X141357056Y-61112499D01*
X141274728Y-61274076D01*
X141270485Y-61282403D01*
X141222510Y-61333199D01*
X141154689Y-61349994D01*
X141088554Y-61327456D01*
X141049515Y-61282403D01*
X141045273Y-61274077D01*
X140962944Y-61112499D01*
X140918634Y-61051511D01*
X140846884Y-60952753D01*
X140707246Y-60813115D01*
X140547505Y-60697058D01*
X140541119Y-60693804D01*
X140377593Y-60610482D01*
X140326800Y-60562510D01*
X140310005Y-60494689D01*
X140332542Y-60428554D01*
X140377593Y-60389517D01*
X140547501Y-60302944D01*
X140597141Y-60266879D01*
X140707246Y-60186884D01*
X140707248Y-60186881D01*
X140707252Y-60186879D01*
X140846879Y-60047252D01*
X140846881Y-60047248D01*
X140846884Y-60047246D01*
X140962943Y-59887502D01*
X140963079Y-59887236D01*
X141049797Y-59717043D01*
X141097768Y-59666250D01*
X141165589Y-59649455D01*
X141231724Y-59671992D01*
X141270763Y-59717045D01*
X141357481Y-59887236D01*
X141383457Y-59922988D01*
X141383457Y-59922989D01*
X141947037Y-59359409D01*
X141964075Y-59422993D01*
G37*
%TD.AperFunction*%
%TA.AperFunction,Conductor*%
G36*
X143476541Y-59922988D02*
G01*
X143476543Y-59922988D01*
X143502516Y-59887241D01*
X143589235Y-59717046D01*
X143637210Y-59666250D01*
X143705031Y-59649455D01*
X143771165Y-59671992D01*
X143810202Y-59717042D01*
X143891125Y-59875860D01*
X143897058Y-59887505D01*
X144013115Y-60047246D01*
X144152753Y-60186884D01*
X144276158Y-60276541D01*
X144312499Y-60302944D01*
X144482404Y-60389516D01*
X144533199Y-60437490D01*
X144549994Y-60505311D01*
X144527456Y-60571446D01*
X144482404Y-60610483D01*
X144399630Y-60652660D01*
X144312495Y-60697058D01*
X144152753Y-60813115D01*
X144013115Y-60952753D01*
X143897058Y-61112495D01*
X143897056Y-61112499D01*
X143814728Y-61274076D01*
X143810485Y-61282403D01*
X143762510Y-61333199D01*
X143694689Y-61349994D01*
X143628554Y-61327456D01*
X143589515Y-61282403D01*
X143585273Y-61274077D01*
X143502944Y-61112499D01*
X143458634Y-61051511D01*
X143386884Y-60952753D01*
X143247246Y-60813115D01*
X143087505Y-60697058D01*
X143082334Y-60694423D01*
X142917043Y-60610202D01*
X142866250Y-60562230D01*
X142849455Y-60494409D01*
X142871992Y-60428275D01*
X142917046Y-60389235D01*
X143087241Y-60302516D01*
X143122988Y-60276543D01*
X143122988Y-60276541D01*
X142559410Y-59712962D01*
X142622993Y-59695925D01*
X142737007Y-59630099D01*
X142830099Y-59537007D01*
X142895925Y-59422993D01*
X142912962Y-59359409D01*
X143476541Y-59922988D01*
G37*
%TD.AperFunction*%
%TA.AperFunction,Conductor*%
G36*
X147044075Y-59422993D02*
G01*
X147109901Y-59537007D01*
X147202993Y-59630099D01*
X147317007Y-59695925D01*
X147380590Y-59712962D01*
X146817009Y-60276541D01*
X146817010Y-60276542D01*
X146852755Y-60302512D01*
X146852768Y-60302520D01*
X147022953Y-60389235D01*
X147073749Y-60437210D01*
X147090544Y-60505031D01*
X147068006Y-60571166D01*
X147022954Y-60610203D01*
X146933403Y-60655833D01*
X146852495Y-60697058D01*
X146692753Y-60813115D01*
X146553115Y-60952753D01*
X146437058Y-61112495D01*
X146437056Y-61112499D01*
X146354728Y-61274076D01*
X146350485Y-61282403D01*
X146302510Y-61333199D01*
X146234689Y-61349994D01*
X146168554Y-61327456D01*
X146129515Y-61282403D01*
X146125273Y-61274077D01*
X146042944Y-61112499D01*
X145998634Y-61051511D01*
X145926884Y-60952753D01*
X145787246Y-60813115D01*
X145627505Y-60697058D01*
X145621119Y-60693804D01*
X145457593Y-60610482D01*
X145406800Y-60562510D01*
X145390005Y-60494689D01*
X145412542Y-60428554D01*
X145457593Y-60389517D01*
X145627501Y-60302944D01*
X145677141Y-60266879D01*
X145787246Y-60186884D01*
X145787248Y-60186881D01*
X145787252Y-60186879D01*
X145926879Y-60047252D01*
X145926881Y-60047248D01*
X145926884Y-60047246D01*
X146042943Y-59887502D01*
X146043079Y-59887236D01*
X146129797Y-59717043D01*
X146177768Y-59666250D01*
X146245589Y-59649455D01*
X146311724Y-59671992D01*
X146350763Y-59717045D01*
X146437481Y-59887236D01*
X146463457Y-59922988D01*
X146463457Y-59922989D01*
X147027037Y-59359408D01*
X147044075Y-59422993D01*
G37*
%TD.AperFunction*%
%TA.AperFunction,Conductor*%
G36*
X148556541Y-59922988D02*
G01*
X148556543Y-59922988D01*
X148582516Y-59887241D01*
X148669235Y-59717046D01*
X148717210Y-59666250D01*
X148785031Y-59649455D01*
X148851165Y-59671992D01*
X148890202Y-59717042D01*
X148971125Y-59875860D01*
X148977058Y-59887505D01*
X149093115Y-60047246D01*
X149232753Y-60186884D01*
X149356158Y-60276541D01*
X149392499Y-60302944D01*
X149562404Y-60389516D01*
X149613199Y-60437490D01*
X149629994Y-60505311D01*
X149607456Y-60571446D01*
X149562404Y-60610483D01*
X149479630Y-60652660D01*
X149392495Y-60697058D01*
X149232753Y-60813115D01*
X149093115Y-60952753D01*
X148977058Y-61112495D01*
X148977056Y-61112499D01*
X148894728Y-61274076D01*
X148890485Y-61282403D01*
X148842510Y-61333199D01*
X148774689Y-61349994D01*
X148708554Y-61327456D01*
X148669515Y-61282403D01*
X148665273Y-61274077D01*
X148582944Y-61112499D01*
X148538634Y-61051511D01*
X148466884Y-60952753D01*
X148327246Y-60813115D01*
X148167505Y-60697058D01*
X148162334Y-60694423D01*
X147997043Y-60610202D01*
X147946250Y-60562230D01*
X147929455Y-60494409D01*
X147951992Y-60428275D01*
X147997046Y-60389235D01*
X148167241Y-60302516D01*
X148202988Y-60276543D01*
X148202988Y-60276541D01*
X147639410Y-59712962D01*
X147702993Y-59695925D01*
X147817007Y-59630099D01*
X147910099Y-59537007D01*
X147975925Y-59422993D01*
X147992962Y-59359409D01*
X148556541Y-59922988D01*
G37*
%TD.AperFunction*%
%TA.AperFunction,Conductor*%
G36*
X175487200Y-53053648D02*
G01*
X175487203Y-53053648D01*
X175558180Y-52961151D01*
X175680748Y-52748856D01*
X175680755Y-52748842D01*
X175760939Y-52555261D01*
X175804780Y-52500857D01*
X175871074Y-52478792D01*
X175938773Y-52496071D01*
X175986384Y-52547208D01*
X175999500Y-52602713D01*
X175999500Y-56317286D01*
X175979815Y-56384325D01*
X175927011Y-56430080D01*
X175857853Y-56440024D01*
X175794297Y-56410999D01*
X175760939Y-56364739D01*
X175680752Y-56171152D01*
X175680748Y-56171143D01*
X175558183Y-55958854D01*
X175487201Y-55866350D01*
X175487200Y-55866350D01*
X174754114Y-56599436D01*
X174753260Y-56597374D01*
X174660238Y-56458156D01*
X174541844Y-56339762D01*
X174402626Y-56246740D01*
X174400560Y-56245884D01*
X175133648Y-55512797D01*
X175041140Y-55441812D01*
X174828857Y-55319251D01*
X174828847Y-55319247D01*
X174602385Y-55225443D01*
X174365598Y-55161996D01*
X174122573Y-55130000D01*
X173877426Y-55130000D01*
X173634401Y-55161996D01*
X173397614Y-55225443D01*
X173171152Y-55319247D01*
X173171147Y-55319249D01*
X173065820Y-55380059D01*
X172997920Y-55396530D01*
X172931893Y-55373678D01*
X172888703Y-55318756D01*
X172882062Y-55249203D01*
X172893334Y-55216380D01*
X172961776Y-55082056D01*
X173040598Y-54839468D01*
X173080500Y-54587541D01*
X173080500Y-54332458D01*
X173040598Y-54080531D01*
X172961774Y-53837939D01*
X172893336Y-53703623D01*
X172880440Y-53634954D01*
X172906716Y-53570213D01*
X172963823Y-53529956D01*
X173033628Y-53526964D01*
X173065821Y-53539941D01*
X173171142Y-53600748D01*
X173171152Y-53600752D01*
X173397614Y-53694556D01*
X173634401Y-53758003D01*
X173877426Y-53789999D01*
X173877441Y-53790000D01*
X174122559Y-53790000D01*
X174122573Y-53789999D01*
X174365598Y-53758003D01*
X174602385Y-53694556D01*
X174828847Y-53600752D01*
X174828856Y-53600748D01*
X175041151Y-53478180D01*
X175133648Y-53407203D01*
X175133648Y-53407200D01*
X174400561Y-52674114D01*
X174402626Y-52673260D01*
X174541844Y-52580238D01*
X174660238Y-52461844D01*
X174753260Y-52322626D01*
X174754114Y-52320562D01*
X175487200Y-53053648D01*
G37*
%TD.AperFunction*%
%TD*%
M02*
