%TF.GenerationSoftware,KiCad,Pcbnew,9.0.4*%
%TF.CreationDate,2025-10-26T00:43:11+05:45*%
%TF.ProjectId,onboardcomputer,6f6e626f-6172-4646-936f-6d7075746572,rev?*%
%TF.SameCoordinates,Original*%
%TF.FileFunction,Soldermask,Bot*%
%TF.FilePolarity,Negative*%
%FSLAX46Y46*%
G04 Gerber Fmt 4.6, Leading zero omitted, Abs format (unit mm)*
G04 Created by KiCad (PCBNEW 9.0.4) date 2025-10-26 00:43:11*
%MOMM*%
%LPD*%
G01*
G04 APERTURE LIST*
G04 Aperture macros list*
%AMRoundRect*
0 Rectangle with rounded corners*
0 $1 Rounding radius*
0 $2 $3 $4 $5 $6 $7 $8 $9 X,Y pos of 4 corners*
0 Add a 4 corners polygon primitive as box body*
4,1,4,$2,$3,$4,$5,$6,$7,$8,$9,$2,$3,0*
0 Add four circle primitives for the rounded corners*
1,1,$1+$1,$2,$3*
1,1,$1+$1,$4,$5*
1,1,$1+$1,$6,$7*
1,1,$1+$1,$8,$9*
0 Add four rect primitives between the rounded corners*
20,1,$1+$1,$2,$3,$4,$5,0*
20,1,$1+$1,$4,$5,$6,$7,0*
20,1,$1+$1,$6,$7,$8,$9,0*
20,1,$1+$1,$8,$9,$2,$3,0*%
G04 Aperture macros list end*
%ADD10C,2.750000*%
%ADD11RoundRect,0.102000X-0.754000X-0.754000X0.754000X-0.754000X0.754000X0.754000X-0.754000X0.754000X0*%
%ADD12C,1.712000*%
%ADD13C,2.240000*%
%ADD14C,2.740000*%
%ADD15O,1.600000X1.600000*%
%ADD16C,0.800000*%
%ADD17C,6.400000*%
%ADD18RoundRect,0.250000X-0.725000X0.600000X-0.725000X-0.600000X0.725000X-0.600000X0.725000X0.600000X0*%
%ADD19O,1.950000X1.700000*%
%ADD20C,1.600000*%
%ADD21R,1.800000X1.800000*%
%ADD22C,1.800000*%
%ADD23RoundRect,0.250000X-0.600000X-0.750000X0.600000X-0.750000X0.600000X0.750000X-0.600000X0.750000X0*%
%ADD24O,1.700000X2.000000*%
%ADD25RoundRect,0.249999X-0.850001X0.850001X-0.850001X-0.850001X0.850001X-0.850001X0.850001X0.850001X0*%
%ADD26C,2.200000*%
G04 APERTURE END LIST*
D10*
%TO.C,J3*%
X102000000Y-60500000D03*
X102000000Y-83500000D03*
X160000000Y-60500000D03*
X160000000Y-83500000D03*
D11*
X106870000Y-61770000D03*
D12*
X106870000Y-59230000D03*
X109410000Y-61770000D03*
X109410000Y-59230000D03*
X111950000Y-61770000D03*
X111950000Y-59230000D03*
X114490000Y-61770000D03*
X114490000Y-59230000D03*
X117030000Y-61770000D03*
X117030000Y-59230000D03*
X119570000Y-61770000D03*
X119570000Y-59230000D03*
X122110000Y-61770000D03*
X122110000Y-59230000D03*
X124650000Y-61770000D03*
X124650000Y-59230000D03*
X127190000Y-61770000D03*
X127190000Y-59230000D03*
X129730000Y-61770000D03*
X129730000Y-59230000D03*
X132270000Y-61770000D03*
X132270000Y-59230000D03*
X134810000Y-61770000D03*
X134810000Y-59230000D03*
X137350000Y-61770000D03*
X137350000Y-59230000D03*
X139890000Y-61770000D03*
X139890000Y-59230000D03*
X142430000Y-61770000D03*
X142430000Y-59230000D03*
X144970000Y-61770000D03*
X144970000Y-59230000D03*
X147510000Y-61770000D03*
X147510000Y-59230000D03*
X150050000Y-61770000D03*
X150050000Y-59230000D03*
X152590000Y-61770000D03*
X152590000Y-59230000D03*
X155130000Y-61770000D03*
X155130000Y-59230000D03*
%TD*%
D13*
%TO.C,J_ANT1*%
X171460000Y-54460000D03*
D14*
X168920000Y-51920000D03*
X168920000Y-57000000D03*
X174000000Y-51920000D03*
X174000000Y-57000000D03*
%TD*%
D15*
%TO.C,b1*%
X116834000Y-40450800D03*
X116859400Y-42990800D03*
X116859400Y-45530800D03*
X116859400Y-48070800D03*
X116859400Y-50610800D03*
X116859400Y-53150800D03*
%TD*%
D16*
%TO.C,REF\u002A\u002A*%
X169600000Y-113000000D03*
X170302944Y-111302944D03*
X170302944Y-114697056D03*
X172000000Y-110600000D03*
D17*
X172000000Y-113000000D03*
D16*
X172000000Y-115400000D03*
X173697056Y-111302944D03*
X173697056Y-114697056D03*
X174400000Y-113000000D03*
%TD*%
D18*
%TO.C,J_I2C_OUT1*%
X164000000Y-42500000D03*
D19*
X164000000Y-45000000D03*
X164000000Y-47500000D03*
X164000000Y-50000000D03*
%TD*%
D20*
%TO.C,R1*%
X159000000Y-105620000D03*
X159000000Y-90380000D03*
%TD*%
D21*
%TO.C,D5*%
X174000000Y-93000000D03*
D22*
X174000000Y-95540000D03*
%TD*%
D20*
%TO.C,R4*%
X174000000Y-80620000D03*
X174000000Y-65380000D03*
%TD*%
D15*
%TO.C,m1*%
X134458000Y-53636000D03*
X136998000Y-53636000D03*
X139538000Y-53636000D03*
X142078000Y-53636000D03*
X144618000Y-53636000D03*
X147158000Y-53636000D03*
X149698000Y-53636000D03*
X152238000Y-53636000D03*
X154778000Y-53636000D03*
X157318000Y-53636000D03*
%TD*%
D16*
%TO.C,REF\u002A\u002A*%
X99600000Y-43000000D03*
X100302944Y-41302944D03*
X100302944Y-44697056D03*
X102000000Y-40600000D03*
D17*
X102000000Y-43000000D03*
D16*
X102000000Y-45400000D03*
X103697056Y-41302944D03*
X103697056Y-44697056D03*
X104400000Y-43000000D03*
%TD*%
D23*
%TO.C,J4*%
X110500000Y-113000000D03*
D24*
X113000000Y-113000000D03*
%TD*%
D15*
%TO.C,F1*%
X139290000Y-94010000D03*
X116680000Y-94000000D03*
%TD*%
D20*
%TO.C,R2*%
X164000000Y-105620000D03*
X164000000Y-90380000D03*
%TD*%
D16*
%TO.C,REF\u002A\u002A*%
X169600000Y-43000000D03*
X170302944Y-41302944D03*
X170302944Y-44697056D03*
X172000000Y-40600000D03*
D17*
X172000000Y-43000000D03*
D16*
X172000000Y-45400000D03*
X173697056Y-41302944D03*
X173697056Y-44697056D03*
X174400000Y-43000000D03*
%TD*%
D21*
%TO.C,D4*%
X174000000Y-101460000D03*
D22*
X174000000Y-104000000D03*
%TD*%
D15*
%TO.C,J1*%
X100000000Y-99033000D03*
X110871200Y-104392400D03*
X112725400Y-99000000D03*
%TD*%
D16*
%TO.C,REF\u002A\u002A*%
X99600000Y-113000000D03*
X100302944Y-111302944D03*
X100302944Y-114697056D03*
X102000000Y-110600000D03*
D17*
X102000000Y-113000000D03*
D16*
X102000000Y-115400000D03*
X103697056Y-111302944D03*
X103697056Y-114697056D03*
X104400000Y-113000000D03*
%TD*%
D20*
%TO.C,R5*%
X122000000Y-40380000D03*
X122000000Y-55620000D03*
%TD*%
D21*
%TO.C,D3*%
X160000000Y-112000000D03*
D22*
X162540000Y-112000000D03*
%TD*%
D20*
%TO.C,R6*%
X129000000Y-40380000D03*
X129000000Y-55620000D03*
%TD*%
%TO.C,C3*%
X173000000Y-62000000D03*
X170500000Y-62000000D03*
%TD*%
D25*
%TO.C,D1*%
X144000000Y-90190000D03*
D26*
X144000000Y-97810000D03*
%TD*%
D20*
%TO.C,C2*%
X167000000Y-64000000D03*
X167000000Y-61500000D03*
%TD*%
%TO.C,R3*%
X169000000Y-105620000D03*
X169000000Y-90380000D03*
%TD*%
D25*
%TO.C,D2*%
X151000000Y-90000000D03*
D26*
X151000000Y-97620000D03*
%TD*%
D20*
%TO.C,C1*%
X167000000Y-75500000D03*
X167000000Y-78000000D03*
%TD*%
D15*
%TO.C,J2*%
X154360000Y-105008600D03*
X154360000Y-112019000D03*
X121400000Y-105000000D03*
X121416200Y-112000000D03*
%TD*%
M02*
