M48
METRIC
T1C0.300
T2C0.500
T3C0.800
T4C0.950
T5C1.000
T6C1.100
T7C2.500
T8C3.200
T9C1.200
%
G90
G05
T1
X148.5Y-110.5
X155.0Y-78.5
T2
X113.885Y-55.7
X113.885Y-125.7
X114.588Y-54.003
X114.588Y-57.397
X114.588Y-124.003
X114.588Y-127.397
X116.285Y-53.3
X116.285Y-58.1
X116.285Y-123.3
X116.285Y-128.1
X117.982Y-54.003
X117.982Y-57.397
X117.982Y-124.003
X117.982Y-127.397
X118.685Y-55.7
X118.685Y-125.7
X183.885Y-125.7
X184.385Y-55.7
X184.588Y-124.003
X184.588Y-127.397
X185.088Y-54.003
X185.088Y-57.397
X186.285Y-123.3
X186.285Y-128.1
X186.785Y-53.3
X186.785Y-58.1
X187.982Y-124.003
X187.982Y-127.397
X188.482Y-54.003
X188.482Y-57.397
X188.685Y-125.7
X189.185Y-55.7
T3
X120.0Y-67.0
X120.818Y-75.5
X123.318Y-75.5
X125.0Y-67.0
X129.0Y-120.5
X131.5Y-120.5
X152.0Y-54.5
X152.0Y-57.0
X168.5Y-103.0
X170.0Y-111.5
X172.5Y-111.5
X173.5Y-103.0
T4
X130.525Y-106.0
X130.525Y-108.5
X130.525Y-111.0
X130.525Y-113.5
X159.5Y-58.0
X162.0Y-58.0
X164.5Y-58.0
X167.0Y-58.0
X169.5Y-58.0
X172.0Y-58.0
X174.5Y-58.0
X177.0Y-58.0
X185.0Y-92.0
X185.0Y-94.5
X185.0Y-97.0
X185.0Y-99.5
T5
X133.49Y-82.89
X133.49Y-98.13
X134.435Y-77.7
X136.03Y-82.89
X136.03Y-98.13
X136.975Y-77.7
X138.57Y-82.89
X138.57Y-98.13
X138.985Y-63.73
X139.285Y-55.7
X139.515Y-77.7
X141.11Y-82.89
X141.11Y-98.13
X141.785Y-55.7
X142.055Y-77.7
X142.485Y-63.73
X142.65Y-104.38
X143.65Y-82.89
X143.65Y-98.13
X144.595Y-77.7
X145.19Y-104.38
X146.19Y-82.89
X146.19Y-98.13
X147.135Y-77.7
X147.3Y-118.35
X147.73Y-104.38
X148.73Y-82.89
X148.73Y-98.13
X150.0Y-126.0
X150.27Y-104.38
X150.8Y-118.35
X151.27Y-82.89
X151.27Y-98.13
X152.5Y-126.0
X152.81Y-104.38
X153.81Y-82.89
X153.81Y-98.13
X155.35Y-104.38
X156.35Y-82.89
X156.35Y-98.13
X158.89Y-82.89
X158.89Y-98.13
X161.43Y-82.89
X161.43Y-98.13
X163.97Y-82.89
X163.97Y-98.13
X166.51Y-82.89
X166.51Y-98.13
X169.05Y-82.89
X169.05Y-98.13
X179.0Y-109.5
X179.0Y-112.0
T6
X165.5Y-106.92
X165.5Y-117.08
T7
X130.625Y-62.46
X130.625Y-77.7
X138.84Y-104.38
X138.84Y-119.62
X150.945Y-62.46
X150.945Y-77.7
X159.16Y-104.38
X159.16Y-119.62
T8
X116.285Y-55.7
X116.285Y-125.7
X186.285Y-125.7
X186.785Y-55.7
T9
X128.525Y-104.4
X177.0Y-107.9
X187.0Y-101.1
M30
