%TF.GenerationSoftware,KiCad,Pcbnew,9.0.4*%
%TF.CreationDate,2025-10-27T02:22:18+05:45*%
%TF.ProjectId,CubeSat_STEM_Board,43756265-5361-4745-9f53-54454d5f426f,rev?*%
%TF.SameCoordinates,Original*%
%TF.FileFunction,Legend,Top*%
%TF.FilePolarity,Positive*%
%FSLAX46Y46*%
G04 Gerber Fmt 4.6, Leading zero omitted, Abs format (unit mm)*
G04 Created by KiCad (PCBNEW 9.0.4) date 2025-10-27 02:22:18*
%MOMM*%
%LPD*%
G01*
G04 APERTURE LIST*
%ADD10C,0.250000*%
%ADD11C,0.100000*%
%ADD12C,0.300000*%
%ADD13C,0.150000*%
%ADD14C,0.127000*%
%ADD15C,0.200000*%
%ADD16C,0.120000*%
G04 APERTURE END LIST*
D10*
X156354949Y-129317000D02*
X156450187Y-129364619D01*
X156450187Y-129364619D02*
X156640663Y-129364619D01*
X156640663Y-129364619D02*
X156735901Y-129317000D01*
X156735901Y-129317000D02*
X156783520Y-129221761D01*
X156783520Y-129221761D02*
X156783520Y-129174142D01*
X156783520Y-129174142D02*
X156735901Y-129078904D01*
X156735901Y-129078904D02*
X156640663Y-129031285D01*
X156640663Y-129031285D02*
X156497806Y-129031285D01*
X156497806Y-129031285D02*
X156402568Y-128983666D01*
X156402568Y-128983666D02*
X156354949Y-128888428D01*
X156354949Y-128888428D02*
X156354949Y-128840809D01*
X156354949Y-128840809D02*
X156402568Y-128745571D01*
X156402568Y-128745571D02*
X156497806Y-128697952D01*
X156497806Y-128697952D02*
X156640663Y-128697952D01*
X156640663Y-128697952D02*
X156735901Y-128745571D01*
X157354949Y-129364619D02*
X157259711Y-129317000D01*
X157259711Y-129317000D02*
X157212092Y-129269380D01*
X157212092Y-129269380D02*
X157164473Y-129174142D01*
X157164473Y-129174142D02*
X157164473Y-128888428D01*
X157164473Y-128888428D02*
X157212092Y-128793190D01*
X157212092Y-128793190D02*
X157259711Y-128745571D01*
X157259711Y-128745571D02*
X157354949Y-128697952D01*
X157354949Y-128697952D02*
X157497806Y-128697952D01*
X157497806Y-128697952D02*
X157593044Y-128745571D01*
X157593044Y-128745571D02*
X157640663Y-128793190D01*
X157640663Y-128793190D02*
X157688282Y-128888428D01*
X157688282Y-128888428D02*
X157688282Y-129174142D01*
X157688282Y-129174142D02*
X157640663Y-129269380D01*
X157640663Y-129269380D02*
X157593044Y-129317000D01*
X157593044Y-129317000D02*
X157497806Y-129364619D01*
X157497806Y-129364619D02*
X157354949Y-129364619D01*
X158259711Y-129364619D02*
X158164473Y-129317000D01*
X158164473Y-129317000D02*
X158116854Y-129221761D01*
X158116854Y-129221761D02*
X158116854Y-128364619D01*
X159069235Y-129364619D02*
X159069235Y-128840809D01*
X159069235Y-128840809D02*
X159021616Y-128745571D01*
X159021616Y-128745571D02*
X158926378Y-128697952D01*
X158926378Y-128697952D02*
X158735902Y-128697952D01*
X158735902Y-128697952D02*
X158640664Y-128745571D01*
X159069235Y-129317000D02*
X158973997Y-129364619D01*
X158973997Y-129364619D02*
X158735902Y-129364619D01*
X158735902Y-129364619D02*
X158640664Y-129317000D01*
X158640664Y-129317000D02*
X158593045Y-129221761D01*
X158593045Y-129221761D02*
X158593045Y-129126523D01*
X158593045Y-129126523D02*
X158640664Y-129031285D01*
X158640664Y-129031285D02*
X158735902Y-128983666D01*
X158735902Y-128983666D02*
X158973997Y-128983666D01*
X158973997Y-128983666D02*
X159069235Y-128936047D01*
X159545426Y-129364619D02*
X159545426Y-128697952D01*
X159545426Y-128888428D02*
X159593045Y-128793190D01*
X159593045Y-128793190D02*
X159640664Y-128745571D01*
X159640664Y-128745571D02*
X159735902Y-128697952D01*
X159735902Y-128697952D02*
X159831140Y-128697952D01*
X160926379Y-129364619D02*
X160926379Y-128697952D01*
X160926379Y-128364619D02*
X160878760Y-128412238D01*
X160878760Y-128412238D02*
X160926379Y-128459857D01*
X160926379Y-128459857D02*
X160973998Y-128412238D01*
X160973998Y-128412238D02*
X160926379Y-128364619D01*
X160926379Y-128364619D02*
X160926379Y-128459857D01*
X161402569Y-128697952D02*
X161402569Y-129364619D01*
X161402569Y-128793190D02*
X161450188Y-128745571D01*
X161450188Y-128745571D02*
X161545426Y-128697952D01*
X161545426Y-128697952D02*
X161688283Y-128697952D01*
X161688283Y-128697952D02*
X161783521Y-128745571D01*
X161783521Y-128745571D02*
X161831140Y-128840809D01*
X161831140Y-128840809D02*
X161831140Y-129364619D01*
X162307331Y-128697952D02*
X162307331Y-129697952D01*
X162307331Y-128745571D02*
X162402569Y-128697952D01*
X162402569Y-128697952D02*
X162593045Y-128697952D01*
X162593045Y-128697952D02*
X162688283Y-128745571D01*
X162688283Y-128745571D02*
X162735902Y-128793190D01*
X162735902Y-128793190D02*
X162783521Y-128888428D01*
X162783521Y-128888428D02*
X162783521Y-129174142D01*
X162783521Y-129174142D02*
X162735902Y-129269380D01*
X162735902Y-129269380D02*
X162688283Y-129317000D01*
X162688283Y-129317000D02*
X162593045Y-129364619D01*
X162593045Y-129364619D02*
X162402569Y-129364619D01*
X162402569Y-129364619D02*
X162307331Y-129317000D01*
X163640664Y-128697952D02*
X163640664Y-129364619D01*
X163212093Y-128697952D02*
X163212093Y-129221761D01*
X163212093Y-129221761D02*
X163259712Y-129317000D01*
X163259712Y-129317000D02*
X163354950Y-129364619D01*
X163354950Y-129364619D02*
X163497807Y-129364619D01*
X163497807Y-129364619D02*
X163593045Y-129317000D01*
X163593045Y-129317000D02*
X163640664Y-129269380D01*
X163973998Y-128697952D02*
X164354950Y-128697952D01*
X164116855Y-128364619D02*
X164116855Y-129221761D01*
X164116855Y-129221761D02*
X164164474Y-129317000D01*
X164164474Y-129317000D02*
X164259712Y-129364619D01*
X164259712Y-129364619D02*
X164354950Y-129364619D01*
D11*
X168732455Y-77014800D02*
X168351503Y-77205276D01*
X168351503Y-77205276D02*
X167589598Y-77205276D01*
X167589598Y-77205276D02*
X167208646Y-77014800D01*
X167208646Y-77014800D02*
X167018169Y-76824323D01*
X167018169Y-76824323D02*
X166827693Y-76443371D01*
X166827693Y-76443371D02*
X166827693Y-75300514D01*
X166827693Y-75300514D02*
X167018169Y-74919561D01*
X167018169Y-74919561D02*
X167208646Y-74729085D01*
X167208646Y-74729085D02*
X167589598Y-74538609D01*
X167589598Y-74538609D02*
X168351503Y-74538609D01*
X168351503Y-74538609D02*
X168732455Y-74729085D01*
X172161026Y-74538609D02*
X172161026Y-77205276D01*
X170446740Y-74538609D02*
X170446740Y-76633847D01*
X170446740Y-76633847D02*
X170637217Y-77014800D01*
X170637217Y-77014800D02*
X171018169Y-77205276D01*
X171018169Y-77205276D02*
X171589598Y-77205276D01*
X171589598Y-77205276D02*
X171970550Y-77014800D01*
X171970550Y-77014800D02*
X172161026Y-76824323D01*
X174065788Y-77205276D02*
X174065788Y-73205276D01*
X174065788Y-74729085D02*
X174446741Y-74538609D01*
X174446741Y-74538609D02*
X175208646Y-74538609D01*
X175208646Y-74538609D02*
X175589598Y-74729085D01*
X175589598Y-74729085D02*
X175780074Y-74919561D01*
X175780074Y-74919561D02*
X175970550Y-75300514D01*
X175970550Y-75300514D02*
X175970550Y-76443371D01*
X175970550Y-76443371D02*
X175780074Y-76824323D01*
X175780074Y-76824323D02*
X175589598Y-77014800D01*
X175589598Y-77014800D02*
X175208646Y-77205276D01*
X175208646Y-77205276D02*
X174446741Y-77205276D01*
X174446741Y-77205276D02*
X174065788Y-77014800D01*
X179208646Y-77014800D02*
X178827694Y-77205276D01*
X178827694Y-77205276D02*
X178065789Y-77205276D01*
X178065789Y-77205276D02*
X177684836Y-77014800D01*
X177684836Y-77014800D02*
X177494360Y-76633847D01*
X177494360Y-76633847D02*
X177494360Y-75110038D01*
X177494360Y-75110038D02*
X177684836Y-74729085D01*
X177684836Y-74729085D02*
X178065789Y-74538609D01*
X178065789Y-74538609D02*
X178827694Y-74538609D01*
X178827694Y-74538609D02*
X179208646Y-74729085D01*
X179208646Y-74729085D02*
X179399122Y-75110038D01*
X179399122Y-75110038D02*
X179399122Y-75490990D01*
X179399122Y-75490990D02*
X177494360Y-75871942D01*
X180922931Y-77014800D02*
X181303884Y-77205276D01*
X181303884Y-77205276D02*
X182065788Y-77205276D01*
X182065788Y-77205276D02*
X182446741Y-77014800D01*
X182446741Y-77014800D02*
X182637217Y-76633847D01*
X182637217Y-76633847D02*
X182637217Y-76443371D01*
X182637217Y-76443371D02*
X182446741Y-76062419D01*
X182446741Y-76062419D02*
X182065788Y-75871942D01*
X182065788Y-75871942D02*
X181494360Y-75871942D01*
X181494360Y-75871942D02*
X181113407Y-75681466D01*
X181113407Y-75681466D02*
X180922931Y-75300514D01*
X180922931Y-75300514D02*
X180922931Y-75110038D01*
X180922931Y-75110038D02*
X181113407Y-74729085D01*
X181113407Y-74729085D02*
X181494360Y-74538609D01*
X181494360Y-74538609D02*
X182065788Y-74538609D01*
X182065788Y-74538609D02*
X182446741Y-74729085D01*
X186065788Y-77205276D02*
X186065788Y-75110038D01*
X186065788Y-75110038D02*
X185875312Y-74729085D01*
X185875312Y-74729085D02*
X185494360Y-74538609D01*
X185494360Y-74538609D02*
X184732455Y-74538609D01*
X184732455Y-74538609D02*
X184351502Y-74729085D01*
X186065788Y-77014800D02*
X185684836Y-77205276D01*
X185684836Y-77205276D02*
X184732455Y-77205276D01*
X184732455Y-77205276D02*
X184351502Y-77014800D01*
X184351502Y-77014800D02*
X184161026Y-76633847D01*
X184161026Y-76633847D02*
X184161026Y-76252895D01*
X184161026Y-76252895D02*
X184351502Y-75871942D01*
X184351502Y-75871942D02*
X184732455Y-75681466D01*
X184732455Y-75681466D02*
X185684836Y-75681466D01*
X185684836Y-75681466D02*
X186065788Y-75490990D01*
X187399122Y-74538609D02*
X188922931Y-74538609D01*
X187970550Y-73205276D02*
X187970550Y-76633847D01*
X187970550Y-76633847D02*
X188161027Y-77014800D01*
X188161027Y-77014800D02*
X188541979Y-77205276D01*
X188541979Y-77205276D02*
X188922931Y-77205276D01*
X145756265Y-87586704D02*
X146232455Y-87586704D01*
X145661027Y-87872419D02*
X145994360Y-86872419D01*
X145994360Y-86872419D02*
X146327693Y-87872419D01*
X146661027Y-87872419D02*
X146661027Y-87205752D01*
X146661027Y-87396228D02*
X146708646Y-87300990D01*
X146708646Y-87300990D02*
X146756265Y-87253371D01*
X146756265Y-87253371D02*
X146851503Y-87205752D01*
X146851503Y-87205752D02*
X146946741Y-87205752D01*
X147708646Y-87872419D02*
X147708646Y-86872419D01*
X147708646Y-87824800D02*
X147613408Y-87872419D01*
X147613408Y-87872419D02*
X147422932Y-87872419D01*
X147422932Y-87872419D02*
X147327694Y-87824800D01*
X147327694Y-87824800D02*
X147280075Y-87777180D01*
X147280075Y-87777180D02*
X147232456Y-87681942D01*
X147232456Y-87681942D02*
X147232456Y-87396228D01*
X147232456Y-87396228D02*
X147280075Y-87300990D01*
X147280075Y-87300990D02*
X147327694Y-87253371D01*
X147327694Y-87253371D02*
X147422932Y-87205752D01*
X147422932Y-87205752D02*
X147613408Y-87205752D01*
X147613408Y-87205752D02*
X147708646Y-87253371D01*
X148613408Y-87205752D02*
X148613408Y-87872419D01*
X148184837Y-87205752D02*
X148184837Y-87729561D01*
X148184837Y-87729561D02*
X148232456Y-87824800D01*
X148232456Y-87824800D02*
X148327694Y-87872419D01*
X148327694Y-87872419D02*
X148470551Y-87872419D01*
X148470551Y-87872419D02*
X148565789Y-87824800D01*
X148565789Y-87824800D02*
X148613408Y-87777180D01*
X149089599Y-87872419D02*
X149089599Y-87205752D01*
X149089599Y-86872419D02*
X149041980Y-86920038D01*
X149041980Y-86920038D02*
X149089599Y-86967657D01*
X149089599Y-86967657D02*
X149137218Y-86920038D01*
X149137218Y-86920038D02*
X149089599Y-86872419D01*
X149089599Y-86872419D02*
X149089599Y-86967657D01*
X149565789Y-87205752D02*
X149565789Y-87872419D01*
X149565789Y-87300990D02*
X149613408Y-87253371D01*
X149613408Y-87253371D02*
X149708646Y-87205752D01*
X149708646Y-87205752D02*
X149851503Y-87205752D01*
X149851503Y-87205752D02*
X149946741Y-87253371D01*
X149946741Y-87253371D02*
X149994360Y-87348609D01*
X149994360Y-87348609D02*
X149994360Y-87872419D01*
X150613408Y-87872419D02*
X150518170Y-87824800D01*
X150518170Y-87824800D02*
X150470551Y-87777180D01*
X150470551Y-87777180D02*
X150422932Y-87681942D01*
X150422932Y-87681942D02*
X150422932Y-87396228D01*
X150422932Y-87396228D02*
X150470551Y-87300990D01*
X150470551Y-87300990D02*
X150518170Y-87253371D01*
X150518170Y-87253371D02*
X150613408Y-87205752D01*
X150613408Y-87205752D02*
X150756265Y-87205752D01*
X150756265Y-87205752D02*
X150851503Y-87253371D01*
X150851503Y-87253371D02*
X150899122Y-87300990D01*
X150899122Y-87300990D02*
X150946741Y-87396228D01*
X150946741Y-87396228D02*
X150946741Y-87681942D01*
X150946741Y-87681942D02*
X150899122Y-87777180D01*
X150899122Y-87777180D02*
X150851503Y-87824800D01*
X150851503Y-87824800D02*
X150756265Y-87872419D01*
X150756265Y-87872419D02*
X150613408Y-87872419D01*
X152137218Y-87872419D02*
X152137218Y-86872419D01*
X152137218Y-86872419D02*
X152708646Y-87872419D01*
X152708646Y-87872419D02*
X152708646Y-86872419D01*
X153613408Y-87872419D02*
X153613408Y-87348609D01*
X153613408Y-87348609D02*
X153565789Y-87253371D01*
X153565789Y-87253371D02*
X153470551Y-87205752D01*
X153470551Y-87205752D02*
X153280075Y-87205752D01*
X153280075Y-87205752D02*
X153184837Y-87253371D01*
X153613408Y-87824800D02*
X153518170Y-87872419D01*
X153518170Y-87872419D02*
X153280075Y-87872419D01*
X153280075Y-87872419D02*
X153184837Y-87824800D01*
X153184837Y-87824800D02*
X153137218Y-87729561D01*
X153137218Y-87729561D02*
X153137218Y-87634323D01*
X153137218Y-87634323D02*
X153184837Y-87539085D01*
X153184837Y-87539085D02*
X153280075Y-87491466D01*
X153280075Y-87491466D02*
X153518170Y-87491466D01*
X153518170Y-87491466D02*
X153613408Y-87443847D01*
X154089599Y-87205752D02*
X154089599Y-87872419D01*
X154089599Y-87300990D02*
X154137218Y-87253371D01*
X154137218Y-87253371D02*
X154232456Y-87205752D01*
X154232456Y-87205752D02*
X154375313Y-87205752D01*
X154375313Y-87205752D02*
X154470551Y-87253371D01*
X154470551Y-87253371D02*
X154518170Y-87348609D01*
X154518170Y-87348609D02*
X154518170Y-87872419D01*
X155137218Y-87872419D02*
X155041980Y-87824800D01*
X155041980Y-87824800D02*
X154994361Y-87777180D01*
X154994361Y-87777180D02*
X154946742Y-87681942D01*
X154946742Y-87681942D02*
X154946742Y-87396228D01*
X154946742Y-87396228D02*
X154994361Y-87300990D01*
X154994361Y-87300990D02*
X155041980Y-87253371D01*
X155041980Y-87253371D02*
X155137218Y-87205752D01*
X155137218Y-87205752D02*
X155280075Y-87205752D01*
X155280075Y-87205752D02*
X155375313Y-87253371D01*
X155375313Y-87253371D02*
X155422932Y-87300990D01*
X155422932Y-87300990D02*
X155470551Y-87396228D01*
X155470551Y-87396228D02*
X155470551Y-87681942D01*
X155470551Y-87681942D02*
X155422932Y-87777180D01*
X155422932Y-87777180D02*
X155375313Y-87824800D01*
X155375313Y-87824800D02*
X155280075Y-87872419D01*
X155280075Y-87872419D02*
X155137218Y-87872419D01*
X189872419Y-105196115D02*
X188872419Y-105196115D01*
X189253371Y-105196115D02*
X189205752Y-105100877D01*
X189205752Y-105100877D02*
X189205752Y-104910401D01*
X189205752Y-104910401D02*
X189253371Y-104815163D01*
X189253371Y-104815163D02*
X189300990Y-104767544D01*
X189300990Y-104767544D02*
X189396228Y-104719925D01*
X189396228Y-104719925D02*
X189681942Y-104719925D01*
X189681942Y-104719925D02*
X189777180Y-104767544D01*
X189777180Y-104767544D02*
X189824800Y-104815163D01*
X189824800Y-104815163D02*
X189872419Y-104910401D01*
X189872419Y-104910401D02*
X189872419Y-105100877D01*
X189872419Y-105100877D02*
X189824800Y-105196115D01*
X189872419Y-103862782D02*
X189348609Y-103862782D01*
X189348609Y-103862782D02*
X189253371Y-103910401D01*
X189253371Y-103910401D02*
X189205752Y-104005639D01*
X189205752Y-104005639D02*
X189205752Y-104196115D01*
X189205752Y-104196115D02*
X189253371Y-104291353D01*
X189824800Y-103862782D02*
X189872419Y-103958020D01*
X189872419Y-103958020D02*
X189872419Y-104196115D01*
X189872419Y-104196115D02*
X189824800Y-104291353D01*
X189824800Y-104291353D02*
X189729561Y-104338972D01*
X189729561Y-104338972D02*
X189634323Y-104338972D01*
X189634323Y-104338972D02*
X189539085Y-104291353D01*
X189539085Y-104291353D02*
X189491466Y-104196115D01*
X189491466Y-104196115D02*
X189491466Y-103958020D01*
X189491466Y-103958020D02*
X189443847Y-103862782D01*
X189205752Y-103529448D02*
X189205752Y-103148496D01*
X188872419Y-103386591D02*
X189729561Y-103386591D01*
X189729561Y-103386591D02*
X189824800Y-103338972D01*
X189824800Y-103338972D02*
X189872419Y-103243734D01*
X189872419Y-103243734D02*
X189872419Y-103148496D01*
X189205752Y-102958019D02*
X189205752Y-102577067D01*
X188872419Y-102815162D02*
X189729561Y-102815162D01*
X189729561Y-102815162D02*
X189824800Y-102767543D01*
X189824800Y-102767543D02*
X189872419Y-102672305D01*
X189872419Y-102672305D02*
X189872419Y-102577067D01*
X189824800Y-101862781D02*
X189872419Y-101958019D01*
X189872419Y-101958019D02*
X189872419Y-102148495D01*
X189872419Y-102148495D02*
X189824800Y-102243733D01*
X189824800Y-102243733D02*
X189729561Y-102291352D01*
X189729561Y-102291352D02*
X189348609Y-102291352D01*
X189348609Y-102291352D02*
X189253371Y-102243733D01*
X189253371Y-102243733D02*
X189205752Y-102148495D01*
X189205752Y-102148495D02*
X189205752Y-101958019D01*
X189205752Y-101958019D02*
X189253371Y-101862781D01*
X189253371Y-101862781D02*
X189348609Y-101815162D01*
X189348609Y-101815162D02*
X189443847Y-101815162D01*
X189443847Y-101815162D02*
X189539085Y-102291352D01*
X189872419Y-101386590D02*
X189205752Y-101386590D01*
X189396228Y-101386590D02*
X189300990Y-101338971D01*
X189300990Y-101338971D02*
X189253371Y-101291352D01*
X189253371Y-101291352D02*
X189205752Y-101196114D01*
X189205752Y-101196114D02*
X189205752Y-101100876D01*
X189205752Y-100862780D02*
X189872419Y-100624685D01*
X189205752Y-100386590D02*
X189872419Y-100624685D01*
X189872419Y-100624685D02*
X190110514Y-100719923D01*
X190110514Y-100719923D02*
X190158133Y-100767542D01*
X190158133Y-100767542D02*
X190205752Y-100862780D01*
X189872419Y-99243732D02*
X188872419Y-99243732D01*
X189253371Y-99243732D02*
X189205752Y-99148494D01*
X189205752Y-99148494D02*
X189205752Y-98958018D01*
X189205752Y-98958018D02*
X189253371Y-98862780D01*
X189253371Y-98862780D02*
X189300990Y-98815161D01*
X189300990Y-98815161D02*
X189396228Y-98767542D01*
X189396228Y-98767542D02*
X189681942Y-98767542D01*
X189681942Y-98767542D02*
X189777180Y-98815161D01*
X189777180Y-98815161D02*
X189824800Y-98862780D01*
X189824800Y-98862780D02*
X189872419Y-98958018D01*
X189872419Y-98958018D02*
X189872419Y-99148494D01*
X189872419Y-99148494D02*
X189824800Y-99243732D01*
X189872419Y-98196113D02*
X189824800Y-98291351D01*
X189824800Y-98291351D02*
X189777180Y-98338970D01*
X189777180Y-98338970D02*
X189681942Y-98386589D01*
X189681942Y-98386589D02*
X189396228Y-98386589D01*
X189396228Y-98386589D02*
X189300990Y-98338970D01*
X189300990Y-98338970D02*
X189253371Y-98291351D01*
X189253371Y-98291351D02*
X189205752Y-98196113D01*
X189205752Y-98196113D02*
X189205752Y-98053256D01*
X189205752Y-98053256D02*
X189253371Y-97958018D01*
X189253371Y-97958018D02*
X189300990Y-97910399D01*
X189300990Y-97910399D02*
X189396228Y-97862780D01*
X189396228Y-97862780D02*
X189681942Y-97862780D01*
X189681942Y-97862780D02*
X189777180Y-97910399D01*
X189777180Y-97910399D02*
X189824800Y-97958018D01*
X189824800Y-97958018D02*
X189872419Y-98053256D01*
X189872419Y-98053256D02*
X189872419Y-98196113D01*
X189872419Y-97005637D02*
X189348609Y-97005637D01*
X189348609Y-97005637D02*
X189253371Y-97053256D01*
X189253371Y-97053256D02*
X189205752Y-97148494D01*
X189205752Y-97148494D02*
X189205752Y-97338970D01*
X189205752Y-97338970D02*
X189253371Y-97434208D01*
X189824800Y-97005637D02*
X189872419Y-97100875D01*
X189872419Y-97100875D02*
X189872419Y-97338970D01*
X189872419Y-97338970D02*
X189824800Y-97434208D01*
X189824800Y-97434208D02*
X189729561Y-97481827D01*
X189729561Y-97481827D02*
X189634323Y-97481827D01*
X189634323Y-97481827D02*
X189539085Y-97434208D01*
X189539085Y-97434208D02*
X189491466Y-97338970D01*
X189491466Y-97338970D02*
X189491466Y-97100875D01*
X189491466Y-97100875D02*
X189443847Y-97005637D01*
X189872419Y-96529446D02*
X189205752Y-96529446D01*
X189396228Y-96529446D02*
X189300990Y-96481827D01*
X189300990Y-96481827D02*
X189253371Y-96434208D01*
X189253371Y-96434208D02*
X189205752Y-96338970D01*
X189205752Y-96338970D02*
X189205752Y-96243732D01*
X189872419Y-95481827D02*
X188872419Y-95481827D01*
X189824800Y-95481827D02*
X189872419Y-95577065D01*
X189872419Y-95577065D02*
X189872419Y-95767541D01*
X189872419Y-95767541D02*
X189824800Y-95862779D01*
X189824800Y-95862779D02*
X189777180Y-95910398D01*
X189777180Y-95910398D02*
X189681942Y-95958017D01*
X189681942Y-95958017D02*
X189396228Y-95958017D01*
X189396228Y-95958017D02*
X189300990Y-95910398D01*
X189300990Y-95910398D02*
X189253371Y-95862779D01*
X189253371Y-95862779D02*
X189205752Y-95767541D01*
X189205752Y-95767541D02*
X189205752Y-95577065D01*
X189205752Y-95577065D02*
X189253371Y-95481827D01*
X189824800Y-93815160D02*
X189872419Y-93910398D01*
X189872419Y-93910398D02*
X189872419Y-94100874D01*
X189872419Y-94100874D02*
X189824800Y-94196112D01*
X189824800Y-94196112D02*
X189777180Y-94243731D01*
X189777180Y-94243731D02*
X189681942Y-94291350D01*
X189681942Y-94291350D02*
X189396228Y-94291350D01*
X189396228Y-94291350D02*
X189300990Y-94243731D01*
X189300990Y-94243731D02*
X189253371Y-94196112D01*
X189253371Y-94196112D02*
X189205752Y-94100874D01*
X189205752Y-94100874D02*
X189205752Y-93910398D01*
X189205752Y-93910398D02*
X189253371Y-93815160D01*
X189872419Y-93243731D02*
X189824800Y-93338969D01*
X189824800Y-93338969D02*
X189777180Y-93386588D01*
X189777180Y-93386588D02*
X189681942Y-93434207D01*
X189681942Y-93434207D02*
X189396228Y-93434207D01*
X189396228Y-93434207D02*
X189300990Y-93386588D01*
X189300990Y-93386588D02*
X189253371Y-93338969D01*
X189253371Y-93338969D02*
X189205752Y-93243731D01*
X189205752Y-93243731D02*
X189205752Y-93100874D01*
X189205752Y-93100874D02*
X189253371Y-93005636D01*
X189253371Y-93005636D02*
X189300990Y-92958017D01*
X189300990Y-92958017D02*
X189396228Y-92910398D01*
X189396228Y-92910398D02*
X189681942Y-92910398D01*
X189681942Y-92910398D02*
X189777180Y-92958017D01*
X189777180Y-92958017D02*
X189824800Y-93005636D01*
X189824800Y-93005636D02*
X189872419Y-93100874D01*
X189872419Y-93100874D02*
X189872419Y-93243731D01*
X189205752Y-92481826D02*
X189872419Y-92481826D01*
X189300990Y-92481826D02*
X189253371Y-92434207D01*
X189253371Y-92434207D02*
X189205752Y-92338969D01*
X189205752Y-92338969D02*
X189205752Y-92196112D01*
X189205752Y-92196112D02*
X189253371Y-92100874D01*
X189253371Y-92100874D02*
X189348609Y-92053255D01*
X189348609Y-92053255D02*
X189872419Y-92053255D01*
X189205752Y-91577064D02*
X189872419Y-91577064D01*
X189300990Y-91577064D02*
X189253371Y-91529445D01*
X189253371Y-91529445D02*
X189205752Y-91434207D01*
X189205752Y-91434207D02*
X189205752Y-91291350D01*
X189205752Y-91291350D02*
X189253371Y-91196112D01*
X189253371Y-91196112D02*
X189348609Y-91148493D01*
X189348609Y-91148493D02*
X189872419Y-91148493D01*
X189824800Y-90291350D02*
X189872419Y-90386588D01*
X189872419Y-90386588D02*
X189872419Y-90577064D01*
X189872419Y-90577064D02*
X189824800Y-90672302D01*
X189824800Y-90672302D02*
X189729561Y-90719921D01*
X189729561Y-90719921D02*
X189348609Y-90719921D01*
X189348609Y-90719921D02*
X189253371Y-90672302D01*
X189253371Y-90672302D02*
X189205752Y-90577064D01*
X189205752Y-90577064D02*
X189205752Y-90386588D01*
X189205752Y-90386588D02*
X189253371Y-90291350D01*
X189253371Y-90291350D02*
X189348609Y-90243731D01*
X189348609Y-90243731D02*
X189443847Y-90243731D01*
X189443847Y-90243731D02*
X189539085Y-90719921D01*
X189824800Y-89386588D02*
X189872419Y-89481826D01*
X189872419Y-89481826D02*
X189872419Y-89672302D01*
X189872419Y-89672302D02*
X189824800Y-89767540D01*
X189824800Y-89767540D02*
X189777180Y-89815159D01*
X189777180Y-89815159D02*
X189681942Y-89862778D01*
X189681942Y-89862778D02*
X189396228Y-89862778D01*
X189396228Y-89862778D02*
X189300990Y-89815159D01*
X189300990Y-89815159D02*
X189253371Y-89767540D01*
X189253371Y-89767540D02*
X189205752Y-89672302D01*
X189205752Y-89672302D02*
X189205752Y-89481826D01*
X189205752Y-89481826D02*
X189253371Y-89386588D01*
X189205752Y-89100873D02*
X189205752Y-88719921D01*
X188872419Y-88958016D02*
X189729561Y-88958016D01*
X189729561Y-88958016D02*
X189824800Y-88910397D01*
X189824800Y-88910397D02*
X189872419Y-88815159D01*
X189872419Y-88815159D02*
X189872419Y-88719921D01*
X189872419Y-88386587D02*
X189205752Y-88386587D01*
X188872419Y-88386587D02*
X188920038Y-88434206D01*
X188920038Y-88434206D02*
X188967657Y-88386587D01*
X188967657Y-88386587D02*
X188920038Y-88338968D01*
X188920038Y-88338968D02*
X188872419Y-88386587D01*
X188872419Y-88386587D02*
X188967657Y-88386587D01*
X189872419Y-87767540D02*
X189824800Y-87862778D01*
X189824800Y-87862778D02*
X189777180Y-87910397D01*
X189777180Y-87910397D02*
X189681942Y-87958016D01*
X189681942Y-87958016D02*
X189396228Y-87958016D01*
X189396228Y-87958016D02*
X189300990Y-87910397D01*
X189300990Y-87910397D02*
X189253371Y-87862778D01*
X189253371Y-87862778D02*
X189205752Y-87767540D01*
X189205752Y-87767540D02*
X189205752Y-87624683D01*
X189205752Y-87624683D02*
X189253371Y-87529445D01*
X189253371Y-87529445D02*
X189300990Y-87481826D01*
X189300990Y-87481826D02*
X189396228Y-87434207D01*
X189396228Y-87434207D02*
X189681942Y-87434207D01*
X189681942Y-87434207D02*
X189777180Y-87481826D01*
X189777180Y-87481826D02*
X189824800Y-87529445D01*
X189824800Y-87529445D02*
X189872419Y-87624683D01*
X189872419Y-87624683D02*
X189872419Y-87767540D01*
X189205752Y-87005635D02*
X189872419Y-87005635D01*
X189300990Y-87005635D02*
X189253371Y-86958016D01*
X189253371Y-86958016D02*
X189205752Y-86862778D01*
X189205752Y-86862778D02*
X189205752Y-86719921D01*
X189205752Y-86719921D02*
X189253371Y-86624683D01*
X189253371Y-86624683D02*
X189348609Y-86577064D01*
X189348609Y-86577064D02*
X189872419Y-86577064D01*
D12*
X145054510Y-126729400D02*
X146197368Y-126729400D01*
X145625939Y-127300828D02*
X145625939Y-126157971D01*
D10*
X135817000Y-59145050D02*
X135864619Y-59049812D01*
X135864619Y-59049812D02*
X135864619Y-58859336D01*
X135864619Y-58859336D02*
X135817000Y-58764098D01*
X135817000Y-58764098D02*
X135721761Y-58716479D01*
X135721761Y-58716479D02*
X135674142Y-58716479D01*
X135674142Y-58716479D02*
X135578904Y-58764098D01*
X135578904Y-58764098D02*
X135531285Y-58859336D01*
X135531285Y-58859336D02*
X135531285Y-59002193D01*
X135531285Y-59002193D02*
X135483666Y-59097431D01*
X135483666Y-59097431D02*
X135388428Y-59145050D01*
X135388428Y-59145050D02*
X135340809Y-59145050D01*
X135340809Y-59145050D02*
X135245571Y-59097431D01*
X135245571Y-59097431D02*
X135197952Y-59002193D01*
X135197952Y-59002193D02*
X135197952Y-58859336D01*
X135197952Y-58859336D02*
X135245571Y-58764098D01*
X135864619Y-58145050D02*
X135817000Y-58240288D01*
X135817000Y-58240288D02*
X135769380Y-58287907D01*
X135769380Y-58287907D02*
X135674142Y-58335526D01*
X135674142Y-58335526D02*
X135388428Y-58335526D01*
X135388428Y-58335526D02*
X135293190Y-58287907D01*
X135293190Y-58287907D02*
X135245571Y-58240288D01*
X135245571Y-58240288D02*
X135197952Y-58145050D01*
X135197952Y-58145050D02*
X135197952Y-58002193D01*
X135197952Y-58002193D02*
X135245571Y-57906955D01*
X135245571Y-57906955D02*
X135293190Y-57859336D01*
X135293190Y-57859336D02*
X135388428Y-57811717D01*
X135388428Y-57811717D02*
X135674142Y-57811717D01*
X135674142Y-57811717D02*
X135769380Y-57859336D01*
X135769380Y-57859336D02*
X135817000Y-57906955D01*
X135817000Y-57906955D02*
X135864619Y-58002193D01*
X135864619Y-58002193D02*
X135864619Y-58145050D01*
X135864619Y-57240288D02*
X135817000Y-57335526D01*
X135817000Y-57335526D02*
X135721761Y-57383145D01*
X135721761Y-57383145D02*
X134864619Y-57383145D01*
X135864619Y-56430764D02*
X135340809Y-56430764D01*
X135340809Y-56430764D02*
X135245571Y-56478383D01*
X135245571Y-56478383D02*
X135197952Y-56573621D01*
X135197952Y-56573621D02*
X135197952Y-56764097D01*
X135197952Y-56764097D02*
X135245571Y-56859335D01*
X135817000Y-56430764D02*
X135864619Y-56526002D01*
X135864619Y-56526002D02*
X135864619Y-56764097D01*
X135864619Y-56764097D02*
X135817000Y-56859335D01*
X135817000Y-56859335D02*
X135721761Y-56906954D01*
X135721761Y-56906954D02*
X135626523Y-56906954D01*
X135626523Y-56906954D02*
X135531285Y-56859335D01*
X135531285Y-56859335D02*
X135483666Y-56764097D01*
X135483666Y-56764097D02*
X135483666Y-56526002D01*
X135483666Y-56526002D02*
X135436047Y-56430764D01*
X135864619Y-55954573D02*
X135197952Y-55954573D01*
X135388428Y-55954573D02*
X135293190Y-55906954D01*
X135293190Y-55906954D02*
X135245571Y-55859335D01*
X135245571Y-55859335D02*
X135197952Y-55764097D01*
X135197952Y-55764097D02*
X135197952Y-55668859D01*
X135864619Y-54573620D02*
X135197952Y-54573620D01*
X134864619Y-54573620D02*
X134912238Y-54621239D01*
X134912238Y-54621239D02*
X134959857Y-54573620D01*
X134959857Y-54573620D02*
X134912238Y-54526001D01*
X134912238Y-54526001D02*
X134864619Y-54573620D01*
X134864619Y-54573620D02*
X134959857Y-54573620D01*
X135197952Y-54097430D02*
X135864619Y-54097430D01*
X135293190Y-54097430D02*
X135245571Y-54049811D01*
X135245571Y-54049811D02*
X135197952Y-53954573D01*
X135197952Y-53954573D02*
X135197952Y-53811716D01*
X135197952Y-53811716D02*
X135245571Y-53716478D01*
X135245571Y-53716478D02*
X135340809Y-53668859D01*
X135340809Y-53668859D02*
X135864619Y-53668859D01*
X135197952Y-53192668D02*
X136197952Y-53192668D01*
X135245571Y-53192668D02*
X135197952Y-53097430D01*
X135197952Y-53097430D02*
X135197952Y-52906954D01*
X135197952Y-52906954D02*
X135245571Y-52811716D01*
X135245571Y-52811716D02*
X135293190Y-52764097D01*
X135293190Y-52764097D02*
X135388428Y-52716478D01*
X135388428Y-52716478D02*
X135674142Y-52716478D01*
X135674142Y-52716478D02*
X135769380Y-52764097D01*
X135769380Y-52764097D02*
X135817000Y-52811716D01*
X135817000Y-52811716D02*
X135864619Y-52906954D01*
X135864619Y-52906954D02*
X135864619Y-53097430D01*
X135864619Y-53097430D02*
X135817000Y-53192668D01*
X135197952Y-51859335D02*
X135864619Y-51859335D01*
X135197952Y-52287906D02*
X135721761Y-52287906D01*
X135721761Y-52287906D02*
X135817000Y-52240287D01*
X135817000Y-52240287D02*
X135864619Y-52145049D01*
X135864619Y-52145049D02*
X135864619Y-52002192D01*
X135864619Y-52002192D02*
X135817000Y-51906954D01*
X135817000Y-51906954D02*
X135769380Y-51859335D01*
X135197952Y-51526001D02*
X135197952Y-51145049D01*
X134864619Y-51383144D02*
X135721761Y-51383144D01*
X135721761Y-51383144D02*
X135817000Y-51335525D01*
X135817000Y-51335525D02*
X135864619Y-51240287D01*
X135864619Y-51240287D02*
X135864619Y-51145049D01*
D12*
X146554510Y-54229400D02*
X147697368Y-54229400D01*
X147125939Y-54800828D02*
X147125939Y-53657971D01*
D13*
X147911429Y-113194819D02*
X147911429Y-112194819D01*
X148340000Y-112909104D02*
X148816190Y-112909104D01*
X148244762Y-113194819D02*
X148578095Y-112194819D01*
X148578095Y-112194819D02*
X148911428Y-113194819D01*
X149244762Y-113194819D02*
X149244762Y-112194819D01*
X149244762Y-112194819D02*
X149816190Y-113194819D01*
X149816190Y-113194819D02*
X149816190Y-112194819D01*
X150244762Y-112290057D02*
X150292381Y-112242438D01*
X150292381Y-112242438D02*
X150387619Y-112194819D01*
X150387619Y-112194819D02*
X150625714Y-112194819D01*
X150625714Y-112194819D02*
X150720952Y-112242438D01*
X150720952Y-112242438D02*
X150768571Y-112290057D01*
X150768571Y-112290057D02*
X150816190Y-112385295D01*
X150816190Y-112385295D02*
X150816190Y-112480533D01*
X150816190Y-112480533D02*
X150768571Y-112623390D01*
X150768571Y-112623390D02*
X150197143Y-113194819D01*
X150197143Y-113194819D02*
X150816190Y-113194819D01*
X167916666Y-61004819D02*
X167916666Y-61719104D01*
X167916666Y-61719104D02*
X167869047Y-61861961D01*
X167869047Y-61861961D02*
X167773809Y-61957200D01*
X167773809Y-61957200D02*
X167630952Y-62004819D01*
X167630952Y-62004819D02*
X167535714Y-62004819D01*
X168821428Y-61004819D02*
X168630952Y-61004819D01*
X168630952Y-61004819D02*
X168535714Y-61052438D01*
X168535714Y-61052438D02*
X168488095Y-61100057D01*
X168488095Y-61100057D02*
X168392857Y-61242914D01*
X168392857Y-61242914D02*
X168345238Y-61433390D01*
X168345238Y-61433390D02*
X168345238Y-61814342D01*
X168345238Y-61814342D02*
X168392857Y-61909580D01*
X168392857Y-61909580D02*
X168440476Y-61957200D01*
X168440476Y-61957200D02*
X168535714Y-62004819D01*
X168535714Y-62004819D02*
X168726190Y-62004819D01*
X168726190Y-62004819D02*
X168821428Y-61957200D01*
X168821428Y-61957200D02*
X168869047Y-61909580D01*
X168869047Y-61909580D02*
X168916666Y-61814342D01*
X168916666Y-61814342D02*
X168916666Y-61576247D01*
X168916666Y-61576247D02*
X168869047Y-61481009D01*
X168869047Y-61481009D02*
X168821428Y-61433390D01*
X168821428Y-61433390D02*
X168726190Y-61385771D01*
X168726190Y-61385771D02*
X168535714Y-61385771D01*
X168535714Y-61385771D02*
X168440476Y-61433390D01*
X168440476Y-61433390D02*
X168392857Y-61481009D01*
X168392857Y-61481009D02*
X168345238Y-61576247D01*
X159297618Y-52954819D02*
X159297618Y-51954819D01*
X159297618Y-51954819D02*
X159630951Y-52669104D01*
X159630951Y-52669104D02*
X159964284Y-51954819D01*
X159964284Y-51954819D02*
X159964284Y-52954819D01*
X160869046Y-52954819D02*
X160869046Y-52431009D01*
X160869046Y-52431009D02*
X160821427Y-52335771D01*
X160821427Y-52335771D02*
X160726189Y-52288152D01*
X160726189Y-52288152D02*
X160535713Y-52288152D01*
X160535713Y-52288152D02*
X160440475Y-52335771D01*
X160869046Y-52907200D02*
X160773808Y-52954819D01*
X160773808Y-52954819D02*
X160535713Y-52954819D01*
X160535713Y-52954819D02*
X160440475Y-52907200D01*
X160440475Y-52907200D02*
X160392856Y-52811961D01*
X160392856Y-52811961D02*
X160392856Y-52716723D01*
X160392856Y-52716723D02*
X160440475Y-52621485D01*
X160440475Y-52621485D02*
X160535713Y-52573866D01*
X160535713Y-52573866D02*
X160773808Y-52573866D01*
X160773808Y-52573866D02*
X160869046Y-52526247D01*
X161773808Y-52288152D02*
X161773808Y-53097676D01*
X161773808Y-53097676D02*
X161726189Y-53192914D01*
X161726189Y-53192914D02*
X161678570Y-53240533D01*
X161678570Y-53240533D02*
X161583332Y-53288152D01*
X161583332Y-53288152D02*
X161440475Y-53288152D01*
X161440475Y-53288152D02*
X161345237Y-53240533D01*
X161773808Y-52907200D02*
X161678570Y-52954819D01*
X161678570Y-52954819D02*
X161488094Y-52954819D01*
X161488094Y-52954819D02*
X161392856Y-52907200D01*
X161392856Y-52907200D02*
X161345237Y-52859580D01*
X161345237Y-52859580D02*
X161297618Y-52764342D01*
X161297618Y-52764342D02*
X161297618Y-52478628D01*
X161297618Y-52478628D02*
X161345237Y-52383390D01*
X161345237Y-52383390D02*
X161392856Y-52335771D01*
X161392856Y-52335771D02*
X161488094Y-52288152D01*
X161488094Y-52288152D02*
X161678570Y-52288152D01*
X161678570Y-52288152D02*
X161773808Y-52335771D01*
X162249999Y-52288152D02*
X162249999Y-52954819D01*
X162249999Y-52383390D02*
X162297618Y-52335771D01*
X162297618Y-52335771D02*
X162392856Y-52288152D01*
X162392856Y-52288152D02*
X162535713Y-52288152D01*
X162535713Y-52288152D02*
X162630951Y-52335771D01*
X162630951Y-52335771D02*
X162678570Y-52431009D01*
X162678570Y-52431009D02*
X162678570Y-52954819D01*
X163535713Y-52907200D02*
X163440475Y-52954819D01*
X163440475Y-52954819D02*
X163249999Y-52954819D01*
X163249999Y-52954819D02*
X163154761Y-52907200D01*
X163154761Y-52907200D02*
X163107142Y-52811961D01*
X163107142Y-52811961D02*
X163107142Y-52431009D01*
X163107142Y-52431009D02*
X163154761Y-52335771D01*
X163154761Y-52335771D02*
X163249999Y-52288152D01*
X163249999Y-52288152D02*
X163440475Y-52288152D01*
X163440475Y-52288152D02*
X163535713Y-52335771D01*
X163535713Y-52335771D02*
X163583332Y-52431009D01*
X163583332Y-52431009D02*
X163583332Y-52526247D01*
X163583332Y-52526247D02*
X163107142Y-52621485D01*
X163869047Y-52288152D02*
X164249999Y-52288152D01*
X164011904Y-51954819D02*
X164011904Y-52811961D01*
X164011904Y-52811961D02*
X164059523Y-52907200D01*
X164059523Y-52907200D02*
X164154761Y-52954819D01*
X164154761Y-52954819D02*
X164249999Y-52954819D01*
X164726190Y-52954819D02*
X164630952Y-52907200D01*
X164630952Y-52907200D02*
X164583333Y-52859580D01*
X164583333Y-52859580D02*
X164535714Y-52764342D01*
X164535714Y-52764342D02*
X164535714Y-52478628D01*
X164535714Y-52478628D02*
X164583333Y-52383390D01*
X164583333Y-52383390D02*
X164630952Y-52335771D01*
X164630952Y-52335771D02*
X164726190Y-52288152D01*
X164726190Y-52288152D02*
X164869047Y-52288152D01*
X164869047Y-52288152D02*
X164964285Y-52335771D01*
X164964285Y-52335771D02*
X165011904Y-52383390D01*
X165011904Y-52383390D02*
X165059523Y-52478628D01*
X165059523Y-52478628D02*
X165059523Y-52764342D01*
X165059523Y-52764342D02*
X165011904Y-52859580D01*
X165011904Y-52859580D02*
X164964285Y-52907200D01*
X164964285Y-52907200D02*
X164869047Y-52954819D01*
X164869047Y-52954819D02*
X164726190Y-52954819D01*
X165488095Y-52954819D02*
X165488095Y-52288152D01*
X165488095Y-52478628D02*
X165535714Y-52383390D01*
X165535714Y-52383390D02*
X165583333Y-52335771D01*
X165583333Y-52335771D02*
X165678571Y-52288152D01*
X165678571Y-52288152D02*
X165773809Y-52288152D01*
X166535714Y-52288152D02*
X166535714Y-53288152D01*
X166535714Y-52907200D02*
X166440476Y-52954819D01*
X166440476Y-52954819D02*
X166250000Y-52954819D01*
X166250000Y-52954819D02*
X166154762Y-52907200D01*
X166154762Y-52907200D02*
X166107143Y-52859580D01*
X166107143Y-52859580D02*
X166059524Y-52764342D01*
X166059524Y-52764342D02*
X166059524Y-52478628D01*
X166059524Y-52478628D02*
X166107143Y-52383390D01*
X166107143Y-52383390D02*
X166154762Y-52335771D01*
X166154762Y-52335771D02*
X166250000Y-52288152D01*
X166250000Y-52288152D02*
X166440476Y-52288152D01*
X166440476Y-52288152D02*
X166535714Y-52335771D01*
X167440476Y-52288152D02*
X167440476Y-52954819D01*
X167011905Y-52288152D02*
X167011905Y-52811961D01*
X167011905Y-52811961D02*
X167059524Y-52907200D01*
X167059524Y-52907200D02*
X167154762Y-52954819D01*
X167154762Y-52954819D02*
X167297619Y-52954819D01*
X167297619Y-52954819D02*
X167392857Y-52907200D01*
X167392857Y-52907200D02*
X167440476Y-52859580D01*
X168297619Y-52907200D02*
X168202381Y-52954819D01*
X168202381Y-52954819D02*
X168011905Y-52954819D01*
X168011905Y-52954819D02*
X167916667Y-52907200D01*
X167916667Y-52907200D02*
X167869048Y-52811961D01*
X167869048Y-52811961D02*
X167869048Y-52431009D01*
X167869048Y-52431009D02*
X167916667Y-52335771D01*
X167916667Y-52335771D02*
X168011905Y-52288152D01*
X168011905Y-52288152D02*
X168202381Y-52288152D01*
X168202381Y-52288152D02*
X168297619Y-52335771D01*
X168297619Y-52335771D02*
X168345238Y-52431009D01*
X168345238Y-52431009D02*
X168345238Y-52526247D01*
X168345238Y-52526247D02*
X167869048Y-52621485D01*
X168773810Y-52954819D02*
X168773810Y-52288152D01*
X168773810Y-52478628D02*
X168821429Y-52383390D01*
X168821429Y-52383390D02*
X168869048Y-52335771D01*
X168869048Y-52335771D02*
X168964286Y-52288152D01*
X168964286Y-52288152D02*
X169059524Y-52288152D01*
X169154763Y-53050057D02*
X169916667Y-53050057D01*
X170154763Y-52431009D02*
X170488096Y-52431009D01*
X170630953Y-52954819D02*
X170154763Y-52954819D01*
X170154763Y-52954819D02*
X170154763Y-51954819D01*
X170154763Y-51954819D02*
X170630953Y-51954819D01*
X170964287Y-52954819D02*
X171488096Y-52288152D01*
X170964287Y-52288152D02*
X171488096Y-52954819D01*
X171869049Y-52288152D02*
X171869049Y-53288152D01*
X171869049Y-52335771D02*
X171964287Y-52288152D01*
X171964287Y-52288152D02*
X172154763Y-52288152D01*
X172154763Y-52288152D02*
X172250001Y-52335771D01*
X172250001Y-52335771D02*
X172297620Y-52383390D01*
X172297620Y-52383390D02*
X172345239Y-52478628D01*
X172345239Y-52478628D02*
X172345239Y-52764342D01*
X172345239Y-52764342D02*
X172297620Y-52859580D01*
X172297620Y-52859580D02*
X172250001Y-52907200D01*
X172250001Y-52907200D02*
X172154763Y-52954819D01*
X172154763Y-52954819D02*
X171964287Y-52954819D01*
X171964287Y-52954819D02*
X171869049Y-52907200D01*
X173202382Y-52954819D02*
X173202382Y-52431009D01*
X173202382Y-52431009D02*
X173154763Y-52335771D01*
X173154763Y-52335771D02*
X173059525Y-52288152D01*
X173059525Y-52288152D02*
X172869049Y-52288152D01*
X172869049Y-52288152D02*
X172773811Y-52335771D01*
X173202382Y-52907200D02*
X173107144Y-52954819D01*
X173107144Y-52954819D02*
X172869049Y-52954819D01*
X172869049Y-52954819D02*
X172773811Y-52907200D01*
X172773811Y-52907200D02*
X172726192Y-52811961D01*
X172726192Y-52811961D02*
X172726192Y-52716723D01*
X172726192Y-52716723D02*
X172773811Y-52621485D01*
X172773811Y-52621485D02*
X172869049Y-52573866D01*
X172869049Y-52573866D02*
X173107144Y-52573866D01*
X173107144Y-52573866D02*
X173202382Y-52526247D01*
X173678573Y-52288152D02*
X173678573Y-52954819D01*
X173678573Y-52383390D02*
X173726192Y-52335771D01*
X173726192Y-52335771D02*
X173821430Y-52288152D01*
X173821430Y-52288152D02*
X173964287Y-52288152D01*
X173964287Y-52288152D02*
X174059525Y-52335771D01*
X174059525Y-52335771D02*
X174107144Y-52431009D01*
X174107144Y-52431009D02*
X174107144Y-52954819D01*
X174535716Y-52907200D02*
X174630954Y-52954819D01*
X174630954Y-52954819D02*
X174821430Y-52954819D01*
X174821430Y-52954819D02*
X174916668Y-52907200D01*
X174916668Y-52907200D02*
X174964287Y-52811961D01*
X174964287Y-52811961D02*
X174964287Y-52764342D01*
X174964287Y-52764342D02*
X174916668Y-52669104D01*
X174916668Y-52669104D02*
X174821430Y-52621485D01*
X174821430Y-52621485D02*
X174678573Y-52621485D01*
X174678573Y-52621485D02*
X174583335Y-52573866D01*
X174583335Y-52573866D02*
X174535716Y-52478628D01*
X174535716Y-52478628D02*
X174535716Y-52431009D01*
X174535716Y-52431009D02*
X174583335Y-52335771D01*
X174583335Y-52335771D02*
X174678573Y-52288152D01*
X174678573Y-52288152D02*
X174821430Y-52288152D01*
X174821430Y-52288152D02*
X174916668Y-52335771D01*
X175392859Y-52954819D02*
X175392859Y-52288152D01*
X175392859Y-51954819D02*
X175345240Y-52002438D01*
X175345240Y-52002438D02*
X175392859Y-52050057D01*
X175392859Y-52050057D02*
X175440478Y-52002438D01*
X175440478Y-52002438D02*
X175392859Y-51954819D01*
X175392859Y-51954819D02*
X175392859Y-52050057D01*
X176011906Y-52954819D02*
X175916668Y-52907200D01*
X175916668Y-52907200D02*
X175869049Y-52859580D01*
X175869049Y-52859580D02*
X175821430Y-52764342D01*
X175821430Y-52764342D02*
X175821430Y-52478628D01*
X175821430Y-52478628D02*
X175869049Y-52383390D01*
X175869049Y-52383390D02*
X175916668Y-52335771D01*
X175916668Y-52335771D02*
X176011906Y-52288152D01*
X176011906Y-52288152D02*
X176154763Y-52288152D01*
X176154763Y-52288152D02*
X176250001Y-52335771D01*
X176250001Y-52335771D02*
X176297620Y-52383390D01*
X176297620Y-52383390D02*
X176345239Y-52478628D01*
X176345239Y-52478628D02*
X176345239Y-52764342D01*
X176345239Y-52764342D02*
X176297620Y-52859580D01*
X176297620Y-52859580D02*
X176250001Y-52907200D01*
X176250001Y-52907200D02*
X176154763Y-52954819D01*
X176154763Y-52954819D02*
X176011906Y-52954819D01*
X176773811Y-52288152D02*
X176773811Y-52954819D01*
X176773811Y-52383390D02*
X176821430Y-52335771D01*
X176821430Y-52335771D02*
X176916668Y-52288152D01*
X176916668Y-52288152D02*
X177059525Y-52288152D01*
X177059525Y-52288152D02*
X177154763Y-52335771D01*
X177154763Y-52335771D02*
X177202382Y-52431009D01*
X177202382Y-52431009D02*
X177202382Y-52954819D01*
X146951666Y-55154819D02*
X146951666Y-55869104D01*
X146951666Y-55869104D02*
X146904047Y-56011961D01*
X146904047Y-56011961D02*
X146808809Y-56107200D01*
X146808809Y-56107200D02*
X146665952Y-56154819D01*
X146665952Y-56154819D02*
X146570714Y-56154819D01*
X147380238Y-55250057D02*
X147427857Y-55202438D01*
X147427857Y-55202438D02*
X147523095Y-55154819D01*
X147523095Y-55154819D02*
X147761190Y-55154819D01*
X147761190Y-55154819D02*
X147856428Y-55202438D01*
X147856428Y-55202438D02*
X147904047Y-55250057D01*
X147904047Y-55250057D02*
X147951666Y-55345295D01*
X147951666Y-55345295D02*
X147951666Y-55440533D01*
X147951666Y-55440533D02*
X147904047Y-55583390D01*
X147904047Y-55583390D02*
X147332619Y-56154819D01*
X147332619Y-56154819D02*
X147951666Y-56154819D01*
X122333333Y-64859580D02*
X122285714Y-64907200D01*
X122285714Y-64907200D02*
X122142857Y-64954819D01*
X122142857Y-64954819D02*
X122047619Y-64954819D01*
X122047619Y-64954819D02*
X121904762Y-64907200D01*
X121904762Y-64907200D02*
X121809524Y-64811961D01*
X121809524Y-64811961D02*
X121761905Y-64716723D01*
X121761905Y-64716723D02*
X121714286Y-64526247D01*
X121714286Y-64526247D02*
X121714286Y-64383390D01*
X121714286Y-64383390D02*
X121761905Y-64192914D01*
X121761905Y-64192914D02*
X121809524Y-64097676D01*
X121809524Y-64097676D02*
X121904762Y-64002438D01*
X121904762Y-64002438D02*
X122047619Y-63954819D01*
X122047619Y-63954819D02*
X122142857Y-63954819D01*
X122142857Y-63954819D02*
X122285714Y-64002438D01*
X122285714Y-64002438D02*
X122333333Y-64050057D01*
X122714286Y-64050057D02*
X122761905Y-64002438D01*
X122761905Y-64002438D02*
X122857143Y-63954819D01*
X122857143Y-63954819D02*
X123095238Y-63954819D01*
X123095238Y-63954819D02*
X123190476Y-64002438D01*
X123190476Y-64002438D02*
X123238095Y-64050057D01*
X123238095Y-64050057D02*
X123285714Y-64145295D01*
X123285714Y-64145295D02*
X123285714Y-64240533D01*
X123285714Y-64240533D02*
X123238095Y-64383390D01*
X123238095Y-64383390D02*
X122666667Y-64954819D01*
X122666667Y-64954819D02*
X123285714Y-64954819D01*
X173415714Y-90679104D02*
X173891904Y-90679104D01*
X173320476Y-90964819D02*
X173653809Y-89964819D01*
X173653809Y-89964819D02*
X173987142Y-90964819D01*
X174844285Y-90964819D02*
X174272857Y-90964819D01*
X174558571Y-90964819D02*
X174558571Y-89964819D01*
X174558571Y-89964819D02*
X174463333Y-90107676D01*
X174463333Y-90107676D02*
X174368095Y-90202914D01*
X174368095Y-90202914D02*
X174272857Y-90250533D01*
X134035180Y-89248095D02*
X133225657Y-89248095D01*
X133225657Y-89248095D02*
X133130419Y-89295714D01*
X133130419Y-89295714D02*
X133082800Y-89343333D01*
X133082800Y-89343333D02*
X133035180Y-89438571D01*
X133035180Y-89438571D02*
X133035180Y-89629047D01*
X133035180Y-89629047D02*
X133082800Y-89724285D01*
X133082800Y-89724285D02*
X133130419Y-89771904D01*
X133130419Y-89771904D02*
X133225657Y-89819523D01*
X133225657Y-89819523D02*
X134035180Y-89819523D01*
X133082800Y-90248095D02*
X133035180Y-90390952D01*
X133035180Y-90390952D02*
X133035180Y-90629047D01*
X133035180Y-90629047D02*
X133082800Y-90724285D01*
X133082800Y-90724285D02*
X133130419Y-90771904D01*
X133130419Y-90771904D02*
X133225657Y-90819523D01*
X133225657Y-90819523D02*
X133320895Y-90819523D01*
X133320895Y-90819523D02*
X133416133Y-90771904D01*
X133416133Y-90771904D02*
X133463752Y-90724285D01*
X133463752Y-90724285D02*
X133511371Y-90629047D01*
X133511371Y-90629047D02*
X133558990Y-90438571D01*
X133558990Y-90438571D02*
X133606609Y-90343333D01*
X133606609Y-90343333D02*
X133654228Y-90295714D01*
X133654228Y-90295714D02*
X133749466Y-90248095D01*
X133749466Y-90248095D02*
X133844704Y-90248095D01*
X133844704Y-90248095D02*
X133939942Y-90295714D01*
X133939942Y-90295714D02*
X133987561Y-90343333D01*
X133987561Y-90343333D02*
X134035180Y-90438571D01*
X134035180Y-90438571D02*
X134035180Y-90676666D01*
X134035180Y-90676666D02*
X133987561Y-90819523D01*
X133558990Y-91581428D02*
X133511371Y-91724285D01*
X133511371Y-91724285D02*
X133463752Y-91771904D01*
X133463752Y-91771904D02*
X133368514Y-91819523D01*
X133368514Y-91819523D02*
X133225657Y-91819523D01*
X133225657Y-91819523D02*
X133130419Y-91771904D01*
X133130419Y-91771904D02*
X133082800Y-91724285D01*
X133082800Y-91724285D02*
X133035180Y-91629047D01*
X133035180Y-91629047D02*
X133035180Y-91248095D01*
X133035180Y-91248095D02*
X134035180Y-91248095D01*
X134035180Y-91248095D02*
X134035180Y-91581428D01*
X134035180Y-91581428D02*
X133987561Y-91676666D01*
X133987561Y-91676666D02*
X133939942Y-91724285D01*
X133939942Y-91724285D02*
X133844704Y-91771904D01*
X133844704Y-91771904D02*
X133749466Y-91771904D01*
X133749466Y-91771904D02*
X133654228Y-91724285D01*
X133654228Y-91724285D02*
X133606609Y-91676666D01*
X133606609Y-91676666D02*
X133558990Y-91581428D01*
X133558990Y-91581428D02*
X133558990Y-91248095D01*
X171083333Y-107459580D02*
X171035714Y-107507200D01*
X171035714Y-107507200D02*
X170892857Y-107554819D01*
X170892857Y-107554819D02*
X170797619Y-107554819D01*
X170797619Y-107554819D02*
X170654762Y-107507200D01*
X170654762Y-107507200D02*
X170559524Y-107411961D01*
X170559524Y-107411961D02*
X170511905Y-107316723D01*
X170511905Y-107316723D02*
X170464286Y-107126247D01*
X170464286Y-107126247D02*
X170464286Y-106983390D01*
X170464286Y-106983390D02*
X170511905Y-106792914D01*
X170511905Y-106792914D02*
X170559524Y-106697676D01*
X170559524Y-106697676D02*
X170654762Y-106602438D01*
X170654762Y-106602438D02*
X170797619Y-106554819D01*
X170797619Y-106554819D02*
X170892857Y-106554819D01*
X170892857Y-106554819D02*
X171035714Y-106602438D01*
X171035714Y-106602438D02*
X171083333Y-106650057D01*
X171988095Y-106554819D02*
X171511905Y-106554819D01*
X171511905Y-106554819D02*
X171464286Y-107031009D01*
X171464286Y-107031009D02*
X171511905Y-106983390D01*
X171511905Y-106983390D02*
X171607143Y-106935771D01*
X171607143Y-106935771D02*
X171845238Y-106935771D01*
X171845238Y-106935771D02*
X171940476Y-106983390D01*
X171940476Y-106983390D02*
X171988095Y-107031009D01*
X171988095Y-107031009D02*
X172035714Y-107126247D01*
X172035714Y-107126247D02*
X172035714Y-107364342D01*
X172035714Y-107364342D02*
X171988095Y-107459580D01*
X171988095Y-107459580D02*
X171940476Y-107507200D01*
X171940476Y-107507200D02*
X171845238Y-107554819D01*
X171845238Y-107554819D02*
X171607143Y-107554819D01*
X171607143Y-107554819D02*
X171511905Y-107507200D01*
X171511905Y-107507200D02*
X171464286Y-107459580D01*
X155333333Y-52859580D02*
X155285714Y-52907200D01*
X155285714Y-52907200D02*
X155142857Y-52954819D01*
X155142857Y-52954819D02*
X155047619Y-52954819D01*
X155047619Y-52954819D02*
X154904762Y-52907200D01*
X154904762Y-52907200D02*
X154809524Y-52811961D01*
X154809524Y-52811961D02*
X154761905Y-52716723D01*
X154761905Y-52716723D02*
X154714286Y-52526247D01*
X154714286Y-52526247D02*
X154714286Y-52383390D01*
X154714286Y-52383390D02*
X154761905Y-52192914D01*
X154761905Y-52192914D02*
X154809524Y-52097676D01*
X154809524Y-52097676D02*
X154904762Y-52002438D01*
X154904762Y-52002438D02*
X155047619Y-51954819D01*
X155047619Y-51954819D02*
X155142857Y-51954819D01*
X155142857Y-51954819D02*
X155285714Y-52002438D01*
X155285714Y-52002438D02*
X155333333Y-52050057D01*
X156190476Y-51954819D02*
X156000000Y-51954819D01*
X156000000Y-51954819D02*
X155904762Y-52002438D01*
X155904762Y-52002438D02*
X155857143Y-52050057D01*
X155857143Y-52050057D02*
X155761905Y-52192914D01*
X155761905Y-52192914D02*
X155714286Y-52383390D01*
X155714286Y-52383390D02*
X155714286Y-52764342D01*
X155714286Y-52764342D02*
X155761905Y-52859580D01*
X155761905Y-52859580D02*
X155809524Y-52907200D01*
X155809524Y-52907200D02*
X155904762Y-52954819D01*
X155904762Y-52954819D02*
X156095238Y-52954819D01*
X156095238Y-52954819D02*
X156190476Y-52907200D01*
X156190476Y-52907200D02*
X156238095Y-52859580D01*
X156238095Y-52859580D02*
X156285714Y-52764342D01*
X156285714Y-52764342D02*
X156285714Y-52526247D01*
X156285714Y-52526247D02*
X156238095Y-52431009D01*
X156238095Y-52431009D02*
X156190476Y-52383390D01*
X156190476Y-52383390D02*
X156095238Y-52335771D01*
X156095238Y-52335771D02*
X155904762Y-52335771D01*
X155904762Y-52335771D02*
X155809524Y-52383390D01*
X155809524Y-52383390D02*
X155761905Y-52431009D01*
X155761905Y-52431009D02*
X155714286Y-52526247D01*
X162261905Y-113454819D02*
X162261905Y-112454819D01*
X162261905Y-112454819D02*
X162500000Y-112454819D01*
X162500000Y-112454819D02*
X162642857Y-112502438D01*
X162642857Y-112502438D02*
X162738095Y-112597676D01*
X162738095Y-112597676D02*
X162785714Y-112692914D01*
X162785714Y-112692914D02*
X162833333Y-112883390D01*
X162833333Y-112883390D02*
X162833333Y-113026247D01*
X162833333Y-113026247D02*
X162785714Y-113216723D01*
X162785714Y-113216723D02*
X162738095Y-113311961D01*
X162738095Y-113311961D02*
X162642857Y-113407200D01*
X162642857Y-113407200D02*
X162500000Y-113454819D01*
X162500000Y-113454819D02*
X162261905Y-113454819D01*
X163785714Y-113454819D02*
X163214286Y-113454819D01*
X163500000Y-113454819D02*
X163500000Y-112454819D01*
X163500000Y-112454819D02*
X163404762Y-112597676D01*
X163404762Y-112597676D02*
X163309524Y-112692914D01*
X163309524Y-112692914D02*
X163214286Y-112740533D01*
X162738095Y-117454819D02*
X162738095Y-116454819D01*
X163309523Y-117454819D02*
X162880952Y-116883390D01*
X163309523Y-116454819D02*
X162738095Y-117026247D01*
X139356429Y-70534819D02*
X139356429Y-69534819D01*
X139785000Y-70249104D02*
X140261190Y-70249104D01*
X139689762Y-70534819D02*
X140023095Y-69534819D01*
X140023095Y-69534819D02*
X140356428Y-70534819D01*
X140689762Y-70534819D02*
X140689762Y-69534819D01*
X140689762Y-69534819D02*
X141261190Y-70534819D01*
X141261190Y-70534819D02*
X141261190Y-69534819D01*
X142261190Y-70534819D02*
X141689762Y-70534819D01*
X141975476Y-70534819D02*
X141975476Y-69534819D01*
X141975476Y-69534819D02*
X141880238Y-69677676D01*
X141880238Y-69677676D02*
X141785000Y-69772914D01*
X141785000Y-69772914D02*
X141689762Y-69820533D01*
X121900954Y-71459580D02*
X121853335Y-71507200D01*
X121853335Y-71507200D02*
X121710478Y-71554819D01*
X121710478Y-71554819D02*
X121615240Y-71554819D01*
X121615240Y-71554819D02*
X121472383Y-71507200D01*
X121472383Y-71507200D02*
X121377145Y-71411961D01*
X121377145Y-71411961D02*
X121329526Y-71316723D01*
X121329526Y-71316723D02*
X121281907Y-71126247D01*
X121281907Y-71126247D02*
X121281907Y-70983390D01*
X121281907Y-70983390D02*
X121329526Y-70792914D01*
X121329526Y-70792914D02*
X121377145Y-70697676D01*
X121377145Y-70697676D02*
X121472383Y-70602438D01*
X121472383Y-70602438D02*
X121615240Y-70554819D01*
X121615240Y-70554819D02*
X121710478Y-70554819D01*
X121710478Y-70554819D02*
X121853335Y-70602438D01*
X121853335Y-70602438D02*
X121900954Y-70650057D01*
X122758097Y-70888152D02*
X122758097Y-71554819D01*
X122520002Y-70507200D02*
X122281907Y-71221485D01*
X122281907Y-71221485D02*
X122900954Y-71221485D01*
X181116666Y-95204819D02*
X181116666Y-95919104D01*
X181116666Y-95919104D02*
X181069047Y-96061961D01*
X181069047Y-96061961D02*
X180973809Y-96157200D01*
X180973809Y-96157200D02*
X180830952Y-96204819D01*
X180830952Y-96204819D02*
X180735714Y-96204819D01*
X182069047Y-95204819D02*
X181592857Y-95204819D01*
X181592857Y-95204819D02*
X181545238Y-95681009D01*
X181545238Y-95681009D02*
X181592857Y-95633390D01*
X181592857Y-95633390D02*
X181688095Y-95585771D01*
X181688095Y-95585771D02*
X181926190Y-95585771D01*
X181926190Y-95585771D02*
X182021428Y-95633390D01*
X182021428Y-95633390D02*
X182069047Y-95681009D01*
X182069047Y-95681009D02*
X182116666Y-95776247D01*
X182116666Y-95776247D02*
X182116666Y-96014342D01*
X182116666Y-96014342D02*
X182069047Y-96109580D01*
X182069047Y-96109580D02*
X182021428Y-96157200D01*
X182021428Y-96157200D02*
X181926190Y-96204819D01*
X181926190Y-96204819D02*
X181688095Y-96204819D01*
X181688095Y-96204819D02*
X181592857Y-96157200D01*
X181592857Y-96157200D02*
X181545238Y-96109580D01*
X145166666Y-127954819D02*
X145166666Y-128669104D01*
X145166666Y-128669104D02*
X145119047Y-128811961D01*
X145119047Y-128811961D02*
X145023809Y-128907200D01*
X145023809Y-128907200D02*
X144880952Y-128954819D01*
X144880952Y-128954819D02*
X144785714Y-128954819D01*
X145547619Y-127954819D02*
X146166666Y-127954819D01*
X146166666Y-127954819D02*
X145833333Y-128335771D01*
X145833333Y-128335771D02*
X145976190Y-128335771D01*
X145976190Y-128335771D02*
X146071428Y-128383390D01*
X146071428Y-128383390D02*
X146119047Y-128431009D01*
X146119047Y-128431009D02*
X146166666Y-128526247D01*
X146166666Y-128526247D02*
X146166666Y-128764342D01*
X146166666Y-128764342D02*
X146119047Y-128859580D01*
X146119047Y-128859580D02*
X146071428Y-128907200D01*
X146071428Y-128907200D02*
X145976190Y-128954819D01*
X145976190Y-128954819D02*
X145690476Y-128954819D01*
X145690476Y-128954819D02*
X145595238Y-128907200D01*
X145595238Y-128907200D02*
X145547619Y-128859580D01*
X170833333Y-100859580D02*
X170785714Y-100907200D01*
X170785714Y-100907200D02*
X170642857Y-100954819D01*
X170642857Y-100954819D02*
X170547619Y-100954819D01*
X170547619Y-100954819D02*
X170404762Y-100907200D01*
X170404762Y-100907200D02*
X170309524Y-100811961D01*
X170309524Y-100811961D02*
X170261905Y-100716723D01*
X170261905Y-100716723D02*
X170214286Y-100526247D01*
X170214286Y-100526247D02*
X170214286Y-100383390D01*
X170214286Y-100383390D02*
X170261905Y-100192914D01*
X170261905Y-100192914D02*
X170309524Y-100097676D01*
X170309524Y-100097676D02*
X170404762Y-100002438D01*
X170404762Y-100002438D02*
X170547619Y-99954819D01*
X170547619Y-99954819D02*
X170642857Y-99954819D01*
X170642857Y-99954819D02*
X170785714Y-100002438D01*
X170785714Y-100002438D02*
X170833333Y-100050057D01*
X171166667Y-99954819D02*
X171785714Y-99954819D01*
X171785714Y-99954819D02*
X171452381Y-100335771D01*
X171452381Y-100335771D02*
X171595238Y-100335771D01*
X171595238Y-100335771D02*
X171690476Y-100383390D01*
X171690476Y-100383390D02*
X171738095Y-100431009D01*
X171738095Y-100431009D02*
X171785714Y-100526247D01*
X171785714Y-100526247D02*
X171785714Y-100764342D01*
X171785714Y-100764342D02*
X171738095Y-100859580D01*
X171738095Y-100859580D02*
X171690476Y-100907200D01*
X171690476Y-100907200D02*
X171595238Y-100954819D01*
X171595238Y-100954819D02*
X171309524Y-100954819D01*
X171309524Y-100954819D02*
X171214286Y-100907200D01*
X171214286Y-100907200D02*
X171166667Y-100859580D01*
X130083333Y-125259580D02*
X130035714Y-125307200D01*
X130035714Y-125307200D02*
X129892857Y-125354819D01*
X129892857Y-125354819D02*
X129797619Y-125354819D01*
X129797619Y-125354819D02*
X129654762Y-125307200D01*
X129654762Y-125307200D02*
X129559524Y-125211961D01*
X129559524Y-125211961D02*
X129511905Y-125116723D01*
X129511905Y-125116723D02*
X129464286Y-124926247D01*
X129464286Y-124926247D02*
X129464286Y-124783390D01*
X129464286Y-124783390D02*
X129511905Y-124592914D01*
X129511905Y-124592914D02*
X129559524Y-124497676D01*
X129559524Y-124497676D02*
X129654762Y-124402438D01*
X129654762Y-124402438D02*
X129797619Y-124354819D01*
X129797619Y-124354819D02*
X129892857Y-124354819D01*
X129892857Y-124354819D02*
X130035714Y-124402438D01*
X130035714Y-124402438D02*
X130083333Y-124450057D01*
X131035714Y-125354819D02*
X130464286Y-125354819D01*
X130750000Y-125354819D02*
X130750000Y-124354819D01*
X130750000Y-124354819D02*
X130654762Y-124497676D01*
X130654762Y-124497676D02*
X130559524Y-124592914D01*
X130559524Y-124592914D02*
X130464286Y-124640533D01*
X134191666Y-111954819D02*
X134191666Y-112669104D01*
X134191666Y-112669104D02*
X134144047Y-112811961D01*
X134144047Y-112811961D02*
X134048809Y-112907200D01*
X134048809Y-112907200D02*
X133905952Y-112954819D01*
X133905952Y-112954819D02*
X133810714Y-112954819D01*
X135191666Y-112954819D02*
X134620238Y-112954819D01*
X134905952Y-112954819D02*
X134905952Y-111954819D01*
X134905952Y-111954819D02*
X134810714Y-112097676D01*
X134810714Y-112097676D02*
X134715476Y-112192914D01*
X134715476Y-112192914D02*
X134620238Y-112240533D01*
X182216666Y-110204819D02*
X182216666Y-110919104D01*
X182216666Y-110919104D02*
X182169047Y-111061961D01*
X182169047Y-111061961D02*
X182073809Y-111157200D01*
X182073809Y-111157200D02*
X181930952Y-111204819D01*
X181930952Y-111204819D02*
X181835714Y-111204819D01*
X183121428Y-110538152D02*
X183121428Y-111204819D01*
X182883333Y-110157200D02*
X182645238Y-110871485D01*
X182645238Y-110871485D02*
X183264285Y-110871485D01*
D14*
%TO.C,IAN2*%
X136300000Y-104380000D02*
X136300000Y-119620000D01*
X138840000Y-122160000D02*
X159160000Y-122160000D01*
X159160000Y-101840000D02*
X138840000Y-101840000D01*
X161700000Y-119620000D02*
X161700000Y-104380000D01*
X136300000Y-104380000D02*
G75*
G02*
X138840000Y-101840000I2540000J0D01*
G01*
X138840000Y-122160000D02*
G75*
G02*
X136300000Y-119620000I0J2540000D01*
G01*
X159160000Y-101840000D02*
G75*
G02*
X161700000Y-104380000I-1J-2540001D01*
G01*
X161700000Y-119620000D02*
G75*
G02*
X159160000Y-122160000I-2540001J1D01*
G01*
D15*
X154900000Y-101160000D02*
G75*
G02*
X154700000Y-101160000I-100000J0D01*
G01*
X154700000Y-101160000D02*
G75*
G02*
X154900000Y-101160000I100000J0D01*
G01*
D16*
%TO.C,J6*%
X156940000Y-54490000D02*
X156940000Y-60460000D01*
X156940000Y-60460000D02*
X179560000Y-60460000D01*
X156950000Y-58200000D02*
X157700000Y-58200000D01*
X156950000Y-59700000D02*
X156950000Y-60450000D01*
X156950000Y-60450000D02*
X158750000Y-60450000D01*
X157700000Y-55250000D02*
X168250000Y-55250000D01*
X157700000Y-58200000D02*
X157700000Y-55250000D01*
X158750000Y-59700000D02*
X156950000Y-59700000D01*
X158750000Y-60450000D02*
X158750000Y-59700000D01*
X160250000Y-59700000D02*
X160250000Y-60450000D01*
X160250000Y-60450000D02*
X176250000Y-60450000D01*
X176250000Y-59700000D02*
X160250000Y-59700000D01*
X176250000Y-60450000D02*
X176250000Y-59700000D01*
X177750000Y-59700000D02*
X177750000Y-60450000D01*
X177750000Y-60450000D02*
X179550000Y-60450000D01*
X178600000Y-60750000D02*
X179850000Y-60750000D01*
X178800000Y-55250000D02*
X168250000Y-55250000D01*
X178800000Y-58200000D02*
X178800000Y-55250000D01*
X179550000Y-58200000D02*
X178800000Y-58200000D01*
X179550000Y-59700000D02*
X177750000Y-59700000D01*
X179550000Y-60450000D02*
X179550000Y-59700000D01*
X179560000Y-54490000D02*
X156940000Y-54490000D01*
X179560000Y-60460000D02*
X179560000Y-54490000D01*
X179850000Y-60750000D02*
X179850000Y-59500000D01*
%TO.C,J2*%
X136725000Y-52190000D02*
X136725000Y-58160000D01*
X136725000Y-58160000D02*
X144345000Y-58160000D01*
X136735000Y-55900000D02*
X137485000Y-55900000D01*
X136735000Y-57400000D02*
X136735000Y-58150000D01*
X136735000Y-58150000D02*
X138535000Y-58150000D01*
X137485000Y-52950000D02*
X140535000Y-52950000D01*
X137485000Y-55900000D02*
X137485000Y-52950000D01*
X138535000Y-57400000D02*
X136735000Y-57400000D01*
X138535000Y-58150000D02*
X138535000Y-57400000D01*
X140035000Y-57400000D02*
X140035000Y-58150000D01*
X140035000Y-58150000D02*
X141035000Y-58150000D01*
X141035000Y-57400000D02*
X140035000Y-57400000D01*
X141035000Y-58150000D02*
X141035000Y-57400000D01*
X142535000Y-57400000D02*
X142535000Y-58150000D01*
X142535000Y-58150000D02*
X144335000Y-58150000D01*
X143385000Y-58450000D02*
X144635000Y-58450000D01*
X143585000Y-52950000D02*
X140535000Y-52950000D01*
X143585000Y-55900000D02*
X143585000Y-52950000D01*
X144335000Y-55900000D02*
X143585000Y-55900000D01*
X144335000Y-57400000D02*
X142535000Y-57400000D01*
X144335000Y-58150000D02*
X144335000Y-57400000D01*
X144345000Y-52190000D02*
X136725000Y-52190000D01*
X144345000Y-58160000D02*
X144345000Y-52190000D01*
X144635000Y-58450000D02*
X144635000Y-57200000D01*
%TO.C,C2*%
X119880000Y-65630000D02*
X125120000Y-65630000D01*
X119880000Y-65967000D02*
X119880000Y-65630000D01*
X119880000Y-68370000D02*
X119880000Y-68033000D01*
X125120000Y-65630000D02*
X125120000Y-65967000D01*
X125120000Y-68033000D02*
X125120000Y-68370000D01*
X125120000Y-68370000D02*
X119880000Y-68370000D01*
%TO.C,A1*%
X127010000Y-86570000D02*
X137430000Y-86570000D01*
X127010000Y-94450000D02*
X127010000Y-86570000D01*
X129550000Y-81490000D02*
X129550000Y-86570000D01*
X129550000Y-99530000D02*
X129550000Y-94450000D01*
X129550000Y-99530000D02*
X172990000Y-99530000D01*
X132220000Y-84160000D02*
X132220000Y-81490000D01*
X132220000Y-96860000D02*
X132220000Y-99530000D01*
X137430000Y-86570000D02*
X137430000Y-94450000D01*
X137430000Y-94450000D02*
X127010000Y-94450000D01*
X167780000Y-81490000D02*
X129550000Y-81490000D01*
X167780000Y-84160000D02*
X132220000Y-84160000D01*
X167780000Y-84160000D02*
X167780000Y-81490000D01*
X167780000Y-84160000D02*
X170320000Y-84160000D01*
X170320000Y-84160000D02*
X170320000Y-81490000D01*
X170320000Y-96860000D02*
X132220000Y-96860000D01*
X170320000Y-96860000D02*
X170320000Y-99530000D01*
X172990000Y-81490000D02*
X170320000Y-81490000D01*
X172990000Y-99530000D02*
X172990000Y-81490000D01*
%TO.C,C5*%
X167749759Y-109661000D02*
X168379759Y-109661000D01*
X168064759Y-109346000D02*
X168064759Y-109976000D01*
X171250000Y-108270000D02*
X171250000Y-114730000D01*
X171290000Y-108270000D02*
X171290000Y-114730000D01*
X171330000Y-108271000D02*
X171330000Y-114729000D01*
X171370000Y-108272000D02*
X171370000Y-114728000D01*
X171410000Y-108274000D02*
X171410000Y-114726000D01*
X171450000Y-108276000D02*
X171450000Y-114724000D01*
X171490000Y-108279000D02*
X171490000Y-110460000D01*
X171490000Y-112540000D02*
X171490000Y-114721000D01*
X171530000Y-108282000D02*
X171530000Y-110460000D01*
X171530000Y-112540000D02*
X171530000Y-114718000D01*
X171570000Y-108286000D02*
X171570000Y-110460000D01*
X171570000Y-112540000D02*
X171570000Y-114714000D01*
X171610000Y-108290000D02*
X171610000Y-110460000D01*
X171610000Y-112540000D02*
X171610000Y-114710000D01*
X171650000Y-108295000D02*
X171650000Y-110460000D01*
X171650000Y-112540000D02*
X171650000Y-114705000D01*
X171690000Y-108300000D02*
X171690000Y-110460000D01*
X171690000Y-112540000D02*
X171690000Y-114700000D01*
X171730000Y-108305000D02*
X171730000Y-110460000D01*
X171730000Y-112540000D02*
X171730000Y-114695000D01*
X171770000Y-108312000D02*
X171770000Y-110460000D01*
X171770000Y-112540000D02*
X171770000Y-114688000D01*
X171810000Y-108318000D02*
X171810000Y-110460000D01*
X171810000Y-112540000D02*
X171810000Y-114682000D01*
X171850000Y-108326000D02*
X171850000Y-110460000D01*
X171850000Y-112540000D02*
X171850000Y-114674000D01*
X171890000Y-108333000D02*
X171890000Y-110460000D01*
X171890000Y-112540000D02*
X171890000Y-114667000D01*
X171930000Y-108341000D02*
X171930000Y-110460000D01*
X171930000Y-112540000D02*
X171930000Y-114659000D01*
X171970000Y-108350000D02*
X171970000Y-110460000D01*
X171970000Y-112540000D02*
X171970000Y-114650000D01*
X172010000Y-108360000D02*
X172010000Y-110460000D01*
X172010000Y-112540000D02*
X172010000Y-114640000D01*
X172050000Y-108369000D02*
X172050000Y-110460000D01*
X172050000Y-112540000D02*
X172050000Y-114631000D01*
X172090000Y-108380000D02*
X172090000Y-110460000D01*
X172090000Y-112540000D02*
X172090000Y-114620000D01*
X172130000Y-108391000D02*
X172130000Y-110460000D01*
X172130000Y-112540000D02*
X172130000Y-114609000D01*
X172170000Y-108402000D02*
X172170000Y-110460000D01*
X172170000Y-112540000D02*
X172170000Y-114598000D01*
X172210000Y-108414000D02*
X172210000Y-110460000D01*
X172210000Y-112540000D02*
X172210000Y-114586000D01*
X172250000Y-108427000D02*
X172250000Y-110460000D01*
X172250000Y-112540000D02*
X172250000Y-114573000D01*
X172290000Y-108440000D02*
X172290000Y-110460000D01*
X172290000Y-112540000D02*
X172290000Y-114560000D01*
X172330000Y-108453000D02*
X172330000Y-110460000D01*
X172330000Y-112540000D02*
X172330000Y-114547000D01*
X172370000Y-108468000D02*
X172370000Y-110460000D01*
X172370000Y-112540000D02*
X172370000Y-114532000D01*
X172410000Y-108483000D02*
X172410000Y-110460000D01*
X172410000Y-112540000D02*
X172410000Y-114517000D01*
X172450000Y-108498000D02*
X172450000Y-110460000D01*
X172450000Y-112540000D02*
X172450000Y-114502000D01*
X172490000Y-108514000D02*
X172490000Y-110460000D01*
X172490000Y-112540000D02*
X172490000Y-114486000D01*
X172530000Y-108531000D02*
X172530000Y-110460000D01*
X172530000Y-112540000D02*
X172530000Y-114469000D01*
X172570000Y-108548000D02*
X172570000Y-110460000D01*
X172570000Y-112540000D02*
X172570000Y-114452000D01*
X172610000Y-108566000D02*
X172610000Y-110460000D01*
X172610000Y-112540000D02*
X172610000Y-114434000D01*
X172650000Y-108585000D02*
X172650000Y-110460000D01*
X172650000Y-112540000D02*
X172650000Y-114415000D01*
X172690000Y-108604000D02*
X172690000Y-110460000D01*
X172690000Y-112540000D02*
X172690000Y-114396000D01*
X172730000Y-108624000D02*
X172730000Y-110460000D01*
X172730000Y-112540000D02*
X172730000Y-114376000D01*
X172770000Y-108645000D02*
X172770000Y-110460000D01*
X172770000Y-112540000D02*
X172770000Y-114355000D01*
X172810000Y-108666000D02*
X172810000Y-110460000D01*
X172810000Y-112540000D02*
X172810000Y-114334000D01*
X172850000Y-108688000D02*
X172850000Y-110460000D01*
X172850000Y-112540000D02*
X172850000Y-114312000D01*
X172890000Y-108711000D02*
X172890000Y-110460000D01*
X172890000Y-112540000D02*
X172890000Y-114289000D01*
X172930000Y-108735000D02*
X172930000Y-110460000D01*
X172930000Y-112540000D02*
X172930000Y-114265000D01*
X172970000Y-108759000D02*
X172970000Y-110460000D01*
X172970000Y-112540000D02*
X172970000Y-114241000D01*
X173010000Y-108784000D02*
X173010000Y-110460000D01*
X173010000Y-112540000D02*
X173010000Y-114216000D01*
X173050000Y-108810000D02*
X173050000Y-110460000D01*
X173050000Y-112540000D02*
X173050000Y-114190000D01*
X173090000Y-108837000D02*
X173090000Y-110460000D01*
X173090000Y-112540000D02*
X173090000Y-114163000D01*
X173130000Y-108864000D02*
X173130000Y-110460000D01*
X173130000Y-112540000D02*
X173130000Y-114136000D01*
X173170000Y-108893000D02*
X173170000Y-110460000D01*
X173170000Y-112540000D02*
X173170000Y-114107000D01*
X173210000Y-108923000D02*
X173210000Y-110460000D01*
X173210000Y-112540000D02*
X173210000Y-114077000D01*
X173250000Y-108953000D02*
X173250000Y-110460000D01*
X173250000Y-112540000D02*
X173250000Y-114047000D01*
X173290000Y-108984000D02*
X173290000Y-110460000D01*
X173290000Y-112540000D02*
X173290000Y-114016000D01*
X173330000Y-109017000D02*
X173330000Y-110460000D01*
X173330000Y-112540000D02*
X173330000Y-113983000D01*
X173370000Y-109050000D02*
X173370000Y-110460000D01*
X173370000Y-112540000D02*
X173370000Y-113950000D01*
X173410000Y-109085000D02*
X173410000Y-110460000D01*
X173410000Y-112540000D02*
X173410000Y-113915000D01*
X173450000Y-109121000D02*
X173450000Y-110460000D01*
X173450000Y-112540000D02*
X173450000Y-113879000D01*
X173490000Y-109158000D02*
X173490000Y-110460000D01*
X173490000Y-112540000D02*
X173490000Y-113842000D01*
X173530000Y-109196000D02*
X173530000Y-110460000D01*
X173530000Y-112540000D02*
X173530000Y-113804000D01*
X173570000Y-109236000D02*
X173570000Y-113764000D01*
X173610000Y-109277000D02*
X173610000Y-113723000D01*
X173650000Y-109319000D02*
X173650000Y-113681000D01*
X173690000Y-109363000D02*
X173690000Y-113637000D01*
X173730000Y-109409000D02*
X173730000Y-113591000D01*
X173770000Y-109456000D02*
X173770000Y-113544000D01*
X173810000Y-109505000D02*
X173810000Y-113495000D01*
X173850000Y-109557000D02*
X173850000Y-113443000D01*
X173890000Y-109610000D02*
X173890000Y-113390000D01*
X173930000Y-109666000D02*
X173930000Y-113334000D01*
X173970000Y-109725000D02*
X173970000Y-113275000D01*
X174010000Y-109786000D02*
X174010000Y-113214000D01*
X174050000Y-109851000D02*
X174050000Y-113149000D01*
X174090000Y-109919000D02*
X174090000Y-113081000D01*
X174130000Y-109991000D02*
X174130000Y-113009000D01*
X174170000Y-110068000D02*
X174170000Y-112932000D01*
X174210000Y-110150000D02*
X174210000Y-112850000D01*
X174250000Y-110239000D02*
X174250000Y-112761000D01*
X174290000Y-110335000D02*
X174290000Y-112665000D01*
X174330000Y-110442000D02*
X174330000Y-112558000D01*
X174370000Y-110561000D02*
X174370000Y-112439000D01*
X174410000Y-110699000D02*
X174410000Y-112301000D01*
X174450000Y-110867000D02*
X174450000Y-112133000D01*
X174490000Y-111098000D02*
X174490000Y-111902000D01*
X174520000Y-111500000D02*
G75*
G02*
X167980000Y-111500000I-3270000J0D01*
G01*
X167980000Y-111500000D02*
G75*
G02*
X174520000Y-111500000I3270000J0D01*
G01*
%TO.C,C6*%
X150960000Y-55990000D02*
X148779000Y-55990000D01*
X150960000Y-56030000D02*
X148782000Y-56030000D01*
X150960000Y-56070000D02*
X148786000Y-56070000D01*
X150960000Y-56110000D02*
X148790000Y-56110000D01*
X150960000Y-56150000D02*
X148795000Y-56150000D01*
X150960000Y-56190000D02*
X148800000Y-56190000D01*
X150960000Y-56230000D02*
X148805000Y-56230000D01*
X150960000Y-56270000D02*
X148812000Y-56270000D01*
X150960000Y-56310000D02*
X148818000Y-56310000D01*
X150960000Y-56350000D02*
X148826000Y-56350000D01*
X150960000Y-56390000D02*
X148833000Y-56390000D01*
X150960000Y-56430000D02*
X148841000Y-56430000D01*
X150960000Y-56470000D02*
X148850000Y-56470000D01*
X150960000Y-56510000D02*
X148860000Y-56510000D01*
X150960000Y-56550000D02*
X148869000Y-56550000D01*
X150960000Y-56590000D02*
X148880000Y-56590000D01*
X150960000Y-56630000D02*
X148891000Y-56630000D01*
X150960000Y-56670000D02*
X148902000Y-56670000D01*
X150960000Y-56710000D02*
X148914000Y-56710000D01*
X150960000Y-56750000D02*
X148927000Y-56750000D01*
X150960000Y-56790000D02*
X148940000Y-56790000D01*
X150960000Y-56830000D02*
X148953000Y-56830000D01*
X150960000Y-56870000D02*
X148968000Y-56870000D01*
X150960000Y-56910000D02*
X148983000Y-56910000D01*
X150960000Y-56950000D02*
X148998000Y-56950000D01*
X150960000Y-56990000D02*
X149014000Y-56990000D01*
X150960000Y-57030000D02*
X149031000Y-57030000D01*
X150960000Y-57070000D02*
X149048000Y-57070000D01*
X150960000Y-57110000D02*
X149066000Y-57110000D01*
X150960000Y-57150000D02*
X149085000Y-57150000D01*
X150960000Y-57190000D02*
X149104000Y-57190000D01*
X150960000Y-57230000D02*
X149124000Y-57230000D01*
X150960000Y-57270000D02*
X149145000Y-57270000D01*
X150960000Y-57310000D02*
X149166000Y-57310000D01*
X150960000Y-57350000D02*
X149188000Y-57350000D01*
X150960000Y-57390000D02*
X149211000Y-57390000D01*
X150960000Y-57430000D02*
X149235000Y-57430000D01*
X150960000Y-57470000D02*
X149259000Y-57470000D01*
X150960000Y-57510000D02*
X149284000Y-57510000D01*
X150960000Y-57550000D02*
X149310000Y-57550000D01*
X150960000Y-57590000D02*
X149337000Y-57590000D01*
X150960000Y-57630000D02*
X149364000Y-57630000D01*
X150960000Y-57670000D02*
X149393000Y-57670000D01*
X150960000Y-57710000D02*
X149423000Y-57710000D01*
X150960000Y-57750000D02*
X149453000Y-57750000D01*
X150960000Y-57790000D02*
X149484000Y-57790000D01*
X150960000Y-57830000D02*
X149517000Y-57830000D01*
X150960000Y-57870000D02*
X149550000Y-57870000D01*
X150960000Y-57910000D02*
X149585000Y-57910000D01*
X150960000Y-57950000D02*
X149621000Y-57950000D01*
X150960000Y-57990000D02*
X149658000Y-57990000D01*
X150960000Y-58030000D02*
X149696000Y-58030000D01*
X152402000Y-58990000D02*
X151598000Y-58990000D01*
X152633000Y-58950000D02*
X151367000Y-58950000D01*
X152801000Y-58910000D02*
X151199000Y-58910000D01*
X152939000Y-58870000D02*
X151061000Y-58870000D01*
X153058000Y-58830000D02*
X150942000Y-58830000D01*
X153165000Y-58790000D02*
X150835000Y-58790000D01*
X153261000Y-58750000D02*
X150739000Y-58750000D01*
X153350000Y-58710000D02*
X150650000Y-58710000D01*
X153432000Y-58670000D02*
X150568000Y-58670000D01*
X153509000Y-58630000D02*
X150491000Y-58630000D01*
X153581000Y-58590000D02*
X150419000Y-58590000D01*
X153649000Y-58550000D02*
X150351000Y-58550000D01*
X153714000Y-58510000D02*
X150286000Y-58510000D01*
X153775000Y-58470000D02*
X150225000Y-58470000D01*
X153834000Y-58430000D02*
X150166000Y-58430000D01*
X153839000Y-52249759D02*
X153839000Y-52879759D01*
X153890000Y-58390000D02*
X150110000Y-58390000D01*
X153943000Y-58350000D02*
X150057000Y-58350000D01*
X153995000Y-58310000D02*
X150005000Y-58310000D01*
X154044000Y-58270000D02*
X149956000Y-58270000D01*
X154091000Y-58230000D02*
X149909000Y-58230000D01*
X154137000Y-58190000D02*
X149863000Y-58190000D01*
X154154000Y-52564759D02*
X153524000Y-52564759D01*
X154181000Y-58150000D02*
X149819000Y-58150000D01*
X154223000Y-58110000D02*
X149777000Y-58110000D01*
X154264000Y-58070000D02*
X149736000Y-58070000D01*
X154304000Y-58030000D02*
X153040000Y-58030000D01*
X154342000Y-57990000D02*
X153040000Y-57990000D01*
X154379000Y-57950000D02*
X153040000Y-57950000D01*
X154415000Y-57910000D02*
X153040000Y-57910000D01*
X154450000Y-57870000D02*
X153040000Y-57870000D01*
X154483000Y-57830000D02*
X153040000Y-57830000D01*
X154516000Y-57790000D02*
X153040000Y-57790000D01*
X154547000Y-57750000D02*
X153040000Y-57750000D01*
X154577000Y-57710000D02*
X153040000Y-57710000D01*
X154607000Y-57670000D02*
X153040000Y-57670000D01*
X154636000Y-57630000D02*
X153040000Y-57630000D01*
X154663000Y-57590000D02*
X153040000Y-57590000D01*
X154690000Y-57550000D02*
X153040000Y-57550000D01*
X154716000Y-57510000D02*
X153040000Y-57510000D01*
X154741000Y-57470000D02*
X153040000Y-57470000D01*
X154765000Y-57430000D02*
X153040000Y-57430000D01*
X154789000Y-57390000D02*
X153040000Y-57390000D01*
X154812000Y-57350000D02*
X153040000Y-57350000D01*
X154834000Y-57310000D02*
X153040000Y-57310000D01*
X154855000Y-57270000D02*
X153040000Y-57270000D01*
X154876000Y-57230000D02*
X153040000Y-57230000D01*
X154896000Y-57190000D02*
X153040000Y-57190000D01*
X154915000Y-57150000D02*
X153040000Y-57150000D01*
X154934000Y-57110000D02*
X153040000Y-57110000D01*
X154952000Y-57070000D02*
X153040000Y-57070000D01*
X154969000Y-57030000D02*
X153040000Y-57030000D01*
X154986000Y-56990000D02*
X153040000Y-56990000D01*
X155002000Y-56950000D02*
X153040000Y-56950000D01*
X155017000Y-56910000D02*
X153040000Y-56910000D01*
X155032000Y-56870000D02*
X153040000Y-56870000D01*
X155047000Y-56830000D02*
X153040000Y-56830000D01*
X155060000Y-56790000D02*
X153040000Y-56790000D01*
X155073000Y-56750000D02*
X153040000Y-56750000D01*
X155086000Y-56710000D02*
X153040000Y-56710000D01*
X155098000Y-56670000D02*
X153040000Y-56670000D01*
X155109000Y-56630000D02*
X153040000Y-56630000D01*
X155120000Y-56590000D02*
X153040000Y-56590000D01*
X155131000Y-56550000D02*
X153040000Y-56550000D01*
X155140000Y-56510000D02*
X153040000Y-56510000D01*
X155150000Y-56470000D02*
X153040000Y-56470000D01*
X155159000Y-56430000D02*
X153040000Y-56430000D01*
X155167000Y-56390000D02*
X153040000Y-56390000D01*
X155174000Y-56350000D02*
X153040000Y-56350000D01*
X155182000Y-56310000D02*
X153040000Y-56310000D01*
X155188000Y-56270000D02*
X153040000Y-56270000D01*
X155195000Y-56230000D02*
X153040000Y-56230000D01*
X155200000Y-56190000D02*
X153040000Y-56190000D01*
X155205000Y-56150000D02*
X153040000Y-56150000D01*
X155210000Y-56110000D02*
X153040000Y-56110000D01*
X155214000Y-56070000D02*
X153040000Y-56070000D01*
X155218000Y-56030000D02*
X153040000Y-56030000D01*
X155221000Y-55990000D02*
X153040000Y-55990000D01*
X155224000Y-55950000D02*
X148776000Y-55950000D01*
X155226000Y-55910000D02*
X148774000Y-55910000D01*
X155228000Y-55870000D02*
X148772000Y-55870000D01*
X155229000Y-55830000D02*
X148771000Y-55830000D01*
X155230000Y-55750000D02*
X148770000Y-55750000D01*
X155230000Y-55790000D02*
X148770000Y-55790000D01*
X155270000Y-55750000D02*
G75*
G02*
X148730000Y-55750000I-3270000J0D01*
G01*
X148730000Y-55750000D02*
G75*
G02*
X155270000Y-55750000I3270000J0D01*
G01*
%TO.C,D1*%
X164030000Y-113700000D02*
X166970000Y-113700000D01*
X164030000Y-113820000D02*
X166970000Y-113820000D01*
X164030000Y-113940000D02*
X166970000Y-113940000D01*
X165500000Y-108260000D02*
X165500000Y-109280000D01*
X165500000Y-115740000D02*
X165500000Y-114720000D01*
X164030000Y-114720000D02*
X166970000Y-114720000D01*
X166970000Y-109280000D01*
X164030000Y-109280000D01*
X164030000Y-114720000D01*
D14*
%TO.C,IAN1*%
X128085000Y-62460000D02*
X128085000Y-77700000D01*
X130625000Y-80240000D02*
X150945000Y-80240000D01*
X150945000Y-59920000D02*
X130625000Y-59920000D01*
X153485000Y-77700000D02*
X153485000Y-62460000D01*
X128085000Y-62460000D02*
G75*
G02*
X130625000Y-59920000I2540001J-1D01*
G01*
X130625000Y-80240000D02*
G75*
G02*
X128085000Y-77700000I1J2540001D01*
G01*
X150945000Y-59920000D02*
G75*
G02*
X153485000Y-62460000I0J-2540000D01*
G01*
X153485000Y-77700000D02*
G75*
G02*
X150945000Y-80240000I-2540000J0D01*
G01*
D15*
X135085000Y-80920000D02*
G75*
G02*
X134885000Y-80920000I-100000J0D01*
G01*
X134885000Y-80920000D02*
G75*
G02*
X135085000Y-80920000I100000J0D01*
G01*
D16*
%TO.C,C4*%
X118567380Y-73661000D02*
X119197380Y-73661000D01*
X118882380Y-73346000D02*
X118882380Y-73976000D01*
X122067621Y-72270000D02*
X122067621Y-78730000D01*
X122107621Y-72270000D02*
X122107621Y-78730000D01*
X122147621Y-72271000D02*
X122147621Y-78729000D01*
X122187621Y-72272000D02*
X122187621Y-78728000D01*
X122227621Y-72274000D02*
X122227621Y-78726000D01*
X122267621Y-72276000D02*
X122267621Y-78724000D01*
X122307621Y-72279000D02*
X122307621Y-74460000D01*
X122307621Y-76540000D02*
X122307621Y-78721000D01*
X122347621Y-72282000D02*
X122347621Y-74460000D01*
X122347621Y-76540000D02*
X122347621Y-78718000D01*
X122387621Y-72286000D02*
X122387621Y-74460000D01*
X122387621Y-76540000D02*
X122387621Y-78714000D01*
X122427621Y-72290000D02*
X122427621Y-74460000D01*
X122427621Y-76540000D02*
X122427621Y-78710000D01*
X122467621Y-72295000D02*
X122467621Y-74460000D01*
X122467621Y-76540000D02*
X122467621Y-78705000D01*
X122507621Y-72300000D02*
X122507621Y-74460000D01*
X122507621Y-76540000D02*
X122507621Y-78700000D01*
X122547621Y-72305000D02*
X122547621Y-74460000D01*
X122547621Y-76540000D02*
X122547621Y-78695000D01*
X122587621Y-72312000D02*
X122587621Y-74460000D01*
X122587621Y-76540000D02*
X122587621Y-78688000D01*
X122627621Y-72318000D02*
X122627621Y-74460000D01*
X122627621Y-76540000D02*
X122627621Y-78682000D01*
X122667621Y-72326000D02*
X122667621Y-74460000D01*
X122667621Y-76540000D02*
X122667621Y-78674000D01*
X122707621Y-72333000D02*
X122707621Y-74460000D01*
X122707621Y-76540000D02*
X122707621Y-78667000D01*
X122747621Y-72341000D02*
X122747621Y-74460000D01*
X122747621Y-76540000D02*
X122747621Y-78659000D01*
X122787621Y-72350000D02*
X122787621Y-74460000D01*
X122787621Y-76540000D02*
X122787621Y-78650000D01*
X122827621Y-72360000D02*
X122827621Y-74460000D01*
X122827621Y-76540000D02*
X122827621Y-78640000D01*
X122867621Y-72369000D02*
X122867621Y-74460000D01*
X122867621Y-76540000D02*
X122867621Y-78631000D01*
X122907621Y-72380000D02*
X122907621Y-74460000D01*
X122907621Y-76540000D02*
X122907621Y-78620000D01*
X122947621Y-72391000D02*
X122947621Y-74460000D01*
X122947621Y-76540000D02*
X122947621Y-78609000D01*
X122987621Y-72402000D02*
X122987621Y-74460000D01*
X122987621Y-76540000D02*
X122987621Y-78598000D01*
X123027621Y-72414000D02*
X123027621Y-74460000D01*
X123027621Y-76540000D02*
X123027621Y-78586000D01*
X123067621Y-72427000D02*
X123067621Y-74460000D01*
X123067621Y-76540000D02*
X123067621Y-78573000D01*
X123107621Y-72440000D02*
X123107621Y-74460000D01*
X123107621Y-76540000D02*
X123107621Y-78560000D01*
X123147621Y-72453000D02*
X123147621Y-74460000D01*
X123147621Y-76540000D02*
X123147621Y-78547000D01*
X123187621Y-72468000D02*
X123187621Y-74460000D01*
X123187621Y-76540000D02*
X123187621Y-78532000D01*
X123227621Y-72483000D02*
X123227621Y-74460000D01*
X123227621Y-76540000D02*
X123227621Y-78517000D01*
X123267621Y-72498000D02*
X123267621Y-74460000D01*
X123267621Y-76540000D02*
X123267621Y-78502000D01*
X123307621Y-72514000D02*
X123307621Y-74460000D01*
X123307621Y-76540000D02*
X123307621Y-78486000D01*
X123347621Y-72531000D02*
X123347621Y-74460000D01*
X123347621Y-76540000D02*
X123347621Y-78469000D01*
X123387621Y-72548000D02*
X123387621Y-74460000D01*
X123387621Y-76540000D02*
X123387621Y-78452000D01*
X123427621Y-72566000D02*
X123427621Y-74460000D01*
X123427621Y-76540000D02*
X123427621Y-78434000D01*
X123467621Y-72585000D02*
X123467621Y-74460000D01*
X123467621Y-76540000D02*
X123467621Y-78415000D01*
X123507621Y-72604000D02*
X123507621Y-74460000D01*
X123507621Y-76540000D02*
X123507621Y-78396000D01*
X123547621Y-72624000D02*
X123547621Y-74460000D01*
X123547621Y-76540000D02*
X123547621Y-78376000D01*
X123587621Y-72645000D02*
X123587621Y-74460000D01*
X123587621Y-76540000D02*
X123587621Y-78355000D01*
X123627621Y-72666000D02*
X123627621Y-74460000D01*
X123627621Y-76540000D02*
X123627621Y-78334000D01*
X123667621Y-72688000D02*
X123667621Y-74460000D01*
X123667621Y-76540000D02*
X123667621Y-78312000D01*
X123707621Y-72711000D02*
X123707621Y-74460000D01*
X123707621Y-76540000D02*
X123707621Y-78289000D01*
X123747621Y-72735000D02*
X123747621Y-74460000D01*
X123747621Y-76540000D02*
X123747621Y-78265000D01*
X123787621Y-72759000D02*
X123787621Y-74460000D01*
X123787621Y-76540000D02*
X123787621Y-78241000D01*
X123827621Y-72784000D02*
X123827621Y-74460000D01*
X123827621Y-76540000D02*
X123827621Y-78216000D01*
X123867621Y-72810000D02*
X123867621Y-74460000D01*
X123867621Y-76540000D02*
X123867621Y-78190000D01*
X123907621Y-72837000D02*
X123907621Y-74460000D01*
X123907621Y-76540000D02*
X123907621Y-78163000D01*
X123947621Y-72864000D02*
X123947621Y-74460000D01*
X123947621Y-76540000D02*
X123947621Y-78136000D01*
X123987621Y-72893000D02*
X123987621Y-74460000D01*
X123987621Y-76540000D02*
X123987621Y-78107000D01*
X124027621Y-72923000D02*
X124027621Y-74460000D01*
X124027621Y-76540000D02*
X124027621Y-78077000D01*
X124067621Y-72953000D02*
X124067621Y-74460000D01*
X124067621Y-76540000D02*
X124067621Y-78047000D01*
X124107621Y-72984000D02*
X124107621Y-74460000D01*
X124107621Y-76540000D02*
X124107621Y-78016000D01*
X124147621Y-73017000D02*
X124147621Y-74460000D01*
X124147621Y-76540000D02*
X124147621Y-77983000D01*
X124187621Y-73050000D02*
X124187621Y-74460000D01*
X124187621Y-76540000D02*
X124187621Y-77950000D01*
X124227621Y-73085000D02*
X124227621Y-74460000D01*
X124227621Y-76540000D02*
X124227621Y-77915000D01*
X124267621Y-73121000D02*
X124267621Y-74460000D01*
X124267621Y-76540000D02*
X124267621Y-77879000D01*
X124307621Y-73158000D02*
X124307621Y-74460000D01*
X124307621Y-76540000D02*
X124307621Y-77842000D01*
X124347621Y-73196000D02*
X124347621Y-74460000D01*
X124347621Y-76540000D02*
X124347621Y-77804000D01*
X124387621Y-73236000D02*
X124387621Y-77764000D01*
X124427621Y-73277000D02*
X124427621Y-77723000D01*
X124467621Y-73319000D02*
X124467621Y-77681000D01*
X124507621Y-73363000D02*
X124507621Y-77637000D01*
X124547621Y-73409000D02*
X124547621Y-77591000D01*
X124587621Y-73456000D02*
X124587621Y-77544000D01*
X124627621Y-73505000D02*
X124627621Y-77495000D01*
X124667621Y-73557000D02*
X124667621Y-77443000D01*
X124707621Y-73610000D02*
X124707621Y-77390000D01*
X124747621Y-73666000D02*
X124747621Y-77334000D01*
X124787621Y-73725000D02*
X124787621Y-77275000D01*
X124827621Y-73786000D02*
X124827621Y-77214000D01*
X124867621Y-73851000D02*
X124867621Y-77149000D01*
X124907621Y-73919000D02*
X124907621Y-77081000D01*
X124947621Y-73991000D02*
X124947621Y-77009000D01*
X124987621Y-74068000D02*
X124987621Y-76932000D01*
X125027621Y-74150000D02*
X125027621Y-76850000D01*
X125067621Y-74239000D02*
X125067621Y-76761000D01*
X125107621Y-74335000D02*
X125107621Y-76665000D01*
X125147621Y-74442000D02*
X125147621Y-76558000D01*
X125187621Y-74561000D02*
X125187621Y-76439000D01*
X125227621Y-74699000D02*
X125227621Y-76301000D01*
X125267621Y-74867000D02*
X125267621Y-76133000D01*
X125307621Y-75098000D02*
X125307621Y-75902000D01*
X125337621Y-75500000D02*
G75*
G02*
X118797621Y-75500000I-3270000J0D01*
G01*
X118797621Y-75500000D02*
G75*
G02*
X125337621Y-75500000I3270000J0D01*
G01*
%TO.C,J5*%
X182250000Y-101100000D02*
X182250000Y-102350000D01*
X182250000Y-102350000D02*
X183500000Y-102350000D01*
X182540000Y-89440000D02*
X182540000Y-102060000D01*
X182540000Y-102060000D02*
X188510000Y-102060000D01*
X182550000Y-89450000D02*
X182550000Y-91250000D01*
X182550000Y-91250000D02*
X183300000Y-91250000D01*
X182550000Y-92750000D02*
X182550000Y-98750000D01*
X182550000Y-98750000D02*
X183300000Y-98750000D01*
X182550000Y-100250000D02*
X182550000Y-102050000D01*
X182550000Y-102050000D02*
X183300000Y-102050000D01*
X183300000Y-89450000D02*
X182550000Y-89450000D01*
X183300000Y-91250000D02*
X183300000Y-89450000D01*
X183300000Y-92750000D02*
X182550000Y-92750000D01*
X183300000Y-98750000D02*
X183300000Y-92750000D01*
X183300000Y-100250000D02*
X182550000Y-100250000D01*
X183300000Y-102050000D02*
X183300000Y-100250000D01*
X184800000Y-89450000D02*
X184800000Y-90200000D01*
X184800000Y-90200000D02*
X187750000Y-90200000D01*
X184800000Y-101300000D02*
X186140000Y-101300000D01*
X184800000Y-102050000D02*
X184800000Y-101300000D01*
X187750000Y-90200000D02*
X187750000Y-95750000D01*
X187750000Y-95750000D02*
X187750000Y-100240000D01*
X188510000Y-89440000D02*
X182540000Y-89440000D01*
X188510000Y-102060000D02*
X188510000Y-89440000D01*
%TO.C,J3*%
X147150000Y-123250000D02*
X147150000Y-124500000D01*
X147440000Y-123540000D02*
X147440000Y-129510000D01*
X147440000Y-129510000D02*
X155060000Y-129510000D01*
X147450000Y-123550000D02*
X147450000Y-124300000D01*
X147450000Y-124300000D02*
X149250000Y-124300000D01*
X147450000Y-125800000D02*
X148200000Y-125800000D01*
X148200000Y-125800000D02*
X148200000Y-128750000D01*
X148200000Y-128750000D02*
X151250000Y-128750000D01*
X148400000Y-123250000D02*
X147150000Y-123250000D01*
X149250000Y-123550000D02*
X147450000Y-123550000D01*
X149250000Y-124300000D02*
X149250000Y-123550000D01*
X150750000Y-123550000D02*
X150750000Y-124300000D01*
X150750000Y-124300000D02*
X151750000Y-124300000D01*
X151750000Y-123550000D02*
X150750000Y-123550000D01*
X151750000Y-124300000D02*
X151750000Y-123550000D01*
X153250000Y-123550000D02*
X153250000Y-124300000D01*
X153250000Y-124300000D02*
X155050000Y-124300000D01*
X154300000Y-125800000D02*
X154300000Y-128750000D01*
X154300000Y-128750000D02*
X151250000Y-128750000D01*
X155050000Y-123550000D02*
X153250000Y-123550000D01*
X155050000Y-124300000D02*
X155050000Y-123550000D01*
X155050000Y-125800000D02*
X154300000Y-125800000D01*
X155060000Y-123540000D02*
X147440000Y-123540000D01*
X155060000Y-129510000D02*
X155060000Y-123540000D01*
%TO.C,C3*%
X168380000Y-101630000D02*
X173620000Y-101630000D01*
X168380000Y-101967000D02*
X168380000Y-101630000D01*
X168380000Y-104370000D02*
X168380000Y-104033000D01*
X173620000Y-101630000D02*
X173620000Y-101967000D01*
X173620000Y-104033000D02*
X173620000Y-104370000D01*
X173620000Y-104370000D02*
X168380000Y-104370000D01*
%TO.C,C1*%
X127010000Y-120902000D02*
X127010000Y-120098000D01*
X127050000Y-121133000D02*
X127050000Y-119867000D01*
X127090000Y-121301000D02*
X127090000Y-119699000D01*
X127130000Y-121439000D02*
X127130000Y-119561000D01*
X127170000Y-121558000D02*
X127170000Y-119442000D01*
X127210000Y-121665000D02*
X127210000Y-119335000D01*
X127250000Y-121761000D02*
X127250000Y-119239000D01*
X127290000Y-121850000D02*
X127290000Y-119150000D01*
X127330000Y-121932000D02*
X127330000Y-119068000D01*
X127370000Y-122009000D02*
X127370000Y-118991000D01*
X127410000Y-122081000D02*
X127410000Y-118919000D01*
X127450000Y-122149000D02*
X127450000Y-118851000D01*
X127490000Y-122214000D02*
X127490000Y-118786000D01*
X127530000Y-122275000D02*
X127530000Y-118725000D01*
X127570000Y-122334000D02*
X127570000Y-118666000D01*
X127610000Y-122390000D02*
X127610000Y-118610000D01*
X127650000Y-122443000D02*
X127650000Y-118557000D01*
X127690000Y-122495000D02*
X127690000Y-118505000D01*
X127730000Y-122544000D02*
X127730000Y-118456000D01*
X127770000Y-122591000D02*
X127770000Y-118409000D01*
X127810000Y-122637000D02*
X127810000Y-118363000D01*
X127850000Y-122681000D02*
X127850000Y-118319000D01*
X127890000Y-122723000D02*
X127890000Y-118277000D01*
X127930000Y-122764000D02*
X127930000Y-118236000D01*
X127970000Y-119460000D02*
X127970000Y-118196000D01*
X127970000Y-122804000D02*
X127970000Y-121540000D01*
X128010000Y-119460000D02*
X128010000Y-118158000D01*
X128010000Y-122842000D02*
X128010000Y-121540000D01*
X128050000Y-119460000D02*
X128050000Y-118121000D01*
X128050000Y-122879000D02*
X128050000Y-121540000D01*
X128090000Y-119460000D02*
X128090000Y-118085000D01*
X128090000Y-122915000D02*
X128090000Y-121540000D01*
X128130000Y-119460000D02*
X128130000Y-118050000D01*
X128130000Y-122950000D02*
X128130000Y-121540000D01*
X128170000Y-119460000D02*
X128170000Y-118017000D01*
X128170000Y-122983000D02*
X128170000Y-121540000D01*
X128210000Y-119460000D02*
X128210000Y-117984000D01*
X128210000Y-123016000D02*
X128210000Y-121540000D01*
X128250000Y-119460000D02*
X128250000Y-117953000D01*
X128250000Y-123047000D02*
X128250000Y-121540000D01*
X128290000Y-119460000D02*
X128290000Y-117923000D01*
X128290000Y-123077000D02*
X128290000Y-121540000D01*
X128330000Y-119460000D02*
X128330000Y-117893000D01*
X128330000Y-123107000D02*
X128330000Y-121540000D01*
X128370000Y-119460000D02*
X128370000Y-117864000D01*
X128370000Y-123136000D02*
X128370000Y-121540000D01*
X128410000Y-119460000D02*
X128410000Y-117837000D01*
X128410000Y-123163000D02*
X128410000Y-121540000D01*
X128450000Y-119460000D02*
X128450000Y-117810000D01*
X128450000Y-123190000D02*
X128450000Y-121540000D01*
X128490000Y-119460000D02*
X128490000Y-117784000D01*
X128490000Y-123216000D02*
X128490000Y-121540000D01*
X128530000Y-119460000D02*
X128530000Y-117759000D01*
X128530000Y-123241000D02*
X128530000Y-121540000D01*
X128570000Y-119460000D02*
X128570000Y-117735000D01*
X128570000Y-123265000D02*
X128570000Y-121540000D01*
X128610000Y-119460000D02*
X128610000Y-117711000D01*
X128610000Y-123289000D02*
X128610000Y-121540000D01*
X128650000Y-119460000D02*
X128650000Y-117688000D01*
X128650000Y-123312000D02*
X128650000Y-121540000D01*
X128690000Y-119460000D02*
X128690000Y-117666000D01*
X128690000Y-123334000D02*
X128690000Y-121540000D01*
X128730000Y-119460000D02*
X128730000Y-117645000D01*
X128730000Y-123355000D02*
X128730000Y-121540000D01*
X128770000Y-119460000D02*
X128770000Y-117624000D01*
X128770000Y-123376000D02*
X128770000Y-121540000D01*
X128810000Y-119460000D02*
X128810000Y-117604000D01*
X128810000Y-123396000D02*
X128810000Y-121540000D01*
X128850000Y-119460000D02*
X128850000Y-117585000D01*
X128850000Y-123415000D02*
X128850000Y-121540000D01*
X128890000Y-119460000D02*
X128890000Y-117566000D01*
X128890000Y-123434000D02*
X128890000Y-121540000D01*
X128930000Y-119460000D02*
X128930000Y-117548000D01*
X128930000Y-123452000D02*
X128930000Y-121540000D01*
X128970000Y-119460000D02*
X128970000Y-117531000D01*
X128970000Y-123469000D02*
X128970000Y-121540000D01*
X129010000Y-119460000D02*
X129010000Y-117514000D01*
X129010000Y-123486000D02*
X129010000Y-121540000D01*
X129050000Y-119460000D02*
X129050000Y-117498000D01*
X129050000Y-123502000D02*
X129050000Y-121540000D01*
X129090000Y-119460000D02*
X129090000Y-117483000D01*
X129090000Y-123517000D02*
X129090000Y-121540000D01*
X129130000Y-119460000D02*
X129130000Y-117468000D01*
X129130000Y-123532000D02*
X129130000Y-121540000D01*
X129170000Y-119460000D02*
X129170000Y-117453000D01*
X129170000Y-123547000D02*
X129170000Y-121540000D01*
X129210000Y-119460000D02*
X129210000Y-117440000D01*
X129210000Y-123560000D02*
X129210000Y-121540000D01*
X129250000Y-119460000D02*
X129250000Y-117427000D01*
X129250000Y-123573000D02*
X129250000Y-121540000D01*
X129290000Y-119460000D02*
X129290000Y-117414000D01*
X129290000Y-123586000D02*
X129290000Y-121540000D01*
X129330000Y-119460000D02*
X129330000Y-117402000D01*
X129330000Y-123598000D02*
X129330000Y-121540000D01*
X129370000Y-119460000D02*
X129370000Y-117391000D01*
X129370000Y-123609000D02*
X129370000Y-121540000D01*
X129410000Y-119460000D02*
X129410000Y-117380000D01*
X129410000Y-123620000D02*
X129410000Y-121540000D01*
X129450000Y-119460000D02*
X129450000Y-117369000D01*
X129450000Y-123631000D02*
X129450000Y-121540000D01*
X129490000Y-119460000D02*
X129490000Y-117360000D01*
X129490000Y-123640000D02*
X129490000Y-121540000D01*
X129530000Y-119460000D02*
X129530000Y-117350000D01*
X129530000Y-123650000D02*
X129530000Y-121540000D01*
X129570000Y-119460000D02*
X129570000Y-117341000D01*
X129570000Y-123659000D02*
X129570000Y-121540000D01*
X129610000Y-119460000D02*
X129610000Y-117333000D01*
X129610000Y-123667000D02*
X129610000Y-121540000D01*
X129650000Y-119460000D02*
X129650000Y-117326000D01*
X129650000Y-123674000D02*
X129650000Y-121540000D01*
X129690000Y-119460000D02*
X129690000Y-117318000D01*
X129690000Y-123682000D02*
X129690000Y-121540000D01*
X129730000Y-119460000D02*
X129730000Y-117312000D01*
X129730000Y-123688000D02*
X129730000Y-121540000D01*
X129770000Y-119460000D02*
X129770000Y-117305000D01*
X129770000Y-123695000D02*
X129770000Y-121540000D01*
X129810000Y-119460000D02*
X129810000Y-117300000D01*
X129810000Y-123700000D02*
X129810000Y-121540000D01*
X129850000Y-119460000D02*
X129850000Y-117295000D01*
X129850000Y-123705000D02*
X129850000Y-121540000D01*
X129890000Y-119460000D02*
X129890000Y-117290000D01*
X129890000Y-123710000D02*
X129890000Y-121540000D01*
X129930000Y-119460000D02*
X129930000Y-117286000D01*
X129930000Y-123714000D02*
X129930000Y-121540000D01*
X129970000Y-119460000D02*
X129970000Y-117282000D01*
X129970000Y-123718000D02*
X129970000Y-121540000D01*
X130010000Y-119460000D02*
X130010000Y-117279000D01*
X130010000Y-123721000D02*
X130010000Y-121540000D01*
X130050000Y-123724000D02*
X130050000Y-117276000D01*
X130090000Y-123726000D02*
X130090000Y-117274000D01*
X130130000Y-123728000D02*
X130130000Y-117272000D01*
X130170000Y-123729000D02*
X130170000Y-117271000D01*
X130210000Y-123730000D02*
X130210000Y-117270000D01*
X130250000Y-123730000D02*
X130250000Y-117270000D01*
X133435241Y-122654000D02*
X133435241Y-122024000D01*
X133750241Y-122339000D02*
X133120241Y-122339000D01*
X133520000Y-120500000D02*
G75*
G02*
X126980000Y-120500000I-3270000J0D01*
G01*
X126980000Y-120500000D02*
G75*
G02*
X133520000Y-120500000I3270000J0D01*
G01*
%TO.C,J1*%
X127015000Y-103440000D02*
X127015000Y-116060000D01*
X127015000Y-116060000D02*
X132985000Y-116060000D01*
X127775000Y-109750000D02*
X127775000Y-105260000D01*
X127775000Y-115300000D02*
X127775000Y-109750000D01*
X130725000Y-103450000D02*
X130725000Y-104200000D01*
X130725000Y-104200000D02*
X129385000Y-104200000D01*
X130725000Y-115300000D02*
X127775000Y-115300000D01*
X130725000Y-116050000D02*
X130725000Y-115300000D01*
X132225000Y-103450000D02*
X132225000Y-105250000D01*
X132225000Y-105250000D02*
X132975000Y-105250000D01*
X132225000Y-106750000D02*
X132225000Y-112750000D01*
X132225000Y-112750000D02*
X132975000Y-112750000D01*
X132225000Y-114250000D02*
X132225000Y-116050000D01*
X132225000Y-116050000D02*
X132975000Y-116050000D01*
X132975000Y-103450000D02*
X132225000Y-103450000D01*
X132975000Y-105250000D02*
X132975000Y-103450000D01*
X132975000Y-106750000D02*
X132225000Y-106750000D01*
X132975000Y-112750000D02*
X132975000Y-106750000D01*
X132975000Y-114250000D02*
X132225000Y-114250000D01*
X132975000Y-116050000D02*
X132975000Y-114250000D01*
X132985000Y-103440000D02*
X127015000Y-103440000D01*
X132985000Y-116060000D02*
X132985000Y-103440000D01*
X133275000Y-103150000D02*
X132025000Y-103150000D01*
X133275000Y-104400000D02*
X133275000Y-103150000D01*
%TO.C,J4*%
X175490000Y-106940000D02*
X175490000Y-114560000D01*
X175490000Y-114560000D02*
X181460000Y-114560000D01*
X176250000Y-110750000D02*
X176250000Y-108760000D01*
X176250000Y-113800000D02*
X176250000Y-110750000D01*
X179200000Y-106950000D02*
X179200000Y-107700000D01*
X179200000Y-107700000D02*
X177860000Y-107700000D01*
X179200000Y-113800000D02*
X176250000Y-113800000D01*
X179200000Y-114550000D02*
X179200000Y-113800000D01*
X180700000Y-106950000D02*
X180700000Y-108750000D01*
X180700000Y-108750000D02*
X181450000Y-108750000D01*
X180700000Y-110250000D02*
X180700000Y-111250000D01*
X180700000Y-111250000D02*
X181450000Y-111250000D01*
X180700000Y-112750000D02*
X180700000Y-114550000D01*
X180700000Y-114550000D02*
X181450000Y-114550000D01*
X181450000Y-106950000D02*
X180700000Y-106950000D01*
X181450000Y-108750000D02*
X181450000Y-106950000D01*
X181450000Y-110250000D02*
X180700000Y-110250000D01*
X181450000Y-111250000D02*
X181450000Y-110250000D01*
X181450000Y-112750000D02*
X180700000Y-112750000D01*
X181450000Y-114550000D02*
X181450000Y-112750000D01*
X181460000Y-106940000D02*
X175490000Y-106940000D01*
X181460000Y-114560000D02*
X181460000Y-106940000D01*
X181750000Y-106650000D02*
X180500000Y-106650000D01*
X181750000Y-107900000D02*
X181750000Y-106650000D01*
%TD*%
M02*
