%TF.GenerationSoftware,KiCad,Pcbnew,9.0.4*%
%TF.CreationDate,2025-10-27T02:22:17+05:45*%
%TF.ProjectId,CubeSat_STEM_Board,43756265-5361-4745-9f53-54454d5f426f,rev?*%
%TF.SameCoordinates,Original*%
%TF.FileFunction,Copper,L1,Top*%
%TF.FilePolarity,Positive*%
%FSLAX46Y46*%
G04 Gerber Fmt 4.6, Leading zero omitted, Abs format (unit mm)*
G04 Created by KiCad (PCBNEW 9.0.4) date 2025-10-27 02:22:17*
%MOMM*%
%LPD*%
G01*
G04 APERTURE LIST*
G04 Aperture macros list*
%AMRoundRect*
0 Rectangle with rounded corners*
0 $1 Rounding radius*
0 $2 $3 $4 $5 $6 $7 $8 $9 X,Y pos of 4 corners*
0 Add a 4 corners polygon primitive as box body*
4,1,4,$2,$3,$4,$5,$6,$7,$8,$9,$2,$3,0*
0 Add four circle primitives for the rounded corners*
1,1,$1+$1,$2,$3*
1,1,$1+$1,$4,$5*
1,1,$1+$1,$6,$7*
1,1,$1+$1,$8,$9*
0 Add four rect primitives between the rounded corners*
20,1,$1+$1,$2,$3,$4,$5,0*
20,1,$1+$1,$4,$5,$6,$7,0*
20,1,$1+$1,$6,$7,$8,$9,0*
20,1,$1+$1,$8,$9,$2,$3,0*%
G04 Aperture macros list end*
%TA.AperFunction,ComponentPad*%
%ADD10C,0.800000*%
%TD*%
%TA.AperFunction,ComponentPad*%
%ADD11C,6.400000*%
%TD*%
%TA.AperFunction,ComponentPad*%
%ADD12R,1.778000X1.778000*%
%TD*%
%TA.AperFunction,ComponentPad*%
%ADD13C,1.778000*%
%TD*%
%TA.AperFunction,ComponentPad*%
%ADD14C,3.200000*%
%TD*%
%TA.AperFunction,ComponentPad*%
%ADD15C,2.184400*%
%TD*%
%TA.AperFunction,ComponentPad*%
%ADD16RoundRect,0.250000X0.600000X0.725000X-0.600000X0.725000X-0.600000X-0.725000X0.600000X-0.725000X0*%
%TD*%
%TA.AperFunction,ComponentPad*%
%ADD17O,1.700000X1.950000*%
%TD*%
%TA.AperFunction,ComponentPad*%
%ADD18RoundRect,0.250000X0.600000X0.750000X-0.600000X0.750000X-0.600000X-0.750000X0.600000X-0.750000X0*%
%TD*%
%TA.AperFunction,ComponentPad*%
%ADD19O,1.700000X2.000000*%
%TD*%
%TA.AperFunction,ComponentPad*%
%ADD20C,1.600000*%
%TD*%
%TA.AperFunction,ComponentPad*%
%ADD21R,1.600000X1.600000*%
%TD*%
%TA.AperFunction,ComponentPad*%
%ADD22O,1.600000X1.600000*%
%TD*%
%TA.AperFunction,ComponentPad*%
%ADD23RoundRect,0.250000X-0.550000X-0.550000X0.550000X-0.550000X0.550000X0.550000X-0.550000X0.550000X0*%
%TD*%
%TA.AperFunction,ComponentPad*%
%ADD24RoundRect,0.250000X-0.550000X0.550000X-0.550000X-0.550000X0.550000X-0.550000X0.550000X0.550000X0*%
%TD*%
%TA.AperFunction,ComponentPad*%
%ADD25RoundRect,0.249999X0.850001X-0.850001X0.850001X0.850001X-0.850001X0.850001X-0.850001X-0.850001X0*%
%TD*%
%TA.AperFunction,ComponentPad*%
%ADD26C,2.200000*%
%TD*%
%TA.AperFunction,ComponentPad*%
%ADD27RoundRect,0.250000X0.725000X-0.600000X0.725000X0.600000X-0.725000X0.600000X-0.725000X-0.600000X0*%
%TD*%
%TA.AperFunction,ComponentPad*%
%ADD28O,1.950000X1.700000*%
%TD*%
%TA.AperFunction,ComponentPad*%
%ADD29RoundRect,0.250000X-0.600000X-0.750000X0.600000X-0.750000X0.600000X0.750000X-0.600000X0.750000X0*%
%TD*%
%TA.AperFunction,ComponentPad*%
%ADD30RoundRect,0.250000X0.550000X0.550000X-0.550000X0.550000X-0.550000X-0.550000X0.550000X-0.550000X0*%
%TD*%
%TA.AperFunction,ComponentPad*%
%ADD31RoundRect,0.250000X-0.725000X0.600000X-0.725000X-0.600000X0.725000X-0.600000X0.725000X0.600000X0*%
%TD*%
%TA.AperFunction,ComponentPad*%
%ADD32RoundRect,0.250000X-0.750000X0.600000X-0.750000X-0.600000X0.750000X-0.600000X0.750000X0.600000X0*%
%TD*%
%TA.AperFunction,ComponentPad*%
%ADD33O,2.000000X1.700000*%
%TD*%
%TA.AperFunction,ViaPad*%
%ADD34C,0.800000*%
%TD*%
%TA.AperFunction,ViaPad*%
%ADD35C,0.600000*%
%TD*%
%TA.AperFunction,Conductor*%
%ADD36C,0.200000*%
%TD*%
G04 APERTURE END LIST*
D10*
%TO.P,REF\u002A\u002A,1*%
%TO.N,N/C*%
X113885000Y-125700000D03*
X114587944Y-124002944D03*
X114587944Y-127397056D03*
X116285000Y-123300000D03*
D11*
X116285000Y-125700000D03*
D10*
X116285000Y-128100000D03*
X117982056Y-124002944D03*
X117982056Y-127397056D03*
X118685000Y-125700000D03*
%TD*%
%TO.P,REF\u002A\u002A,1*%
%TO.N,N/C*%
X113885000Y-55700000D03*
X114587944Y-54002944D03*
X114587944Y-57397056D03*
X116285000Y-53300000D03*
D11*
X116285000Y-55700000D03*
D10*
X116285000Y-58100000D03*
X117982056Y-54002944D03*
X117982056Y-57397056D03*
X118685000Y-55700000D03*
%TD*%
%TO.P,REF\u002A\u002A,1*%
%TO.N,N/C*%
X183885000Y-125700000D03*
X184587944Y-124002944D03*
X184587944Y-127397056D03*
X186285000Y-123300000D03*
D11*
X186285000Y-125700000D03*
D10*
X186285000Y-128100000D03*
X187982056Y-124002944D03*
X187982056Y-127397056D03*
X188685000Y-125700000D03*
%TD*%
D12*
%TO.P,IAN2,1,VCC*%
%TO.N,/+3V3*%
X155350000Y-104380000D03*
D13*
%TO.P,IAN2,2,GND*%
%TO.N,GND*%
X152810000Y-104380000D03*
%TO.P,IAN2,3,SCL*%
%TO.N,/SCL*%
X150270000Y-104380000D03*
%TO.P,IAN2,4,SDA*%
%TO.N,/SDA*%
X147730000Y-104380000D03*
%TO.P,IAN2,5,VIN-*%
%TO.N,Net-(D1-A)*%
X145190000Y-104380000D03*
%TO.P,IAN2,6,VIN+*%
%TO.N,Net-(J2-Pin_1)*%
X142650000Y-104380000D03*
D14*
%TO.P,IAN2,SH1,SHIELD*%
%TO.N,unconnected-(IAN2-SHIELD-PadSH1)_1*%
X159160000Y-119620000D03*
%TO.P,IAN2,SH2,SHIELD*%
%TO.N,unconnected-(IAN2-SHIELD-PadSH1)*%
X138840000Y-119620000D03*
%TO.P,IAN2,SH3,SHIELD*%
%TO.N,unconnected-(IAN2-SHIELD-PadSH1)_3*%
X159160000Y-104380000D03*
%TO.P,IAN2,SH4,SHIELD*%
%TO.N,unconnected-(IAN2-SHIELD-PadSH1)_2*%
X138840000Y-104380000D03*
D15*
%TO.P,IAN2,VIN+,VIN+*%
%TO.N,Net-(J2-Pin_1)*%
X147300000Y-118350000D03*
%TO.P,IAN2,VIN-,VIN-*%
%TO.N,Net-(D1-A)*%
X150800000Y-118350000D03*
%TD*%
D16*
%TO.P,J6,1,Pin_1*%
%TO.N,/+3V3*%
X177000000Y-58000000D03*
D17*
%TO.P,J6,2,Pin_2*%
%TO.N,GND*%
X174500000Y-58000000D03*
%TO.P,J6,3,Pin_3*%
%TO.N,/PWM_X*%
X172000000Y-58000000D03*
%TO.P,J6,4,Pin_4*%
%TO.N,/DIR_X*%
X169500000Y-58000000D03*
%TO.P,J6,5,Pin_5*%
%TO.N,/PWM_Y*%
X167000000Y-58000000D03*
%TO.P,J6,6,Pin_6*%
%TO.N,/DIR_Y*%
X164500000Y-58000000D03*
%TO.P,J6,7,Pin_7*%
%TO.N,/PWM_Z*%
X162000000Y-58000000D03*
%TO.P,J6,8,Pin_8*%
%TO.N,/DIR_Z*%
X159500000Y-58000000D03*
%TD*%
D18*
%TO.P,J2,1,Pin_1*%
%TO.N,Net-(J2-Pin_1)*%
X141785000Y-55700000D03*
D19*
%TO.P,J2,2,Pin_2*%
%TO.N,Net-(D1-A)*%
X139285000Y-55700000D03*
%TD*%
D20*
%TO.P,C2,1*%
%TO.N,/+3V3*%
X120000000Y-67000000D03*
%TO.P,C2,2*%
%TO.N,GND*%
X125000000Y-67000000D03*
%TD*%
D10*
%TO.P,REF\u002A\u002A,1*%
%TO.N,N/C*%
X184385000Y-55700000D03*
X185087944Y-54002944D03*
X185087944Y-57397056D03*
X186785000Y-53300000D03*
D11*
X186785000Y-55700000D03*
D10*
X186785000Y-58100000D03*
X188482056Y-54002944D03*
X188482056Y-57397056D03*
X189185000Y-55700000D03*
%TD*%
D21*
%TO.P,A1,1,D1/TX*%
%TO.N,unconnected-(A1-D1{slash}TX-Pad1)*%
X169050000Y-82890000D03*
D22*
%TO.P,A1,2,D0/RX*%
%TO.N,unconnected-(A1-D0{slash}RX-Pad2)*%
X166510000Y-82890000D03*
%TO.P,A1,3,~{RESET}*%
%TO.N,unconnected-(A1-~{RESET}-Pad3)*%
X163970000Y-82890000D03*
%TO.P,A1,4,GND*%
%TO.N,GND*%
X161430000Y-82890000D03*
%TO.P,A1,5,D2*%
%TO.N,unconnected-(A1-D2-Pad5)*%
X158890000Y-82890000D03*
%TO.P,A1,6,D3*%
%TO.N,unconnected-(A1-D3-Pad6)*%
X156350000Y-82890000D03*
%TO.P,A1,7,D4*%
%TO.N,/DIR_X*%
X153810000Y-82890000D03*
%TO.P,A1,8,D5*%
%TO.N,/PWM_X*%
X151270000Y-82890000D03*
%TO.P,A1,9,D6*%
%TO.N,/PWM_Y*%
X148730000Y-82890000D03*
%TO.P,A1,10,D7*%
%TO.N,/DIR_Y*%
X146190000Y-82890000D03*
%TO.P,A1,11,D8*%
%TO.N,/DIR_Z*%
X143650000Y-82890000D03*
%TO.P,A1,12,D9*%
%TO.N,/PWM_Z*%
X141110000Y-82890000D03*
%TO.P,A1,13,D10*%
%TO.N,unconnected-(A1-D10-Pad13)*%
X138570000Y-82890000D03*
%TO.P,A1,14,D11*%
%TO.N,unconnected-(A1-D11-Pad14)*%
X136030000Y-82890000D03*
%TO.P,A1,15,D12*%
%TO.N,unconnected-(A1-D12-Pad15)*%
X133490000Y-82890000D03*
%TO.P,A1,16,D13*%
%TO.N,unconnected-(A1-D13-Pad16)*%
X133490000Y-98130000D03*
%TO.P,A1,17,3V3*%
%TO.N,/+3V3*%
X136030000Y-98130000D03*
%TO.P,A1,18,AREF*%
%TO.N,unconnected-(A1-AREF-Pad18)*%
X138570000Y-98130000D03*
%TO.P,A1,19,A0*%
%TO.N,/I2C_SDA*%
X141110000Y-98130000D03*
%TO.P,A1,20,A1*%
%TO.N,/I2C_SCL*%
X143650000Y-98130000D03*
%TO.P,A1,21,A2*%
%TO.N,/SDA*%
X146190000Y-98130000D03*
%TO.P,A1,22,A3*%
%TO.N,/SCL*%
X148730000Y-98130000D03*
%TO.P,A1,23,A4*%
%TO.N,/SDA2*%
X151270000Y-98130000D03*
%TO.P,A1,24,A5*%
%TO.N,/SCL2*%
X153810000Y-98130000D03*
%TO.P,A1,25,A6*%
%TO.N,Net-(A1-A6)*%
X156350000Y-98130000D03*
%TO.P,A1,26,A7*%
%TO.N,Net-(A1-A7)*%
X158890000Y-98130000D03*
%TO.P,A1,27,+5V*%
%TO.N,/3.3v*%
X161430000Y-98130000D03*
%TO.P,A1,28,~{RESET}*%
%TO.N,unconnected-(A1-~{RESET}-Pad28)*%
X163970000Y-98130000D03*
%TO.P,A1,29,GND*%
%TO.N,GND*%
X166510000Y-98130000D03*
%TO.P,A1,30,VIN*%
%TO.N,unconnected-(A1-VIN-Pad30)*%
X169050000Y-98130000D03*
%TD*%
D23*
%TO.P,C5,1*%
%TO.N,/+3V3*%
X170000000Y-111500000D03*
D20*
%TO.P,C5,2*%
%TO.N,GND*%
X172500000Y-111500000D03*
%TD*%
D24*
%TO.P,C6,1*%
%TO.N,/+3V3*%
X152000000Y-54500000D03*
D20*
%TO.P,C6,2*%
%TO.N,GND*%
X152000000Y-57000000D03*
%TD*%
D25*
%TO.P,D1,1,K*%
%TO.N,Net-(D1-K)*%
X165500000Y-117080000D03*
D26*
%TO.P,D1,2,A*%
%TO.N,Net-(D1-A)*%
X165500000Y-106920000D03*
%TD*%
D12*
%TO.P,IAN1,1,VCC*%
%TO.N,/+3V3*%
X134435000Y-77700000D03*
D13*
%TO.P,IAN1,2,GND*%
%TO.N,GND*%
X136975000Y-77700000D03*
%TO.P,IAN1,3,SCL*%
%TO.N,/SCL2*%
X139515000Y-77700000D03*
%TO.P,IAN1,4,SDA*%
%TO.N,/SDA2*%
X142055000Y-77700000D03*
%TO.P,IAN1,5,VIN-*%
%TO.N,Net-(D1-A)*%
X144595000Y-77700000D03*
%TO.P,IAN1,6,VIN+*%
%TO.N,Net-(J2-Pin_1)*%
X147135000Y-77700000D03*
D14*
%TO.P,IAN1,SH1,SHIELD*%
%TO.N,unconnected-(IAN1-SHIELD-PadSH1)_1*%
X130625000Y-62460000D03*
%TO.P,IAN1,SH2,SHIELD*%
%TO.N,unconnected-(IAN1-SHIELD-PadSH1)_2*%
X150945000Y-62460000D03*
%TO.P,IAN1,SH3,SHIELD*%
%TO.N,unconnected-(IAN1-SHIELD-PadSH1)_3*%
X130625000Y-77700000D03*
%TO.P,IAN1,SH4,SHIELD*%
%TO.N,unconnected-(IAN1-SHIELD-PadSH1)*%
X150945000Y-77700000D03*
D15*
%TO.P,IAN1,VIN+,VIN+*%
%TO.N,Net-(J2-Pin_1)*%
X142485000Y-63730000D03*
%TO.P,IAN1,VIN-,VIN-*%
%TO.N,Net-(D1-A)*%
X138985000Y-63730000D03*
%TD*%
D23*
%TO.P,C4,1*%
%TO.N,/+3V3*%
X120817621Y-75500000D03*
D20*
%TO.P,C4,2*%
%TO.N,GND*%
X123317621Y-75500000D03*
%TD*%
D27*
%TO.P,J5,1,Pin_1*%
%TO.N,/3.3v*%
X185000000Y-99500000D03*
D28*
%TO.P,J5,2,Pin_2*%
%TO.N,GND*%
X185000000Y-97000000D03*
%TO.P,J5,3,Pin_3*%
%TO.N,Net-(A1-A7)*%
X185000000Y-94500000D03*
%TO.P,J5,4,Pin_4*%
%TO.N,Net-(A1-A6)*%
X185000000Y-92000000D03*
%TD*%
D29*
%TO.P,J3,1,Pin_1*%
%TO.N,Net-(J2-Pin_1)*%
X150000000Y-126000000D03*
D19*
%TO.P,J3,2,Pin_2*%
%TO.N,Net-(D1-A)*%
X152500000Y-126000000D03*
%TD*%
D20*
%TO.P,C3,1*%
%TO.N,/+3V3*%
X168500000Y-103000000D03*
%TO.P,C3,2*%
%TO.N,GND*%
X173500000Y-103000000D03*
%TD*%
D30*
%TO.P,C1,1*%
%TO.N,/3.3v*%
X131500000Y-120500000D03*
D20*
%TO.P,C1,2*%
%TO.N,GND*%
X129000000Y-120500000D03*
%TD*%
D31*
%TO.P,J1,1,Pin_1*%
%TO.N,/3.3v*%
X130525000Y-106000000D03*
D28*
%TO.P,J1,2,Pin_2*%
%TO.N,GND*%
X130525000Y-108500000D03*
%TO.P,J1,3,Pin_3*%
%TO.N,/I2C_SDA*%
X130525000Y-111000000D03*
%TO.P,J1,4,Pin_4*%
%TO.N,/I2C_SCL*%
X130525000Y-113500000D03*
%TD*%
D32*
%TO.P,J4,1,Pin_1*%
%TO.N,Net-(J2-Pin_1)*%
X179000000Y-109500000D03*
D33*
%TO.P,J4,2,Pin_2*%
%TO.N,Net-(D1-K)*%
X179000000Y-112000000D03*
%TD*%
D34*
%TO.N,/+3V3*%
X148500000Y-110500000D03*
D35*
%TO.N,/PWM_X*%
X155000000Y-78500000D03*
%TD*%
D36*
%TO.N,/+3V3*%
X173500000Y-54500000D02*
X152000000Y-54500000D01*
X127435000Y-74435000D02*
X134435000Y-74435000D01*
X151899000Y-54399000D02*
X132601000Y-54399000D01*
X120817621Y-75500000D02*
X120817621Y-87014671D01*
X146380000Y-108380000D02*
X146380000Y-100767100D01*
X146380000Y-100767100D02*
X144751000Y-99138100D01*
X120901475Y-87098525D02*
X133033950Y-99231000D01*
X177000000Y-58000000D02*
X173500000Y-54500000D01*
X134435000Y-77700000D02*
X133800000Y-77700000D01*
X120817621Y-75500000D02*
X120817621Y-67817621D01*
X134435000Y-74435000D02*
X134435000Y-77700000D01*
X132601000Y-54399000D02*
X122000000Y-65000000D01*
X133033950Y-99231000D02*
X134929000Y-99231000D01*
X144751000Y-99138100D02*
X144751000Y-97673950D01*
X120817621Y-67817621D02*
X120000000Y-67000000D01*
X148500000Y-110500000D02*
X146380000Y-108380000D01*
X118000000Y-84197050D02*
X120901475Y-87098525D01*
X137131000Y-97029000D02*
X136030000Y-98130000D01*
X118000000Y-65000000D02*
X118000000Y-84197050D01*
X144106050Y-97029000D02*
X137131000Y-97029000D01*
X152000000Y-54500000D02*
X151899000Y-54399000D01*
X120000000Y-67000000D02*
X127435000Y-74435000D01*
X144751000Y-97673950D02*
X144106050Y-97029000D01*
X122000000Y-65000000D02*
X118000000Y-65000000D01*
X120817621Y-87014671D02*
X120901475Y-87098525D01*
X134929000Y-99231000D02*
X136030000Y-98130000D01*
%TO.N,/I2C_SCL*%
X134500000Y-100901000D02*
X140879000Y-100901000D01*
X133500000Y-113500000D02*
X134500000Y-112500000D01*
X140879000Y-100901000D02*
X143650000Y-98130000D01*
X131000000Y-113500000D02*
X133500000Y-113500000D01*
X134500000Y-112500000D02*
X134500000Y-100901000D01*
%TO.N,/3.3v*%
X128000000Y-115500000D02*
X131500000Y-119000000D01*
X128500000Y-106000000D02*
X128000000Y-106500000D01*
X128000000Y-106500000D02*
X128000000Y-115500000D01*
X131500000Y-119000000D02*
X131500000Y-120500000D01*
X131000000Y-106000000D02*
X128500000Y-106000000D01*
%TO.N,/SCL*%
X150270000Y-104380000D02*
X150270000Y-102010000D01*
X150270000Y-102010000D02*
X148730000Y-100470000D01*
X148730000Y-100470000D02*
X148730000Y-98130000D01*
%TO.N,/SDA*%
X146190000Y-100010000D02*
X146190000Y-98130000D01*
X147730000Y-101550000D02*
X146190000Y-100010000D01*
X147730000Y-104380000D02*
X147730000Y-101550000D01*
%TO.N,/SCL2*%
X139500000Y-77715000D02*
X139500000Y-80500000D01*
X145000000Y-82682950D02*
X145000000Y-89320000D01*
X139500000Y-80500000D02*
X140500000Y-81500000D01*
X140500000Y-81500000D02*
X143817050Y-81500000D01*
X145000000Y-89320000D02*
X153810000Y-98130000D01*
X139515000Y-77700000D02*
X139500000Y-77715000D01*
X143817050Y-81500000D02*
X145000000Y-82682950D01*
%TO.N,Net-(J2-Pin_1)*%
X141785000Y-63030000D02*
X142485000Y-63730000D01*
X180500000Y-112277760D02*
X180500000Y-111000000D01*
X142650000Y-113700000D02*
X147300000Y-118350000D01*
X150000000Y-126000000D02*
X150000000Y-121050000D01*
X171104000Y-80396000D02*
X179000000Y-88292000D01*
X141785000Y-55700000D02*
X141785000Y-63030000D01*
X147135000Y-77700000D02*
X149831000Y-80396000D01*
X165476760Y-127301000D02*
X180500000Y-112277760D01*
X179000000Y-88292000D02*
X179000000Y-109500000D01*
X147135000Y-68380000D02*
X147135000Y-77700000D01*
X150000000Y-121050000D02*
X147300000Y-118350000D01*
X151301000Y-127301000D02*
X165476760Y-127301000D01*
X180500000Y-111000000D02*
X179000000Y-109500000D01*
X149831000Y-80396000D02*
X171104000Y-80396000D01*
X142650000Y-104380000D02*
X142650000Y-113700000D01*
X142485000Y-63730000D02*
X147135000Y-68380000D01*
X150000000Y-126000000D02*
X151301000Y-127301000D01*
%TO.N,Net-(D1-A)*%
X147627915Y-83344965D02*
X147627915Y-80732915D01*
X154911000Y-90628050D02*
X147627915Y-83344965D01*
X145190000Y-104380000D02*
X145190000Y-112740000D01*
X165500000Y-106920000D02*
X152500000Y-119920000D01*
X145190000Y-112740000D02*
X150800000Y-118350000D01*
X165500000Y-106920000D02*
X157811000Y-99231000D01*
X157811000Y-99231000D02*
X155555950Y-99231000D01*
X144595000Y-69340000D02*
X144595000Y-77700000D01*
X154911000Y-98586050D02*
X154911000Y-90628050D01*
X152500000Y-119920000D02*
X152500000Y-120050000D01*
X152500000Y-120050000D02*
X150800000Y-118350000D01*
X139285000Y-55700000D02*
X139285000Y-63430000D01*
X147627915Y-80732915D02*
X144595000Y-77700000D01*
X152500000Y-126000000D02*
X152500000Y-120050000D01*
X155555950Y-99231000D02*
X154911000Y-98586050D01*
X139285000Y-63430000D02*
X138985000Y-63730000D01*
X138985000Y-63730000D02*
X144595000Y-69340000D01*
%TO.N,/PWM_X*%
X155000000Y-78500000D02*
X172000000Y-61500000D01*
X172000000Y-61500000D02*
X172000000Y-58000000D01*
%TO.N,/I2C_SDA*%
X138740000Y-100500000D02*
X141110000Y-98130000D01*
X131000000Y-111000000D02*
X133500000Y-111000000D01*
X133500000Y-111000000D02*
X134000000Y-110500000D01*
X134000000Y-100500000D02*
X138740000Y-100500000D01*
X134000000Y-110500000D02*
X134000000Y-100500000D01*
%TO.N,Net-(D1-K)*%
X165500000Y-117080000D02*
X173920000Y-117080000D01*
X173920000Y-117080000D02*
X179000000Y-112000000D01*
%TD*%
%TA.AperFunction,Conductor*%
%TO.N,GND*%
G36*
X147650473Y-79064709D02*
G01*
X149462284Y-80876520D01*
X149462286Y-80876521D01*
X149462290Y-80876524D01*
X149572968Y-80940423D01*
X149599216Y-80955577D01*
X149751943Y-80996501D01*
X149751945Y-80996501D01*
X149917654Y-80996501D01*
X149917670Y-80996500D01*
X170803903Y-80996500D01*
X170870942Y-81016185D01*
X170891584Y-81032819D01*
X178363181Y-88504416D01*
X178396666Y-88565739D01*
X178399500Y-88592097D01*
X178399500Y-108025500D01*
X178379815Y-108092539D01*
X178327011Y-108138294D01*
X178275502Y-108149500D01*
X178199999Y-108149500D01*
X178199980Y-108149501D01*
X178097203Y-108160000D01*
X178097200Y-108160001D01*
X177997735Y-108192961D01*
X177927906Y-108195363D01*
X177867865Y-108159631D01*
X177836672Y-108097110D01*
X177837114Y-108051063D01*
X177850500Y-107983767D01*
X177850500Y-107816233D01*
X177817816Y-107651918D01*
X177753703Y-107497137D01*
X177695051Y-107409358D01*
X177660626Y-107357837D01*
X177542162Y-107239373D01*
X177402860Y-107146295D01*
X177248082Y-107082184D01*
X177248074Y-107082182D01*
X177083771Y-107049500D01*
X177083767Y-107049500D01*
X176916233Y-107049500D01*
X176916228Y-107049500D01*
X176751925Y-107082182D01*
X176751917Y-107082184D01*
X176597139Y-107146295D01*
X176457837Y-107239373D01*
X176339373Y-107357837D01*
X176246295Y-107497139D01*
X176182184Y-107651917D01*
X176182182Y-107651925D01*
X176149500Y-107816228D01*
X176149500Y-107983771D01*
X176182182Y-108148074D01*
X176182184Y-108148082D01*
X176246295Y-108302860D01*
X176339373Y-108442162D01*
X176457837Y-108560626D01*
X176550494Y-108622537D01*
X176597137Y-108653703D01*
X176751918Y-108717816D01*
X176899643Y-108747200D01*
X176916228Y-108750499D01*
X176916232Y-108750500D01*
X176916233Y-108750500D01*
X177083768Y-108750500D01*
X177083769Y-108750499D01*
X177248082Y-108717816D01*
X177332786Y-108682729D01*
X177402254Y-108675261D01*
X177464733Y-108706536D01*
X177500386Y-108766624D01*
X177503596Y-108809893D01*
X177499500Y-108849981D01*
X177499500Y-110150001D01*
X177499501Y-110150018D01*
X177510000Y-110252796D01*
X177510001Y-110252799D01*
X177565185Y-110419331D01*
X177565187Y-110419336D01*
X177598743Y-110473739D01*
X177603582Y-110481585D01*
X177657289Y-110568657D01*
X177781344Y-110692712D01*
X177936120Y-110788178D01*
X177982845Y-110840126D01*
X177994068Y-110909088D01*
X177966224Y-110973171D01*
X177958706Y-110981398D01*
X177819889Y-111120215D01*
X177694951Y-111292179D01*
X177598444Y-111481585D01*
X177532753Y-111683760D01*
X177499500Y-111893713D01*
X177499500Y-112106286D01*
X177532753Y-112316240D01*
X177583277Y-112471737D01*
X177585272Y-112541578D01*
X177553027Y-112597736D01*
X173707584Y-116443181D01*
X173646261Y-116476666D01*
X173619903Y-116479500D01*
X167224500Y-116479500D01*
X167157461Y-116459815D01*
X167111706Y-116407011D01*
X167100500Y-116355500D01*
X167100500Y-116179995D01*
X167100499Y-116179982D01*
X167089999Y-116077203D01*
X167060304Y-115987590D01*
X167034814Y-115910665D01*
X166942712Y-115761344D01*
X166818656Y-115637288D01*
X166669335Y-115545186D01*
X166502798Y-115490001D01*
X166502796Y-115490000D01*
X166400017Y-115479500D01*
X166400010Y-115479500D01*
X164599990Y-115479500D01*
X164599982Y-115479500D01*
X164497203Y-115490000D01*
X164497202Y-115490001D01*
X164414669Y-115517349D01*
X164330667Y-115545185D01*
X164330662Y-115545187D01*
X164181342Y-115637289D01*
X164057289Y-115761342D01*
X163965187Y-115910662D01*
X163965186Y-115910665D01*
X163910001Y-116077202D01*
X163910001Y-116077203D01*
X163910000Y-116077203D01*
X163899500Y-116179982D01*
X163899500Y-117980017D01*
X163910000Y-118082796D01*
X163910001Y-118082798D01*
X163965186Y-118249335D01*
X164057288Y-118398656D01*
X164181344Y-118522712D01*
X164330665Y-118614814D01*
X164497202Y-118669999D01*
X164599990Y-118680500D01*
X164599995Y-118680500D01*
X166400005Y-118680500D01*
X166400010Y-118680500D01*
X166502798Y-118669999D01*
X166669335Y-118614814D01*
X166818656Y-118522712D01*
X166942712Y-118398656D01*
X167034814Y-118249335D01*
X167089999Y-118082798D01*
X167100500Y-117980010D01*
X167100500Y-117804500D01*
X167120185Y-117737461D01*
X167172989Y-117691706D01*
X167224500Y-117680500D01*
X173833332Y-117680500D01*
X173840939Y-117680500D01*
X173840943Y-117680501D01*
X173948662Y-117680501D01*
X174015701Y-117700186D01*
X174061456Y-117752991D01*
X174068862Y-117804501D01*
X174071399Y-117822148D01*
X174042374Y-117885704D01*
X174036346Y-117892177D01*
X168435575Y-123492950D01*
X165264344Y-126664181D01*
X165203021Y-126697666D01*
X165176663Y-126700500D01*
X153911802Y-126700500D01*
X153844763Y-126680815D01*
X153799008Y-126628011D01*
X153789064Y-126558853D01*
X153793871Y-126538182D01*
X153817246Y-126466243D01*
X153850500Y-126256287D01*
X153850500Y-125743713D01*
X153817246Y-125533757D01*
X153751557Y-125331588D01*
X153655051Y-125142184D01*
X153655049Y-125142181D01*
X153655048Y-125142179D01*
X153530109Y-124970213D01*
X153379786Y-124819890D01*
X153207815Y-124694948D01*
X153207814Y-124694947D01*
X153168205Y-124674765D01*
X153117409Y-124626791D01*
X153100500Y-124564281D01*
X153100500Y-120220096D01*
X153120185Y-120153057D01*
X153136814Y-120132420D01*
X153786902Y-119482332D01*
X157059500Y-119482332D01*
X157059500Y-119757667D01*
X157059501Y-119757684D01*
X157095438Y-120030655D01*
X157095439Y-120030660D01*
X157095440Y-120030666D01*
X157126463Y-120146446D01*
X157166704Y-120296630D01*
X157272075Y-120551017D01*
X157272080Y-120551028D01*
X157347283Y-120681282D01*
X157409751Y-120789479D01*
X157409753Y-120789482D01*
X157409754Y-120789483D01*
X157577370Y-121007926D01*
X157577376Y-121007933D01*
X157772066Y-121202623D01*
X157772073Y-121202629D01*
X157881195Y-121286361D01*
X157990521Y-121370249D01*
X158143778Y-121458732D01*
X158228971Y-121507919D01*
X158228976Y-121507921D01*
X158228979Y-121507923D01*
X158483368Y-121613295D01*
X158749334Y-121684560D01*
X159022326Y-121720500D01*
X159022333Y-121720500D01*
X159297667Y-121720500D01*
X159297674Y-121720500D01*
X159570666Y-121684560D01*
X159836632Y-121613295D01*
X160091021Y-121507923D01*
X160329479Y-121370249D01*
X160547928Y-121202628D01*
X160742628Y-121007928D01*
X160910249Y-120789479D01*
X161047923Y-120551021D01*
X161153295Y-120296632D01*
X161224560Y-120030666D01*
X161260500Y-119757674D01*
X161260500Y-119482326D01*
X161224560Y-119209334D01*
X161153295Y-118943368D01*
X161047923Y-118688979D01*
X161047921Y-118688976D01*
X161047919Y-118688971D01*
X160998732Y-118603778D01*
X160910249Y-118450521D01*
X160755876Y-118249337D01*
X160742629Y-118232073D01*
X160742623Y-118232066D01*
X160547933Y-118037376D01*
X160547926Y-118037370D01*
X160329483Y-117869754D01*
X160329482Y-117869753D01*
X160329479Y-117869751D01*
X160216461Y-117804500D01*
X160091028Y-117732080D01*
X160091017Y-117732075D01*
X159836630Y-117626704D01*
X159703649Y-117591072D01*
X159570666Y-117555440D01*
X159570660Y-117555439D01*
X159570655Y-117555438D01*
X159297684Y-117519501D01*
X159297679Y-117519500D01*
X159297674Y-117519500D01*
X159022326Y-117519500D01*
X159022320Y-117519500D01*
X159022315Y-117519501D01*
X158749344Y-117555438D01*
X158749337Y-117555439D01*
X158749334Y-117555440D01*
X158693125Y-117570500D01*
X158483369Y-117626704D01*
X158228982Y-117732075D01*
X158228971Y-117732080D01*
X157990516Y-117869754D01*
X157772073Y-118037370D01*
X157772066Y-118037376D01*
X157577376Y-118232066D01*
X157577370Y-118232073D01*
X157409754Y-118450516D01*
X157272080Y-118688971D01*
X157272075Y-118688982D01*
X157166704Y-118943369D01*
X157095441Y-119209331D01*
X157095438Y-119209344D01*
X157059501Y-119482315D01*
X157059500Y-119482332D01*
X153786902Y-119482332D01*
X162369250Y-110899983D01*
X168699500Y-110899983D01*
X168699500Y-112100001D01*
X168699501Y-112100018D01*
X168710000Y-112202796D01*
X168710001Y-112202799D01*
X168758885Y-112350318D01*
X168765186Y-112369334D01*
X168857288Y-112518656D01*
X168981344Y-112642712D01*
X169130666Y-112734814D01*
X169297203Y-112789999D01*
X169399991Y-112800500D01*
X170600008Y-112800499D01*
X170702797Y-112789999D01*
X170869334Y-112734814D01*
X171018656Y-112642712D01*
X171142712Y-112518656D01*
X171234814Y-112369334D01*
X171258102Y-112299054D01*
X171262110Y-112291050D01*
X171280060Y-112271772D01*
X171295055Y-112250116D01*
X171303495Y-112246606D01*
X171309725Y-112239917D01*
X171335249Y-112233404D01*
X171359571Y-112223292D01*
X171375834Y-112223048D01*
X171377425Y-112222643D01*
X171378523Y-112223008D01*
X171382719Y-112222946D01*
X171420525Y-112225921D01*
X172100000Y-111546446D01*
X172100000Y-111552661D01*
X172127259Y-111654394D01*
X172179920Y-111745606D01*
X172254394Y-111820080D01*
X172345606Y-111872741D01*
X172447339Y-111900000D01*
X172453553Y-111900000D01*
X171774076Y-112579474D01*
X171818650Y-112611859D01*
X172000968Y-112704755D01*
X172195582Y-112767990D01*
X172397683Y-112800000D01*
X172602317Y-112800000D01*
X172804417Y-112767990D01*
X172999031Y-112704755D01*
X173181349Y-112611859D01*
X173225921Y-112579474D01*
X172546447Y-111900000D01*
X172552661Y-111900000D01*
X172654394Y-111872741D01*
X172745606Y-111820080D01*
X172820080Y-111745606D01*
X172872741Y-111654394D01*
X172900000Y-111552661D01*
X172900000Y-111546447D01*
X173579474Y-112225921D01*
X173611859Y-112181349D01*
X173704755Y-111999031D01*
X173767990Y-111804417D01*
X173800000Y-111602317D01*
X173800000Y-111397682D01*
X173767990Y-111195582D01*
X173704755Y-111000968D01*
X173611859Y-110818650D01*
X173579474Y-110774077D01*
X173579474Y-110774076D01*
X172900000Y-111453551D01*
X172900000Y-111447339D01*
X172872741Y-111345606D01*
X172820080Y-111254394D01*
X172745606Y-111179920D01*
X172654394Y-111127259D01*
X172552661Y-111100000D01*
X172546446Y-111100000D01*
X173225922Y-110420524D01*
X173225921Y-110420523D01*
X173181359Y-110388147D01*
X173181350Y-110388141D01*
X172999031Y-110295244D01*
X172804417Y-110232009D01*
X172602317Y-110200000D01*
X172397683Y-110200000D01*
X172195582Y-110232009D01*
X172000968Y-110295244D01*
X171818644Y-110388143D01*
X171774077Y-110420523D01*
X171774077Y-110420524D01*
X172453554Y-111100000D01*
X172447339Y-111100000D01*
X172345606Y-111127259D01*
X172254394Y-111179920D01*
X172179920Y-111254394D01*
X172127259Y-111345606D01*
X172100000Y-111447339D01*
X172100000Y-111453553D01*
X171420524Y-110774077D01*
X171382719Y-110777053D01*
X171314341Y-110762689D01*
X171264584Y-110713638D01*
X171262110Y-110708949D01*
X171258101Y-110700942D01*
X171234814Y-110630666D01*
X171142712Y-110481344D01*
X171018656Y-110357288D01*
X170869334Y-110265186D01*
X170702797Y-110210001D01*
X170702795Y-110210000D01*
X170600010Y-110199500D01*
X169399998Y-110199500D01*
X169399981Y-110199501D01*
X169297203Y-110210000D01*
X169297200Y-110210001D01*
X169130668Y-110265185D01*
X169130663Y-110265187D01*
X168981342Y-110357289D01*
X168857289Y-110481342D01*
X168765187Y-110630663D01*
X168765185Y-110630668D01*
X168764979Y-110631290D01*
X168710001Y-110797203D01*
X168710001Y-110797204D01*
X168710000Y-110797204D01*
X168699500Y-110899983D01*
X162369250Y-110899983D01*
X164817076Y-108452157D01*
X164878397Y-108418674D01*
X164943073Y-108421909D01*
X165085805Y-108468285D01*
X165125215Y-108481090D01*
X165374038Y-108520500D01*
X165374039Y-108520500D01*
X165625961Y-108520500D01*
X165625962Y-108520500D01*
X165874785Y-108481090D01*
X166114379Y-108403241D01*
X166338845Y-108288870D01*
X166542656Y-108140793D01*
X166720793Y-107962656D01*
X166868870Y-107758845D01*
X166983241Y-107534379D01*
X167061090Y-107294785D01*
X167100500Y-107045962D01*
X167100500Y-106794038D01*
X167061090Y-106545215D01*
X166983241Y-106305621D01*
X166983239Y-106305618D01*
X166983239Y-106305616D01*
X166938644Y-106218094D01*
X166868870Y-106081155D01*
X166782756Y-105962629D01*
X166720798Y-105877350D01*
X166720794Y-105877345D01*
X166542654Y-105699205D01*
X166542649Y-105699201D01*
X166338848Y-105551132D01*
X166338847Y-105551131D01*
X166338845Y-105551130D01*
X166260729Y-105511328D01*
X166114383Y-105436760D01*
X165874785Y-105358910D01*
X165818410Y-105349981D01*
X165625962Y-105319500D01*
X165374038Y-105319500D01*
X165249626Y-105339205D01*
X165125214Y-105358910D01*
X165071134Y-105376482D01*
X164943074Y-105418091D01*
X164873234Y-105420086D01*
X164817076Y-105387841D01*
X162326883Y-102897648D01*
X167199500Y-102897648D01*
X167199500Y-103102352D01*
X167203324Y-103126497D01*
X167231522Y-103304534D01*
X167294781Y-103499223D01*
X167345483Y-103598729D01*
X167387585Y-103681359D01*
X167387715Y-103681613D01*
X167508028Y-103847213D01*
X167652786Y-103991971D01*
X167773226Y-104079474D01*
X167818390Y-104112287D01*
X167896184Y-104151925D01*
X168000776Y-104205218D01*
X168000778Y-104205218D01*
X168000781Y-104205220D01*
X168105137Y-104239127D01*
X168195465Y-104268477D01*
X168296557Y-104284488D01*
X168397648Y-104300500D01*
X168397649Y-104300500D01*
X168602351Y-104300500D01*
X168602352Y-104300500D01*
X168804534Y-104268477D01*
X168999219Y-104205220D01*
X169181610Y-104112287D01*
X169299761Y-104026446D01*
X169347213Y-103991971D01*
X169347215Y-103991968D01*
X169347219Y-103991966D01*
X169491966Y-103847219D01*
X169491968Y-103847215D01*
X169491971Y-103847213D01*
X169570320Y-103739373D01*
X169612287Y-103681610D01*
X169705220Y-103499219D01*
X169768477Y-103304534D01*
X169800500Y-103102352D01*
X169800500Y-102897682D01*
X172200000Y-102897682D01*
X172200000Y-103102317D01*
X172232009Y-103304417D01*
X172295244Y-103499031D01*
X172388141Y-103681350D01*
X172388147Y-103681359D01*
X172420523Y-103725921D01*
X172420524Y-103725922D01*
X173100000Y-103046446D01*
X173100000Y-103052661D01*
X173127259Y-103154394D01*
X173179920Y-103245606D01*
X173254394Y-103320080D01*
X173345606Y-103372741D01*
X173447339Y-103400000D01*
X173453553Y-103400000D01*
X172774076Y-104079474D01*
X172818650Y-104111859D01*
X173000968Y-104204755D01*
X173195582Y-104267990D01*
X173397683Y-104300000D01*
X173602317Y-104300000D01*
X173804417Y-104267990D01*
X173999031Y-104204755D01*
X174181349Y-104111859D01*
X174225921Y-104079474D01*
X173546447Y-103400000D01*
X173552661Y-103400000D01*
X173654394Y-103372741D01*
X173745606Y-103320080D01*
X173820080Y-103245606D01*
X173872741Y-103154394D01*
X173900000Y-103052661D01*
X173900000Y-103046448D01*
X174579474Y-103725922D01*
X174579474Y-103725921D01*
X174611859Y-103681349D01*
X174704755Y-103499031D01*
X174767990Y-103304417D01*
X174800000Y-103102317D01*
X174800000Y-102897682D01*
X174767990Y-102695582D01*
X174704755Y-102500968D01*
X174611859Y-102318650D01*
X174579474Y-102274077D01*
X174579474Y-102274076D01*
X173900000Y-102953551D01*
X173900000Y-102947339D01*
X173872741Y-102845606D01*
X173820080Y-102754394D01*
X173745606Y-102679920D01*
X173654394Y-102627259D01*
X173552661Y-102600000D01*
X173546446Y-102600000D01*
X174225922Y-101920524D01*
X174225921Y-101920523D01*
X174181359Y-101888147D01*
X174181350Y-101888141D01*
X173999031Y-101795244D01*
X173804417Y-101732009D01*
X173602317Y-101700000D01*
X173397683Y-101700000D01*
X173195582Y-101732009D01*
X173000968Y-101795244D01*
X172818644Y-101888143D01*
X172774077Y-101920523D01*
X172774077Y-101920524D01*
X173453554Y-102600000D01*
X173447339Y-102600000D01*
X173345606Y-102627259D01*
X173254394Y-102679920D01*
X173179920Y-102754394D01*
X173127259Y-102845606D01*
X173100000Y-102947339D01*
X173100000Y-102953553D01*
X172420524Y-102274077D01*
X172420523Y-102274077D01*
X172388143Y-102318644D01*
X172295244Y-102500968D01*
X172232009Y-102695582D01*
X172200000Y-102897682D01*
X169800500Y-102897682D01*
X169800500Y-102897648D01*
X169784617Y-102797370D01*
X169768477Y-102695465D01*
X169737458Y-102600000D01*
X169705220Y-102500781D01*
X169705218Y-102500778D01*
X169705218Y-102500776D01*
X169647095Y-102386705D01*
X169612287Y-102318390D01*
X169580092Y-102274077D01*
X169491971Y-102152786D01*
X169347213Y-102008028D01*
X169181613Y-101887715D01*
X169181612Y-101887714D01*
X169181610Y-101887713D01*
X169114862Y-101853703D01*
X168999223Y-101794781D01*
X168804534Y-101731522D01*
X168629995Y-101703878D01*
X168602352Y-101699500D01*
X168397648Y-101699500D01*
X168373329Y-101703351D01*
X168195465Y-101731522D01*
X168000776Y-101794781D01*
X167818386Y-101887715D01*
X167652786Y-102008028D01*
X167508028Y-102152786D01*
X167387715Y-102318386D01*
X167294781Y-102500776D01*
X167231522Y-102695465D01*
X167199500Y-102897648D01*
X162326883Y-102897648D01*
X159049950Y-99620715D01*
X159016465Y-99559392D01*
X159021449Y-99489700D01*
X159063321Y-99433767D01*
X159118228Y-99410562D01*
X159194534Y-99398477D01*
X159389219Y-99335220D01*
X159571610Y-99242287D01*
X159664590Y-99174732D01*
X159737213Y-99121971D01*
X159737215Y-99121968D01*
X159737219Y-99121966D01*
X159881966Y-98977219D01*
X159881968Y-98977215D01*
X159881971Y-98977213D01*
X160002284Y-98811614D01*
X160002286Y-98811611D01*
X160002287Y-98811610D01*
X160049516Y-98718917D01*
X160097489Y-98668123D01*
X160165310Y-98651328D01*
X160231445Y-98673865D01*
X160270483Y-98718917D01*
X160314348Y-98805006D01*
X160317715Y-98811614D01*
X160438028Y-98977213D01*
X160582786Y-99121971D01*
X160720338Y-99221906D01*
X160748390Y-99242287D01*
X160829499Y-99283614D01*
X160930776Y-99335218D01*
X160930778Y-99335218D01*
X160930781Y-99335220D01*
X161001448Y-99358181D01*
X161125465Y-99398477D01*
X161201754Y-99410560D01*
X161327648Y-99430500D01*
X161327649Y-99430500D01*
X161532351Y-99430500D01*
X161532352Y-99430500D01*
X161734534Y-99398477D01*
X161929219Y-99335220D01*
X162111610Y-99242287D01*
X162204590Y-99174732D01*
X162277213Y-99121971D01*
X162277215Y-99121968D01*
X162277219Y-99121966D01*
X162421966Y-98977219D01*
X162421968Y-98977215D01*
X162421971Y-98977213D01*
X162542284Y-98811614D01*
X162542286Y-98811611D01*
X162542287Y-98811610D01*
X162589516Y-98718917D01*
X162637489Y-98668123D01*
X162705310Y-98651328D01*
X162771445Y-98673865D01*
X162810483Y-98718917D01*
X162854348Y-98805006D01*
X162857715Y-98811614D01*
X162978028Y-98977213D01*
X163122786Y-99121971D01*
X163260338Y-99221906D01*
X163288390Y-99242287D01*
X163369499Y-99283614D01*
X163470776Y-99335218D01*
X163470778Y-99335218D01*
X163470781Y-99335220D01*
X163541448Y-99358181D01*
X163665465Y-99398477D01*
X163741754Y-99410560D01*
X163867648Y-99430500D01*
X163867649Y-99430500D01*
X164072351Y-99430500D01*
X164072352Y-99430500D01*
X164274534Y-99398477D01*
X164469219Y-99335220D01*
X164651610Y-99242287D01*
X164744590Y-99174732D01*
X164817213Y-99121971D01*
X164817215Y-99121968D01*
X164817219Y-99121966D01*
X164961966Y-98977219D01*
X164961968Y-98977215D01*
X164961971Y-98977213D01*
X165082284Y-98811614D01*
X165082286Y-98811611D01*
X165082287Y-98811610D01*
X165129795Y-98718369D01*
X165177770Y-98667574D01*
X165245591Y-98650779D01*
X165311725Y-98673316D01*
X165350765Y-98718370D01*
X165398140Y-98811349D01*
X165518417Y-98976894D01*
X165518417Y-98976895D01*
X165663104Y-99121582D01*
X165828650Y-99241859D01*
X166010968Y-99334754D01*
X166205578Y-99397988D01*
X166260000Y-99406607D01*
X166260000Y-98563012D01*
X166317007Y-98595925D01*
X166444174Y-98630000D01*
X166575826Y-98630000D01*
X166702993Y-98595925D01*
X166760000Y-98563012D01*
X166760000Y-99406606D01*
X166814421Y-99397988D01*
X167009031Y-99334754D01*
X167191349Y-99241859D01*
X167356894Y-99121582D01*
X167356895Y-99121582D01*
X167501582Y-98976895D01*
X167501582Y-98976894D01*
X167621861Y-98811347D01*
X167669234Y-98718371D01*
X167717208Y-98667575D01*
X167785028Y-98650779D01*
X167851164Y-98673316D01*
X167890203Y-98718369D01*
X167937713Y-98811611D01*
X168058028Y-98977213D01*
X168202786Y-99121971D01*
X168340338Y-99221906D01*
X168368390Y-99242287D01*
X168449499Y-99283614D01*
X168550776Y-99335218D01*
X168550778Y-99335218D01*
X168550781Y-99335220D01*
X168621448Y-99358181D01*
X168745465Y-99398477D01*
X168821754Y-99410560D01*
X168947648Y-99430500D01*
X168947649Y-99430500D01*
X169152351Y-99430500D01*
X169152352Y-99430500D01*
X169354534Y-99398477D01*
X169549219Y-99335220D01*
X169731610Y-99242287D01*
X169824590Y-99174732D01*
X169897213Y-99121971D01*
X169897215Y-99121968D01*
X169897219Y-99121966D01*
X170041966Y-98977219D01*
X170041968Y-98977215D01*
X170041971Y-98977213D01*
X170094732Y-98904590D01*
X170162287Y-98811610D01*
X170255220Y-98629219D01*
X170318477Y-98434534D01*
X170350500Y-98232352D01*
X170350500Y-98027648D01*
X170318477Y-97825466D01*
X170317673Y-97822993D01*
X170255218Y-97630776D01*
X170209515Y-97541080D01*
X170162287Y-97448390D01*
X170154556Y-97437749D01*
X170041971Y-97282786D01*
X169897213Y-97138028D01*
X169731613Y-97017715D01*
X169731612Y-97017714D01*
X169731610Y-97017713D01*
X169674653Y-96988691D01*
X169549223Y-96924781D01*
X169354534Y-96861522D01*
X169179995Y-96833878D01*
X169152352Y-96829500D01*
X168947648Y-96829500D01*
X168923329Y-96833351D01*
X168745465Y-96861522D01*
X168550776Y-96924781D01*
X168368386Y-97017715D01*
X168202786Y-97138028D01*
X168058028Y-97282786D01*
X167937713Y-97448388D01*
X167890203Y-97541630D01*
X167842228Y-97592426D01*
X167774407Y-97609220D01*
X167708272Y-97586682D01*
X167669234Y-97541628D01*
X167621861Y-97448652D01*
X167501582Y-97283105D01*
X167501582Y-97283104D01*
X167356895Y-97138417D01*
X167191349Y-97018140D01*
X167009029Y-96925244D01*
X166814413Y-96862009D01*
X166760000Y-96853390D01*
X166760000Y-97696988D01*
X166702993Y-97664075D01*
X166575826Y-97630000D01*
X166444174Y-97630000D01*
X166317007Y-97664075D01*
X166260000Y-97696988D01*
X166260000Y-96853390D01*
X166205586Y-96862009D01*
X166010970Y-96925244D01*
X165828650Y-97018140D01*
X165663105Y-97138417D01*
X165663104Y-97138417D01*
X165518417Y-97283104D01*
X165518417Y-97283105D01*
X165398140Y-97448650D01*
X165350765Y-97541629D01*
X165302790Y-97592425D01*
X165234969Y-97609220D01*
X165168834Y-97586682D01*
X165129795Y-97541629D01*
X165082419Y-97448650D01*
X165082287Y-97448390D01*
X165074556Y-97437749D01*
X164961971Y-97282786D01*
X164817213Y-97138028D01*
X164651613Y-97017715D01*
X164651612Y-97017714D01*
X164651610Y-97017713D01*
X164594653Y-96988691D01*
X164469223Y-96924781D01*
X164274534Y-96861522D01*
X164099995Y-96833878D01*
X164072352Y-96829500D01*
X163867648Y-96829500D01*
X163843329Y-96833351D01*
X163665465Y-96861522D01*
X163470776Y-96924781D01*
X163288386Y-97017715D01*
X163122786Y-97138028D01*
X162978028Y-97282786D01*
X162857715Y-97448386D01*
X162810485Y-97541080D01*
X162762510Y-97591876D01*
X162694689Y-97608671D01*
X162628554Y-97586134D01*
X162589515Y-97541080D01*
X162581304Y-97524966D01*
X162542287Y-97448390D01*
X162534556Y-97437749D01*
X162421971Y-97282786D01*
X162277213Y-97138028D01*
X162111613Y-97017715D01*
X162111612Y-97017714D01*
X162111610Y-97017713D01*
X162054653Y-96988691D01*
X161929223Y-96924781D01*
X161734534Y-96861522D01*
X161559995Y-96833878D01*
X161532352Y-96829500D01*
X161327648Y-96829500D01*
X161303329Y-96833351D01*
X161125465Y-96861522D01*
X160930776Y-96924781D01*
X160748386Y-97017715D01*
X160582786Y-97138028D01*
X160438028Y-97282786D01*
X160317715Y-97448386D01*
X160270485Y-97541080D01*
X160222510Y-97591876D01*
X160154689Y-97608671D01*
X160088554Y-97586134D01*
X160049515Y-97541080D01*
X160041304Y-97524966D01*
X160002287Y-97448390D01*
X159994556Y-97437749D01*
X159881971Y-97282786D01*
X159737213Y-97138028D01*
X159571613Y-97017715D01*
X159571612Y-97017714D01*
X159571610Y-97017713D01*
X159514653Y-96988691D01*
X159389223Y-96924781D01*
X159194534Y-96861522D01*
X159019995Y-96833878D01*
X158992352Y-96829500D01*
X158787648Y-96829500D01*
X158763329Y-96833351D01*
X158585465Y-96861522D01*
X158390776Y-96924781D01*
X158208386Y-97017715D01*
X158042786Y-97138028D01*
X157898028Y-97282786D01*
X157777715Y-97448386D01*
X157730485Y-97541080D01*
X157682510Y-97591876D01*
X157614689Y-97608671D01*
X157548554Y-97586134D01*
X157509515Y-97541080D01*
X157501304Y-97524966D01*
X157462287Y-97448390D01*
X157454556Y-97437749D01*
X157341971Y-97282786D01*
X157197213Y-97138028D01*
X157031613Y-97017715D01*
X157031612Y-97017714D01*
X157031610Y-97017713D01*
X156974653Y-96988691D01*
X156849223Y-96924781D01*
X156654534Y-96861522D01*
X156479995Y-96833878D01*
X156452352Y-96829500D01*
X156247648Y-96829500D01*
X156223329Y-96833351D01*
X156045465Y-96861522D01*
X155893759Y-96910815D01*
X155850781Y-96924780D01*
X155850778Y-96924781D01*
X155850776Y-96924782D01*
X155691795Y-97005787D01*
X155623125Y-97018683D01*
X155558385Y-96992407D01*
X155518128Y-96935300D01*
X155511500Y-96895302D01*
X155511500Y-90717110D01*
X155511501Y-90717097D01*
X155511501Y-90548994D01*
X155470576Y-90396264D01*
X155470573Y-90396259D01*
X155391524Y-90259340D01*
X155391518Y-90259332D01*
X149348700Y-84216515D01*
X149315215Y-84155192D01*
X149320199Y-84085500D01*
X149362071Y-84029567D01*
X149380083Y-84018350D01*
X149411610Y-84002287D01*
X149485897Y-83948315D01*
X149577213Y-83881971D01*
X149577215Y-83881968D01*
X149577219Y-83881966D01*
X149721966Y-83737219D01*
X149721968Y-83737215D01*
X149721971Y-83737213D01*
X149842284Y-83571614D01*
X149842286Y-83571611D01*
X149842287Y-83571610D01*
X149889516Y-83478917D01*
X149937489Y-83428123D01*
X150005310Y-83411328D01*
X150071445Y-83433865D01*
X150110485Y-83478919D01*
X150157715Y-83571614D01*
X150278028Y-83737213D01*
X150422786Y-83881971D01*
X150577749Y-83994556D01*
X150588390Y-84002287D01*
X150675485Y-84046664D01*
X150770776Y-84095218D01*
X150770778Y-84095218D01*
X150770781Y-84095220D01*
X150858627Y-84123763D01*
X150965465Y-84158477D01*
X151035175Y-84169518D01*
X151167648Y-84190500D01*
X151167649Y-84190500D01*
X151372351Y-84190500D01*
X151372352Y-84190500D01*
X151574534Y-84158477D01*
X151769219Y-84095220D01*
X151951610Y-84002287D01*
X152060312Y-83923311D01*
X152117213Y-83881971D01*
X152117215Y-83881968D01*
X152117219Y-83881966D01*
X152261966Y-83737219D01*
X152261968Y-83737215D01*
X152261971Y-83737213D01*
X152382284Y-83571614D01*
X152382286Y-83571611D01*
X152382287Y-83571610D01*
X152429516Y-83478917D01*
X152477489Y-83428123D01*
X152545310Y-83411328D01*
X152611445Y-83433865D01*
X152650485Y-83478919D01*
X152697715Y-83571614D01*
X152818028Y-83737213D01*
X152962786Y-83881971D01*
X153117749Y-83994556D01*
X153128390Y-84002287D01*
X153215485Y-84046664D01*
X153310776Y-84095218D01*
X153310778Y-84095218D01*
X153310781Y-84095220D01*
X153398627Y-84123763D01*
X153505465Y-84158477D01*
X153575175Y-84169518D01*
X153707648Y-84190500D01*
X153707649Y-84190500D01*
X153912351Y-84190500D01*
X153912352Y-84190500D01*
X154114534Y-84158477D01*
X154309219Y-84095220D01*
X154491610Y-84002287D01*
X154600312Y-83923311D01*
X154657213Y-83881971D01*
X154657215Y-83881968D01*
X154657219Y-83881966D01*
X154801966Y-83737219D01*
X154801968Y-83737215D01*
X154801971Y-83737213D01*
X154922284Y-83571614D01*
X154922286Y-83571611D01*
X154922287Y-83571610D01*
X154969516Y-83478917D01*
X155017489Y-83428123D01*
X155085310Y-83411328D01*
X155151445Y-83433865D01*
X155190485Y-83478919D01*
X155237715Y-83571614D01*
X155358028Y-83737213D01*
X155502786Y-83881971D01*
X155657749Y-83994556D01*
X155668390Y-84002287D01*
X155755485Y-84046664D01*
X155850776Y-84095218D01*
X155850778Y-84095218D01*
X155850781Y-84095220D01*
X155938627Y-84123763D01*
X156045465Y-84158477D01*
X156115175Y-84169518D01*
X156247648Y-84190500D01*
X156247649Y-84190500D01*
X156452351Y-84190500D01*
X156452352Y-84190500D01*
X156654534Y-84158477D01*
X156849219Y-84095220D01*
X157031610Y-84002287D01*
X157140312Y-83923311D01*
X157197213Y-83881971D01*
X157197215Y-83881968D01*
X157197219Y-83881966D01*
X157341966Y-83737219D01*
X157341968Y-83737215D01*
X157341971Y-83737213D01*
X157462284Y-83571614D01*
X157462286Y-83571611D01*
X157462287Y-83571610D01*
X157509516Y-83478917D01*
X157557489Y-83428123D01*
X157625310Y-83411328D01*
X157691445Y-83433865D01*
X157730485Y-83478919D01*
X157777715Y-83571614D01*
X157898028Y-83737213D01*
X158042786Y-83881971D01*
X158197749Y-83994556D01*
X158208390Y-84002287D01*
X158295485Y-84046664D01*
X158390776Y-84095218D01*
X158390778Y-84095218D01*
X158390781Y-84095220D01*
X158478627Y-84123763D01*
X158585465Y-84158477D01*
X158655175Y-84169518D01*
X158787648Y-84190500D01*
X158787649Y-84190500D01*
X158992351Y-84190500D01*
X158992352Y-84190500D01*
X159194534Y-84158477D01*
X159389219Y-84095220D01*
X159571610Y-84002287D01*
X159680312Y-83923311D01*
X159737213Y-83881971D01*
X159737215Y-83881968D01*
X159737219Y-83881966D01*
X159881966Y-83737219D01*
X159881968Y-83737215D01*
X159881971Y-83737213D01*
X160002284Y-83571614D01*
X160002286Y-83571611D01*
X160002287Y-83571610D01*
X160049795Y-83478369D01*
X160097770Y-83427574D01*
X160165591Y-83410779D01*
X160231725Y-83433316D01*
X160270765Y-83478370D01*
X160318140Y-83571349D01*
X160438417Y-83736894D01*
X160438417Y-83736895D01*
X160583104Y-83881582D01*
X160748650Y-84001859D01*
X160930968Y-84094754D01*
X161125578Y-84157988D01*
X161180000Y-84166607D01*
X161180000Y-83323012D01*
X161237007Y-83355925D01*
X161364174Y-83390000D01*
X161495826Y-83390000D01*
X161622993Y-83355925D01*
X161680000Y-83323012D01*
X161680000Y-84166606D01*
X161734421Y-84157988D01*
X161929031Y-84094754D01*
X162111349Y-84001859D01*
X162276894Y-83881582D01*
X162276895Y-83881582D01*
X162421582Y-83736895D01*
X162421582Y-83736894D01*
X162541861Y-83571347D01*
X162589234Y-83478371D01*
X162637208Y-83427575D01*
X162705028Y-83410779D01*
X162771164Y-83433316D01*
X162810203Y-83478369D01*
X162857713Y-83571611D01*
X162978028Y-83737213D01*
X163122786Y-83881971D01*
X163277749Y-83994556D01*
X163288390Y-84002287D01*
X163375485Y-84046664D01*
X163470776Y-84095218D01*
X163470778Y-84095218D01*
X163470781Y-84095220D01*
X163558627Y-84123763D01*
X163665465Y-84158477D01*
X163735175Y-84169518D01*
X163867648Y-84190500D01*
X163867649Y-84190500D01*
X164072351Y-84190500D01*
X164072352Y-84190500D01*
X164274534Y-84158477D01*
X164469219Y-84095220D01*
X164651610Y-84002287D01*
X164760312Y-83923311D01*
X164817213Y-83881971D01*
X164817215Y-83881968D01*
X164817219Y-83881966D01*
X164961966Y-83737219D01*
X164961968Y-83737215D01*
X164961971Y-83737213D01*
X165082284Y-83571614D01*
X165082286Y-83571611D01*
X165082287Y-83571610D01*
X165129516Y-83478917D01*
X165177489Y-83428123D01*
X165245310Y-83411328D01*
X165311445Y-83433865D01*
X165350485Y-83478919D01*
X165397715Y-83571614D01*
X165518028Y-83737213D01*
X165662786Y-83881971D01*
X165817749Y-83994556D01*
X165828390Y-84002287D01*
X165915485Y-84046664D01*
X166010776Y-84095218D01*
X166010778Y-84095218D01*
X166010781Y-84095220D01*
X166098627Y-84123763D01*
X166205465Y-84158477D01*
X166275175Y-84169518D01*
X166407648Y-84190500D01*
X166407649Y-84190500D01*
X166612351Y-84190500D01*
X166612352Y-84190500D01*
X166814534Y-84158477D01*
X167009219Y-84095220D01*
X167191610Y-84002287D01*
X167300312Y-83923311D01*
X167357213Y-83881971D01*
X167357215Y-83881968D01*
X167357219Y-83881966D01*
X167501966Y-83737219D01*
X167528330Y-83700930D01*
X167583658Y-83658265D01*
X167653271Y-83652284D01*
X167715067Y-83684889D01*
X167749426Y-83745726D01*
X167751938Y-83760559D01*
X167755907Y-83797480D01*
X167806202Y-83932328D01*
X167806206Y-83932335D01*
X167892452Y-84047544D01*
X167892455Y-84047547D01*
X168007664Y-84133793D01*
X168007671Y-84133797D01*
X168142517Y-84184091D01*
X168142516Y-84184091D01*
X168149444Y-84184835D01*
X168202127Y-84190500D01*
X169897872Y-84190499D01*
X169957483Y-84184091D01*
X170092331Y-84133796D01*
X170207546Y-84047546D01*
X170293796Y-83932331D01*
X170344091Y-83797483D01*
X170350500Y-83737873D01*
X170350499Y-82042128D01*
X170344091Y-81982517D01*
X170343346Y-81980520D01*
X170293797Y-81847671D01*
X170293793Y-81847664D01*
X170207547Y-81732455D01*
X170207544Y-81732452D01*
X170092335Y-81646206D01*
X170092328Y-81646202D01*
X169957482Y-81595908D01*
X169957483Y-81595908D01*
X169897883Y-81589501D01*
X169897881Y-81589500D01*
X169897873Y-81589500D01*
X169897864Y-81589500D01*
X168202129Y-81589500D01*
X168202123Y-81589501D01*
X168142516Y-81595908D01*
X168007671Y-81646202D01*
X168007664Y-81646206D01*
X167892455Y-81732452D01*
X167892452Y-81732455D01*
X167806206Y-81847664D01*
X167806202Y-81847671D01*
X167755908Y-81982516D01*
X167751939Y-82019440D01*
X167725201Y-82083991D01*
X167667809Y-82123839D01*
X167597983Y-82126332D01*
X167537895Y-82090679D01*
X167528332Y-82079070D01*
X167501967Y-82042782D01*
X167357213Y-81898028D01*
X167191613Y-81777715D01*
X167191612Y-81777714D01*
X167191610Y-81777713D01*
X167134653Y-81748691D01*
X167009223Y-81684781D01*
X166814534Y-81621522D01*
X166639995Y-81593878D01*
X166612352Y-81589500D01*
X166407648Y-81589500D01*
X166383329Y-81593351D01*
X166205465Y-81621522D01*
X166010776Y-81684781D01*
X165828386Y-81777715D01*
X165662786Y-81898028D01*
X165518028Y-82042786D01*
X165397715Y-82208386D01*
X165350485Y-82301080D01*
X165302510Y-82351876D01*
X165234689Y-82368671D01*
X165168554Y-82346134D01*
X165129515Y-82301080D01*
X165082419Y-82208650D01*
X165082287Y-82208390D01*
X165020858Y-82123839D01*
X164961971Y-82042786D01*
X164817213Y-81898028D01*
X164651613Y-81777715D01*
X164651612Y-81777714D01*
X164651610Y-81777713D01*
X164594653Y-81748691D01*
X164469223Y-81684781D01*
X164274534Y-81621522D01*
X164099995Y-81593878D01*
X164072352Y-81589500D01*
X163867648Y-81589500D01*
X163843329Y-81593351D01*
X163665465Y-81621522D01*
X163470776Y-81684781D01*
X163288386Y-81777715D01*
X163122786Y-81898028D01*
X162978028Y-82042786D01*
X162857713Y-82208388D01*
X162810203Y-82301630D01*
X162762228Y-82352426D01*
X162694407Y-82369220D01*
X162628272Y-82346682D01*
X162589234Y-82301628D01*
X162541861Y-82208652D01*
X162421582Y-82043105D01*
X162421582Y-82043104D01*
X162276895Y-81898417D01*
X162111349Y-81778140D01*
X161929029Y-81685244D01*
X161734413Y-81622009D01*
X161680000Y-81613390D01*
X161680000Y-82456988D01*
X161622993Y-82424075D01*
X161495826Y-82390000D01*
X161364174Y-82390000D01*
X161237007Y-82424075D01*
X161180000Y-82456988D01*
X161180000Y-81613390D01*
X161125586Y-81622009D01*
X160930970Y-81685244D01*
X160748650Y-81778140D01*
X160583105Y-81898417D01*
X160583104Y-81898417D01*
X160438417Y-82043104D01*
X160438417Y-82043105D01*
X160318140Y-82208650D01*
X160270765Y-82301629D01*
X160222790Y-82352425D01*
X160154969Y-82369220D01*
X160088834Y-82346682D01*
X160049795Y-82301629D01*
X160002419Y-82208650D01*
X160002287Y-82208390D01*
X159940858Y-82123839D01*
X159881971Y-82042786D01*
X159737213Y-81898028D01*
X159571613Y-81777715D01*
X159571612Y-81777714D01*
X159571610Y-81777713D01*
X159514653Y-81748691D01*
X159389223Y-81684781D01*
X159194534Y-81621522D01*
X159019995Y-81593878D01*
X158992352Y-81589500D01*
X158787648Y-81589500D01*
X158763329Y-81593351D01*
X158585465Y-81621522D01*
X158390776Y-81684781D01*
X158208386Y-81777715D01*
X158042786Y-81898028D01*
X157898028Y-82042786D01*
X157777715Y-82208386D01*
X157730485Y-82301080D01*
X157682510Y-82351876D01*
X157614689Y-82368671D01*
X157548554Y-82346134D01*
X157509515Y-82301080D01*
X157462419Y-82208650D01*
X157462287Y-82208390D01*
X157400858Y-82123839D01*
X157341971Y-82042786D01*
X157197213Y-81898028D01*
X157031613Y-81777715D01*
X157031612Y-81777714D01*
X157031610Y-81777713D01*
X156974653Y-81748691D01*
X156849223Y-81684781D01*
X156654534Y-81621522D01*
X156479995Y-81593878D01*
X156452352Y-81589500D01*
X156247648Y-81589500D01*
X156223329Y-81593351D01*
X156045465Y-81621522D01*
X155850776Y-81684781D01*
X155668386Y-81777715D01*
X155502786Y-81898028D01*
X155358028Y-82042786D01*
X155237715Y-82208386D01*
X155190485Y-82301080D01*
X155142510Y-82351876D01*
X155074689Y-82368671D01*
X155008554Y-82346134D01*
X154969515Y-82301080D01*
X154922419Y-82208650D01*
X154922287Y-82208390D01*
X154860858Y-82123839D01*
X154801971Y-82042786D01*
X154657213Y-81898028D01*
X154491613Y-81777715D01*
X154491612Y-81777714D01*
X154491610Y-81777713D01*
X154434653Y-81748691D01*
X154309223Y-81684781D01*
X154114534Y-81621522D01*
X153939995Y-81593878D01*
X153912352Y-81589500D01*
X153707648Y-81589500D01*
X153683329Y-81593351D01*
X153505465Y-81621522D01*
X153310776Y-81684781D01*
X153128386Y-81777715D01*
X152962786Y-81898028D01*
X152818028Y-82042786D01*
X152697715Y-82208386D01*
X152650485Y-82301080D01*
X152602510Y-82351876D01*
X152534689Y-82368671D01*
X152468554Y-82346134D01*
X152429515Y-82301080D01*
X152382419Y-82208650D01*
X152382287Y-82208390D01*
X152320858Y-82123839D01*
X152261971Y-82042786D01*
X152117213Y-81898028D01*
X151951613Y-81777715D01*
X151951612Y-81777714D01*
X151951610Y-81777713D01*
X151894653Y-81748691D01*
X151769223Y-81684781D01*
X151574534Y-81621522D01*
X151399995Y-81593878D01*
X151372352Y-81589500D01*
X151167648Y-81589500D01*
X151143329Y-81593351D01*
X150965465Y-81621522D01*
X150770776Y-81684781D01*
X150588386Y-81777715D01*
X150422786Y-81898028D01*
X150278028Y-82042786D01*
X150157715Y-82208386D01*
X150110485Y-82301080D01*
X150062510Y-82351876D01*
X149994689Y-82368671D01*
X149928554Y-82346134D01*
X149889515Y-82301080D01*
X149842419Y-82208650D01*
X149842287Y-82208390D01*
X149780858Y-82123839D01*
X149721971Y-82042786D01*
X149577213Y-81898028D01*
X149411613Y-81777715D01*
X149411612Y-81777714D01*
X149411610Y-81777713D01*
X149354653Y-81748691D01*
X149229223Y-81684781D01*
X149034534Y-81621522D01*
X148859995Y-81593878D01*
X148832352Y-81589500D01*
X148627648Y-81589500D01*
X148587184Y-81595909D01*
X148425464Y-81621523D01*
X148390731Y-81632808D01*
X148320890Y-81634802D01*
X148261058Y-81598720D01*
X148230231Y-81536019D01*
X148228415Y-81514876D01*
X148228415Y-80821975D01*
X148228416Y-80821962D01*
X148228416Y-80653859D01*
X148228416Y-80653858D01*
X148187492Y-80501131D01*
X148136801Y-80413330D01*
X148108439Y-80364205D01*
X148108433Y-80364197D01*
X147580659Y-79836423D01*
X147045415Y-79301180D01*
X147011931Y-79239858D01*
X147016915Y-79170166D01*
X147058787Y-79114233D01*
X147124251Y-79089816D01*
X147133097Y-79089500D01*
X147244361Y-79089500D01*
X147400880Y-79064709D01*
X147460375Y-79055286D01*
X147524474Y-79034458D01*
X147594315Y-79032464D01*
X147650473Y-79064709D01*
G37*
%TD.AperFunction*%
%TA.AperFunction,Conductor*%
G36*
X152557227Y-98655389D02*
G01*
X152569808Y-98654850D01*
X152589673Y-98666445D01*
X152611445Y-98673865D01*
X152620719Y-98684568D01*
X152630150Y-98690073D01*
X152650483Y-98718916D01*
X152694348Y-98805006D01*
X152697715Y-98811614D01*
X152818028Y-98977213D01*
X152962786Y-99121971D01*
X153100338Y-99221906D01*
X153128390Y-99242287D01*
X153209499Y-99283614D01*
X153310776Y-99335218D01*
X153310778Y-99335218D01*
X153310781Y-99335220D01*
X153381448Y-99358181D01*
X153505465Y-99398477D01*
X153581754Y-99410560D01*
X153707648Y-99430500D01*
X153707649Y-99430500D01*
X153912351Y-99430500D01*
X153912352Y-99430500D01*
X154114534Y-99398477D01*
X154309219Y-99335220D01*
X154491610Y-99242287D01*
X154537054Y-99209269D01*
X154602859Y-99185789D01*
X154670913Y-99201614D01*
X154697621Y-99221906D01*
X155071089Y-99595374D01*
X155071099Y-99595385D01*
X155075429Y-99599715D01*
X155075430Y-99599716D01*
X155187234Y-99711520D01*
X155230088Y-99736261D01*
X155274045Y-99761639D01*
X155274047Y-99761641D01*
X155312101Y-99783611D01*
X155324165Y-99790577D01*
X155476893Y-99831501D01*
X155476896Y-99831501D01*
X155642603Y-99831501D01*
X155642619Y-99831500D01*
X157510903Y-99831500D01*
X157577942Y-99851185D01*
X157598584Y-99867819D01*
X159893032Y-102162268D01*
X159926517Y-102223591D01*
X159921533Y-102293283D01*
X159879661Y-102349216D01*
X159814197Y-102373633D01*
X159773258Y-102369724D01*
X159696720Y-102349216D01*
X159570666Y-102315440D01*
X159570660Y-102315439D01*
X159570655Y-102315438D01*
X159297684Y-102279501D01*
X159297679Y-102279500D01*
X159297674Y-102279500D01*
X159022326Y-102279500D01*
X159022320Y-102279500D01*
X159022315Y-102279501D01*
X158749344Y-102315438D01*
X158749337Y-102315439D01*
X158749334Y-102315440D01*
X158693125Y-102330500D01*
X158483369Y-102386704D01*
X158228982Y-102492075D01*
X158228971Y-102492080D01*
X157990516Y-102629754D01*
X157772073Y-102797370D01*
X157772066Y-102797376D01*
X157577376Y-102992066D01*
X157577370Y-102992073D01*
X157409754Y-103210516D01*
X157272080Y-103448971D01*
X157272075Y-103448982D01*
X157166704Y-103703369D01*
X157095441Y-103969331D01*
X157095438Y-103969344D01*
X157059501Y-104242315D01*
X157059500Y-104242332D01*
X157059500Y-104517667D01*
X157059501Y-104517684D01*
X157095438Y-104790655D01*
X157095439Y-104790660D01*
X157095440Y-104790666D01*
X157110247Y-104845925D01*
X157166704Y-105056630D01*
X157272075Y-105311017D01*
X157272080Y-105311028D01*
X157346377Y-105439712D01*
X157409751Y-105549479D01*
X157409753Y-105549482D01*
X157409754Y-105549483D01*
X157577370Y-105767926D01*
X157577376Y-105767933D01*
X157772066Y-105962623D01*
X157772073Y-105962629D01*
X157855376Y-106026549D01*
X157990521Y-106130249D01*
X158142673Y-106218094D01*
X158228971Y-106267919D01*
X158228976Y-106267921D01*
X158228979Y-106267923D01*
X158483368Y-106373295D01*
X158749334Y-106444560D01*
X159022326Y-106480500D01*
X159022333Y-106480500D01*
X159297667Y-106480500D01*
X159297674Y-106480500D01*
X159570666Y-106444560D01*
X159836632Y-106373295D01*
X160091021Y-106267923D01*
X160329479Y-106130249D01*
X160547928Y-105962628D01*
X160742628Y-105767928D01*
X160910249Y-105549479D01*
X161047923Y-105311021D01*
X161153295Y-105056632D01*
X161224560Y-104790666D01*
X161260500Y-104517674D01*
X161260500Y-104242326D01*
X161224560Y-103969334D01*
X161170275Y-103766738D01*
X161171938Y-103696892D01*
X161211101Y-103639029D01*
X161275329Y-103611525D01*
X161344231Y-103623111D01*
X161377731Y-103646967D01*
X163967841Y-106237076D01*
X164001326Y-106298399D01*
X163998091Y-106363074D01*
X163938910Y-106545215D01*
X163899500Y-106794038D01*
X163899500Y-107045962D01*
X163903095Y-107068657D01*
X163938910Y-107294786D01*
X163938910Y-107294789D01*
X163998090Y-107476924D01*
X164000085Y-107546765D01*
X163967840Y-107602923D01*
X152522680Y-119048083D01*
X152514734Y-119052421D01*
X152509309Y-119059669D01*
X152484549Y-119068903D01*
X152461357Y-119081568D01*
X152452327Y-119080922D01*
X152443845Y-119084086D01*
X152418024Y-119078469D01*
X152391665Y-119076584D01*
X152382611Y-119070765D01*
X152375572Y-119069234D01*
X152347318Y-119048083D01*
X152325969Y-119026734D01*
X152292484Y-118965411D01*
X152295719Y-118900735D01*
X152353482Y-118722958D01*
X152392700Y-118475348D01*
X152392700Y-118224652D01*
X152353482Y-117977042D01*
X152303154Y-117822148D01*
X152276014Y-117738617D01*
X152276013Y-117738614D01*
X152182679Y-117555438D01*
X152162199Y-117515243D01*
X152014844Y-117312426D01*
X151837574Y-117135156D01*
X151634757Y-116987801D01*
X151411385Y-116873986D01*
X151411382Y-116873985D01*
X151172959Y-116796518D01*
X151049153Y-116776909D01*
X150925348Y-116757300D01*
X150674652Y-116757300D01*
X150625130Y-116765143D01*
X150427038Y-116796518D01*
X150249263Y-116854280D01*
X150179422Y-116856275D01*
X150123265Y-116824030D01*
X145826819Y-112527584D01*
X145793334Y-112466261D01*
X145790500Y-112439903D01*
X145790500Y-108939098D01*
X145796738Y-108917853D01*
X145798317Y-108895768D01*
X145806390Y-108884983D01*
X145810185Y-108872059D01*
X145826917Y-108857560D01*
X145840187Y-108839833D01*
X145852809Y-108835124D01*
X145862989Y-108826304D01*
X145884902Y-108823153D01*
X145905650Y-108815414D01*
X145918813Y-108818277D01*
X145932147Y-108816360D01*
X145952287Y-108825558D01*
X145973924Y-108830264D01*
X145991651Y-108843534D01*
X145995703Y-108845385D01*
X146002164Y-108851400D01*
X146011284Y-108860520D01*
X146011286Y-108860521D01*
X146018354Y-108867589D01*
X147563181Y-110412416D01*
X147596666Y-110473739D01*
X147599500Y-110500097D01*
X147599500Y-110588695D01*
X147634103Y-110762658D01*
X147634106Y-110762667D01*
X147701983Y-110926540D01*
X147701990Y-110926553D01*
X147800535Y-111074034D01*
X147800538Y-111074038D01*
X147925961Y-111199461D01*
X147925965Y-111199464D01*
X148073446Y-111298009D01*
X148073459Y-111298016D01*
X148188354Y-111345606D01*
X148237334Y-111365894D01*
X148237336Y-111365894D01*
X148237341Y-111365896D01*
X148411304Y-111400499D01*
X148411307Y-111400500D01*
X148411309Y-111400500D01*
X148588693Y-111400500D01*
X148588694Y-111400499D01*
X148646682Y-111388964D01*
X148762658Y-111365896D01*
X148762661Y-111365894D01*
X148762666Y-111365894D01*
X148926547Y-111298013D01*
X149074035Y-111199464D01*
X149199464Y-111074035D01*
X149298013Y-110926547D01*
X149365894Y-110762666D01*
X149375647Y-110713638D01*
X149400499Y-110588695D01*
X149400500Y-110588693D01*
X149400500Y-110411306D01*
X149400499Y-110411304D01*
X149365896Y-110237341D01*
X149365893Y-110237332D01*
X149362581Y-110229337D01*
X149319886Y-110126260D01*
X149298016Y-110073459D01*
X149298009Y-110073446D01*
X149199464Y-109925965D01*
X149199461Y-109925961D01*
X149074038Y-109800538D01*
X149074034Y-109800535D01*
X148926553Y-109701990D01*
X148926540Y-109701983D01*
X148762667Y-109634106D01*
X148762658Y-109634103D01*
X148588694Y-109599500D01*
X148588691Y-109599500D01*
X148500098Y-109599500D01*
X148433059Y-109579815D01*
X148412417Y-109563181D01*
X147016819Y-108167583D01*
X146983334Y-108106260D01*
X146980500Y-108079902D01*
X146980500Y-105759933D01*
X147000185Y-105692894D01*
X147052989Y-105647139D01*
X147122147Y-105637195D01*
X147160793Y-105649447D01*
X147195706Y-105667237D01*
X147196617Y-105667701D01*
X147196619Y-105667702D01*
X147274154Y-105692894D01*
X147404625Y-105735286D01*
X147504672Y-105751132D01*
X147620639Y-105769500D01*
X147620644Y-105769500D01*
X147839361Y-105769500D01*
X147944082Y-105752912D01*
X148055375Y-105735286D01*
X148263383Y-105667701D01*
X148458257Y-105568407D01*
X148557601Y-105496229D01*
X148635193Y-105439857D01*
X148635195Y-105439854D01*
X148635199Y-105439852D01*
X148789852Y-105285199D01*
X148899683Y-105134028D01*
X148955011Y-105091364D01*
X149024624Y-105085385D01*
X149086420Y-105117990D01*
X149100313Y-105134023D01*
X149184938Y-105250500D01*
X149210148Y-105285199D01*
X149364806Y-105439857D01*
X149515696Y-105549483D01*
X149541743Y-105568407D01*
X149669132Y-105633315D01*
X149736616Y-105667701D01*
X149736619Y-105667702D01*
X149814154Y-105692894D01*
X149944625Y-105735286D01*
X150044672Y-105751132D01*
X150160639Y-105769500D01*
X150160644Y-105769500D01*
X150379361Y-105769500D01*
X150484082Y-105752912D01*
X150595375Y-105735286D01*
X150803383Y-105667701D01*
X150998257Y-105568407D01*
X151097601Y-105496229D01*
X151175193Y-105439857D01*
X151175195Y-105439854D01*
X151175199Y-105439852D01*
X151329852Y-105285199D01*
X151439991Y-105133603D01*
X151495320Y-105090939D01*
X151564933Y-105084960D01*
X151626729Y-105117565D01*
X151640628Y-105133606D01*
X151666806Y-105169638D01*
X151666807Y-105169638D01*
X152327037Y-104509408D01*
X152344075Y-104572993D01*
X152409901Y-104687007D01*
X152502993Y-104780099D01*
X152617007Y-104845925D01*
X152680590Y-104862962D01*
X152020360Y-105523191D01*
X152082008Y-105567980D01*
X152276808Y-105667237D01*
X152276811Y-105667238D01*
X152484740Y-105734797D01*
X152700684Y-105769000D01*
X152919316Y-105769000D01*
X153135259Y-105734797D01*
X153343188Y-105667238D01*
X153343191Y-105667237D01*
X153537995Y-105567978D01*
X153599638Y-105523191D01*
X153599639Y-105523191D01*
X152939409Y-104862962D01*
X153002993Y-104845925D01*
X153117007Y-104780099D01*
X153210099Y-104687007D01*
X153275925Y-104572993D01*
X153292962Y-104509410D01*
X153924181Y-105140629D01*
X153957666Y-105201952D01*
X153960500Y-105228309D01*
X153960500Y-105316869D01*
X153960501Y-105316876D01*
X153966908Y-105376483D01*
X154017202Y-105511328D01*
X154017206Y-105511335D01*
X154103452Y-105626544D01*
X154103455Y-105626547D01*
X154218664Y-105712793D01*
X154218671Y-105712797D01*
X154353517Y-105763091D01*
X154353516Y-105763091D01*
X154360444Y-105763835D01*
X154413127Y-105769500D01*
X156286872Y-105769499D01*
X156346483Y-105763091D01*
X156481331Y-105712796D01*
X156596546Y-105626546D01*
X156682796Y-105511331D01*
X156733091Y-105376483D01*
X156739500Y-105316873D01*
X156739499Y-103443128D01*
X156733091Y-103383517D01*
X156721915Y-103353553D01*
X156682797Y-103248671D01*
X156682793Y-103248664D01*
X156596547Y-103133455D01*
X156596544Y-103133452D01*
X156481335Y-103047206D01*
X156481328Y-103047202D01*
X156346482Y-102996908D01*
X156346483Y-102996908D01*
X156286883Y-102990501D01*
X156286881Y-102990500D01*
X156286873Y-102990500D01*
X156286864Y-102990500D01*
X154413129Y-102990500D01*
X154413123Y-102990501D01*
X154353516Y-102996908D01*
X154218671Y-103047202D01*
X154218664Y-103047206D01*
X154103455Y-103133452D01*
X154103452Y-103133455D01*
X154017206Y-103248664D01*
X154017202Y-103248671D01*
X153966908Y-103383517D01*
X153960501Y-103443116D01*
X153960501Y-103443123D01*
X153960500Y-103443135D01*
X153960500Y-103531690D01*
X153940815Y-103598729D01*
X153924181Y-103619371D01*
X153292962Y-104250589D01*
X153275925Y-104187007D01*
X153210099Y-104072993D01*
X153117007Y-103979901D01*
X153002993Y-103914075D01*
X152939407Y-103897037D01*
X153599638Y-103236807D01*
X153599638Y-103236806D01*
X153537995Y-103192021D01*
X153537993Y-103192020D01*
X153343191Y-103092762D01*
X153343188Y-103092761D01*
X153135259Y-103025202D01*
X152919316Y-102991000D01*
X152700684Y-102991000D01*
X152484740Y-103025202D01*
X152276811Y-103092761D01*
X152276808Y-103092762D01*
X152082001Y-103192023D01*
X152020360Y-103236806D01*
X152020360Y-103236807D01*
X152680590Y-103897037D01*
X152617007Y-103914075D01*
X152502993Y-103979901D01*
X152409901Y-104072993D01*
X152344075Y-104187007D01*
X152327037Y-104250590D01*
X151666807Y-103590360D01*
X151666805Y-103590360D01*
X151640626Y-103626394D01*
X151585297Y-103669060D01*
X151515683Y-103675039D01*
X151453888Y-103642434D01*
X151439995Y-103626401D01*
X151329852Y-103474801D01*
X151175199Y-103320148D01*
X151175193Y-103320142D01*
X150998258Y-103191593D01*
X150938204Y-103160993D01*
X150887408Y-103113018D01*
X150870500Y-103050509D01*
X150870500Y-102099059D01*
X150870501Y-102099046D01*
X150870501Y-101930945D01*
X150870501Y-101930943D01*
X150829577Y-101778215D01*
X150800639Y-101728095D01*
X150750520Y-101641284D01*
X150638716Y-101529480D01*
X150638715Y-101529479D01*
X150634385Y-101525149D01*
X150634374Y-101525139D01*
X149366819Y-100257584D01*
X149333334Y-100196261D01*
X149330500Y-100169903D01*
X149330500Y-99359601D01*
X149350185Y-99292562D01*
X149398206Y-99249116D01*
X149411610Y-99242287D01*
X149577219Y-99121966D01*
X149721966Y-98977219D01*
X149721968Y-98977215D01*
X149721971Y-98977213D01*
X149842284Y-98811614D01*
X149842286Y-98811611D01*
X149842287Y-98811610D01*
X149889516Y-98718917D01*
X149937489Y-98668123D01*
X150005310Y-98651328D01*
X150071445Y-98673865D01*
X150110483Y-98718917D01*
X150154348Y-98805006D01*
X150157715Y-98811614D01*
X150278028Y-98977213D01*
X150422786Y-99121971D01*
X150560338Y-99221906D01*
X150588390Y-99242287D01*
X150669499Y-99283614D01*
X150770776Y-99335218D01*
X150770778Y-99335218D01*
X150770781Y-99335220D01*
X150841448Y-99358181D01*
X150965465Y-99398477D01*
X151041754Y-99410560D01*
X151167648Y-99430500D01*
X151167649Y-99430500D01*
X151372351Y-99430500D01*
X151372352Y-99430500D01*
X151574534Y-99398477D01*
X151769219Y-99335220D01*
X151951610Y-99242287D01*
X152044590Y-99174732D01*
X152117213Y-99121971D01*
X152117215Y-99121968D01*
X152117219Y-99121966D01*
X152261966Y-98977219D01*
X152261968Y-98977215D01*
X152261971Y-98977213D01*
X152382284Y-98811614D01*
X152382286Y-98811611D01*
X152382287Y-98811610D01*
X152429516Y-98718917D01*
X152438161Y-98709764D01*
X152442896Y-98698099D01*
X152461693Y-98684847D01*
X152477489Y-98668123D01*
X152489711Y-98665096D01*
X152500002Y-98657842D01*
X152522982Y-98656856D01*
X152545310Y-98651328D01*
X152557227Y-98655389D01*
G37*
%TD.AperFunction*%
%TA.AperFunction,Conductor*%
G36*
X121623324Y-69473005D02*
G01*
X121629802Y-69479037D01*
X126950139Y-74799374D01*
X126950149Y-74799385D01*
X126954479Y-74803715D01*
X126954480Y-74803716D01*
X127066284Y-74915520D01*
X127153095Y-74965639D01*
X127153097Y-74965641D01*
X127191151Y-74987611D01*
X127203215Y-74994577D01*
X127355943Y-75035501D01*
X127355946Y-75035501D01*
X127521653Y-75035501D01*
X127521669Y-75035500D01*
X133710500Y-75035500D01*
X133777539Y-75055185D01*
X133823294Y-75107989D01*
X133834500Y-75159500D01*
X133834500Y-76186500D01*
X133814815Y-76253539D01*
X133762011Y-76299294D01*
X133710501Y-76310500D01*
X133498130Y-76310500D01*
X133498123Y-76310501D01*
X133438516Y-76316908D01*
X133303671Y-76367202D01*
X133303664Y-76367206D01*
X133188455Y-76453452D01*
X133188452Y-76453455D01*
X133102206Y-76568664D01*
X133102202Y-76568671D01*
X133051908Y-76703517D01*
X133048544Y-76734812D01*
X133045501Y-76763123D01*
X133045500Y-76763135D01*
X133045500Y-78636870D01*
X133045501Y-78636876D01*
X133051908Y-78696483D01*
X133102202Y-78831328D01*
X133102206Y-78831335D01*
X133188452Y-78946544D01*
X133188455Y-78946547D01*
X133303664Y-79032793D01*
X133303671Y-79032797D01*
X133438517Y-79083091D01*
X133438516Y-79083091D01*
X133445444Y-79083835D01*
X133498127Y-79089500D01*
X135371872Y-79089499D01*
X135431483Y-79083091D01*
X135566331Y-79032796D01*
X135681546Y-78946546D01*
X135767796Y-78831331D01*
X135818091Y-78696483D01*
X135824500Y-78636873D01*
X135824499Y-78548305D01*
X135844183Y-78481270D01*
X135860818Y-78460627D01*
X136492037Y-77829407D01*
X136509075Y-77892993D01*
X136574901Y-78007007D01*
X136667993Y-78100099D01*
X136782007Y-78165925D01*
X136845590Y-78182962D01*
X136185360Y-78843191D01*
X136247008Y-78887980D01*
X136441808Y-78987237D01*
X136441811Y-78987238D01*
X136649740Y-79054797D01*
X136865684Y-79089000D01*
X137084316Y-79089000D01*
X137300259Y-79054797D01*
X137508188Y-78987238D01*
X137508191Y-78987237D01*
X137702995Y-78887978D01*
X137764638Y-78843191D01*
X137764639Y-78843191D01*
X137104409Y-78182962D01*
X137167993Y-78165925D01*
X137282007Y-78100099D01*
X137375099Y-78007007D01*
X137440925Y-77892993D01*
X137457962Y-77829409D01*
X138118191Y-78489639D01*
X138118191Y-78489638D01*
X138144372Y-78453605D01*
X138199702Y-78410939D01*
X138269315Y-78404960D01*
X138331110Y-78437565D01*
X138345008Y-78453605D01*
X138455142Y-78605192D01*
X138455146Y-78605197D01*
X138609806Y-78759857D01*
X138760696Y-78869483D01*
X138786743Y-78888407D01*
X138831794Y-78911361D01*
X138882590Y-78959335D01*
X138899500Y-79021846D01*
X138899500Y-80413330D01*
X138899499Y-80413348D01*
X138899499Y-80579054D01*
X138899498Y-80579054D01*
X138940423Y-80731785D01*
X138959436Y-80764716D01*
X138959435Y-80764716D01*
X138959436Y-80764717D01*
X139019475Y-80868709D01*
X139019481Y-80868717D01*
X139138349Y-80987585D01*
X139138355Y-80987590D01*
X140074922Y-81924158D01*
X140108407Y-81985481D01*
X140103423Y-82055173D01*
X140087560Y-82084723D01*
X139997714Y-82208387D01*
X139950485Y-82301080D01*
X139902510Y-82351876D01*
X139834689Y-82368671D01*
X139768554Y-82346134D01*
X139729515Y-82301080D01*
X139682419Y-82208650D01*
X139682287Y-82208390D01*
X139620858Y-82123839D01*
X139561971Y-82042786D01*
X139417213Y-81898028D01*
X139251613Y-81777715D01*
X139251612Y-81777714D01*
X139251610Y-81777713D01*
X139194653Y-81748691D01*
X139069223Y-81684781D01*
X138874534Y-81621522D01*
X138699995Y-81593878D01*
X138672352Y-81589500D01*
X138467648Y-81589500D01*
X138443329Y-81593351D01*
X138265465Y-81621522D01*
X138070776Y-81684781D01*
X137888386Y-81777715D01*
X137722786Y-81898028D01*
X137578028Y-82042786D01*
X137457715Y-82208386D01*
X137410485Y-82301080D01*
X137362510Y-82351876D01*
X137294689Y-82368671D01*
X137228554Y-82346134D01*
X137189515Y-82301080D01*
X137142419Y-82208650D01*
X137142287Y-82208390D01*
X137080858Y-82123839D01*
X137021971Y-82042786D01*
X136877213Y-81898028D01*
X136711613Y-81777715D01*
X136711612Y-81777714D01*
X136711610Y-81777713D01*
X136654653Y-81748691D01*
X136529223Y-81684781D01*
X136334534Y-81621522D01*
X136159995Y-81593878D01*
X136132352Y-81589500D01*
X135927648Y-81589500D01*
X135903329Y-81593351D01*
X135725465Y-81621522D01*
X135530776Y-81684781D01*
X135348386Y-81777715D01*
X135182786Y-81898028D01*
X135038028Y-82042786D01*
X134917715Y-82208386D01*
X134870485Y-82301080D01*
X134822510Y-82351876D01*
X134754689Y-82368671D01*
X134688554Y-82346134D01*
X134649515Y-82301080D01*
X134602419Y-82208650D01*
X134602287Y-82208390D01*
X134540858Y-82123839D01*
X134481971Y-82042786D01*
X134337213Y-81898028D01*
X134171613Y-81777715D01*
X134171612Y-81777714D01*
X134171610Y-81777713D01*
X134114653Y-81748691D01*
X133989223Y-81684781D01*
X133794534Y-81621522D01*
X133619995Y-81593878D01*
X133592352Y-81589500D01*
X133387648Y-81589500D01*
X133363329Y-81593351D01*
X133185465Y-81621522D01*
X132990776Y-81684781D01*
X132808386Y-81777715D01*
X132642786Y-81898028D01*
X132498028Y-82042786D01*
X132377715Y-82208386D01*
X132284781Y-82390776D01*
X132221522Y-82585465D01*
X132189500Y-82787648D01*
X132189500Y-82992351D01*
X132221522Y-83194534D01*
X132284781Y-83389223D01*
X132377715Y-83571613D01*
X132498028Y-83737213D01*
X132642786Y-83881971D01*
X132797749Y-83994556D01*
X132808390Y-84002287D01*
X132895485Y-84046664D01*
X132990776Y-84095218D01*
X132990778Y-84095218D01*
X132990781Y-84095220D01*
X133078627Y-84123763D01*
X133185465Y-84158477D01*
X133255175Y-84169518D01*
X133387648Y-84190500D01*
X133387649Y-84190500D01*
X133592351Y-84190500D01*
X133592352Y-84190500D01*
X133794534Y-84158477D01*
X133989219Y-84095220D01*
X134171610Y-84002287D01*
X134280312Y-83923311D01*
X134337213Y-83881971D01*
X134337215Y-83881968D01*
X134337219Y-83881966D01*
X134481966Y-83737219D01*
X134481968Y-83737215D01*
X134481971Y-83737213D01*
X134602284Y-83571614D01*
X134602286Y-83571611D01*
X134602287Y-83571610D01*
X134649516Y-83478917D01*
X134697489Y-83428123D01*
X134765310Y-83411328D01*
X134831445Y-83433865D01*
X134870485Y-83478919D01*
X134917715Y-83571614D01*
X135038028Y-83737213D01*
X135182786Y-83881971D01*
X135337749Y-83994556D01*
X135348390Y-84002287D01*
X135435485Y-84046664D01*
X135530776Y-84095218D01*
X135530778Y-84095218D01*
X135530781Y-84095220D01*
X135618627Y-84123763D01*
X135725465Y-84158477D01*
X135795175Y-84169518D01*
X135927648Y-84190500D01*
X135927649Y-84190500D01*
X136132351Y-84190500D01*
X136132352Y-84190500D01*
X136334534Y-84158477D01*
X136529219Y-84095220D01*
X136711610Y-84002287D01*
X136820312Y-83923311D01*
X136877213Y-83881971D01*
X136877215Y-83881968D01*
X136877219Y-83881966D01*
X137021966Y-83737219D01*
X137021968Y-83737215D01*
X137021971Y-83737213D01*
X137142284Y-83571614D01*
X137142286Y-83571611D01*
X137142287Y-83571610D01*
X137189516Y-83478917D01*
X137237489Y-83428123D01*
X137305310Y-83411328D01*
X137371445Y-83433865D01*
X137410485Y-83478919D01*
X137457715Y-83571614D01*
X137578028Y-83737213D01*
X137722786Y-83881971D01*
X137877749Y-83994556D01*
X137888390Y-84002287D01*
X137975485Y-84046664D01*
X138070776Y-84095218D01*
X138070778Y-84095218D01*
X138070781Y-84095220D01*
X138158627Y-84123763D01*
X138265465Y-84158477D01*
X138335175Y-84169518D01*
X138467648Y-84190500D01*
X138467649Y-84190500D01*
X138672351Y-84190500D01*
X138672352Y-84190500D01*
X138874534Y-84158477D01*
X139069219Y-84095220D01*
X139251610Y-84002287D01*
X139360312Y-83923311D01*
X139417213Y-83881971D01*
X139417215Y-83881968D01*
X139417219Y-83881966D01*
X139561966Y-83737219D01*
X139561968Y-83737215D01*
X139561971Y-83737213D01*
X139682284Y-83571614D01*
X139682286Y-83571611D01*
X139682287Y-83571610D01*
X139729516Y-83478917D01*
X139777489Y-83428123D01*
X139845310Y-83411328D01*
X139911445Y-83433865D01*
X139950485Y-83478919D01*
X139997715Y-83571614D01*
X140118028Y-83737213D01*
X140262786Y-83881971D01*
X140417749Y-83994556D01*
X140428390Y-84002287D01*
X140515485Y-84046664D01*
X140610776Y-84095218D01*
X140610778Y-84095218D01*
X140610781Y-84095220D01*
X140698627Y-84123763D01*
X140805465Y-84158477D01*
X140875175Y-84169518D01*
X141007648Y-84190500D01*
X141007649Y-84190500D01*
X141212351Y-84190500D01*
X141212352Y-84190500D01*
X141414534Y-84158477D01*
X141609219Y-84095220D01*
X141791610Y-84002287D01*
X141900312Y-83923311D01*
X141957213Y-83881971D01*
X141957215Y-83881968D01*
X141957219Y-83881966D01*
X142101966Y-83737219D01*
X142101968Y-83737215D01*
X142101971Y-83737213D01*
X142222284Y-83571614D01*
X142222286Y-83571611D01*
X142222287Y-83571610D01*
X142269516Y-83478917D01*
X142317489Y-83428123D01*
X142385310Y-83411328D01*
X142451445Y-83433865D01*
X142490485Y-83478919D01*
X142537715Y-83571614D01*
X142658028Y-83737213D01*
X142802786Y-83881971D01*
X142957749Y-83994556D01*
X142968390Y-84002287D01*
X143055485Y-84046664D01*
X143150776Y-84095218D01*
X143150778Y-84095218D01*
X143150781Y-84095220D01*
X143238627Y-84123763D01*
X143345465Y-84158477D01*
X143415175Y-84169518D01*
X143547648Y-84190500D01*
X143547649Y-84190500D01*
X143752351Y-84190500D01*
X143752352Y-84190500D01*
X143954534Y-84158477D01*
X144149219Y-84095220D01*
X144219205Y-84059559D01*
X144287874Y-84046664D01*
X144352614Y-84072940D01*
X144392872Y-84130046D01*
X144399500Y-84170045D01*
X144399500Y-89233330D01*
X144399499Y-89233348D01*
X144399499Y-89399054D01*
X144399498Y-89399054D01*
X144440423Y-89551785D01*
X144469358Y-89601900D01*
X144469359Y-89601904D01*
X144469360Y-89601904D01*
X144519479Y-89688714D01*
X144519481Y-89688717D01*
X144638349Y-89807585D01*
X144638355Y-89807590D01*
X151448584Y-96617819D01*
X151482069Y-96679142D01*
X151477085Y-96748834D01*
X151435213Y-96804767D01*
X151369749Y-96829184D01*
X151360903Y-96829500D01*
X151167648Y-96829500D01*
X151143329Y-96833351D01*
X150965465Y-96861522D01*
X150770776Y-96924781D01*
X150588386Y-97017715D01*
X150422786Y-97138028D01*
X150278028Y-97282786D01*
X150157715Y-97448386D01*
X150110485Y-97541080D01*
X150062510Y-97591876D01*
X149994689Y-97608671D01*
X149928554Y-97586134D01*
X149889515Y-97541080D01*
X149881304Y-97524966D01*
X149842287Y-97448390D01*
X149834556Y-97437749D01*
X149721971Y-97282786D01*
X149577213Y-97138028D01*
X149411613Y-97017715D01*
X149411612Y-97017714D01*
X149411610Y-97017713D01*
X149354653Y-96988691D01*
X149229223Y-96924781D01*
X149034534Y-96861522D01*
X148859995Y-96833878D01*
X148832352Y-96829500D01*
X148627648Y-96829500D01*
X148603329Y-96833351D01*
X148425465Y-96861522D01*
X148230776Y-96924781D01*
X148048386Y-97017715D01*
X147882786Y-97138028D01*
X147738028Y-97282786D01*
X147617715Y-97448386D01*
X147570485Y-97541080D01*
X147522510Y-97591876D01*
X147454689Y-97608671D01*
X147388554Y-97586134D01*
X147349515Y-97541080D01*
X147341304Y-97524966D01*
X147302287Y-97448390D01*
X147294556Y-97437749D01*
X147181971Y-97282786D01*
X147037213Y-97138028D01*
X146871613Y-97017715D01*
X146871612Y-97017714D01*
X146871610Y-97017713D01*
X146814653Y-96988691D01*
X146689223Y-96924781D01*
X146494534Y-96861522D01*
X146319995Y-96833878D01*
X146292352Y-96829500D01*
X146087648Y-96829500D01*
X146063329Y-96833351D01*
X145885465Y-96861522D01*
X145690776Y-96924781D01*
X145508386Y-97017715D01*
X145342784Y-97138030D01*
X145342777Y-97138036D01*
X145291230Y-97189583D01*
X145283395Y-97193860D01*
X145278061Y-97201017D01*
X145253206Y-97210344D01*
X145229907Y-97223067D01*
X145221004Y-97222430D01*
X145212646Y-97225567D01*
X145186692Y-97219975D01*
X145160215Y-97218082D01*
X145151267Y-97212344D01*
X145144344Y-97210853D01*
X145124329Y-97195902D01*
X145123684Y-97196677D01*
X145123672Y-97196667D01*
X145116256Y-97189895D01*
X145116046Y-97189760D01*
X145115798Y-97189513D01*
X145115549Y-97189264D01*
X145115547Y-97189260D01*
X145115397Y-97189110D01*
X145115374Y-97189089D01*
X144593640Y-96667355D01*
X144593638Y-96667352D01*
X144474767Y-96548481D01*
X144474766Y-96548480D01*
X144387954Y-96498360D01*
X144387954Y-96498359D01*
X144387950Y-96498358D01*
X144337835Y-96469423D01*
X144185107Y-96428499D01*
X144026993Y-96428499D01*
X144019397Y-96428499D01*
X144019381Y-96428500D01*
X137210057Y-96428500D01*
X137051943Y-96428500D01*
X136899215Y-96469423D01*
X136899214Y-96469423D01*
X136899212Y-96469424D01*
X136899209Y-96469425D01*
X136849096Y-96498359D01*
X136849095Y-96498360D01*
X136805689Y-96523420D01*
X136762285Y-96548479D01*
X136762282Y-96548481D01*
X136650478Y-96660286D01*
X136474842Y-96835921D01*
X136413519Y-96869406D01*
X136348848Y-96866173D01*
X136334534Y-96861522D01*
X136159995Y-96833878D01*
X136132352Y-96829500D01*
X135927648Y-96829500D01*
X135903329Y-96833351D01*
X135725465Y-96861522D01*
X135530776Y-96924781D01*
X135348386Y-97017715D01*
X135182786Y-97138028D01*
X135038028Y-97282786D01*
X134917715Y-97448386D01*
X134870485Y-97541080D01*
X134822510Y-97591876D01*
X134754689Y-97608671D01*
X134688554Y-97586134D01*
X134649515Y-97541080D01*
X134641304Y-97524966D01*
X134602287Y-97448390D01*
X134594556Y-97437749D01*
X134481971Y-97282786D01*
X134337213Y-97138028D01*
X134171613Y-97017715D01*
X134171612Y-97017714D01*
X134171610Y-97017713D01*
X134114653Y-96988691D01*
X133989223Y-96924781D01*
X133794534Y-96861522D01*
X133619995Y-96833878D01*
X133592352Y-96829500D01*
X133387648Y-96829500D01*
X133363329Y-96833351D01*
X133185465Y-96861522D01*
X132990776Y-96924781D01*
X132808386Y-97017715D01*
X132642786Y-97138028D01*
X132498028Y-97282786D01*
X132377713Y-97448388D01*
X132361650Y-97479914D01*
X132313676Y-97530709D01*
X132245854Y-97547504D01*
X132179720Y-97524966D01*
X132163485Y-97511299D01*
X121454440Y-86802254D01*
X121420955Y-86740931D01*
X121418121Y-86714573D01*
X121418121Y-77562332D01*
X128524500Y-77562332D01*
X128524500Y-77837667D01*
X128524501Y-77837684D01*
X128560438Y-78110655D01*
X128560439Y-78110660D01*
X128560440Y-78110666D01*
X128574126Y-78161742D01*
X128631704Y-78376630D01*
X128737075Y-78631017D01*
X128737080Y-78631028D01*
X128796244Y-78733501D01*
X128874751Y-78869479D01*
X128874753Y-78869482D01*
X128874754Y-78869483D01*
X129042370Y-79087926D01*
X129042376Y-79087933D01*
X129237066Y-79282623D01*
X129237073Y-79282629D01*
X129365403Y-79381099D01*
X129455521Y-79450249D01*
X129608778Y-79538732D01*
X129693971Y-79587919D01*
X129693976Y-79587921D01*
X129693979Y-79587923D01*
X129948368Y-79693295D01*
X130214334Y-79764560D01*
X130487326Y-79800500D01*
X130487333Y-79800500D01*
X130762667Y-79800500D01*
X130762674Y-79800500D01*
X131035666Y-79764560D01*
X131301632Y-79693295D01*
X131556021Y-79587923D01*
X131794479Y-79450249D01*
X132012928Y-79282628D01*
X132207628Y-79087928D01*
X132375249Y-78869479D01*
X132512923Y-78631021D01*
X132618295Y-78376632D01*
X132689560Y-78110666D01*
X132725500Y-77837674D01*
X132725500Y-77562326D01*
X132689560Y-77289334D01*
X132618295Y-77023368D01*
X132512923Y-76768979D01*
X132512921Y-76768976D01*
X132512919Y-76768971D01*
X132442728Y-76647398D01*
X132375249Y-76530521D01*
X132251568Y-76369336D01*
X132207629Y-76312073D01*
X132207623Y-76312066D01*
X132012933Y-76117376D01*
X132012926Y-76117370D01*
X131794483Y-75949754D01*
X131794482Y-75949753D01*
X131794479Y-75949751D01*
X131661094Y-75872741D01*
X131556028Y-75812080D01*
X131556017Y-75812075D01*
X131301630Y-75706704D01*
X131168649Y-75671072D01*
X131035666Y-75635440D01*
X131035660Y-75635439D01*
X131035655Y-75635438D01*
X130762684Y-75599501D01*
X130762679Y-75599500D01*
X130762674Y-75599500D01*
X130487326Y-75599500D01*
X130487320Y-75599500D01*
X130487315Y-75599501D01*
X130214344Y-75635438D01*
X130214337Y-75635439D01*
X130214334Y-75635440D01*
X130158125Y-75650500D01*
X129948369Y-75706704D01*
X129693982Y-75812075D01*
X129693971Y-75812080D01*
X129455516Y-75949754D01*
X129237073Y-76117370D01*
X129237066Y-76117376D01*
X129042376Y-76312066D01*
X129042370Y-76312073D01*
X128874754Y-76530516D01*
X128737080Y-76768971D01*
X128737075Y-76768982D01*
X128631704Y-77023369D01*
X128560441Y-77289331D01*
X128560438Y-77289344D01*
X128524501Y-77562315D01*
X128524500Y-77562332D01*
X121418121Y-77562332D01*
X121418121Y-76912162D01*
X121437806Y-76845123D01*
X121490610Y-76799368D01*
X121516173Y-76790907D01*
X121520409Y-76789999D01*
X121520418Y-76789999D01*
X121686955Y-76734814D01*
X121836277Y-76642712D01*
X121960333Y-76518656D01*
X122052435Y-76369334D01*
X122075723Y-76299054D01*
X122079731Y-76291050D01*
X122097681Y-76271772D01*
X122112676Y-76250116D01*
X122121116Y-76246606D01*
X122127346Y-76239917D01*
X122152870Y-76233404D01*
X122177192Y-76223292D01*
X122193455Y-76223048D01*
X122195046Y-76222643D01*
X122196144Y-76223008D01*
X122200340Y-76222946D01*
X122238146Y-76225921D01*
X122917621Y-75546446D01*
X122917621Y-75552661D01*
X122944880Y-75654394D01*
X122997541Y-75745606D01*
X123072015Y-75820080D01*
X123163227Y-75872741D01*
X123264960Y-75900000D01*
X123271174Y-75900000D01*
X122591697Y-76579474D01*
X122636271Y-76611859D01*
X122818589Y-76704755D01*
X123013203Y-76767990D01*
X123215304Y-76800000D01*
X123419938Y-76800000D01*
X123622038Y-76767990D01*
X123816652Y-76704755D01*
X123998970Y-76611859D01*
X124043542Y-76579474D01*
X123364068Y-75900000D01*
X123370282Y-75900000D01*
X123472015Y-75872741D01*
X123563227Y-75820080D01*
X123637701Y-75745606D01*
X123690362Y-75654394D01*
X123717621Y-75552661D01*
X123717621Y-75546448D01*
X124397095Y-76225922D01*
X124397095Y-76225921D01*
X124429480Y-76181349D01*
X124522376Y-75999031D01*
X124585611Y-75804417D01*
X124617621Y-75602317D01*
X124617621Y-75397682D01*
X124585611Y-75195582D01*
X124522376Y-75000968D01*
X124429480Y-74818650D01*
X124397095Y-74774077D01*
X124397095Y-74774076D01*
X123717621Y-75453551D01*
X123717621Y-75447339D01*
X123690362Y-75345606D01*
X123637701Y-75254394D01*
X123563227Y-75179920D01*
X123472015Y-75127259D01*
X123370282Y-75100000D01*
X123364067Y-75100000D01*
X124043543Y-74420524D01*
X124043542Y-74420523D01*
X123998980Y-74388147D01*
X123998971Y-74388141D01*
X123816652Y-74295244D01*
X123622038Y-74232009D01*
X123419938Y-74200000D01*
X123215304Y-74200000D01*
X123013203Y-74232009D01*
X122818589Y-74295244D01*
X122636265Y-74388143D01*
X122591698Y-74420523D01*
X122591698Y-74420524D01*
X123271175Y-75100000D01*
X123264960Y-75100000D01*
X123163227Y-75127259D01*
X123072015Y-75179920D01*
X122997541Y-75254394D01*
X122944880Y-75345606D01*
X122917621Y-75447339D01*
X122917621Y-75453553D01*
X122238145Y-74774077D01*
X122200340Y-74777053D01*
X122131962Y-74762689D01*
X122082205Y-74713638D01*
X122079731Y-74708949D01*
X122075722Y-74700942D01*
X122052435Y-74630666D01*
X121960333Y-74481344D01*
X121836277Y-74357288D01*
X121686955Y-74265186D01*
X121586834Y-74232009D01*
X121520416Y-74210000D01*
X121516154Y-74209088D01*
X121454723Y-74175801D01*
X121421040Y-74114586D01*
X121418121Y-74087837D01*
X121418121Y-69566718D01*
X121437806Y-69499679D01*
X121490610Y-69453924D01*
X121559768Y-69443980D01*
X121623324Y-69473005D01*
G37*
%TD.AperFunction*%
%TA.AperFunction,Conductor*%
G36*
X137940237Y-55019185D02*
G01*
X137985992Y-55071989D01*
X137995936Y-55141147D01*
X137991129Y-55161818D01*
X137967753Y-55233760D01*
X137946280Y-55369336D01*
X137934500Y-55443713D01*
X137934500Y-55956287D01*
X137967754Y-56166243D01*
X138017274Y-56318650D01*
X138033444Y-56368414D01*
X138129951Y-56557820D01*
X138254890Y-56729786D01*
X138405213Y-56880109D01*
X138577184Y-57005051D01*
X138577184Y-57005052D01*
X138616793Y-57025233D01*
X138667590Y-57073206D01*
X138684500Y-57135718D01*
X138684500Y-62062883D01*
X138664815Y-62129922D01*
X138612011Y-62175677D01*
X138598818Y-62180814D01*
X138373617Y-62253985D01*
X138373614Y-62253986D01*
X138150242Y-62367801D01*
X137947423Y-62515158D01*
X137770158Y-62692423D01*
X137622801Y-62895242D01*
X137508986Y-63118614D01*
X137508985Y-63118617D01*
X137431518Y-63357040D01*
X137392300Y-63604652D01*
X137392300Y-63855347D01*
X137431518Y-64102959D01*
X137508985Y-64341382D01*
X137508986Y-64341385D01*
X137602320Y-64524561D01*
X137622801Y-64564757D01*
X137770156Y-64767574D01*
X137947426Y-64944844D01*
X138150243Y-65092199D01*
X138259800Y-65148021D01*
X138373614Y-65206013D01*
X138373617Y-65206014D01*
X138428124Y-65223724D01*
X138612042Y-65283482D01*
X138859652Y-65322700D01*
X138859653Y-65322700D01*
X139110347Y-65322700D01*
X139110348Y-65322700D01*
X139357958Y-65283482D01*
X139535735Y-65225718D01*
X139605576Y-65223724D01*
X139661734Y-65255969D01*
X143958181Y-69552416D01*
X143991666Y-69613739D01*
X143994500Y-69640097D01*
X143994500Y-76370509D01*
X143974815Y-76437548D01*
X143926796Y-76480993D01*
X143866741Y-76511593D01*
X143689806Y-76640142D01*
X143535142Y-76794806D01*
X143425318Y-76945969D01*
X143369989Y-76988635D01*
X143300375Y-76994614D01*
X143238580Y-76962009D01*
X143224682Y-76945969D01*
X143114857Y-76794806D01*
X142960193Y-76640142D01*
X142783260Y-76511595D01*
X142783259Y-76511594D01*
X142783257Y-76511593D01*
X142669150Y-76453452D01*
X142588383Y-76412298D01*
X142588380Y-76412297D01*
X142380376Y-76344714D01*
X142164361Y-76310500D01*
X142164356Y-76310500D01*
X141945644Y-76310500D01*
X141945639Y-76310500D01*
X141729623Y-76344714D01*
X141521619Y-76412297D01*
X141521616Y-76412298D01*
X141326739Y-76511595D01*
X141149806Y-76640142D01*
X140995142Y-76794806D01*
X140885318Y-76945969D01*
X140829989Y-76988635D01*
X140760375Y-76994614D01*
X140698580Y-76962009D01*
X140684682Y-76945969D01*
X140574857Y-76794806D01*
X140420193Y-76640142D01*
X140243260Y-76511595D01*
X140243259Y-76511594D01*
X140243257Y-76511593D01*
X140129150Y-76453452D01*
X140048383Y-76412298D01*
X140048380Y-76412297D01*
X139840376Y-76344714D01*
X139624361Y-76310500D01*
X139624356Y-76310500D01*
X139405644Y-76310500D01*
X139405639Y-76310500D01*
X139189623Y-76344714D01*
X138981619Y-76412297D01*
X138981616Y-76412298D01*
X138786739Y-76511595D01*
X138609806Y-76640142D01*
X138455146Y-76794802D01*
X138455142Y-76794807D01*
X138345008Y-76946394D01*
X138289678Y-76989060D01*
X138220065Y-76995039D01*
X138158270Y-76962433D01*
X138144372Y-76946394D01*
X138118192Y-76910360D01*
X138118191Y-76910360D01*
X137457962Y-77570589D01*
X137440925Y-77507007D01*
X137375099Y-77392993D01*
X137282007Y-77299901D01*
X137167993Y-77234075D01*
X137104407Y-77217037D01*
X137764638Y-76556807D01*
X137764638Y-76556806D01*
X137702995Y-76512021D01*
X137702993Y-76512020D01*
X137508191Y-76412762D01*
X137508188Y-76412761D01*
X137300259Y-76345202D01*
X137084316Y-76311000D01*
X136865684Y-76311000D01*
X136649740Y-76345202D01*
X136441811Y-76412761D01*
X136441808Y-76412762D01*
X136247001Y-76512023D01*
X136185360Y-76556806D01*
X136185360Y-76556807D01*
X136845590Y-77217037D01*
X136782007Y-77234075D01*
X136667993Y-77299901D01*
X136574901Y-77392993D01*
X136509075Y-77507007D01*
X136492037Y-77570590D01*
X135860818Y-76939370D01*
X135827333Y-76878047D01*
X135824499Y-76851689D01*
X135824499Y-76763129D01*
X135824498Y-76763123D01*
X135818091Y-76703517D01*
X135813890Y-76692254D01*
X135797161Y-76647398D01*
X135767797Y-76568671D01*
X135767793Y-76568664D01*
X135681547Y-76453455D01*
X135681544Y-76453452D01*
X135566335Y-76367206D01*
X135566328Y-76367202D01*
X135431482Y-76316908D01*
X135431483Y-76316908D01*
X135371883Y-76310501D01*
X135371881Y-76310500D01*
X135371873Y-76310500D01*
X135371865Y-76310500D01*
X135159500Y-76310500D01*
X135092461Y-76290815D01*
X135046706Y-76238011D01*
X135035500Y-76186500D01*
X135035500Y-74355945D01*
X135035500Y-74355943D01*
X134994577Y-74203216D01*
X134992461Y-74199551D01*
X134915524Y-74066290D01*
X134915518Y-74066282D01*
X134803717Y-73954481D01*
X134803709Y-73954475D01*
X134666790Y-73875426D01*
X134666786Y-73875424D01*
X134666784Y-73875423D01*
X134514057Y-73834500D01*
X134514056Y-73834500D01*
X127735097Y-73834500D01*
X127668058Y-73814815D01*
X127647416Y-73798181D01*
X121305207Y-67455972D01*
X121294073Y-67444837D01*
X121289805Y-67437019D01*
X121289718Y-67437078D01*
X121289716Y-67437075D01*
X121289803Y-67437016D01*
X121276927Y-67413434D01*
X121260592Y-67383518D01*
X121260592Y-67383515D01*
X121260591Y-67383513D01*
X121260595Y-67383454D01*
X121263827Y-67318842D01*
X121268477Y-67304534D01*
X121300500Y-67102352D01*
X121300500Y-66897682D01*
X123700000Y-66897682D01*
X123700000Y-67102317D01*
X123732009Y-67304417D01*
X123795244Y-67499031D01*
X123888141Y-67681350D01*
X123888147Y-67681359D01*
X123920523Y-67725921D01*
X123920524Y-67725922D01*
X124600000Y-67046446D01*
X124600000Y-67052661D01*
X124627259Y-67154394D01*
X124679920Y-67245606D01*
X124754394Y-67320080D01*
X124845606Y-67372741D01*
X124947339Y-67400000D01*
X124953553Y-67400000D01*
X124274076Y-68079474D01*
X124318650Y-68111859D01*
X124500968Y-68204755D01*
X124695582Y-68267990D01*
X124897683Y-68300000D01*
X125102317Y-68300000D01*
X125304417Y-68267990D01*
X125499031Y-68204755D01*
X125681349Y-68111859D01*
X125725921Y-68079474D01*
X125046447Y-67400000D01*
X125052661Y-67400000D01*
X125154394Y-67372741D01*
X125245606Y-67320080D01*
X125320080Y-67245606D01*
X125372741Y-67154394D01*
X125400000Y-67052661D01*
X125400000Y-67046448D01*
X126079474Y-67725922D01*
X126079474Y-67725921D01*
X126111859Y-67681349D01*
X126204755Y-67499031D01*
X126267990Y-67304417D01*
X126300000Y-67102317D01*
X126300000Y-66897682D01*
X126267990Y-66695582D01*
X126204755Y-66500968D01*
X126111859Y-66318650D01*
X126079474Y-66274077D01*
X126079474Y-66274076D01*
X125400000Y-66953551D01*
X125400000Y-66947339D01*
X125372741Y-66845606D01*
X125320080Y-66754394D01*
X125245606Y-66679920D01*
X125154394Y-66627259D01*
X125052661Y-66600000D01*
X125046446Y-66600000D01*
X125725922Y-65920524D01*
X125725921Y-65920523D01*
X125681359Y-65888147D01*
X125681350Y-65888141D01*
X125499031Y-65795244D01*
X125304417Y-65732009D01*
X125102317Y-65700000D01*
X124897683Y-65700000D01*
X124695582Y-65732009D01*
X124500968Y-65795244D01*
X124318644Y-65888143D01*
X124274077Y-65920523D01*
X124274077Y-65920524D01*
X124953554Y-66600000D01*
X124947339Y-66600000D01*
X124845606Y-66627259D01*
X124754394Y-66679920D01*
X124679920Y-66754394D01*
X124627259Y-66845606D01*
X124600000Y-66947339D01*
X124600000Y-66953553D01*
X123920524Y-66274077D01*
X123920523Y-66274077D01*
X123888143Y-66318644D01*
X123795244Y-66500968D01*
X123732009Y-66695582D01*
X123700000Y-66897682D01*
X121300500Y-66897682D01*
X121300500Y-66897648D01*
X121292257Y-66845606D01*
X121268477Y-66695465D01*
X121237458Y-66600000D01*
X121205220Y-66500781D01*
X121205218Y-66500778D01*
X121205218Y-66500776D01*
X121160092Y-66412212D01*
X121112287Y-66318390D01*
X121080092Y-66274077D01*
X120991971Y-66152786D01*
X120847213Y-66008028D01*
X120681613Y-65887715D01*
X120681612Y-65887714D01*
X120681610Y-65887713D01*
X120578126Y-65834985D01*
X120527330Y-65787010D01*
X120510535Y-65719189D01*
X120533073Y-65653054D01*
X120587788Y-65609603D01*
X120634421Y-65600500D01*
X121913331Y-65600500D01*
X121913347Y-65600501D01*
X121920943Y-65600501D01*
X122079054Y-65600501D01*
X122079057Y-65600501D01*
X122231785Y-65559577D01*
X122281904Y-65530639D01*
X122368716Y-65480520D01*
X122480520Y-65368716D01*
X122480520Y-65368714D01*
X122490728Y-65358507D01*
X122490729Y-65358504D01*
X125526902Y-62322332D01*
X128524500Y-62322332D01*
X128524500Y-62597667D01*
X128524501Y-62597684D01*
X128560438Y-62870655D01*
X128560439Y-62870660D01*
X128560440Y-62870666D01*
X128596072Y-63003649D01*
X128631704Y-63136630D01*
X128737075Y-63391017D01*
X128737080Y-63391028D01*
X128819861Y-63534407D01*
X128874751Y-63629479D01*
X128874753Y-63629482D01*
X128874754Y-63629483D01*
X129042370Y-63847926D01*
X129042376Y-63847933D01*
X129237066Y-64042623D01*
X129237072Y-64042628D01*
X129455521Y-64210249D01*
X129608778Y-64298732D01*
X129693971Y-64347919D01*
X129693976Y-64347921D01*
X129693979Y-64347923D01*
X129948368Y-64453295D01*
X130214334Y-64524560D01*
X130487326Y-64560500D01*
X130487333Y-64560500D01*
X130762667Y-64560500D01*
X130762674Y-64560500D01*
X131035666Y-64524560D01*
X131301632Y-64453295D01*
X131556021Y-64347923D01*
X131794479Y-64210249D01*
X132012928Y-64042628D01*
X132207628Y-63847928D01*
X132375249Y-63629479D01*
X132512923Y-63391021D01*
X132618295Y-63136632D01*
X132689560Y-62870666D01*
X132725500Y-62597674D01*
X132725500Y-62322326D01*
X132689560Y-62049334D01*
X132618295Y-61783368D01*
X132512923Y-61528979D01*
X132512921Y-61528976D01*
X132512919Y-61528971D01*
X132446152Y-61413329D01*
X132375249Y-61290521D01*
X132207628Y-61072072D01*
X132207623Y-61072066D01*
X132012933Y-60877376D01*
X132012926Y-60877370D01*
X131794483Y-60709754D01*
X131794482Y-60709753D01*
X131794479Y-60709751D01*
X131699407Y-60654861D01*
X131556028Y-60572080D01*
X131556017Y-60572075D01*
X131301630Y-60466704D01*
X131168649Y-60431072D01*
X131035666Y-60395440D01*
X131035660Y-60395439D01*
X131035655Y-60395438D01*
X130762684Y-60359501D01*
X130762679Y-60359500D01*
X130762674Y-60359500D01*
X130487326Y-60359500D01*
X130487320Y-60359500D01*
X130487315Y-60359501D01*
X130214344Y-60395438D01*
X130214337Y-60395439D01*
X130214334Y-60395440D01*
X130158125Y-60410500D01*
X129948369Y-60466704D01*
X129693982Y-60572075D01*
X129693971Y-60572080D01*
X129455516Y-60709754D01*
X129237073Y-60877370D01*
X129237066Y-60877376D01*
X129042376Y-61072066D01*
X129042370Y-61072073D01*
X128874754Y-61290516D01*
X128737080Y-61528971D01*
X128737075Y-61528982D01*
X128631704Y-61783369D01*
X128560441Y-62049331D01*
X128560438Y-62049344D01*
X128524501Y-62322315D01*
X128524500Y-62322332D01*
X125526902Y-62322332D01*
X132813416Y-55035819D01*
X132874739Y-55002334D01*
X132901097Y-54999500D01*
X137873198Y-54999500D01*
X137940237Y-55019185D01*
G37*
%TD.AperFunction*%
%TA.AperFunction,Conductor*%
G36*
X190807539Y-51220185D02*
G01*
X190853294Y-51272989D01*
X190864500Y-51324500D01*
X190864500Y-130075500D01*
X190844815Y-130142539D01*
X190792011Y-130188294D01*
X190740500Y-130199500D01*
X111989500Y-130199500D01*
X111922461Y-130179815D01*
X111876706Y-130127011D01*
X111865500Y-130075500D01*
X111865500Y-125518209D01*
X112584500Y-125518209D01*
X112584500Y-125881790D01*
X112620137Y-126243630D01*
X112691064Y-126600212D01*
X112691067Y-126600223D01*
X112796614Y-126948165D01*
X112935754Y-127284078D01*
X112935756Y-127284083D01*
X113107140Y-127604720D01*
X113107151Y-127604738D01*
X113309140Y-127907035D01*
X113309150Y-127907049D01*
X113539807Y-128188106D01*
X113796893Y-128445192D01*
X113796898Y-128445196D01*
X113796899Y-128445197D01*
X114077956Y-128675854D01*
X114380268Y-128877853D01*
X114380277Y-128877858D01*
X114380279Y-128877859D01*
X114700916Y-129049243D01*
X114700918Y-129049243D01*
X114700924Y-129049247D01*
X115036836Y-129188386D01*
X115384767Y-129293930D01*
X115384773Y-129293931D01*
X115384776Y-129293932D01*
X115384787Y-129293935D01*
X115741369Y-129364862D01*
X116103206Y-129400500D01*
X116103209Y-129400500D01*
X116466791Y-129400500D01*
X116466794Y-129400500D01*
X116828631Y-129364862D01*
X116898045Y-129351054D01*
X117185212Y-129293935D01*
X117185223Y-129293932D01*
X117185223Y-129293931D01*
X117185233Y-129293930D01*
X117533164Y-129188386D01*
X117869076Y-129049247D01*
X118189732Y-128877853D01*
X118492044Y-128675854D01*
X118773101Y-128445197D01*
X119030197Y-128188101D01*
X119260854Y-127907044D01*
X119462853Y-127604732D01*
X119634247Y-127284076D01*
X119773386Y-126948164D01*
X119878930Y-126600233D01*
X119878932Y-126600223D01*
X119878935Y-126600212D01*
X119936054Y-126313045D01*
X119949862Y-126243631D01*
X119985500Y-125881794D01*
X119985500Y-125518206D01*
X119949862Y-125156369D01*
X119947039Y-125142179D01*
X119878935Y-124799787D01*
X119878932Y-124799776D01*
X119878931Y-124799773D01*
X119878930Y-124799767D01*
X119773386Y-124451836D01*
X119634247Y-124115924D01*
X119462853Y-123795268D01*
X119260854Y-123492956D01*
X119030197Y-123211899D01*
X119030196Y-123211898D01*
X119030192Y-123211893D01*
X118773106Y-122954807D01*
X118492049Y-122724150D01*
X118492048Y-122724149D01*
X118492044Y-122724146D01*
X118189732Y-122522147D01*
X118189727Y-122522144D01*
X118189720Y-122522140D01*
X117869083Y-122350756D01*
X117869078Y-122350754D01*
X117533165Y-122211614D01*
X117185223Y-122106067D01*
X117185212Y-122106064D01*
X116828630Y-122035137D01*
X116556111Y-122008296D01*
X116466794Y-121999500D01*
X116103206Y-121999500D01*
X116020679Y-122007628D01*
X115741369Y-122035137D01*
X115384787Y-122106064D01*
X115384776Y-122106067D01*
X115036834Y-122211614D01*
X114700921Y-122350754D01*
X114700916Y-122350756D01*
X114380279Y-122522140D01*
X114380261Y-122522151D01*
X114077964Y-122724140D01*
X114077950Y-122724150D01*
X113796893Y-122954807D01*
X113539807Y-123211893D01*
X113309150Y-123492950D01*
X113309140Y-123492964D01*
X113107151Y-123795261D01*
X113107140Y-123795279D01*
X112935756Y-124115916D01*
X112935754Y-124115921D01*
X112796614Y-124451834D01*
X112691067Y-124799776D01*
X112691064Y-124799787D01*
X112620137Y-125156369D01*
X112584500Y-125518209D01*
X111865500Y-125518209D01*
X111865500Y-84276104D01*
X117399498Y-84276104D01*
X117440423Y-84428835D01*
X117469358Y-84478950D01*
X117469359Y-84478954D01*
X117469360Y-84478954D01*
X117519479Y-84565764D01*
X117519481Y-84565767D01*
X117638349Y-84684635D01*
X117638355Y-84684640D01*
X120337099Y-87383384D01*
X120337101Y-87383387D01*
X120448905Y-87495191D01*
X120448907Y-87495192D01*
X132665234Y-99711520D01*
X132665236Y-99711521D01*
X132665240Y-99711524D01*
X132802159Y-99790573D01*
X132802162Y-99790575D01*
X132802166Y-99790577D01*
X132954893Y-99831501D01*
X132954895Y-99831501D01*
X133120604Y-99831501D01*
X133120620Y-99831500D01*
X133519902Y-99831500D01*
X133586941Y-99851185D01*
X133632696Y-99903989D01*
X133642640Y-99973147D01*
X133613615Y-100036703D01*
X133607583Y-100043181D01*
X133519481Y-100131282D01*
X133519475Y-100131290D01*
X133440426Y-100268209D01*
X133440423Y-100268216D01*
X133399500Y-100420943D01*
X133399500Y-110199901D01*
X133390856Y-110229337D01*
X133384333Y-110259327D01*
X133380577Y-110264344D01*
X133379815Y-110266940D01*
X133363182Y-110287582D01*
X133287584Y-110363181D01*
X133226261Y-110396666D01*
X133199902Y-110399500D01*
X131935719Y-110399500D01*
X131868680Y-110379815D01*
X131825235Y-110331795D01*
X131805052Y-110292185D01*
X131805051Y-110292184D01*
X131680109Y-110120213D01*
X131529790Y-109969894D01*
X131529785Y-109969890D01*
X131364781Y-109850008D01*
X131322115Y-109794678D01*
X131316136Y-109725065D01*
X131348741Y-109663270D01*
X131364781Y-109649371D01*
X131529466Y-109529721D01*
X131679723Y-109379464D01*
X131679727Y-109379459D01*
X131804620Y-109207557D01*
X131901095Y-109018217D01*
X131966757Y-108816129D01*
X131966757Y-108816126D01*
X131977231Y-108750000D01*
X130929146Y-108750000D01*
X130967630Y-108683343D01*
X131000000Y-108562535D01*
X131000000Y-108437465D01*
X130967630Y-108316657D01*
X130929146Y-108250000D01*
X131977231Y-108250000D01*
X131966757Y-108183873D01*
X131966757Y-108183870D01*
X131901095Y-107981782D01*
X131804620Y-107792442D01*
X131679727Y-107620540D01*
X131679723Y-107620535D01*
X131540856Y-107481668D01*
X131507371Y-107420345D01*
X131512355Y-107350653D01*
X131554227Y-107294720D01*
X131563441Y-107288448D01*
X131569331Y-107284814D01*
X131569334Y-107284814D01*
X131718656Y-107192712D01*
X131842712Y-107068656D01*
X131934814Y-106919334D01*
X131989999Y-106752797D01*
X132000500Y-106650009D01*
X132000499Y-105349992D01*
X131997115Y-105316869D01*
X131989999Y-105247203D01*
X131989998Y-105247200D01*
X131959016Y-105153703D01*
X131934814Y-105080666D01*
X131842712Y-104931344D01*
X131718656Y-104807288D01*
X131569334Y-104715186D01*
X131402797Y-104660001D01*
X131402795Y-104660000D01*
X131300010Y-104649500D01*
X129749998Y-104649500D01*
X129749981Y-104649501D01*
X129647203Y-104660000D01*
X129647200Y-104660001D01*
X129520971Y-104701830D01*
X129451143Y-104704232D01*
X129391101Y-104668500D01*
X129359908Y-104605980D01*
X129360350Y-104559933D01*
X129365805Y-104532504D01*
X129375500Y-104483767D01*
X129375500Y-104316233D01*
X129342816Y-104151918D01*
X129278703Y-103997137D01*
X129223203Y-103914075D01*
X129185626Y-103857837D01*
X129067162Y-103739373D01*
X128927860Y-103646295D01*
X128773082Y-103582184D01*
X128773074Y-103582182D01*
X128608771Y-103549500D01*
X128608767Y-103549500D01*
X128441233Y-103549500D01*
X128441228Y-103549500D01*
X128276925Y-103582182D01*
X128276917Y-103582184D01*
X128122139Y-103646295D01*
X127982837Y-103739373D01*
X127864373Y-103857837D01*
X127771295Y-103997139D01*
X127707184Y-104151917D01*
X127707182Y-104151925D01*
X127674500Y-104316228D01*
X127674500Y-104483771D01*
X127707182Y-104648074D01*
X127707184Y-104648082D01*
X127771295Y-104802860D01*
X127864373Y-104942162D01*
X127982837Y-105060626D01*
X128054127Y-105108260D01*
X128122137Y-105153703D01*
X128264703Y-105212756D01*
X128319106Y-105256597D01*
X128341171Y-105322891D01*
X128323892Y-105390591D01*
X128275072Y-105436043D01*
X128275254Y-105436359D01*
X128273883Y-105437150D01*
X128272755Y-105438201D01*
X128269446Y-105439712D01*
X128131290Y-105519475D01*
X128131282Y-105519481D01*
X127624217Y-106026546D01*
X127624214Y-106026548D01*
X127624215Y-106026549D01*
X127519478Y-106131286D01*
X127469361Y-106218094D01*
X127469359Y-106218096D01*
X127440425Y-106268209D01*
X127440424Y-106268210D01*
X127440423Y-106268215D01*
X127399499Y-106420943D01*
X127399499Y-106579057D01*
X127399499Y-106579059D01*
X127399500Y-106589053D01*
X127399500Y-115413330D01*
X127399499Y-115413348D01*
X127399499Y-115579054D01*
X127399498Y-115579054D01*
X127399499Y-115579057D01*
X127415102Y-115637289D01*
X127440424Y-115731787D01*
X127457488Y-115761342D01*
X127457489Y-115761344D01*
X127519477Y-115868712D01*
X127519481Y-115868717D01*
X127638349Y-115987585D01*
X127638355Y-115987590D01*
X130702793Y-119052028D01*
X130736278Y-119113351D01*
X130731294Y-119183043D01*
X130689422Y-119238976D01*
X130654119Y-119257414D01*
X130630670Y-119265184D01*
X130630663Y-119265187D01*
X130481342Y-119357289D01*
X130357289Y-119481342D01*
X130265187Y-119630663D01*
X130265185Y-119630668D01*
X130244717Y-119692438D01*
X130204944Y-119749883D01*
X130140428Y-119776706D01*
X130117283Y-119777052D01*
X130079474Y-119774076D01*
X129400000Y-120453551D01*
X129400000Y-120447339D01*
X129372741Y-120345606D01*
X129320080Y-120254394D01*
X129245606Y-120179920D01*
X129154394Y-120127259D01*
X129052661Y-120100000D01*
X129046446Y-120100000D01*
X129725922Y-119420524D01*
X129725921Y-119420523D01*
X129681359Y-119388147D01*
X129681350Y-119388141D01*
X129499031Y-119295244D01*
X129304417Y-119232009D01*
X129102317Y-119200000D01*
X128897683Y-119200000D01*
X128695582Y-119232009D01*
X128500968Y-119295244D01*
X128318644Y-119388143D01*
X128274077Y-119420523D01*
X128274077Y-119420524D01*
X128953554Y-120100000D01*
X128947339Y-120100000D01*
X128845606Y-120127259D01*
X128754394Y-120179920D01*
X128679920Y-120254394D01*
X128627259Y-120345606D01*
X128600000Y-120447339D01*
X128600000Y-120453553D01*
X127920524Y-119774077D01*
X127920523Y-119774077D01*
X127888143Y-119818644D01*
X127795244Y-120000968D01*
X127732009Y-120195582D01*
X127700000Y-120397682D01*
X127700000Y-120602317D01*
X127732009Y-120804417D01*
X127795244Y-120999031D01*
X127888141Y-121181350D01*
X127888147Y-121181359D01*
X127920523Y-121225921D01*
X127920524Y-121225922D01*
X128600000Y-120546446D01*
X128600000Y-120552661D01*
X128627259Y-120654394D01*
X128679920Y-120745606D01*
X128754394Y-120820080D01*
X128845606Y-120872741D01*
X128947339Y-120900000D01*
X128953553Y-120900000D01*
X128274076Y-121579474D01*
X128318650Y-121611859D01*
X128500968Y-121704755D01*
X128695582Y-121767990D01*
X128897683Y-121800000D01*
X129102317Y-121800000D01*
X129304417Y-121767990D01*
X129499031Y-121704755D01*
X129681349Y-121611859D01*
X129725921Y-121579474D01*
X129046447Y-120900000D01*
X129052661Y-120900000D01*
X129154394Y-120872741D01*
X129245606Y-120820080D01*
X129320080Y-120745606D01*
X129372741Y-120654394D01*
X129400000Y-120552661D01*
X129400000Y-120546447D01*
X130079473Y-121225921D01*
X130117280Y-121222946D01*
X130185658Y-121237310D01*
X130235415Y-121286361D01*
X130244714Y-121307556D01*
X130265186Y-121369334D01*
X130357288Y-121518656D01*
X130481344Y-121642712D01*
X130630666Y-121734814D01*
X130797203Y-121789999D01*
X130899991Y-121800500D01*
X132100008Y-121800499D01*
X132202797Y-121789999D01*
X132369334Y-121734814D01*
X132518656Y-121642712D01*
X132642712Y-121518656D01*
X132734814Y-121369334D01*
X132789999Y-121202797D01*
X132800500Y-121100009D01*
X132800499Y-119899992D01*
X132789999Y-119797203D01*
X132734814Y-119630666D01*
X132694215Y-119564844D01*
X132680966Y-119543363D01*
X132680965Y-119543361D01*
X132643322Y-119482332D01*
X136739500Y-119482332D01*
X136739500Y-119757667D01*
X136739501Y-119757684D01*
X136775438Y-120030655D01*
X136775439Y-120030660D01*
X136775440Y-120030666D01*
X136806463Y-120146446D01*
X136846704Y-120296630D01*
X136952075Y-120551017D01*
X136952080Y-120551028D01*
X137027283Y-120681282D01*
X137089751Y-120789479D01*
X137089753Y-120789482D01*
X137089754Y-120789483D01*
X137257370Y-121007926D01*
X137257376Y-121007933D01*
X137452066Y-121202623D01*
X137452073Y-121202629D01*
X137561195Y-121286361D01*
X137670521Y-121370249D01*
X137823778Y-121458732D01*
X137908971Y-121507919D01*
X137908976Y-121507921D01*
X137908979Y-121507923D01*
X138163368Y-121613295D01*
X138429334Y-121684560D01*
X138702326Y-121720500D01*
X138702333Y-121720500D01*
X138977667Y-121720500D01*
X138977674Y-121720500D01*
X139250666Y-121684560D01*
X139516632Y-121613295D01*
X139771021Y-121507923D01*
X140009479Y-121370249D01*
X140227928Y-121202628D01*
X140422628Y-121007928D01*
X140590249Y-120789479D01*
X140727923Y-120551021D01*
X140833295Y-120296632D01*
X140904560Y-120030666D01*
X140940500Y-119757674D01*
X140940500Y-119482326D01*
X140904560Y-119209334D01*
X140833295Y-118943368D01*
X140727923Y-118688979D01*
X140727921Y-118688976D01*
X140727919Y-118688971D01*
X140678732Y-118603778D01*
X140590249Y-118450521D01*
X140435876Y-118249337D01*
X140422629Y-118232073D01*
X140422623Y-118232066D01*
X140227933Y-118037376D01*
X140227926Y-118037370D01*
X140009483Y-117869754D01*
X140009482Y-117869753D01*
X140009479Y-117869751D01*
X139896461Y-117804500D01*
X139771028Y-117732080D01*
X139771017Y-117732075D01*
X139516630Y-117626704D01*
X139383649Y-117591072D01*
X139250666Y-117555440D01*
X139250660Y-117555439D01*
X139250655Y-117555438D01*
X138977684Y-117519501D01*
X138977679Y-117519500D01*
X138977674Y-117519500D01*
X138702326Y-117519500D01*
X138702320Y-117519500D01*
X138702315Y-117519501D01*
X138429344Y-117555438D01*
X138429337Y-117555439D01*
X138429334Y-117555440D01*
X138373125Y-117570500D01*
X138163369Y-117626704D01*
X137908982Y-117732075D01*
X137908971Y-117732080D01*
X137670516Y-117869754D01*
X137452073Y-118037370D01*
X137452066Y-118037376D01*
X137257376Y-118232066D01*
X137257370Y-118232073D01*
X137089754Y-118450516D01*
X136952080Y-118688971D01*
X136952075Y-118688982D01*
X136846704Y-118943369D01*
X136775441Y-119209331D01*
X136775438Y-119209344D01*
X136739501Y-119482315D01*
X136739500Y-119482332D01*
X132643322Y-119482332D01*
X132642714Y-119481347D01*
X132642711Y-119481343D01*
X132518657Y-119357289D01*
X132518656Y-119357288D01*
X132369334Y-119265186D01*
X132269213Y-119232009D01*
X132202795Y-119210000D01*
X132198533Y-119209088D01*
X132173190Y-119195355D01*
X132146583Y-119184299D01*
X132142856Y-119178919D01*
X132137102Y-119175801D01*
X132123208Y-119150550D01*
X132106801Y-119126862D01*
X132105400Y-119118186D01*
X132103419Y-119114586D01*
X132100574Y-119092121D01*
X132100500Y-119089980D01*
X132100500Y-118920943D01*
X132097454Y-118909577D01*
X132074501Y-118823914D01*
X132059577Y-118768216D01*
X132013830Y-118688979D01*
X131980524Y-118631290D01*
X131980521Y-118631286D01*
X131980520Y-118631284D01*
X131868716Y-118519480D01*
X131868715Y-118519479D01*
X131864385Y-118515149D01*
X131864374Y-118515139D01*
X128636819Y-115287584D01*
X128603334Y-115226261D01*
X128600500Y-115199903D01*
X128600500Y-106800098D01*
X128609144Y-106770660D01*
X128615668Y-106740670D01*
X128619423Y-106735653D01*
X128620185Y-106733059D01*
X128636819Y-106712416D01*
X128712418Y-106636818D01*
X128773742Y-106603334D01*
X128800099Y-106600500D01*
X128932465Y-106600500D01*
X128999504Y-106620185D01*
X129045259Y-106672989D01*
X129055823Y-106711898D01*
X129060001Y-106752797D01*
X129060001Y-106752799D01*
X129075675Y-106800098D01*
X129115186Y-106919334D01*
X129193290Y-107045962D01*
X129207289Y-107068657D01*
X129331344Y-107192712D01*
X129486558Y-107288448D01*
X129533283Y-107340396D01*
X129544506Y-107409358D01*
X129516663Y-107473441D01*
X129509144Y-107481668D01*
X129370271Y-107620541D01*
X129245379Y-107792442D01*
X129148904Y-107981782D01*
X129083242Y-108183870D01*
X129083242Y-108183873D01*
X129072769Y-108250000D01*
X130120854Y-108250000D01*
X130082370Y-108316657D01*
X130050000Y-108437465D01*
X130050000Y-108562535D01*
X130082370Y-108683343D01*
X130120854Y-108750000D01*
X129072769Y-108750000D01*
X129083242Y-108816126D01*
X129083242Y-108816129D01*
X129148904Y-109018217D01*
X129245379Y-109207557D01*
X129370272Y-109379459D01*
X129370276Y-109379464D01*
X129520535Y-109529723D01*
X129520540Y-109529727D01*
X129685218Y-109649372D01*
X129727884Y-109704701D01*
X129733863Y-109774315D01*
X129701258Y-109836110D01*
X129685218Y-109850008D01*
X129520214Y-109969890D01*
X129520209Y-109969894D01*
X129369890Y-110120213D01*
X129244951Y-110292179D01*
X129148444Y-110481585D01*
X129082753Y-110683760D01*
X129049500Y-110893713D01*
X129049500Y-111106286D01*
X129079866Y-111298013D01*
X129082754Y-111316243D01*
X129142460Y-111499999D01*
X129148444Y-111518414D01*
X129244951Y-111707820D01*
X129369890Y-111879786D01*
X129520209Y-112030105D01*
X129520214Y-112030109D01*
X129684793Y-112149682D01*
X129727459Y-112205011D01*
X129733438Y-112274625D01*
X129700833Y-112336420D01*
X129684793Y-112350318D01*
X129520214Y-112469890D01*
X129520209Y-112469894D01*
X129369890Y-112620213D01*
X129244951Y-112792179D01*
X129148444Y-112981585D01*
X129082753Y-113183760D01*
X129049500Y-113393713D01*
X129049500Y-113606287D01*
X129082754Y-113816243D01*
X129130137Y-113962073D01*
X129148444Y-114018414D01*
X129244951Y-114207820D01*
X129369890Y-114379786D01*
X129520213Y-114530109D01*
X129692179Y-114655048D01*
X129692181Y-114655049D01*
X129692184Y-114655051D01*
X129881588Y-114751557D01*
X130083757Y-114817246D01*
X130293713Y-114850500D01*
X130293714Y-114850500D01*
X130756286Y-114850500D01*
X130756287Y-114850500D01*
X130966243Y-114817246D01*
X131168412Y-114751557D01*
X131357816Y-114655051D01*
X131379789Y-114639086D01*
X131529786Y-114530109D01*
X131529788Y-114530106D01*
X131529792Y-114530104D01*
X131680104Y-114379792D01*
X131680106Y-114379788D01*
X131680109Y-114379786D01*
X131738661Y-114299193D01*
X131805051Y-114207816D01*
X131815357Y-114187590D01*
X131825235Y-114168205D01*
X131873209Y-114117409D01*
X131935719Y-114100500D01*
X133413331Y-114100500D01*
X133413347Y-114100501D01*
X133420943Y-114100501D01*
X133579054Y-114100501D01*
X133579057Y-114100501D01*
X133731785Y-114059577D01*
X133781904Y-114030639D01*
X133868716Y-113980520D01*
X133980520Y-113868716D01*
X133980520Y-113868714D01*
X133990728Y-113858507D01*
X133990729Y-113858504D01*
X134980520Y-112868716D01*
X135059577Y-112731784D01*
X135100501Y-112579057D01*
X135100501Y-112420942D01*
X135100501Y-112413347D01*
X135100500Y-112413329D01*
X135100500Y-104242332D01*
X136739500Y-104242332D01*
X136739500Y-104517667D01*
X136739501Y-104517684D01*
X136775438Y-104790655D01*
X136775439Y-104790660D01*
X136775440Y-104790666D01*
X136790247Y-104845925D01*
X136846704Y-105056630D01*
X136952075Y-105311017D01*
X136952080Y-105311028D01*
X137026377Y-105439712D01*
X137089751Y-105549479D01*
X137089753Y-105549482D01*
X137089754Y-105549483D01*
X137257370Y-105767926D01*
X137257376Y-105767933D01*
X137452066Y-105962623D01*
X137452073Y-105962629D01*
X137535376Y-106026549D01*
X137670521Y-106130249D01*
X137822673Y-106218094D01*
X137908971Y-106267919D01*
X137908976Y-106267921D01*
X137908979Y-106267923D01*
X138163368Y-106373295D01*
X138429334Y-106444560D01*
X138702326Y-106480500D01*
X138702333Y-106480500D01*
X138977667Y-106480500D01*
X138977674Y-106480500D01*
X139250666Y-106444560D01*
X139516632Y-106373295D01*
X139771021Y-106267923D01*
X140009479Y-106130249D01*
X140227928Y-105962628D01*
X140422628Y-105767928D01*
X140590249Y-105549479D01*
X140727923Y-105311021D01*
X140833295Y-105056632D01*
X140904560Y-104790666D01*
X140940500Y-104517674D01*
X140940500Y-104242326D01*
X140904560Y-103969334D01*
X140833295Y-103703368D01*
X140727923Y-103448979D01*
X140727921Y-103448976D01*
X140727919Y-103448971D01*
X140653542Y-103320148D01*
X140590249Y-103210521D01*
X140476745Y-103062599D01*
X140422629Y-102992073D01*
X140422623Y-102992066D01*
X140227933Y-102797376D01*
X140227926Y-102797370D01*
X140009483Y-102629754D01*
X140009482Y-102629753D01*
X140009479Y-102629751D01*
X139914407Y-102574861D01*
X139771028Y-102492080D01*
X139771017Y-102492075D01*
X139516630Y-102386704D01*
X139376720Y-102349216D01*
X139250666Y-102315440D01*
X139250660Y-102315439D01*
X139250655Y-102315438D01*
X138977684Y-102279501D01*
X138977679Y-102279500D01*
X138977674Y-102279500D01*
X138702326Y-102279500D01*
X138702320Y-102279500D01*
X138702315Y-102279501D01*
X138429344Y-102315438D01*
X138429337Y-102315439D01*
X138429334Y-102315440D01*
X138373125Y-102330500D01*
X138163369Y-102386704D01*
X137908982Y-102492075D01*
X137908971Y-102492080D01*
X137670516Y-102629754D01*
X137452073Y-102797370D01*
X137452066Y-102797376D01*
X137257376Y-102992066D01*
X137257370Y-102992073D01*
X137089754Y-103210516D01*
X136952080Y-103448971D01*
X136952075Y-103448982D01*
X136846704Y-103703369D01*
X136775441Y-103969331D01*
X136775438Y-103969344D01*
X136739501Y-104242315D01*
X136739500Y-104242332D01*
X135100500Y-104242332D01*
X135100500Y-101625500D01*
X135120185Y-101558461D01*
X135172989Y-101512706D01*
X135224500Y-101501500D01*
X140792331Y-101501500D01*
X140792347Y-101501501D01*
X140799943Y-101501501D01*
X140958054Y-101501501D01*
X140958057Y-101501501D01*
X141110785Y-101460577D01*
X141160904Y-101431639D01*
X141247716Y-101381520D01*
X141359520Y-101269716D01*
X141359520Y-101269714D01*
X141369728Y-101259507D01*
X141369729Y-101259504D01*
X143205159Y-99424075D01*
X143266480Y-99390592D01*
X143331154Y-99393826D01*
X143345466Y-99398477D01*
X143547648Y-99430500D01*
X143547649Y-99430500D01*
X143752351Y-99430500D01*
X143752352Y-99430500D01*
X143954534Y-99398477D01*
X144072409Y-99360176D01*
X144103375Y-99359291D01*
X144134196Y-99356350D01*
X144137983Y-99358302D01*
X144142246Y-99358181D01*
X144168774Y-99374177D01*
X144196297Y-99388368D01*
X144199895Y-99392944D01*
X144202079Y-99394261D01*
X144218108Y-99416104D01*
X144220360Y-99420004D01*
X144220362Y-99420007D01*
X144220362Y-99420008D01*
X144270479Y-99506814D01*
X144270481Y-99506817D01*
X144389349Y-99625685D01*
X144389355Y-99625690D01*
X145743181Y-100979516D01*
X145776666Y-101040839D01*
X145779500Y-101067197D01*
X145779500Y-102939861D01*
X145759815Y-103006900D01*
X145707011Y-103052655D01*
X145637853Y-103062599D01*
X145617183Y-103057792D01*
X145515377Y-103024714D01*
X145515378Y-103024714D01*
X145299361Y-102990500D01*
X145299356Y-102990500D01*
X145080644Y-102990500D01*
X145080639Y-102990500D01*
X144864623Y-103024714D01*
X144656619Y-103092297D01*
X144656616Y-103092298D01*
X144461739Y-103191595D01*
X144284806Y-103320142D01*
X144130142Y-103474806D01*
X144020318Y-103625969D01*
X143964989Y-103668635D01*
X143895375Y-103674614D01*
X143833580Y-103642009D01*
X143819682Y-103625969D01*
X143709857Y-103474806D01*
X143555193Y-103320142D01*
X143378260Y-103191595D01*
X143378259Y-103191594D01*
X143378257Y-103191593D01*
X143315825Y-103159782D01*
X143183383Y-103092298D01*
X143183380Y-103092297D01*
X142975376Y-103024714D01*
X142759361Y-102990500D01*
X142759356Y-102990500D01*
X142540644Y-102990500D01*
X142540639Y-102990500D01*
X142324623Y-103024714D01*
X142116619Y-103092297D01*
X142116616Y-103092298D01*
X141921739Y-103191595D01*
X141744806Y-103320142D01*
X141590142Y-103474806D01*
X141461595Y-103651739D01*
X141362298Y-103846616D01*
X141362297Y-103846619D01*
X141294714Y-104054623D01*
X141260500Y-104270638D01*
X141260500Y-104489361D01*
X141294714Y-104705376D01*
X141362297Y-104913380D01*
X141362298Y-104913383D01*
X141429782Y-105045825D01*
X141449722Y-105084960D01*
X141461595Y-105108260D01*
X141590142Y-105285193D01*
X141744806Y-105439857D01*
X141895696Y-105549483D01*
X141921743Y-105568407D01*
X141981794Y-105599004D01*
X142032591Y-105646978D01*
X142049500Y-105709489D01*
X142049500Y-113613330D01*
X142049499Y-113613348D01*
X142049499Y-113779054D01*
X142049498Y-113779054D01*
X142090423Y-113931785D01*
X142107910Y-113962073D01*
X142107909Y-113962073D01*
X142107910Y-113962074D01*
X142169475Y-114068709D01*
X142169481Y-114068717D01*
X142288349Y-114187585D01*
X142288355Y-114187590D01*
X145774030Y-117673265D01*
X145807515Y-117734588D01*
X145804280Y-117799263D01*
X145746518Y-117977038D01*
X145707300Y-118224652D01*
X145707300Y-118475348D01*
X145714802Y-118522712D01*
X145746518Y-118722959D01*
X145823985Y-118961382D01*
X145823986Y-118961385D01*
X145933238Y-119175801D01*
X145937801Y-119184757D01*
X146085156Y-119387574D01*
X146262426Y-119564844D01*
X146465243Y-119712199D01*
X146554512Y-119757684D01*
X146688614Y-119826013D01*
X146688617Y-119826014D01*
X146743124Y-119843724D01*
X146927042Y-119903482D01*
X147174652Y-119942700D01*
X147174653Y-119942700D01*
X147425347Y-119942700D01*
X147425348Y-119942700D01*
X147672958Y-119903482D01*
X147850735Y-119845718D01*
X147920575Y-119843724D01*
X147976733Y-119875969D01*
X149363181Y-121262416D01*
X149396666Y-121323739D01*
X149399500Y-121350097D01*
X149399500Y-124382465D01*
X149379815Y-124449504D01*
X149327011Y-124495259D01*
X149288102Y-124505823D01*
X149247202Y-124510001D01*
X149247200Y-124510001D01*
X149080668Y-124565185D01*
X149080663Y-124565187D01*
X148931342Y-124657289D01*
X148807289Y-124781342D01*
X148715187Y-124930663D01*
X148715185Y-124930668D01*
X148710325Y-124945334D01*
X148660001Y-125097203D01*
X148660001Y-125097204D01*
X148660000Y-125097204D01*
X148649500Y-125199983D01*
X148649500Y-126800001D01*
X148649501Y-126800018D01*
X148660000Y-126902796D01*
X148660001Y-126902799D01*
X148675034Y-126948164D01*
X148715186Y-127069334D01*
X148807288Y-127218656D01*
X148931344Y-127342712D01*
X149080666Y-127434814D01*
X149247203Y-127489999D01*
X149349991Y-127500500D01*
X150599902Y-127500499D01*
X150629342Y-127509143D01*
X150659329Y-127515667D01*
X150664344Y-127519421D01*
X150666941Y-127520184D01*
X150687583Y-127536818D01*
X150816139Y-127665374D01*
X150816149Y-127665385D01*
X150820479Y-127669715D01*
X150820480Y-127669716D01*
X150932284Y-127781520D01*
X151005175Y-127823603D01*
X151069215Y-127860577D01*
X151221943Y-127901501D01*
X151221946Y-127901501D01*
X151387653Y-127901501D01*
X151387669Y-127901500D01*
X165390091Y-127901500D01*
X165390107Y-127901501D01*
X165397703Y-127901501D01*
X165555814Y-127901501D01*
X165555817Y-127901501D01*
X165708545Y-127860577D01*
X165772585Y-127823603D01*
X165845476Y-127781520D01*
X165957280Y-127669716D01*
X165957280Y-127669714D01*
X165967484Y-127659511D01*
X165967487Y-127659506D01*
X168108784Y-125518209D01*
X182584500Y-125518209D01*
X182584500Y-125881790D01*
X182620137Y-126243630D01*
X182691064Y-126600212D01*
X182691067Y-126600223D01*
X182796614Y-126948165D01*
X182935754Y-127284078D01*
X182935756Y-127284083D01*
X183107140Y-127604720D01*
X183107151Y-127604738D01*
X183309140Y-127907035D01*
X183309150Y-127907049D01*
X183539807Y-128188106D01*
X183796893Y-128445192D01*
X183796898Y-128445196D01*
X183796899Y-128445197D01*
X184077956Y-128675854D01*
X184380268Y-128877853D01*
X184380277Y-128877858D01*
X184380279Y-128877859D01*
X184700916Y-129049243D01*
X184700918Y-129049243D01*
X184700924Y-129049247D01*
X185036836Y-129188386D01*
X185384767Y-129293930D01*
X185384773Y-129293931D01*
X185384776Y-129293932D01*
X185384787Y-129293935D01*
X185741369Y-129364862D01*
X186103206Y-129400500D01*
X186103209Y-129400500D01*
X186466791Y-129400500D01*
X186466794Y-129400500D01*
X186828631Y-129364862D01*
X186898045Y-129351054D01*
X187185212Y-129293935D01*
X187185223Y-129293932D01*
X187185223Y-129293931D01*
X187185233Y-129293930D01*
X187533164Y-129188386D01*
X187869076Y-129049247D01*
X188189732Y-128877853D01*
X188492044Y-128675854D01*
X188773101Y-128445197D01*
X189030197Y-128188101D01*
X189260854Y-127907044D01*
X189462853Y-127604732D01*
X189634247Y-127284076D01*
X189773386Y-126948164D01*
X189878930Y-126600233D01*
X189878932Y-126600223D01*
X189878935Y-126600212D01*
X189936054Y-126313045D01*
X189949862Y-126243631D01*
X189985500Y-125881794D01*
X189985500Y-125518206D01*
X189949862Y-125156369D01*
X189947039Y-125142179D01*
X189878935Y-124799787D01*
X189878932Y-124799776D01*
X189878931Y-124799773D01*
X189878930Y-124799767D01*
X189773386Y-124451836D01*
X189634247Y-124115924D01*
X189462853Y-123795268D01*
X189260854Y-123492956D01*
X189030197Y-123211899D01*
X189030196Y-123211898D01*
X189030192Y-123211893D01*
X188773106Y-122954807D01*
X188492049Y-122724150D01*
X188492048Y-122724149D01*
X188492044Y-122724146D01*
X188189732Y-122522147D01*
X188189727Y-122522144D01*
X188189720Y-122522140D01*
X187869083Y-122350756D01*
X187869078Y-122350754D01*
X187533165Y-122211614D01*
X187185223Y-122106067D01*
X187185212Y-122106064D01*
X186828630Y-122035137D01*
X186556111Y-122008296D01*
X186466794Y-121999500D01*
X186103206Y-121999500D01*
X186020679Y-122007628D01*
X185741369Y-122035137D01*
X185384787Y-122106064D01*
X185384776Y-122106067D01*
X185036834Y-122211614D01*
X184700921Y-122350754D01*
X184700916Y-122350756D01*
X184380279Y-122522140D01*
X184380261Y-122522151D01*
X184077964Y-122724140D01*
X184077950Y-122724150D01*
X183796893Y-122954807D01*
X183539807Y-123211893D01*
X183309150Y-123492950D01*
X183309140Y-123492964D01*
X183107151Y-123795261D01*
X183107140Y-123795279D01*
X182935756Y-124115916D01*
X182935754Y-124115921D01*
X182796614Y-124451834D01*
X182691067Y-124799776D01*
X182691064Y-124799787D01*
X182620137Y-125156369D01*
X182584500Y-125518209D01*
X168108784Y-125518209D01*
X180980520Y-112646476D01*
X181059577Y-112509544D01*
X181100501Y-112356817D01*
X181100501Y-112198702D01*
X181100501Y-112191107D01*
X181100500Y-112191089D01*
X181100500Y-110920945D01*
X181100500Y-110920943D01*
X181059577Y-110768216D01*
X181028067Y-110713638D01*
X180980524Y-110631290D01*
X180980521Y-110631286D01*
X180980520Y-110631284D01*
X180868716Y-110519480D01*
X180868715Y-110519479D01*
X180864385Y-110515149D01*
X180864374Y-110515139D01*
X180536818Y-110187583D01*
X180503333Y-110126260D01*
X180500499Y-110099910D01*
X180500499Y-108849992D01*
X180500028Y-108845385D01*
X180489999Y-108747203D01*
X180489998Y-108747200D01*
X180468838Y-108683343D01*
X180434814Y-108580666D01*
X180342712Y-108431344D01*
X180218656Y-108307288D01*
X180069334Y-108215186D01*
X179902797Y-108160001D01*
X179902795Y-108160000D01*
X179800016Y-108149500D01*
X179800009Y-108149500D01*
X179724500Y-108149500D01*
X179657461Y-108129815D01*
X179611706Y-108077011D01*
X179600500Y-108025500D01*
X179600500Y-91893713D01*
X183524500Y-91893713D01*
X183524500Y-92106286D01*
X183557753Y-92316239D01*
X183623444Y-92518414D01*
X183719951Y-92707820D01*
X183844890Y-92879786D01*
X183995209Y-93030105D01*
X183995214Y-93030109D01*
X184159793Y-93149682D01*
X184202459Y-93205011D01*
X184208438Y-93274625D01*
X184175833Y-93336420D01*
X184159793Y-93350318D01*
X183995214Y-93469890D01*
X183995209Y-93469894D01*
X183844890Y-93620213D01*
X183719951Y-93792179D01*
X183623444Y-93981585D01*
X183557753Y-94183760D01*
X183524500Y-94393713D01*
X183524500Y-94606286D01*
X183557753Y-94816239D01*
X183623444Y-95018414D01*
X183719951Y-95207820D01*
X183844890Y-95379786D01*
X183995209Y-95530105D01*
X183995214Y-95530109D01*
X184160218Y-95649991D01*
X184202884Y-95705320D01*
X184208863Y-95774934D01*
X184176258Y-95836729D01*
X184160218Y-95850627D01*
X183995540Y-95970272D01*
X183995535Y-95970276D01*
X183845276Y-96120535D01*
X183845272Y-96120540D01*
X183720379Y-96292442D01*
X183623904Y-96481782D01*
X183558242Y-96683870D01*
X183558242Y-96683873D01*
X183547769Y-96750000D01*
X184595854Y-96750000D01*
X184557370Y-96816657D01*
X184525000Y-96937465D01*
X184525000Y-97062535D01*
X184557370Y-97183343D01*
X184595854Y-97250000D01*
X183547769Y-97250000D01*
X183558242Y-97316126D01*
X183558242Y-97316129D01*
X183623904Y-97518217D01*
X183720379Y-97707557D01*
X183845272Y-97879459D01*
X183845276Y-97879464D01*
X183984143Y-98018331D01*
X184017628Y-98079654D01*
X184012644Y-98149346D01*
X183970772Y-98205279D01*
X183961559Y-98211551D01*
X183806342Y-98307289D01*
X183682289Y-98431342D01*
X183590187Y-98580663D01*
X183590185Y-98580668D01*
X183566953Y-98650779D01*
X183535001Y-98747203D01*
X183535001Y-98747204D01*
X183535000Y-98747204D01*
X183524500Y-98849983D01*
X183524500Y-100150001D01*
X183524501Y-100150018D01*
X183535000Y-100252796D01*
X183535001Y-100252799D01*
X183544739Y-100282185D01*
X183590186Y-100419334D01*
X183682288Y-100568656D01*
X183806344Y-100692712D01*
X183955666Y-100784814D01*
X184122203Y-100839999D01*
X184224991Y-100850500D01*
X185775008Y-100850499D01*
X185877797Y-100839999D01*
X186004031Y-100798168D01*
X186073855Y-100795767D01*
X186133897Y-100831498D01*
X186165091Y-100894018D01*
X186164650Y-100940065D01*
X186149500Y-101016234D01*
X186149500Y-101183771D01*
X186182182Y-101348074D01*
X186182184Y-101348082D01*
X186246295Y-101502860D01*
X186339373Y-101642162D01*
X186457837Y-101760626D01*
X186508954Y-101794781D01*
X186597137Y-101853703D01*
X186751918Y-101917816D01*
X186916228Y-101950499D01*
X186916232Y-101950500D01*
X186916233Y-101950500D01*
X187083768Y-101950500D01*
X187083769Y-101950499D01*
X187248082Y-101917816D01*
X187402863Y-101853703D01*
X187542162Y-101760626D01*
X187660626Y-101642162D01*
X187753703Y-101502863D01*
X187817816Y-101348082D01*
X187850500Y-101183767D01*
X187850500Y-101016233D01*
X187817816Y-100851918D01*
X187768053Y-100731781D01*
X187753704Y-100697139D01*
X187660626Y-100557837D01*
X187542162Y-100439373D01*
X187402860Y-100346295D01*
X187248082Y-100282184D01*
X187248074Y-100282182D01*
X187083771Y-100249500D01*
X187083767Y-100249500D01*
X186916233Y-100249500D01*
X186916228Y-100249500D01*
X186751925Y-100282182D01*
X186751913Y-100282185D01*
X186641109Y-100328082D01*
X186571640Y-100335551D01*
X186509161Y-100304276D01*
X186473509Y-100244187D01*
X186470299Y-100200918D01*
X186470775Y-100196261D01*
X186475500Y-100150009D01*
X186475499Y-98849992D01*
X186464999Y-98747203D01*
X186409814Y-98580666D01*
X186317712Y-98431344D01*
X186193656Y-98307288D01*
X186044334Y-98215186D01*
X186044332Y-98215185D01*
X186038440Y-98211551D01*
X185991716Y-98159603D01*
X185980493Y-98090641D01*
X186008337Y-98026558D01*
X186015856Y-98018330D01*
X186154728Y-97879458D01*
X186279620Y-97707557D01*
X186376095Y-97518217D01*
X186441757Y-97316129D01*
X186441757Y-97316126D01*
X186452231Y-97250000D01*
X185404146Y-97250000D01*
X185442630Y-97183343D01*
X185475000Y-97062535D01*
X185475000Y-96937465D01*
X185442630Y-96816657D01*
X185404146Y-96750000D01*
X186452231Y-96750000D01*
X186441757Y-96683873D01*
X186441757Y-96683870D01*
X186376095Y-96481782D01*
X186279620Y-96292442D01*
X186154727Y-96120540D01*
X186154723Y-96120535D01*
X186004464Y-95970276D01*
X186004459Y-95970272D01*
X185839781Y-95850627D01*
X185797115Y-95795297D01*
X185791136Y-95725684D01*
X185823741Y-95663889D01*
X185839776Y-95649994D01*
X186004792Y-95530104D01*
X186155104Y-95379792D01*
X186155106Y-95379788D01*
X186155109Y-95379786D01*
X186280048Y-95207820D01*
X186280047Y-95207820D01*
X186280051Y-95207816D01*
X186376557Y-95018412D01*
X186442246Y-94816243D01*
X186475500Y-94606287D01*
X186475500Y-94393713D01*
X186442246Y-94183757D01*
X186376557Y-93981588D01*
X186280051Y-93792184D01*
X186280049Y-93792181D01*
X186280048Y-93792179D01*
X186155109Y-93620213D01*
X186004792Y-93469896D01*
X186004784Y-93469890D01*
X185840204Y-93350316D01*
X185797540Y-93294989D01*
X185791561Y-93225376D01*
X185824166Y-93163580D01*
X185840199Y-93149686D01*
X186004792Y-93030104D01*
X186155104Y-92879792D01*
X186155106Y-92879788D01*
X186155109Y-92879786D01*
X186280048Y-92707820D01*
X186280047Y-92707820D01*
X186280051Y-92707816D01*
X186376557Y-92518412D01*
X186442246Y-92316243D01*
X186475500Y-92106287D01*
X186475500Y-91893713D01*
X186442246Y-91683757D01*
X186376557Y-91481588D01*
X186280051Y-91292184D01*
X186280049Y-91292181D01*
X186280048Y-91292179D01*
X186155109Y-91120213D01*
X186004786Y-90969890D01*
X185832820Y-90844951D01*
X185643414Y-90748444D01*
X185643413Y-90748443D01*
X185643412Y-90748443D01*
X185441243Y-90682754D01*
X185441241Y-90682753D01*
X185441240Y-90682753D01*
X185279957Y-90657208D01*
X185231287Y-90649500D01*
X184768713Y-90649500D01*
X184720042Y-90657208D01*
X184558760Y-90682753D01*
X184356585Y-90748444D01*
X184167179Y-90844951D01*
X183995213Y-90969890D01*
X183844890Y-91120213D01*
X183719951Y-91292179D01*
X183623444Y-91481585D01*
X183557753Y-91683760D01*
X183524500Y-91893713D01*
X179600500Y-91893713D01*
X179600500Y-88212945D01*
X179600500Y-88212943D01*
X179559577Y-88060216D01*
X179559577Y-88060215D01*
X179559577Y-88060214D01*
X179530639Y-88010095D01*
X179530637Y-88010092D01*
X179480520Y-87923284D01*
X179368716Y-87811480D01*
X179368715Y-87811479D01*
X179364385Y-87807149D01*
X179364374Y-87807139D01*
X171591590Y-80034355D01*
X171591588Y-80034352D01*
X171472717Y-79915481D01*
X171472716Y-79915480D01*
X171385904Y-79865360D01*
X171385904Y-79865359D01*
X171385900Y-79865358D01*
X171335785Y-79836423D01*
X171183057Y-79795499D01*
X171024943Y-79795499D01*
X171017347Y-79795499D01*
X171017331Y-79795500D01*
X151979262Y-79795500D01*
X151912223Y-79775815D01*
X151866468Y-79723011D01*
X151856524Y-79653853D01*
X151885549Y-79590297D01*
X151917261Y-79564113D01*
X152114479Y-79450249D01*
X152332928Y-79282628D01*
X152527628Y-79087928D01*
X152695249Y-78869479D01*
X152832923Y-78631021D01*
X152938295Y-78376632D01*
X153009560Y-78110666D01*
X153045500Y-77837674D01*
X153045500Y-77562326D01*
X153009560Y-77289334D01*
X152938295Y-77023368D01*
X152832923Y-76768979D01*
X152832921Y-76768976D01*
X152832919Y-76768971D01*
X152762728Y-76647398D01*
X152695249Y-76530521D01*
X152571568Y-76369336D01*
X152527629Y-76312073D01*
X152527623Y-76312066D01*
X152332933Y-76117376D01*
X152332926Y-76117370D01*
X152114483Y-75949754D01*
X152114482Y-75949753D01*
X152114479Y-75949751D01*
X151981094Y-75872741D01*
X151876028Y-75812080D01*
X151876017Y-75812075D01*
X151621630Y-75706704D01*
X151488649Y-75671072D01*
X151355666Y-75635440D01*
X151355660Y-75635439D01*
X151355655Y-75635438D01*
X151082684Y-75599501D01*
X151082679Y-75599500D01*
X151082674Y-75599500D01*
X150807326Y-75599500D01*
X150807320Y-75599500D01*
X150807315Y-75599501D01*
X150534344Y-75635438D01*
X150534337Y-75635439D01*
X150534334Y-75635440D01*
X150478125Y-75650500D01*
X150268369Y-75706704D01*
X150013982Y-75812075D01*
X150013971Y-75812080D01*
X149775516Y-75949754D01*
X149557073Y-76117370D01*
X149557066Y-76117376D01*
X149362376Y-76312066D01*
X149362370Y-76312073D01*
X149194754Y-76530516D01*
X149057080Y-76768971D01*
X149057075Y-76768982D01*
X148951704Y-77023369D01*
X148880441Y-77289331D01*
X148880438Y-77289344D01*
X148844501Y-77562315D01*
X148844500Y-77562332D01*
X148844500Y-77837667D01*
X148844501Y-77837684D01*
X148880438Y-78110655D01*
X148880439Y-78110660D01*
X148880440Y-78110666D01*
X148894126Y-78161742D01*
X148938384Y-78326918D01*
X148936721Y-78396768D01*
X148897558Y-78454630D01*
X148833330Y-78482134D01*
X148764427Y-78470547D01*
X148730928Y-78446692D01*
X148499709Y-78215473D01*
X148466224Y-78154150D01*
X148469459Y-78089473D01*
X148481130Y-78053553D01*
X148490286Y-78025375D01*
X148500061Y-77963655D01*
X148524500Y-77809361D01*
X148524500Y-77590638D01*
X148493195Y-77392993D01*
X148490286Y-77374625D01*
X148422701Y-77166617D01*
X148422701Y-77166616D01*
X148388315Y-77099132D01*
X148323407Y-76971743D01*
X148299887Y-76939370D01*
X148194857Y-76794806D01*
X148040193Y-76640142D01*
X147863258Y-76511593D01*
X147803204Y-76480993D01*
X147752408Y-76433018D01*
X147735500Y-76370509D01*
X147735500Y-68300945D01*
X147735500Y-68300943D01*
X147709851Y-68205220D01*
X147694577Y-68148215D01*
X147665639Y-68098095D01*
X147615520Y-68011284D01*
X147503716Y-67899480D01*
X147503715Y-67899479D01*
X147499385Y-67895149D01*
X147499374Y-67895139D01*
X144010969Y-64406734D01*
X143977484Y-64345411D01*
X143980719Y-64280735D01*
X144003621Y-64210249D01*
X144038482Y-64102958D01*
X144077700Y-63855348D01*
X144077700Y-63604652D01*
X144038482Y-63357042D01*
X143966867Y-63136632D01*
X143961014Y-63118617D01*
X143961013Y-63118614D01*
X143847198Y-62895242D01*
X143829344Y-62870668D01*
X143699844Y-62692426D01*
X143522574Y-62515156D01*
X143360459Y-62397373D01*
X143319760Y-62367803D01*
X143319759Y-62367802D01*
X143319757Y-62367801D01*
X143248194Y-62331337D01*
X143230521Y-62322332D01*
X148844500Y-62322332D01*
X148844500Y-62597667D01*
X148844501Y-62597684D01*
X148880438Y-62870655D01*
X148880439Y-62870660D01*
X148880440Y-62870666D01*
X148916072Y-63003649D01*
X148951704Y-63136630D01*
X149057075Y-63391017D01*
X149057080Y-63391028D01*
X149139861Y-63534407D01*
X149194751Y-63629479D01*
X149194753Y-63629482D01*
X149194754Y-63629483D01*
X149362370Y-63847926D01*
X149362376Y-63847933D01*
X149557066Y-64042623D01*
X149557072Y-64042628D01*
X149775521Y-64210249D01*
X149928778Y-64298732D01*
X150013971Y-64347919D01*
X150013976Y-64347921D01*
X150013979Y-64347923D01*
X150268368Y-64453295D01*
X150534334Y-64524560D01*
X150807326Y-64560500D01*
X150807333Y-64560500D01*
X151082667Y-64560500D01*
X151082674Y-64560500D01*
X151355666Y-64524560D01*
X151621632Y-64453295D01*
X151876021Y-64347923D01*
X152114479Y-64210249D01*
X152332928Y-64042628D01*
X152527628Y-63847928D01*
X152695249Y-63629479D01*
X152832923Y-63391021D01*
X152938295Y-63136632D01*
X153009560Y-62870666D01*
X153045500Y-62597674D01*
X153045500Y-62322326D01*
X153009560Y-62049334D01*
X152938295Y-61783368D01*
X152832923Y-61528979D01*
X152832921Y-61528976D01*
X152832919Y-61528971D01*
X152766152Y-61413329D01*
X152695249Y-61290521D01*
X152527628Y-61072072D01*
X152527623Y-61072066D01*
X152332933Y-60877376D01*
X152332926Y-60877370D01*
X152114483Y-60709754D01*
X152114482Y-60709753D01*
X152114479Y-60709751D01*
X152019407Y-60654861D01*
X151876028Y-60572080D01*
X151876017Y-60572075D01*
X151621630Y-60466704D01*
X151488649Y-60431072D01*
X151355666Y-60395440D01*
X151355660Y-60395439D01*
X151355655Y-60395438D01*
X151082684Y-60359501D01*
X151082679Y-60359500D01*
X151082674Y-60359500D01*
X150807326Y-60359500D01*
X150807320Y-60359500D01*
X150807315Y-60359501D01*
X150534344Y-60395438D01*
X150534337Y-60395439D01*
X150534334Y-60395440D01*
X150478125Y-60410500D01*
X150268369Y-60466704D01*
X150013982Y-60572075D01*
X150013971Y-60572080D01*
X149775516Y-60709754D01*
X149557073Y-60877370D01*
X149557066Y-60877376D01*
X149362376Y-61072066D01*
X149362370Y-61072073D01*
X149194754Y-61290516D01*
X149057080Y-61528971D01*
X149057075Y-61528982D01*
X148951704Y-61783369D01*
X148880441Y-62049331D01*
X148880438Y-62049344D01*
X148844501Y-62322315D01*
X148844500Y-62322332D01*
X143230521Y-62322332D01*
X143096385Y-62253986D01*
X143096382Y-62253985D01*
X142857959Y-62176518D01*
X142734153Y-62156909D01*
X142610348Y-62137300D01*
X142610347Y-62137300D01*
X142509500Y-62137300D01*
X142442461Y-62117615D01*
X142396706Y-62064811D01*
X142385500Y-62013300D01*
X142385500Y-57317534D01*
X142405185Y-57250495D01*
X142457989Y-57204740D01*
X142496897Y-57194176D01*
X142537797Y-57189999D01*
X142704334Y-57134814D01*
X142853656Y-57042712D01*
X142977712Y-56918656D01*
X143069814Y-56769334D01*
X143124999Y-56602797D01*
X143135500Y-56500009D01*
X143135499Y-55123499D01*
X143155184Y-55056461D01*
X143207987Y-55010706D01*
X143259499Y-54999500D01*
X150577255Y-54999500D01*
X150644294Y-55019185D01*
X150690049Y-55071989D01*
X150700613Y-55110898D01*
X150710001Y-55202797D01*
X150710001Y-55202799D01*
X150720260Y-55233757D01*
X150765186Y-55369334D01*
X150857288Y-55518656D01*
X150981344Y-55642712D01*
X151130666Y-55734814D01*
X151192440Y-55755284D01*
X151249884Y-55795055D01*
X151276707Y-55859571D01*
X151277053Y-55882719D01*
X151274077Y-55920524D01*
X151953554Y-56600000D01*
X151947339Y-56600000D01*
X151845606Y-56627259D01*
X151754394Y-56679920D01*
X151679920Y-56754394D01*
X151627259Y-56845606D01*
X151600000Y-56947339D01*
X151600000Y-56953553D01*
X150920524Y-56274077D01*
X150920523Y-56274077D01*
X150888143Y-56318644D01*
X150795244Y-56500968D01*
X150732009Y-56695582D01*
X150700000Y-56897682D01*
X150700000Y-57102317D01*
X150732009Y-57304417D01*
X150795244Y-57499031D01*
X150888141Y-57681350D01*
X150888147Y-57681359D01*
X150920523Y-57725921D01*
X150920524Y-57725922D01*
X151600000Y-57046446D01*
X151600000Y-57052661D01*
X151627259Y-57154394D01*
X151679920Y-57245606D01*
X151754394Y-57320080D01*
X151845606Y-57372741D01*
X151947339Y-57400000D01*
X151953553Y-57400000D01*
X151274076Y-58079474D01*
X151318650Y-58111859D01*
X151500968Y-58204755D01*
X151695582Y-58267990D01*
X151897683Y-58300000D01*
X152102317Y-58300000D01*
X152304417Y-58267990D01*
X152499031Y-58204755D01*
X152681349Y-58111859D01*
X152725921Y-58079474D01*
X152046447Y-57400000D01*
X152052661Y-57400000D01*
X152154394Y-57372741D01*
X152245606Y-57320080D01*
X152320080Y-57245606D01*
X152372741Y-57154394D01*
X152400000Y-57052661D01*
X152400000Y-57046448D01*
X153079474Y-57725922D01*
X153079474Y-57725921D01*
X153111859Y-57681349D01*
X153204755Y-57499031D01*
X153267990Y-57304417D01*
X153300000Y-57102317D01*
X153300000Y-56897682D01*
X153267990Y-56695582D01*
X153204755Y-56500968D01*
X153111859Y-56318650D01*
X153079474Y-56274077D01*
X153079474Y-56274076D01*
X152400000Y-56953551D01*
X152400000Y-56947339D01*
X152372741Y-56845606D01*
X152320080Y-56754394D01*
X152245606Y-56679920D01*
X152154394Y-56627259D01*
X152052661Y-56600000D01*
X152046446Y-56600000D01*
X152725921Y-55920525D01*
X152722946Y-55882719D01*
X152737310Y-55814341D01*
X152786361Y-55764584D01*
X152807555Y-55755285D01*
X152869334Y-55734814D01*
X153018656Y-55642712D01*
X153142712Y-55518656D01*
X153234814Y-55369334D01*
X153289999Y-55202797D01*
X153289999Y-55202793D01*
X153290912Y-55198533D01*
X153324199Y-55137102D01*
X153385414Y-55103419D01*
X153412163Y-55100500D01*
X173199903Y-55100500D01*
X173266942Y-55120185D01*
X173287584Y-55136819D01*
X174713681Y-56562916D01*
X174747166Y-56624239D01*
X174750000Y-56650597D01*
X174750000Y-57595854D01*
X174683343Y-57557370D01*
X174562535Y-57525000D01*
X174437465Y-57525000D01*
X174316657Y-57557370D01*
X174250000Y-57595854D01*
X174250000Y-56547768D01*
X174249999Y-56547768D01*
X174183875Y-56558241D01*
X173981784Y-56623903D01*
X173792442Y-56720379D01*
X173620540Y-56845272D01*
X173620535Y-56845276D01*
X173470276Y-56995535D01*
X173470272Y-56995540D01*
X173350627Y-57160218D01*
X173295297Y-57202884D01*
X173225684Y-57208863D01*
X173163889Y-57176257D01*
X173149991Y-57160218D01*
X173030109Y-56995214D01*
X173030105Y-56995209D01*
X172879786Y-56844890D01*
X172707820Y-56719951D01*
X172518414Y-56623444D01*
X172518413Y-56623443D01*
X172518412Y-56623443D01*
X172316243Y-56557754D01*
X172316241Y-56557753D01*
X172316240Y-56557753D01*
X172154957Y-56532208D01*
X172106287Y-56524500D01*
X171893713Y-56524500D01*
X171845042Y-56532208D01*
X171683760Y-56557753D01*
X171481585Y-56623444D01*
X171292179Y-56719951D01*
X171120213Y-56844890D01*
X170969894Y-56995209D01*
X170969890Y-56995214D01*
X170850318Y-57159793D01*
X170794989Y-57202459D01*
X170725375Y-57208438D01*
X170663580Y-57175833D01*
X170649682Y-57159793D01*
X170530109Y-56995214D01*
X170530105Y-56995209D01*
X170379786Y-56844890D01*
X170207820Y-56719951D01*
X170018414Y-56623444D01*
X170018413Y-56623443D01*
X170018412Y-56623443D01*
X169816243Y-56557754D01*
X169816241Y-56557753D01*
X169816240Y-56557753D01*
X169654957Y-56532208D01*
X169606287Y-56524500D01*
X169393713Y-56524500D01*
X169345042Y-56532208D01*
X169183760Y-56557753D01*
X168981585Y-56623444D01*
X168792179Y-56719951D01*
X168620213Y-56844890D01*
X168469894Y-56995209D01*
X168469890Y-56995214D01*
X168350318Y-57159793D01*
X168294989Y-57202459D01*
X168225375Y-57208438D01*
X168163580Y-57175833D01*
X168149682Y-57159793D01*
X168030109Y-56995214D01*
X168030105Y-56995209D01*
X167879786Y-56844890D01*
X167707820Y-56719951D01*
X167518414Y-56623444D01*
X167518413Y-56623443D01*
X167518412Y-56623443D01*
X167316243Y-56557754D01*
X167316241Y-56557753D01*
X167316240Y-56557753D01*
X167154957Y-56532208D01*
X167106287Y-56524500D01*
X166893713Y-56524500D01*
X166845042Y-56532208D01*
X166683760Y-56557753D01*
X166481585Y-56623444D01*
X166292179Y-56719951D01*
X166120213Y-56844890D01*
X165969894Y-56995209D01*
X165969890Y-56995214D01*
X165850318Y-57159793D01*
X165794989Y-57202459D01*
X165725375Y-57208438D01*
X165663580Y-57175833D01*
X165649682Y-57159793D01*
X165530109Y-56995214D01*
X165530105Y-56995209D01*
X165379786Y-56844890D01*
X165207820Y-56719951D01*
X165018414Y-56623444D01*
X165018413Y-56623443D01*
X165018412Y-56623443D01*
X164816243Y-56557754D01*
X164816241Y-56557753D01*
X164816240Y-56557753D01*
X164654957Y-56532208D01*
X164606287Y-56524500D01*
X164393713Y-56524500D01*
X164345042Y-56532208D01*
X164183760Y-56557753D01*
X163981585Y-56623444D01*
X163792179Y-56719951D01*
X163620213Y-56844890D01*
X163469894Y-56995209D01*
X163469890Y-56995214D01*
X163350318Y-57159793D01*
X163294989Y-57202459D01*
X163225375Y-57208438D01*
X163163580Y-57175833D01*
X163149682Y-57159793D01*
X163030109Y-56995214D01*
X163030105Y-56995209D01*
X162879786Y-56844890D01*
X162707820Y-56719951D01*
X162518414Y-56623444D01*
X162518413Y-56623443D01*
X162518412Y-56623443D01*
X162316243Y-56557754D01*
X162316241Y-56557753D01*
X162316240Y-56557753D01*
X162154957Y-56532208D01*
X162106287Y-56524500D01*
X161893713Y-56524500D01*
X161845042Y-56532208D01*
X161683760Y-56557753D01*
X161481585Y-56623444D01*
X161292179Y-56719951D01*
X161120213Y-56844890D01*
X160969894Y-56995209D01*
X160969890Y-56995214D01*
X160850318Y-57159793D01*
X160794989Y-57202459D01*
X160725375Y-57208438D01*
X160663580Y-57175833D01*
X160649682Y-57159793D01*
X160530109Y-56995214D01*
X160530105Y-56995209D01*
X160379786Y-56844890D01*
X160207820Y-56719951D01*
X160018414Y-56623444D01*
X160018413Y-56623443D01*
X160018412Y-56623443D01*
X159816243Y-56557754D01*
X159816241Y-56557753D01*
X159816240Y-56557753D01*
X159654957Y-56532208D01*
X159606287Y-56524500D01*
X159393713Y-56524500D01*
X159345042Y-56532208D01*
X159183760Y-56557753D01*
X158981585Y-56623444D01*
X158792179Y-56719951D01*
X158620213Y-56844890D01*
X158469890Y-56995213D01*
X158344951Y-57167179D01*
X158248444Y-57356585D01*
X158182753Y-57558760D01*
X158159062Y-57708343D01*
X158149500Y-57768713D01*
X158149500Y-58231287D01*
X158182754Y-58441243D01*
X158193722Y-58475000D01*
X158248444Y-58643414D01*
X158344951Y-58832820D01*
X158469890Y-59004786D01*
X158620213Y-59155109D01*
X158792179Y-59280048D01*
X158792181Y-59280049D01*
X158792184Y-59280051D01*
X158981588Y-59376557D01*
X159183757Y-59442246D01*
X159393713Y-59475500D01*
X159393714Y-59475500D01*
X159606286Y-59475500D01*
X159606287Y-59475500D01*
X159816243Y-59442246D01*
X160018412Y-59376557D01*
X160207816Y-59280051D01*
X160229789Y-59264086D01*
X160379786Y-59155109D01*
X160379788Y-59155106D01*
X160379792Y-59155104D01*
X160530104Y-59004792D01*
X160649683Y-58840204D01*
X160705011Y-58797540D01*
X160774624Y-58791561D01*
X160836420Y-58824166D01*
X160850313Y-58840199D01*
X160953606Y-58982371D01*
X160969896Y-59004792D01*
X161120213Y-59155109D01*
X161292179Y-59280048D01*
X161292181Y-59280049D01*
X161292184Y-59280051D01*
X161481588Y-59376557D01*
X161683757Y-59442246D01*
X161893713Y-59475500D01*
X161893714Y-59475500D01*
X162106286Y-59475500D01*
X162106287Y-59475500D01*
X162316243Y-59442246D01*
X162518412Y-59376557D01*
X162707816Y-59280051D01*
X162729789Y-59264086D01*
X162879786Y-59155109D01*
X162879788Y-59155106D01*
X162879792Y-59155104D01*
X163030104Y-59004792D01*
X163149683Y-58840204D01*
X163205011Y-58797540D01*
X163274624Y-58791561D01*
X163336420Y-58824166D01*
X163350313Y-58840199D01*
X163453606Y-58982371D01*
X163469896Y-59004792D01*
X163620213Y-59155109D01*
X163792179Y-59280048D01*
X163792181Y-59280049D01*
X163792184Y-59280051D01*
X163981588Y-59376557D01*
X164183757Y-59442246D01*
X164393713Y-59475500D01*
X164393714Y-59475500D01*
X164606286Y-59475500D01*
X164606287Y-59475500D01*
X164816243Y-59442246D01*
X165018412Y-59376557D01*
X165207816Y-59280051D01*
X165229789Y-59264086D01*
X165379786Y-59155109D01*
X165379788Y-59155106D01*
X165379792Y-59155104D01*
X165530104Y-59004792D01*
X165649683Y-58840204D01*
X165705011Y-58797540D01*
X165774624Y-58791561D01*
X165836420Y-58824166D01*
X165850313Y-58840199D01*
X165953606Y-58982371D01*
X165969896Y-59004792D01*
X166120213Y-59155109D01*
X166292179Y-59280048D01*
X166292181Y-59280049D01*
X166292184Y-59280051D01*
X166481588Y-59376557D01*
X166683757Y-59442246D01*
X166893713Y-59475500D01*
X166893714Y-59475500D01*
X167106286Y-59475500D01*
X167106287Y-59475500D01*
X167316243Y-59442246D01*
X167518412Y-59376557D01*
X167707816Y-59280051D01*
X167729789Y-59264086D01*
X167879786Y-59155109D01*
X167879788Y-59155106D01*
X167879792Y-59155104D01*
X168030104Y-59004792D01*
X168149683Y-58840204D01*
X168205011Y-58797540D01*
X168274624Y-58791561D01*
X168336420Y-58824166D01*
X168350313Y-58840199D01*
X168453606Y-58982371D01*
X168469896Y-59004792D01*
X168620213Y-59155109D01*
X168792179Y-59280048D01*
X168792181Y-59280049D01*
X168792184Y-59280051D01*
X168981588Y-59376557D01*
X169183757Y-59442246D01*
X169393713Y-59475500D01*
X169393714Y-59475500D01*
X169606286Y-59475500D01*
X169606287Y-59475500D01*
X169816243Y-59442246D01*
X170018412Y-59376557D01*
X170207816Y-59280051D01*
X170229789Y-59264086D01*
X170379786Y-59155109D01*
X170379788Y-59155106D01*
X170379792Y-59155104D01*
X170530104Y-59004792D01*
X170649683Y-58840204D01*
X170705011Y-58797540D01*
X170774624Y-58791561D01*
X170836420Y-58824166D01*
X170850313Y-58840199D01*
X170953606Y-58982371D01*
X170969896Y-59004792D01*
X171120213Y-59155109D01*
X171292184Y-59280051D01*
X171292184Y-59280052D01*
X171331793Y-59300233D01*
X171382590Y-59348206D01*
X171399500Y-59410718D01*
X171399500Y-61199902D01*
X171379815Y-61266941D01*
X171363181Y-61287583D01*
X154985339Y-77665425D01*
X154924016Y-77698910D01*
X154921850Y-77699361D01*
X154766508Y-77730261D01*
X154766498Y-77730264D01*
X154620827Y-77790602D01*
X154620814Y-77790609D01*
X154489711Y-77878210D01*
X154489707Y-77878213D01*
X154378213Y-77989707D01*
X154378210Y-77989711D01*
X154290609Y-78120814D01*
X154290602Y-78120827D01*
X154230264Y-78266498D01*
X154230261Y-78266510D01*
X154199500Y-78421153D01*
X154199500Y-78578846D01*
X154230261Y-78733489D01*
X154230264Y-78733501D01*
X154290602Y-78879172D01*
X154290609Y-78879185D01*
X154378210Y-79010288D01*
X154378213Y-79010292D01*
X154489707Y-79121786D01*
X154489711Y-79121789D01*
X154620814Y-79209390D01*
X154620827Y-79209397D01*
X154766498Y-79269735D01*
X154766503Y-79269737D01*
X154921153Y-79300499D01*
X154921156Y-79300500D01*
X154921158Y-79300500D01*
X155078844Y-79300500D01*
X155078845Y-79300499D01*
X155233497Y-79269737D01*
X155379179Y-79209394D01*
X155510289Y-79121789D01*
X155621789Y-79010289D01*
X155709394Y-78879179D01*
X155769737Y-78733497D01*
X155789113Y-78636085D01*
X155800638Y-78578150D01*
X155833023Y-78516239D01*
X155834518Y-78514716D01*
X172480520Y-61868716D01*
X172559577Y-61731784D01*
X172600501Y-61579057D01*
X172600501Y-61420942D01*
X172600501Y-61413347D01*
X172600500Y-61413329D01*
X172600500Y-59410718D01*
X172620185Y-59343679D01*
X172668207Y-59300233D01*
X172707815Y-59280052D01*
X172707815Y-59280051D01*
X172707816Y-59280051D01*
X172826728Y-59193657D01*
X172879786Y-59155109D01*
X172879788Y-59155106D01*
X172879792Y-59155104D01*
X173030104Y-59004792D01*
X173149991Y-58839779D01*
X173205320Y-58797115D01*
X173274933Y-58791136D01*
X173336729Y-58823741D01*
X173350627Y-58839781D01*
X173470272Y-59004459D01*
X173470276Y-59004464D01*
X173620535Y-59154723D01*
X173620540Y-59154727D01*
X173792442Y-59279620D01*
X173981782Y-59376095D01*
X174183871Y-59441757D01*
X174250000Y-59452231D01*
X174250000Y-58404145D01*
X174316657Y-58442630D01*
X174437465Y-58475000D01*
X174562535Y-58475000D01*
X174683343Y-58442630D01*
X174750000Y-58404145D01*
X174750000Y-59452230D01*
X174816126Y-59441757D01*
X174816129Y-59441757D01*
X175018217Y-59376095D01*
X175207557Y-59279620D01*
X175379458Y-59154728D01*
X175518330Y-59015856D01*
X175579653Y-58982371D01*
X175649345Y-58987355D01*
X175705279Y-59029226D01*
X175711551Y-59038440D01*
X175715185Y-59044331D01*
X175715186Y-59044334D01*
X175807288Y-59193656D01*
X175931344Y-59317712D01*
X176080666Y-59409814D01*
X176247203Y-59464999D01*
X176349991Y-59475500D01*
X177650008Y-59475499D01*
X177752797Y-59464999D01*
X177919334Y-59409814D01*
X178068656Y-59317712D01*
X178192712Y-59193656D01*
X178284814Y-59044334D01*
X178339999Y-58877797D01*
X178350500Y-58775009D01*
X178350499Y-57224992D01*
X178348851Y-57208863D01*
X178339999Y-57122203D01*
X178339998Y-57122200D01*
X178313658Y-57042712D01*
X178284814Y-56955666D01*
X178192712Y-56806344D01*
X178068656Y-56682288D01*
X177919334Y-56590186D01*
X177752797Y-56535001D01*
X177752795Y-56535000D01*
X177650016Y-56524500D01*
X177650009Y-56524500D01*
X176425097Y-56524500D01*
X176358058Y-56504815D01*
X176337416Y-56488181D01*
X175367444Y-55518209D01*
X183084500Y-55518209D01*
X183084500Y-55881790D01*
X183120137Y-56243630D01*
X183191064Y-56600212D01*
X183191067Y-56600223D01*
X183296614Y-56948165D01*
X183435754Y-57284078D01*
X183435756Y-57284083D01*
X183607140Y-57604720D01*
X183607151Y-57604738D01*
X183809140Y-57907035D01*
X183809150Y-57907049D01*
X184039807Y-58188106D01*
X184296893Y-58445192D01*
X184296898Y-58445196D01*
X184296899Y-58445197D01*
X184577956Y-58675854D01*
X184880268Y-58877853D01*
X184880277Y-58877858D01*
X184880279Y-58877859D01*
X185200916Y-59049243D01*
X185200918Y-59049243D01*
X185200924Y-59049247D01*
X185536836Y-59188386D01*
X185884767Y-59293930D01*
X185884773Y-59293931D01*
X185884776Y-59293932D01*
X185884787Y-59293935D01*
X186241369Y-59364862D01*
X186603206Y-59400500D01*
X186603209Y-59400500D01*
X186966791Y-59400500D01*
X186966794Y-59400500D01*
X187328631Y-59364862D01*
X187435126Y-59343679D01*
X187685212Y-59293935D01*
X187685223Y-59293932D01*
X187685223Y-59293931D01*
X187685233Y-59293930D01*
X188033164Y-59188386D01*
X188369076Y-59049247D01*
X188689732Y-58877853D01*
X188992044Y-58675854D01*
X189273101Y-58445197D01*
X189530197Y-58188101D01*
X189760854Y-57907044D01*
X189962853Y-57604732D01*
X190134247Y-57284076D01*
X190273386Y-56948164D01*
X190378930Y-56600233D01*
X190378932Y-56600223D01*
X190378935Y-56600212D01*
X190449862Y-56243630D01*
X190485500Y-55881790D01*
X190485500Y-55518209D01*
X190470837Y-55369336D01*
X190449862Y-55156369D01*
X190433078Y-55071989D01*
X190378935Y-54799787D01*
X190378932Y-54799776D01*
X190378931Y-54799773D01*
X190378930Y-54799767D01*
X190273386Y-54451836D01*
X190134247Y-54115924D01*
X190055906Y-53969359D01*
X189962859Y-53795279D01*
X189962858Y-53795277D01*
X189962853Y-53795268D01*
X189760854Y-53492956D01*
X189530197Y-53211899D01*
X189530196Y-53211898D01*
X189530192Y-53211893D01*
X189273106Y-52954807D01*
X188992049Y-52724150D01*
X188992048Y-52724149D01*
X188992044Y-52724146D01*
X188689732Y-52522147D01*
X188689727Y-52522144D01*
X188689720Y-52522140D01*
X188369083Y-52350756D01*
X188369078Y-52350754D01*
X188033165Y-52211614D01*
X187685223Y-52106067D01*
X187685212Y-52106064D01*
X187328630Y-52035137D01*
X187056111Y-52008296D01*
X186966794Y-51999500D01*
X186603206Y-51999500D01*
X186520679Y-52007628D01*
X186241369Y-52035137D01*
X185884787Y-52106064D01*
X185884776Y-52106067D01*
X185536834Y-52211614D01*
X185200921Y-52350754D01*
X185200916Y-52350756D01*
X184880279Y-52522140D01*
X184880261Y-52522151D01*
X184577964Y-52724140D01*
X184577950Y-52724150D01*
X184296893Y-52954807D01*
X184039807Y-53211893D01*
X183809150Y-53492950D01*
X183809140Y-53492964D01*
X183607151Y-53795261D01*
X183607140Y-53795279D01*
X183435756Y-54115916D01*
X183435754Y-54115921D01*
X183296614Y-54451834D01*
X183191067Y-54799776D01*
X183191064Y-54799787D01*
X183120137Y-55156369D01*
X183084500Y-55518209D01*
X175367444Y-55518209D01*
X173987590Y-54138355D01*
X173987588Y-54138352D01*
X173868717Y-54019481D01*
X173868716Y-54019480D01*
X173781904Y-53969360D01*
X173781904Y-53969359D01*
X173781900Y-53969358D01*
X173731785Y-53940423D01*
X173579057Y-53899499D01*
X173420943Y-53899499D01*
X173413347Y-53899499D01*
X173413331Y-53899500D01*
X153412163Y-53899500D01*
X153345124Y-53879815D01*
X153299369Y-53827011D01*
X153290911Y-53801459D01*
X153290000Y-53797207D01*
X153289361Y-53795279D01*
X153234814Y-53630666D01*
X153142712Y-53481344D01*
X153018656Y-53357288D01*
X152869334Y-53265186D01*
X152702797Y-53210001D01*
X152702795Y-53210000D01*
X152600010Y-53199500D01*
X151399998Y-53199500D01*
X151399981Y-53199501D01*
X151297203Y-53210000D01*
X151297200Y-53210001D01*
X151130668Y-53265185D01*
X151130663Y-53265187D01*
X150981342Y-53357289D01*
X150857289Y-53481342D01*
X150765187Y-53630663D01*
X150765186Y-53630666D01*
X150737736Y-53713505D01*
X150697963Y-53770949D01*
X150633447Y-53797772D01*
X150620030Y-53798500D01*
X132687669Y-53798500D01*
X132687653Y-53798499D01*
X132680057Y-53798499D01*
X132521943Y-53798499D01*
X132415536Y-53827011D01*
X132369210Y-53839424D01*
X132369209Y-53839425D01*
X132319096Y-53868359D01*
X132319095Y-53868360D01*
X132275689Y-53893420D01*
X132232285Y-53918479D01*
X132232282Y-53918481D01*
X132120478Y-54030286D01*
X121787584Y-64363181D01*
X121726261Y-64396666D01*
X121699903Y-64399500D01*
X117920943Y-64399500D01*
X117768216Y-64440423D01*
X117768209Y-64440426D01*
X117631290Y-64519475D01*
X117631282Y-64519481D01*
X117519481Y-64631282D01*
X117519475Y-64631290D01*
X117440426Y-64768209D01*
X117440423Y-64768216D01*
X117399500Y-64920943D01*
X117399500Y-84110380D01*
X117399499Y-84110398D01*
X117399499Y-84276104D01*
X117399498Y-84276104D01*
X111865500Y-84276104D01*
X111865500Y-55518209D01*
X112584500Y-55518209D01*
X112584500Y-55881790D01*
X112620137Y-56243630D01*
X112691064Y-56600212D01*
X112691067Y-56600223D01*
X112796614Y-56948165D01*
X112935754Y-57284078D01*
X112935756Y-57284083D01*
X113107140Y-57604720D01*
X113107151Y-57604738D01*
X113309140Y-57907035D01*
X113309150Y-57907049D01*
X113539807Y-58188106D01*
X113796893Y-58445192D01*
X113796898Y-58445196D01*
X113796899Y-58445197D01*
X114077956Y-58675854D01*
X114380268Y-58877853D01*
X114380277Y-58877858D01*
X114380279Y-58877859D01*
X114700916Y-59049243D01*
X114700918Y-59049243D01*
X114700924Y-59049247D01*
X115036836Y-59188386D01*
X115384767Y-59293930D01*
X115384773Y-59293931D01*
X115384776Y-59293932D01*
X115384787Y-59293935D01*
X115741369Y-59364862D01*
X116103206Y-59400500D01*
X116103209Y-59400500D01*
X116466791Y-59400500D01*
X116466794Y-59400500D01*
X116828631Y-59364862D01*
X116935126Y-59343679D01*
X117185212Y-59293935D01*
X117185223Y-59293932D01*
X117185223Y-59293931D01*
X117185233Y-59293930D01*
X117533164Y-59188386D01*
X117869076Y-59049247D01*
X118189732Y-58877853D01*
X118492044Y-58675854D01*
X118773101Y-58445197D01*
X119030197Y-58188101D01*
X119260854Y-57907044D01*
X119462853Y-57604732D01*
X119634247Y-57284076D01*
X119773386Y-56948164D01*
X119878930Y-56600233D01*
X119878932Y-56600223D01*
X119878935Y-56600212D01*
X119949862Y-56243630D01*
X119985500Y-55881790D01*
X119985500Y-55518209D01*
X119970837Y-55369336D01*
X119949862Y-55156369D01*
X119933078Y-55071989D01*
X119878935Y-54799787D01*
X119878932Y-54799776D01*
X119878931Y-54799773D01*
X119878930Y-54799767D01*
X119773386Y-54451836D01*
X119634247Y-54115924D01*
X119555906Y-53969359D01*
X119462859Y-53795279D01*
X119462858Y-53795277D01*
X119462853Y-53795268D01*
X119260854Y-53492956D01*
X119030197Y-53211899D01*
X119030196Y-53211898D01*
X119030192Y-53211893D01*
X118773106Y-52954807D01*
X118492049Y-52724150D01*
X118492048Y-52724149D01*
X118492044Y-52724146D01*
X118189732Y-52522147D01*
X118189727Y-52522144D01*
X118189720Y-52522140D01*
X117869083Y-52350756D01*
X117869078Y-52350754D01*
X117533165Y-52211614D01*
X117185223Y-52106067D01*
X117185212Y-52106064D01*
X116828630Y-52035137D01*
X116556111Y-52008296D01*
X116466794Y-51999500D01*
X116103206Y-51999500D01*
X116020679Y-52007628D01*
X115741369Y-52035137D01*
X115384787Y-52106064D01*
X115384776Y-52106067D01*
X115036834Y-52211614D01*
X114700921Y-52350754D01*
X114700916Y-52350756D01*
X114380279Y-52522140D01*
X114380261Y-52522151D01*
X114077964Y-52724140D01*
X114077950Y-52724150D01*
X113796893Y-52954807D01*
X113539807Y-53211893D01*
X113309150Y-53492950D01*
X113309140Y-53492964D01*
X113107151Y-53795261D01*
X113107140Y-53795279D01*
X112935756Y-54115916D01*
X112935754Y-54115921D01*
X112796614Y-54451834D01*
X112691067Y-54799776D01*
X112691064Y-54799787D01*
X112620137Y-55156369D01*
X112584500Y-55518209D01*
X111865500Y-55518209D01*
X111865500Y-51324500D01*
X111885185Y-51257461D01*
X111937989Y-51211706D01*
X111989500Y-51200500D01*
X190740500Y-51200500D01*
X190807539Y-51220185D01*
G37*
%TD.AperFunction*%
%TD*%
M02*
