%TF.GenerationSoftware,KiCad,Pcbnew,9.0.4*%
%TF.CreationDate,2025-10-27T02:22:18+05:45*%
%TF.ProjectId,CubeSat_STEM_Board,43756265-5361-4745-9f53-54454d5f426f,rev?*%
%TF.SameCoordinates,Original*%
%TF.FileFunction,Soldermask,Top*%
%TF.FilePolarity,Negative*%
%FSLAX46Y46*%
G04 Gerber Fmt 4.6, Leading zero omitted, Abs format (unit mm)*
G04 Created by KiCad (PCBNEW 9.0.4) date 2025-10-27 02:22:18*
%MOMM*%
%LPD*%
G01*
G04 APERTURE LIST*
G04 Aperture macros list*
%AMRoundRect*
0 Rectangle with rounded corners*
0 $1 Rounding radius*
0 $2 $3 $4 $5 $6 $7 $8 $9 X,Y pos of 4 corners*
0 Add a 4 corners polygon primitive as box body*
4,1,4,$2,$3,$4,$5,$6,$7,$8,$9,$2,$3,0*
0 Add four circle primitives for the rounded corners*
1,1,$1+$1,$2,$3*
1,1,$1+$1,$4,$5*
1,1,$1+$1,$6,$7*
1,1,$1+$1,$8,$9*
0 Add four rect primitives between the rounded corners*
20,1,$1+$1,$2,$3,$4,$5,0*
20,1,$1+$1,$4,$5,$6,$7,0*
20,1,$1+$1,$6,$7,$8,$9,0*
20,1,$1+$1,$8,$9,$2,$3,0*%
G04 Aperture macros list end*
%ADD10C,0.800000*%
%ADD11C,6.400000*%
%ADD12RoundRect,0.102000X0.889000X0.889000X-0.889000X0.889000X-0.889000X-0.889000X0.889000X-0.889000X0*%
%ADD13C,1.982000*%
%ADD14C,3.404000*%
%ADD15C,2.388400*%
%ADD16RoundRect,0.250000X0.600000X0.725000X-0.600000X0.725000X-0.600000X-0.725000X0.600000X-0.725000X0*%
%ADD17O,1.700000X1.950000*%
%ADD18RoundRect,0.250000X0.600000X0.750000X-0.600000X0.750000X-0.600000X-0.750000X0.600000X-0.750000X0*%
%ADD19O,1.700000X2.000000*%
%ADD20C,1.600000*%
%ADD21R,1.600000X1.600000*%
%ADD22O,1.600000X1.600000*%
%ADD23RoundRect,0.250000X-0.550000X-0.550000X0.550000X-0.550000X0.550000X0.550000X-0.550000X0.550000X0*%
%ADD24RoundRect,0.250000X-0.550000X0.550000X-0.550000X-0.550000X0.550000X-0.550000X0.550000X0.550000X0*%
%ADD25RoundRect,0.249999X0.850001X-0.850001X0.850001X0.850001X-0.850001X0.850001X-0.850001X-0.850001X0*%
%ADD26C,2.200000*%
%ADD27RoundRect,0.102000X-0.889000X-0.889000X0.889000X-0.889000X0.889000X0.889000X-0.889000X0.889000X0*%
%ADD28C,1.200000*%
%ADD29RoundRect,0.250000X0.725000X-0.600000X0.725000X0.600000X-0.725000X0.600000X-0.725000X-0.600000X0*%
%ADD30O,1.950000X1.700000*%
%ADD31RoundRect,0.250000X-0.600000X-0.750000X0.600000X-0.750000X0.600000X0.750000X-0.600000X0.750000X0*%
%ADD32RoundRect,0.250000X0.550000X0.550000X-0.550000X0.550000X-0.550000X-0.550000X0.550000X-0.550000X0*%
%ADD33RoundRect,0.250000X-0.725000X0.600000X-0.725000X-0.600000X0.725000X-0.600000X0.725000X0.600000X0*%
%ADD34RoundRect,0.250000X-0.750000X0.600000X-0.750000X-0.600000X0.750000X-0.600000X0.750000X0.600000X0*%
%ADD35O,2.000000X1.700000*%
G04 APERTURE END LIST*
D10*
%TO.C,REF\u002A\u002A*%
X113885000Y-125700000D03*
X114587944Y-124002944D03*
X114587944Y-127397056D03*
X116285000Y-123300000D03*
D11*
X116285000Y-125700000D03*
D10*
X116285000Y-128100000D03*
X117982056Y-124002944D03*
X117982056Y-127397056D03*
X118685000Y-125700000D03*
%TD*%
%TO.C,REF\u002A\u002A*%
X113885000Y-55700000D03*
X114587944Y-54002944D03*
X114587944Y-57397056D03*
X116285000Y-53300000D03*
D11*
X116285000Y-55700000D03*
D10*
X116285000Y-58100000D03*
X117982056Y-54002944D03*
X117982056Y-57397056D03*
X118685000Y-55700000D03*
%TD*%
%TO.C,REF\u002A\u002A*%
X183885000Y-125700000D03*
X184587944Y-124002944D03*
X184587944Y-127397056D03*
X186285000Y-123300000D03*
D11*
X186285000Y-125700000D03*
D10*
X186285000Y-128100000D03*
X187982056Y-124002944D03*
X187982056Y-127397056D03*
X188685000Y-125700000D03*
%TD*%
D12*
%TO.C,IAN2*%
X155350000Y-104380000D03*
D13*
X152810000Y-104380000D03*
X150270000Y-104380000D03*
X147730000Y-104380000D03*
X145190000Y-104380000D03*
X142650000Y-104380000D03*
D14*
X159160000Y-119620000D03*
X138840000Y-119620000D03*
X159160000Y-104380000D03*
X138840000Y-104380000D03*
D15*
X147300000Y-118350000D03*
X150800000Y-118350000D03*
%TD*%
D16*
%TO.C,J6*%
X177000000Y-58000000D03*
D17*
X174500000Y-58000000D03*
X172000000Y-58000000D03*
X169500000Y-58000000D03*
X167000000Y-58000000D03*
X164500000Y-58000000D03*
X162000000Y-58000000D03*
X159500000Y-58000000D03*
%TD*%
D18*
%TO.C,J2*%
X141785000Y-55700000D03*
D19*
X139285000Y-55700000D03*
%TD*%
D20*
%TO.C,C2*%
X120000000Y-67000000D03*
X125000000Y-67000000D03*
%TD*%
D10*
%TO.C,REF\u002A\u002A*%
X184385000Y-55700000D03*
X185087944Y-54002944D03*
X185087944Y-57397056D03*
X186785000Y-53300000D03*
D11*
X186785000Y-55700000D03*
D10*
X186785000Y-58100000D03*
X188482056Y-54002944D03*
X188482056Y-57397056D03*
X189185000Y-55700000D03*
%TD*%
D21*
%TO.C,A1*%
X169050000Y-82890000D03*
D22*
X166510000Y-82890000D03*
X163970000Y-82890000D03*
X161430000Y-82890000D03*
X158890000Y-82890000D03*
X156350000Y-82890000D03*
X153810000Y-82890000D03*
X151270000Y-82890000D03*
X148730000Y-82890000D03*
X146190000Y-82890000D03*
X143650000Y-82890000D03*
X141110000Y-82890000D03*
X138570000Y-82890000D03*
X136030000Y-82890000D03*
X133490000Y-82890000D03*
X133490000Y-98130000D03*
X136030000Y-98130000D03*
X138570000Y-98130000D03*
X141110000Y-98130000D03*
X143650000Y-98130000D03*
X146190000Y-98130000D03*
X148730000Y-98130000D03*
X151270000Y-98130000D03*
X153810000Y-98130000D03*
X156350000Y-98130000D03*
X158890000Y-98130000D03*
X161430000Y-98130000D03*
X163970000Y-98130000D03*
X166510000Y-98130000D03*
X169050000Y-98130000D03*
%TD*%
D23*
%TO.C,C5*%
X170000000Y-111500000D03*
D20*
X172500000Y-111500000D03*
%TD*%
D24*
%TO.C,C6*%
X152000000Y-54500000D03*
D20*
X152000000Y-57000000D03*
%TD*%
D25*
%TO.C,D1*%
X165500000Y-117080000D03*
D26*
X165500000Y-106920000D03*
%TD*%
D27*
%TO.C,IAN1*%
X134435000Y-77700000D03*
D13*
X136975000Y-77700000D03*
X139515000Y-77700000D03*
X142055000Y-77700000D03*
X144595000Y-77700000D03*
X147135000Y-77700000D03*
D14*
X130625000Y-62460000D03*
X150945000Y-62460000D03*
X130625000Y-77700000D03*
X150945000Y-77700000D03*
D15*
X142485000Y-63730000D03*
X138985000Y-63730000D03*
%TD*%
D23*
%TO.C,C4*%
X120817621Y-75500000D03*
D20*
X123317621Y-75500000D03*
%TD*%
D28*
%TO.C,J5*%
X187000000Y-101100000D03*
D29*
X185000000Y-99500000D03*
D30*
X185000000Y-97000000D03*
X185000000Y-94500000D03*
X185000000Y-92000000D03*
%TD*%
D31*
%TO.C,J3*%
X150000000Y-126000000D03*
D19*
X152500000Y-126000000D03*
%TD*%
D20*
%TO.C,C3*%
X168500000Y-103000000D03*
X173500000Y-103000000D03*
%TD*%
D32*
%TO.C,C1*%
X131500000Y-120500000D03*
D20*
X129000000Y-120500000D03*
%TD*%
D28*
%TO.C,J1*%
X128525000Y-104400000D03*
D33*
X130525000Y-106000000D03*
D30*
X130525000Y-108500000D03*
X130525000Y-111000000D03*
X130525000Y-113500000D03*
%TD*%
D28*
%TO.C,J4*%
X177000000Y-107900000D03*
D34*
X179000000Y-109500000D03*
D35*
X179000000Y-112000000D03*
%TD*%
M02*
