M48
METRIC
T1C0.500
T2C0.800
T3C0.950
T4C1.000
T5C1.100
T6C2.200
T7C2.500
T8C3.200
T9C1.200
T10C3.450
%
G90
G05
T1
X107.1Y-55.5
X107.1Y-125.5
X107.803Y-53.803
X107.803Y-57.197
X107.803Y-123.803
X107.803Y-127.197
X109.5Y-53.1
X109.5Y-57.9
X109.5Y-123.1
X109.5Y-127.9
X111.197Y-53.803
X111.197Y-57.197
X111.197Y-123.803
X111.197Y-127.197
X111.9Y-55.5
X111.9Y-125.5
X177.1Y-55.5
X177.1Y-125.5
X177.803Y-53.803
X177.803Y-57.197
X177.803Y-123.803
X177.803Y-127.197
X179.5Y-53.1
X179.5Y-57.9
X179.5Y-123.1
X179.5Y-127.9
X181.197Y-53.803
X181.197Y-57.197
X181.197Y-123.803
X181.197Y-127.197
X181.9Y-55.5
X181.9Y-125.5
T2
X159.0Y-113.5
X159.0Y-118.5
X162.5Y-113.5
X162.5Y-118.5
X171.0Y-118.5
X173.5Y-118.5
X177.0Y-80.5
X179.5Y-80.5
T3
X161.4Y-126.5
X163.9Y-126.5
X166.4Y-126.5
X168.9Y-126.5
T4
X110.0Y-99.5
X110.0Y-102.0
X137.15Y-110.88
X139.69Y-110.88
X141.8Y-124.85
X142.23Y-110.88
X144.77Y-110.88
X145.3Y-124.85
X147.31Y-110.88
X149.85Y-110.88
X172.679Y-111.296
X172.755Y-88.36
X175.219Y-111.296
X175.295Y-88.36
X177.0Y-69.5
X179.5Y-69.5
T5
X132.0Y-103.66
X144.7Y-103.66
T6
X121.5Y-78.0
X167.0Y-78.0
T7
X133.34Y-110.88
X133.34Y-126.12
X153.66Y-110.88
X153.66Y-126.12
T8
X109.5Y-55.5
X109.5Y-125.5
X179.5Y-55.5
X179.5Y-125.5
T9
X170.5Y-124.5
X175.4Y-71.5
T10
X132.0Y-79.94
X156.0Y-79.94
M30
