%TF.GenerationSoftware,KiCad,Pcbnew,9.0.4*%
%TF.CreationDate,2025-10-26T00:43:48+05:45*%
%TF.ProjectId,battery_board,62617474-6572-4795-9f62-6f6172642e6b,rev?*%
%TF.SameCoordinates,Original*%
%TF.FileFunction,Copper,L1,Top*%
%TF.FilePolarity,Positive*%
%FSLAX46Y46*%
G04 Gerber Fmt 4.6, Leading zero omitted, Abs format (unit mm)*
G04 Created by KiCad (PCBNEW 9.0.4) date 2025-10-26 00:43:48*
%MOMM*%
%LPD*%
G01*
G04 APERTURE LIST*
G04 Aperture macros list*
%AMRoundRect*
0 Rectangle with rounded corners*
0 $1 Rounding radius*
0 $2 $3 $4 $5 $6 $7 $8 $9 X,Y pos of 4 corners*
0 Add a 4 corners polygon primitive as box body*
4,1,4,$2,$3,$4,$5,$6,$7,$8,$9,$2,$3,0*
0 Add four circle primitives for the rounded corners*
1,1,$1+$1,$2,$3*
1,1,$1+$1,$4,$5*
1,1,$1+$1,$6,$7*
1,1,$1+$1,$8,$9*
0 Add four rect primitives between the rounded corners*
20,1,$1+$1,$2,$3,$4,$5,0*
20,1,$1+$1,$4,$5,$6,$7,0*
20,1,$1+$1,$6,$7,$8,$9,0*
20,1,$1+$1,$8,$9,$2,$3,0*%
G04 Aperture macros list end*
%TA.AperFunction,ComponentPad*%
%ADD10C,0.800000*%
%TD*%
%TA.AperFunction,ComponentPad*%
%ADD11C,6.400000*%
%TD*%
%TA.AperFunction,ComponentPad*%
%ADD12RoundRect,0.250000X-0.550000X-0.550000X0.550000X-0.550000X0.550000X0.550000X-0.550000X0.550000X0*%
%TD*%
%TA.AperFunction,ComponentPad*%
%ADD13C,1.600000*%
%TD*%
%TA.AperFunction,ComponentPad*%
%ADD14RoundRect,0.249999X1.250001X-1.250001X1.250001X1.250001X-1.250001X1.250001X-1.250001X-1.250001X0*%
%TD*%
%TA.AperFunction,ComponentPad*%
%ADD15C,3.000000*%
%TD*%
%TA.AperFunction,ComponentPad*%
%ADD16R,1.778000X1.778000*%
%TD*%
%TA.AperFunction,ComponentPad*%
%ADD17C,1.778000*%
%TD*%
%TA.AperFunction,ComponentPad*%
%ADD18C,3.200000*%
%TD*%
%TA.AperFunction,ComponentPad*%
%ADD19C,2.184400*%
%TD*%
%TA.AperFunction,ComponentPad*%
%ADD20RoundRect,0.250000X-0.750000X0.600000X-0.750000X-0.600000X0.750000X-0.600000X0.750000X0.600000X0*%
%TD*%
%TA.AperFunction,ComponentPad*%
%ADD21O,2.000000X1.700000*%
%TD*%
%TA.AperFunction,ComponentPad*%
%ADD22C,4.400000*%
%TD*%
%TA.AperFunction,ComponentPad*%
%ADD23RoundRect,0.250000X0.600000X0.725000X-0.600000X0.725000X-0.600000X-0.725000X0.600000X-0.725000X0*%
%TD*%
%TA.AperFunction,ComponentPad*%
%ADD24O,1.700000X1.950000*%
%TD*%
%TA.AperFunction,ComponentPad*%
%ADD25RoundRect,0.250000X-0.600000X-0.750000X0.600000X-0.750000X0.600000X0.750000X-0.600000X0.750000X0*%
%TD*%
%TA.AperFunction,ComponentPad*%
%ADD26O,1.700000X2.000000*%
%TD*%
%TA.AperFunction,ComponentPad*%
%ADD27R,1.600000X1.600000*%
%TD*%
%TA.AperFunction,ComponentPad*%
%ADD28O,1.600000X1.600000*%
%TD*%
%TA.AperFunction,Conductor*%
%ADD29C,0.200000*%
%TD*%
G04 APERTURE END LIST*
D10*
%TO.P,REF\u002A\u002A,1*%
%TO.N,N/C*%
X107100000Y-125500000D03*
X107802944Y-123802944D03*
X107802944Y-127197056D03*
X109500000Y-123100000D03*
D11*
X109500000Y-125500000D03*
D10*
X109500000Y-127900000D03*
X111197056Y-123802944D03*
X111197056Y-127197056D03*
X111900000Y-125500000D03*
%TD*%
D12*
%TO.P,C2,1*%
%TO.N,/+3v6*%
X171000000Y-118500000D03*
D13*
%TO.P,C2,2*%
%TO.N,/gnd*%
X173500000Y-118500000D03*
%TD*%
D14*
%TO.P,BT1,1,+*%
%TO.N,/+3v6*%
X132000000Y-103660000D03*
D15*
%TO.P,BT1,2,-*%
%TO.N,/gnd*%
X144700000Y-103660000D03*
%TD*%
D16*
%TO.P,U1,1,VCC*%
%TO.N,Net-(J3-Pin_1)*%
X149850000Y-110880000D03*
D17*
%TO.P,U1,2,GND*%
%TO.N,Net-(J3-Pin_2)*%
X147310000Y-110880000D03*
%TO.P,U1,3,SCL*%
%TO.N,Net-(J3-Pin_3)*%
X144770000Y-110880000D03*
%TO.P,U1,4,SDA*%
%TO.N,Net-(J3-Pin_4)*%
X142230000Y-110880000D03*
%TO.P,U1,5,VIN-*%
%TO.N,/gnd*%
X139690000Y-110880000D03*
%TO.P,U1,6,VIN+*%
%TO.N,/+3v6*%
X137150000Y-110880000D03*
D18*
%TO.P,U1,SH1,SHIELD*%
%TO.N,unconnected-(U1-SHIELD-PadSH1)_3*%
X153660000Y-126120000D03*
%TO.P,U1,SH2,SHIELD*%
%TO.N,unconnected-(U1-SHIELD-PadSH1)*%
X133340000Y-126120000D03*
%TO.P,U1,SH3,SHIELD*%
%TO.N,unconnected-(U1-SHIELD-PadSH1)_2*%
X153660000Y-110880000D03*
%TO.P,U1,SH4,SHIELD*%
%TO.N,unconnected-(U1-SHIELD-PadSH1)_1*%
X133340000Y-110880000D03*
D19*
%TO.P,U1,VIN+,VIN+*%
%TO.N,/+3v6*%
X141800000Y-124850000D03*
%TO.P,U1,VIN-,VIN-*%
%TO.N,/gnd*%
X145300000Y-124850000D03*
%TD*%
D20*
%TO.P,J_BATT_OUT1,1,Pin_1*%
%TO.N,/+3v6*%
X110000000Y-99500000D03*
D21*
%TO.P,J_BATT_OUT1,2,Pin_2*%
%TO.N,/gnd*%
X110000000Y-102000000D03*
%TD*%
D22*
%TO.P,REF\u002A\u002A,1*%
%TO.N,N/C*%
X121500000Y-78000000D03*
%TD*%
D13*
%TO.P,C4,1*%
%TO.N,Net-(J3-Pin_1)*%
X162500000Y-118500000D03*
%TO.P,C4,2*%
%TO.N,Net-(J3-Pin_2)*%
X162500000Y-113500000D03*
%TD*%
D10*
%TO.P,REF\u002A\u002A,1*%
%TO.N,N/C*%
X107100000Y-55500000D03*
X107802944Y-53802944D03*
X107802944Y-57197056D03*
X109500000Y-53100000D03*
D11*
X109500000Y-55500000D03*
D10*
X109500000Y-57900000D03*
X111197056Y-53802944D03*
X111197056Y-57197056D03*
X111900000Y-55500000D03*
%TD*%
D13*
%TO.P,C3,1*%
%TO.N,Net-(J3-Pin_1)*%
X159000000Y-118500000D03*
%TO.P,C3,2*%
%TO.N,Net-(J3-Pin_2)*%
X159000000Y-113500000D03*
%TD*%
D12*
%TO.P,C1,1*%
%TO.N,Net-(J1-Pin_1)*%
X177000000Y-80500000D03*
D13*
%TO.P,C1,2*%
%TO.N,Net-(J1-Pin_2)*%
X179500000Y-80500000D03*
%TD*%
D23*
%TO.P,J3,1,Pin_1*%
%TO.N,Net-(J3-Pin_1)*%
X168900000Y-126500000D03*
D24*
%TO.P,J3,2,Pin_2*%
%TO.N,Net-(J3-Pin_2)*%
X166400000Y-126500000D03*
%TO.P,J3,3,Pin_3*%
%TO.N,Net-(J3-Pin_3)*%
X163900000Y-126500000D03*
%TO.P,J3,4,Pin_4*%
%TO.N,Net-(J3-Pin_4)*%
X161400000Y-126500000D03*
%TD*%
D25*
%TO.P,J2,1,Pin_1*%
%TO.N,Net-(J1-Pin_1)*%
X177000000Y-69500000D03*
D26*
%TO.P,J2,2,Pin_2*%
%TO.N,Net-(J1-Pin_2)*%
X179500000Y-69500000D03*
%TD*%
D27*
%TO.P,J1,1,Pin_1*%
%TO.N,Net-(J1-Pin_1)*%
X172755400Y-88360200D03*
D28*
%TO.P,J1,2,Pin_2*%
%TO.N,Net-(J1-Pin_2)*%
X175295400Y-88360200D03*
D27*
%TO.P,J1,3,Pin_3*%
%TO.N,/+3v6*%
X172679200Y-111296400D03*
D28*
%TO.P,J1,4,Pin_4*%
%TO.N,/gnd*%
X175219200Y-111296400D03*
%TD*%
D22*
%TO.P,REF\u002A\u002A,1*%
%TO.N,N/C*%
X167000000Y-78000000D03*
%TD*%
D10*
%TO.P,REF\u002A\u002A,1*%
%TO.N,N/C*%
X177100000Y-55500000D03*
X177802944Y-53802944D03*
X177802944Y-57197056D03*
X179500000Y-53100000D03*
D11*
X179500000Y-55500000D03*
D10*
X179500000Y-57900000D03*
X181197056Y-53802944D03*
X181197056Y-57197056D03*
X181900000Y-55500000D03*
%TD*%
%TO.P,REF\u002A\u002A,1*%
%TO.N,N/C*%
X177100000Y-125500000D03*
X177802944Y-123802944D03*
X177802944Y-127197056D03*
X179500000Y-123100000D03*
D11*
X179500000Y-125500000D03*
D10*
X179500000Y-127900000D03*
X181197056Y-123802944D03*
X181197056Y-127197056D03*
X181900000Y-125500000D03*
%TD*%
D29*
%TO.N,/+3v6*%
X139850000Y-124850000D02*
X137150000Y-122150000D01*
X133801000Y-101859000D02*
X155241800Y-101859000D01*
X155241800Y-101859000D02*
X171000000Y-117617200D01*
X127840000Y-99500000D02*
X132000000Y-103660000D01*
X141800000Y-124850000D02*
X139850000Y-124850000D01*
X110000000Y-99500000D02*
X127840000Y-99500000D01*
X172679200Y-116820800D02*
X171000000Y-118500000D01*
X171000000Y-117617200D02*
X171000000Y-118500000D01*
X137150000Y-122150000D02*
X137150000Y-110880000D01*
X172679200Y-111296400D02*
X172679200Y-116820800D01*
X132000000Y-103660000D02*
X133801000Y-101859000D01*
%TO.N,/gnd*%
X175219200Y-111296400D02*
X175219200Y-116780800D01*
X145300000Y-124850000D02*
X145300000Y-116490000D01*
X173500000Y-118500000D02*
X172399000Y-119601000D01*
X110000000Y-102000000D02*
X113500000Y-105500000D01*
X139690000Y-108310000D02*
X142500000Y-105500000D01*
X145300000Y-116490000D02*
X139690000Y-110880000D01*
X175219200Y-116780800D02*
X173500000Y-118500000D01*
X139690000Y-110880000D02*
X139690000Y-108310000D01*
X172399000Y-119601000D02*
X170214840Y-119601000D01*
X154273840Y-103660000D02*
X144700000Y-103660000D01*
X113500000Y-105500000D02*
X142500000Y-105500000D01*
X170214840Y-119601000D02*
X154273840Y-103660000D01*
X142500000Y-105500000D02*
X142860000Y-105500000D01*
X142860000Y-105500000D02*
X144700000Y-103660000D01*
%TO.N,Net-(J1-Pin_2)*%
X179500000Y-69500000D02*
X179500000Y-80500000D01*
X179500000Y-84155600D02*
X175295400Y-88360200D01*
X179500000Y-80500000D02*
X179500000Y-84155600D01*
%TO.N,Net-(J1-Pin_1)*%
X172755400Y-85244600D02*
X172755400Y-88360200D01*
X177000000Y-81000000D02*
X172755400Y-85244600D01*
X177000000Y-69500000D02*
X177000000Y-80500000D01*
X177000000Y-80500000D02*
X177000000Y-81000000D01*
%TO.N,Net-(J3-Pin_2)*%
X166400000Y-126500000D02*
X166400000Y-117400000D01*
X162500000Y-113500000D02*
X159000000Y-113500000D01*
X149930000Y-113500000D02*
X147310000Y-110880000D01*
X166400000Y-117400000D02*
X162500000Y-113500000D01*
X159000000Y-113500000D02*
X149930000Y-113500000D01*
%TO.N,Net-(J3-Pin_3)*%
X163900000Y-126500000D02*
X162624000Y-125224000D01*
X162624000Y-125224000D02*
X159114000Y-125224000D01*
X159114000Y-125224000D02*
X144770000Y-110880000D01*
%TO.N,Net-(J3-Pin_4)*%
X161400000Y-126500000D02*
X157850000Y-126500000D01*
X157850000Y-126500000D02*
X142230000Y-110880000D01*
%TD*%
M02*
