%TF.GenerationSoftware,KiCad,Pcbnew,9.0.4*%
%TF.CreationDate,2025-10-27T02:18:45+05:45*%
%TF.ProjectId,magnetorquer,6d61676e-6574-46f7-9271-7565722e6b69,rev?*%
%TF.SameCoordinates,Original*%
%TF.FileFunction,Copper,L1,Top*%
%TF.FilePolarity,Positive*%
%FSLAX46Y46*%
G04 Gerber Fmt 4.6, Leading zero omitted, Abs format (unit mm)*
G04 Created by KiCad (PCBNEW 9.0.4) date 2025-10-27 02:18:45*
%MOMM*%
%LPD*%
G01*
G04 APERTURE LIST*
G04 Aperture macros list*
%AMRoundRect*
0 Rectangle with rounded corners*
0 $1 Rounding radius*
0 $2 $3 $4 $5 $6 $7 $8 $9 X,Y pos of 4 corners*
0 Add a 4 corners polygon primitive as box body*
4,1,4,$2,$3,$4,$5,$6,$7,$8,$9,$2,$3,0*
0 Add four circle primitives for the rounded corners*
1,1,$1+$1,$2,$3*
1,1,$1+$1,$4,$5*
1,1,$1+$1,$6,$7*
1,1,$1+$1,$8,$9*
0 Add four rect primitives between the rounded corners*
20,1,$1+$1,$2,$3,$4,$5,0*
20,1,$1+$1,$4,$5,$6,$7,0*
20,1,$1+$1,$6,$7,$8,$9,0*
20,1,$1+$1,$8,$9,$2,$3,0*%
G04 Aperture macros list end*
%TA.AperFunction,ComponentPad*%
%ADD10O,1.600000X1.600000*%
%TD*%
%TA.AperFunction,ComponentPad*%
%ADD11R,1.600000X1.600000*%
%TD*%
%TA.AperFunction,ComponentPad*%
%ADD12RoundRect,0.250000X0.600000X0.725000X-0.600000X0.725000X-0.600000X-0.725000X0.600000X-0.725000X0*%
%TD*%
%TA.AperFunction,ComponentPad*%
%ADD13O,1.700000X1.950000*%
%TD*%
%TA.AperFunction,ComponentPad*%
%ADD14RoundRect,0.250000X-0.550000X0.550000X-0.550000X-0.550000X0.550000X-0.550000X0.550000X0.550000X0*%
%TD*%
%TA.AperFunction,ComponentPad*%
%ADD15C,1.600000*%
%TD*%
%TA.AperFunction,ComponentPad*%
%ADD16C,2.300000*%
%TD*%
%TA.AperFunction,ComponentPad*%
%ADD17O,1.000000X1.000000*%
%TD*%
%TA.AperFunction,ComponentPad*%
%ADD18C,0.800000*%
%TD*%
%TA.AperFunction,ComponentPad*%
%ADD19C,6.400000*%
%TD*%
%TA.AperFunction,Conductor*%
%ADD20C,0.200000*%
%TD*%
G04 APERTURE END LIST*
D10*
%TO.P,U1,1,EPP*%
%TO.N,unconnected-(U1-EPP-Pad1)*%
X48150000Y-40730000D03*
%TO.P,U1,2,OUT1*%
%TO.N,Net-(J1-Pin_1)*%
X50690000Y-40730000D03*
%TO.P,U1,3,OUT2*%
%TO.N,Net-(J1-Pin_2)*%
X53230000Y-40730000D03*
%TO.P,U1,4,OUT3*%
%TO.N,Net-(J2-Pin_1)*%
X55770000Y-40730000D03*
%TO.P,U1,5,OUT4*%
%TO.N,Net-(J2-Pin_2)*%
X58310000Y-40730000D03*
%TO.P,U1,6,VLT*%
%TO.N,unconnected-(U1-VLT-Pad6)*%
X60850000Y-40730000D03*
%TO.P,U1,7,IN1*%
%TO.N,Net-(J3-Pin_3)*%
X60850000Y-25490000D03*
%TO.P,U1,8,IN2*%
%TO.N,Net-(J3-Pin_4)*%
X58310000Y-25490000D03*
D11*
%TO.P,U1,9,VCC*%
%TO.N,Net-(J3-Pin_1)*%
X55770000Y-25490000D03*
D10*
%TO.P,U1,10,GND*%
%TO.N,Net-(J3-Pin_2)*%
X53230000Y-25490000D03*
%TO.P,U1,11,INT3*%
%TO.N,Net-(J3-Pin_5)*%
X50690000Y-25490000D03*
%TO.P,U1,12,INT4*%
%TO.N,Net-(J3-Pin_6)*%
X48150000Y-25490000D03*
%TD*%
D12*
%TO.P,J3,1,Pin_1*%
%TO.N,Net-(J3-Pin_1)*%
X64000000Y-6500000D03*
D13*
%TO.P,J3,2,Pin_2*%
%TO.N,Net-(J3-Pin_2)*%
X61500000Y-6500000D03*
%TO.P,J3,3,Pin_3*%
%TO.N,Net-(J3-Pin_3)*%
X59000000Y-6500000D03*
%TO.P,J3,4,Pin_4*%
%TO.N,Net-(J3-Pin_4)*%
X56500000Y-6500000D03*
%TO.P,J3,5,Pin_5*%
%TO.N,Net-(J3-Pin_5)*%
X54000000Y-6500000D03*
%TO.P,J3,6,Pin_6*%
%TO.N,Net-(J3-Pin_6)*%
X51500000Y-6500000D03*
%TO.P,J3,7,Pin_7*%
%TO.N,unconnected-(J3-Pin_7-Pad7)*%
X49000000Y-6500000D03*
%TO.P,J3,8,Pin_8*%
%TO.N,unconnected-(J3-Pin_8-Pad8)*%
X46500000Y-6500000D03*
%TD*%
D14*
%TO.P,C2,1*%
%TO.N,Net-(J3-Pin_1)*%
X65000000Y-13500000D03*
D15*
%TO.P,C2,2*%
%TO.N,Net-(J3-Pin_2)*%
X65000000Y-16000000D03*
%TD*%
%TO.P,C1,1*%
%TO.N,Net-(J3-Pin_1)*%
X67000000Y-21000000D03*
%TO.P,C1,2*%
%TO.N,Net-(J3-Pin_2)*%
X62000000Y-21000000D03*
%TD*%
D16*
%TO.P,J1,*%
%TO.N,*%
X17250000Y-5500000D03*
X17250000Y-50500000D03*
X29750000Y-5500000D03*
X29750000Y-50500000D03*
D17*
%TO.P,J1,1,Pin_1*%
%TO.N,Net-(J1-Pin_1)*%
X19250000Y-46000000D03*
%TO.P,J1,2,Pin_2*%
%TO.N,Net-(J1-Pin_2)*%
X27750000Y-46000000D03*
%TD*%
D16*
%TO.P,J2,*%
%TO.N,*%
X17500000Y-69750000D03*
X62500000Y-69750000D03*
X17500000Y-57250000D03*
X62500000Y-57250000D03*
D17*
%TO.P,J2,1,Pin_1*%
%TO.N,Net-(J2-Pin_1)*%
X58000000Y-67750000D03*
%TO.P,J2,2,Pin_2*%
%TO.N,Net-(J2-Pin_2)*%
X58000000Y-59250000D03*
%TD*%
D18*
%TO.P,REF\u002A\u002A,1*%
%TO.N,N/C*%
X2600000Y-75000000D03*
X3302944Y-73302944D03*
X3302944Y-76697056D03*
X5000000Y-72600000D03*
D19*
X5000000Y-75000000D03*
D18*
X5000000Y-77400000D03*
X6697056Y-73302944D03*
X6697056Y-76697056D03*
X7400000Y-75000000D03*
%TD*%
%TO.P,REF\u002A\u002A,1*%
%TO.N,N/C*%
X72600000Y-5000000D03*
X73302944Y-3302944D03*
X73302944Y-6697056D03*
X75000000Y-2600000D03*
D19*
X75000000Y-5000000D03*
D18*
X75000000Y-7400000D03*
X76697056Y-3302944D03*
X76697056Y-6697056D03*
X77400000Y-5000000D03*
%TD*%
%TO.P,REF\u002A\u002A,1*%
%TO.N,N/C*%
X2600000Y-5000000D03*
X3302944Y-3302944D03*
X3302944Y-6697056D03*
X5000000Y-2600000D03*
D19*
X5000000Y-5000000D03*
D18*
X5000000Y-7400000D03*
X6697056Y-3302944D03*
X6697056Y-6697056D03*
X7400000Y-5000000D03*
%TD*%
%TO.P,REF\u002A\u002A,1*%
%TO.N,N/C*%
X72600000Y-75000000D03*
X73302944Y-73302944D03*
X73302944Y-76697056D03*
X75000000Y-72600000D03*
D19*
X75000000Y-75000000D03*
D18*
X75000000Y-77400000D03*
X76697056Y-73302944D03*
X76697056Y-76697056D03*
X77400000Y-75000000D03*
%TD*%
D20*
%TO.N,Net-(J2-Pin_2)*%
X58310000Y-40730000D02*
X58310000Y-58940000D01*
X58310000Y-58940000D02*
X58000000Y-59250000D01*
%TO.N,Net-(J2-Pin_1)*%
X55770000Y-40730000D02*
X55770000Y-65520000D01*
X55770000Y-65520000D02*
X58000000Y-67750000D01*
%TO.N,Net-(J1-Pin_2)*%
X53230000Y-40730000D02*
X47960000Y-46000000D01*
X47960000Y-46000000D02*
X27750000Y-46000000D01*
%TO.N,Net-(J1-Pin_1)*%
X50690000Y-40730000D02*
X46221000Y-45199000D01*
X20051000Y-45199000D02*
X19250000Y-46000000D01*
X46221000Y-45199000D02*
X20051000Y-45199000D01*
%TO.N,Net-(J3-Pin_5)*%
X54000000Y-6500000D02*
X54000000Y-11000000D01*
X54000000Y-11000000D02*
X50690000Y-14310000D01*
X50690000Y-14310000D02*
X50690000Y-25490000D01*
%TO.N,Net-(J3-Pin_6)*%
X51500000Y-6500000D02*
X51500000Y-9500000D01*
X48150000Y-12850000D02*
X48150000Y-25490000D01*
X51500000Y-9500000D02*
X48150000Y-12850000D01*
%TO.N,Net-(J3-Pin_1)*%
X65500000Y-22500000D02*
X57500000Y-22500000D01*
X67000000Y-21000000D02*
X65500000Y-22500000D01*
X57500000Y-22500000D02*
X55770000Y-24230000D01*
X55770000Y-24230000D02*
X55770000Y-25490000D01*
X65000000Y-13500000D02*
X67000000Y-15500000D01*
X67000000Y-15500000D02*
X67000000Y-21000000D01*
X64000000Y-6500000D02*
X64000000Y-12500000D01*
X64000000Y-12500000D02*
X65000000Y-13500000D01*
%TO.N,Net-(J3-Pin_2)*%
X62000000Y-21000000D02*
X57720000Y-21000000D01*
X57720000Y-21000000D02*
X53230000Y-25490000D01*
X65000000Y-16000000D02*
X65000000Y-16500000D01*
X65000000Y-16500000D02*
X62000000Y-19500000D01*
X62000000Y-19500000D02*
X62000000Y-21000000D01*
X61500000Y-6500000D02*
X61500000Y-12500000D01*
X61500000Y-12500000D02*
X65000000Y-16000000D01*
%TD*%
M02*
