M48
METRIC
T1C0.500
T2C0.800
T3C0.950
T4C1.000
T5C2.300
T6C3.200
%
G90
G05
T1
X2.6Y-5.0
X2.6Y-75.0
X3.303Y-3.303
X3.303Y-6.697
X3.303Y-73.303
X3.303Y-76.697
X5.0Y-2.6
X5.0Y-7.4
X5.0Y-72.6
X5.0Y-77.4
X6.697Y-3.303
X6.697Y-6.697
X6.697Y-73.303
X6.697Y-76.697
X7.4Y-5.0
X7.4Y-75.0
X72.6Y-5.0
X72.6Y-75.0
X73.303Y-3.303
X73.303Y-6.697
X73.303Y-73.303
X73.303Y-76.697
X75.0Y-2.6
X75.0Y-7.4
X75.0Y-72.6
X75.0Y-77.4
X76.697Y-3.303
X76.697Y-6.697
X76.697Y-73.303
X76.697Y-76.697
X77.4Y-5.0
X77.4Y-75.0
T2
X19.25Y-46.0
X27.75Y-46.0
X58.0Y-59.25
X58.0Y-67.75
X62.0Y-21.0
X65.0Y-13.5
X65.0Y-16.0
X67.0Y-21.0
T3
X46.5Y-6.5
X49.0Y-6.5
X51.5Y-6.5
X54.0Y-6.5
X56.5Y-6.5
X59.0Y-6.5
X61.5Y-6.5
X64.0Y-6.5
T4
X48.15Y-25.49
X48.15Y-40.73
X50.69Y-25.49
X50.69Y-40.73
X53.23Y-25.49
X53.23Y-40.73
X55.77Y-25.49
X55.77Y-40.73
X58.31Y-25.49
X58.31Y-40.73
X60.85Y-25.49
X60.85Y-40.73
T5
X17.25Y-5.5
X17.25Y-50.5
X17.5Y-57.25
X17.5Y-69.75
X29.75Y-5.5
X29.75Y-50.5
X62.5Y-57.25
X62.5Y-69.75
T6
X5.0Y-5.0
X5.0Y-75.0
X75.0Y-5.0
X75.0Y-75.0
M30
